<svg xmlns="http://www.w3.org/2000/svg" viewBox="0 0 32 32" enable-background="new 0 0 32 32"><style type="text/css">.st0{fill:#FFFFFF;} .st1{fill:#3B5998;}</style><path class="st0" d="M32 28c0 2.2-1.8 4-4 4h-24c-2.2 0-4-1.8-4-4v-24c0-2.2 1.8-4 4-4h24c2.2 0 4 1.8 4 4v24z"/><path class="st1" d="M15.3 7.4c.1-.1.2-.1.3-.1.1 0 .2-.1.3-.1l.6-.2h.5l3 .2-.3 2.7-1.7-.1h-.3l-.2.1s-.1 0-.1.1l-.1.1s-.1.1-.1.1 0 .1-.1.1 0 .1 0 .2 0 .1 0 .2v1.7h2.5l-.4 2.7-2.1.1v7.8h-3.3v-7.9h-1.8v-2.7h1.7l.1-2.9v-.3c0-.1 0-.1 0-.2s0-.1.1-.1c0-.1.1-.2.1-.3 0-.1.1-.2.2-.3.1-.1.1-.2.2-.2.1-.1.1-.2.2-.2.1-.1.7-.5.7-.5z"/></svg>