<svg xmlns="http://www.w3.org/2000/svg" viewBox="0 0 32 32" enable-background="new 0 0 32 32"><style type="text/css">.st0{fill:#FFFFFF;} .st1{fill:#CB2027;}</style><path class="st0" d="M32 28c0 2.2-1.8 4-4 4h-24c-2.2 0-4-1.8-4-4v-24c0-2.2 1.8-4 4-4h24c2.2 0 4 1.8 4 4v24z"/><path class="st1" d="M25.2 14.1h-2.4v-2.5c0-.2-.1-.3-.3-.3h-.7c-.2 0-.3.2-.3.3v2.5h-2.5c-.2 0-.3.2-.3.3v.7c0 .2.1.3.3.3h2.4v2.6c0 .2.1.3.3.3h.7c.2 0 .3-.2.3-.3v-2.5h2.4c.2 0 .3-.2.3-.3v-.7c.1-.3 0-.4-.2-.4zm-8.1 2.2c-.5-.4-1-.9-1-1.1 0-.3 0-.5.7-1 .9-.7 1.3-1.6 1.3-2.6 0-.9-.3-1.7-.7-2.2h.3c.1 0 .1 0 .2-.1l.9-.7c.2-.1.3-.2.2-.4 0-.1-.2-.2-.3-.2h-4.2c-.5 0-1 .1-1.5.3-1.5.6-2.6 1.9-2.6 3.3 0 2 1.5 3.5 3.5 3.6 0 .2-.1.3-.1.5 0 .3.1.6.2.9 0 0 0 0-.1 0-1.9 0-3.6 1-4.2 2.4-.2.4-.3.8-.3 1.1 0 .4.1.7.3 1 .4.8 1.3 1.4 2.5 1.7.6.2 1.3.2 1.9.2.6 0 1.2-.1 1.7-.2 1.7-.5 2.8-1.8 2.8-3.3.1-1.5-.4-2.3-1.5-3.2zm-5.4 3.3c0-1 1.3-2 2.7-2 .3 0 .6.1.9.1.1.1.2.1.3.2.7.5 1.1.8 1.2 1.3 0 .1 0 .3 0 .4 0 1.3-.9 2-2.8 2-1.2 0-2.3-.9-2.3-2zm1.3-9.9c.2-.3.5-.4.9-.4.9 0 1.8 1.1 2 2.4.1.7-.1 1.4-.4 1.8-.2.4-.5.5-.9.5-.9 0-1.8-1.2-2-2.5-.1-.7.1-1.3.4-1.8z"/></svg>