<svg xmlns="http://www.w3.org/2000/svg" viewBox="0 0 32 32" enable-background="new 0 0 32 32"><style type="text/css">.st0{fill:#FFFFFF;} .st1{fill:#BD2729;}</style><path class="st0" d="M32 28c0 2.2-1.8 4-4 4h-24c-2.2 0-4-1.8-4-4v-24c0-2.2 1.8-4 4-4h24c2.2 0 4 1.8 4 4v24z"/><path class="st1" d="M16.4 9c-4.2 0-6.4 3.1-6.4 5.7 0 1.6.6 3 1.8 3.5.2.1.4 0 .4-.2s.1-.6.2-.7c.1-.2 0-.3-.1-.5-.4-.4-.6-1-.6-1.8 0-2.3 1.7-4.4 4.4-4.4 2.4 0 3.7 1.5 3.7 3.5 0 2.6-1.1 4.9-2.8 4.9-.9 0-1.6-.8-1.4-1.8.3-1.2.8-2.4.8-3.3 0-.8-.4-1.4-1.2-1.4-1 0-1.7 1-1.7 2.4 0 .9.3 1.5.3 1.5s-1 4.3-1.1 5c-.3 1.5-.1 3.3 0 3.5 0 .1.1.1.2.1.1-.1 1.2-1.6 1.6-3 .1-.4.6-2.5.6-2.5.3.6 1.2 1.1 2.2 1.1 2.9 0 4.8-2.7 4.8-6.3-.1-2.8-2.3-5.3-5.7-5.3z"/></svg>