<svg xmlns="http://www.w3.org/2000/svg" viewBox="0 0 32 32" enable-background="new 0 0 32 32"><style type="text/css">.st0{fill:#FFFFFF;} .st1{fill:#00ACED;}</style><path class="st0" d="M32 28c0 2.2-1.8 4-4 4h-24c-2.2 0-4-1.8-4-4v-24c0-2.2 1.8-4 4-4h24c2.2 0 4 1.8 4 4v24z"/><path class="st1" d="M25 10.5c-.6.3-1.2.4-1.9.5.7-.4 1.2-1 1.4-1.8-.6.4-1.3.6-2.1.8-.6-.6-1.5-1-2.4-1-1.8 0-3.3 1.5-3.3 3.3 0 .3 0 .5.1.7-2.7-.1-5.1-1.4-6.8-3.4-.3.5-.4 1-.4 1.6 0 1.1.6 2.1 1.5 2.7-.5 0-1-.2-1.5-.4 0 1.6 1.1 2.9 2.6 3.2-.3.1-.6.1-.9.1-.2 0-.4 0-.6-.1.4 1.3 1.6 2.3 3.1 2.3-1.1.9-2.5 1.4-4.1 1.4-.3 0-.5 0-.8 0 1.5.9 3.2 1.5 5 1.5 6 0 9.3-5 9.3-9.3 0-.1 0-.3 0-.4.8-.4 1.4-1 1.8-1.7z"/></svg>