<svg xmlns="http://www.w3.org/2000/svg" width="100" height="100" viewBox="0 0 100 100"><path d="M12 17.76c-2.2 0-4 1.8-4 4v55.703c0 2.2 1.8 4 4 4h75.96c2.2 0 4-1.8 4-4v-55.703c0-2.2-1.8-4-4-4 0 0-75.96 0-75.96 0zm57.323 35.836c-1.566-1.545-3.796-1.848-4.955-.674-1.159 1.175-.826 3.4.74 4.945l10.932 10.787c1.566 1.545 1.047 2.809-1.153 2.809h-49.815c-2.2 0-2.719-1.264-1.153-2.809l10.932-10.786c1.566-1.545 1.899-3.771.74-4.945-1.159-1.175-3.388-.871-4.954.674l-9.79 9.66c-1.566 1.543-2.847 1.008-2.847-1.192v-23.688c0-2.2 1.307-2.763 2.905-1.25l26.562 25.139c1.598 1.512 4.196 1.495 5.773-.039l25.852-25.135c1.577-1.534 2.868-.988 2.868 1.212v23.761c0 2.2-1.281 2.736-2.847 1.191 0 0-9.79-9.66-9.79-9.66zm-40.861-23.087c-1.598-1.512-1.105-2.75 1.095-2.75h40.787c2.2 0 2.709 1.255 1.132 2.788l-18.33 17.821c-1.577 1.534-4.175 1.551-5.773.039l-18.911-17.898z"/></svg>