<svg xmlns="http://www.w3.org/2000/svg" viewBox="-293 385 24 24" enable-background="new -293 385 24 24"><path d="M-292 389.4v15.4h4.4v-15.4h-4.4zm2.2 14.3c-.7 0-1.1-.4-1.1-1.1s.4-1.1 1.1-1.1c.7 0 1.1.4 1.1 1.1s-.4 1.1-1.1 1.1zm1.1-5.5h-2.2v-7.7h2.2v7.7zm2.2-8.8v15.4h4.4v-15.4h-4.4zm2.2 14.3c-.7 0-1.1-.4-1.1-1.1s.4-1.1 1.1-1.1c.7 0 1.1.4 1.1 1.1s-.4 1.1-1.1 1.1zm1.1-5.5h-2.2v-7.7h2.2v7.7zm1.7-6.8l7.7 13.3 3.9-2.2-7.7-13.3-3.9 2.2zm9.1 11.3c-.5.3-1.2.2-1.5-.4-.3-.5-.2-1.2.4-1.5.6-.3 1.2-.2 1.5.4.2.6.1 1.1-.4 1.5zm-1.9-5.3l-1.9 1.1-3.9-6.7 1.9-1.1 3.9 6.7z"/></svg>