<svg xmlns="http://www.w3.org/2000/svg" width="16" height="16" viewBox="0 0 16 16"><path d="M14.391 7.562l-2.798-4.624c-.145-.241-.504-.438-.795-.438h-5.594c-.291 0-.65.197-.795.438l-2.8 4.624c-.146.24-.146.637 0 .876l2.799 4.623c.144.24.504.439.795.439h5.594c.291 0 .65-.197.795-.439l2.799-4.623c.145-.241.145-.636 0-.876zm-6.458 3.391c-.575 0-1.008-.432-1.008-.869 0-.422.37-.895 1.008-.895.629 0 1.053.412 1.053.895 0 .473-.408.869-1.053.869zm.762-2.953h-1.351l-.385-2.531c0-.953 2.114-.969 2.114 0l-.378 2.531z"/></svg>