<svg xmlns="http://www.w3.org/2000/svg" width="16" height="16" viewBox="0 0 16 16"><path d="M5.8 8.8v-.5c.4 0 .6-.2.8-.3.2-.2.3-.4.3-.7 0-1.2-1.8-1.1-1.8-1.8 0-.2.2-.4.6-.4.5 0 .8.1 1 .3v-.8c-.2-.1-.5-.1-.9-.1v-.5h-.4v.5c-.3 0-.6.1-.8.3-.2.2-.3.5-.3.7 0 1.1 1.9 1.1 1.9 1.8 0 .2-.3.4-.6.4-.6 0-1.1-.3-1.2-.4v.7c.3.2.7.2 1 .2v.6s.4 0 .4 0zm.6-7.9c-1.5 0-2.8.7-3.6 1.8-1.2.9-1.9 2.2-1.9 3.7 0 2.5 2.1 4.6 4.7 4.6.7 0 1.4-.2 2-.5.1-.4.2-.7.4-1.1-.7.6-1.5.9-2.4.9-2.2 0-3.9-1.8-3.9-3.9s1.8-3.9 3.9-3.9 3.9 1.8 3.9 3.9c0 .7-.2 1.4-.5 1.9.5-.3 1-.6 1.6-.7.2-.6.4-1.3.4-2.1 0-2.5-2.1-4.6-4.6-4.6zm3.9 4.7c0 .3 0 .5-.1.8v-.1c0-2.5-2-4.4-4.3-4.6-.1 0-.2 0-.3 0h-.1c.3 0 .6-.1.9-.1 2.2 0 3.9 1.8 3.9 4 0-.1 0 0 0 0z"/><path opacity=".5" d="M11.3 7.8c-1.9 0-3.5 1.6-3.5 3.5s1.6 3.5 3.5 3.5 3.5-1.6 3.5-3.5-1.6-3.5-3.5-3.5zm-.6 4.3c0 .1-.1.2-.2.2h-.6c-.4 0-.8-.4-.8-.8v-.1h-.6v-.3h.6v-.1c0-.4.4-.8.8-.8h.6s.1.1.2.2v1.7zm2.7-.7c0 .5-.4.9-.8.9h-.6c-.1 0-.2-.1-.2-.2v-.3h-.6v-.3h.6v-.5h-.6v-.3h.6v-.3c0-.1.1-.2.2-.2h.6c.4 0 .8.4.8.8l.6.1v.3h-.6z"/></svg>