<svg xmlns="http://www.w3.org/2000/svg" width="16" height="16" viewBox="0 0 16 16"><path opacity=".5" class="st0" d="M11.3 7.8c-1.9 0-3.5 1.6-3.5 3.5s1.6 3.5 3.5 3.5 3.5-1.6 3.5-3.5-1.6-3.5-3.5-3.5zm-.6 4.3c0 .1-.1.2-.2.2h-.6c-.4 0-.8-.4-.8-.8v-.1h-.6v-.3h.6v-.1c0-.4.4-.8.8-.8h.6s.1.1.2.2v1.7zm2.7-.7c0 .5-.4.9-.8.9h-.6c-.1 0-.2-.1-.2-.2v-.3h-.6v-.3h.6v-.5h-.6v-.3h.6v-.3c0-.1.1-.2.2-.2h.6c.4 0 .8.4.8.8l.6.1v.3h-.6z"/><path d="M6 2.8c-.9 0-1.6.7-1.6 1.7 0 .9.7 2 1.2 2.5.2.2.4.4.4.4s.2-.3.4-.5c.5-.5 1.2-1.6 1.2-2.5 0-.9-.7-1.6-1.6-1.6zm0 2.4c-.4 0-.7-.3-.7-.7-.1-.5.3-.8.7-.8s.7.3.7.7c0 .4-.3.8-.7.8z"/><circle cx="1.9" cy="1.9" r=".9"/><circle cx="3.2" cy="1.9" r=".2"/><circle cx="4.2" cy="1.9" r=".2"/><circle cx="5.1" cy="1.9" r=".2"/><circle cx="6" cy="1.9" r=".2"/><circle cx="6.9" cy="1.9" r=".2"/><circle cx="7.8" cy="1.9" r=".2"/><circle cx="8.7" cy="1.9" r=".2"/><circle cx="9.6" cy="1.9" r=".2"/><circle cx="10.5" cy="1.9" r=".2"/><circle cx="10.5" cy="2.8" r=".2"/><circle cx="10.5" cy="3.7" r=".2"/><circle cx="10.5" cy="5.1" r=".9"/><circle cx="10.5" cy="6.5" r=".2"/><circle cx="1.4" cy="7.4" r=".2"/><circle cx="2.3" cy="7.4" r=".2"/><circle cx="3.2" cy="7.4" r=".2"/><circle cx="4.2" cy="7.4" r=".2"/><circle cx="5.1" cy="7.4" r=".2"/><circle cx="6.9" cy="7.4" r=".2"/><circle cx="7.8" cy="7.4" r=".2"/><circle cx="8.7" cy="7.4" r=".2"/><circle cx="9.6" cy="7.4" r=".2"/><circle cx="10.5" cy="7.4" r=".2"/><circle cx="1.4" cy="8.3" r=".2"/><circle cx="1.4" cy="9.2" r=".2"/><circle cx="2.3" cy="11" r=".2"/><circle cx="3.2" cy="11" r=".2"/><circle cx="4.2" cy="11" r=".2"/><circle cx="5.1" cy="11" r=".2"/><circle cx="6" cy="11" r=".2"/><circle cx="6.9" cy="11" r=".2"/><circle cx="1.4" cy="11" r=".2"/><circle cx="1.4" cy="10.1" r=".2"/></svg>