<svg xmlns="http://www.w3.org/2000/svg" width="16" height="16" viewBox="0 0 16 16"><path d="M8.1 9.3c.2-.3.5-.7.8-.9h-1c-.3 0-.6.1-.7.2v-5.9c0-.4.4-.7.7-.7h3.4v5.6c.3 0 .6.1.9.1v-6.7h-4.3c-.5 0-.9.2-1.3.6-.4-.4-.8-.6-1.3-.6h-4.3v8.3h4.3c.4 0 .7.4.7.7h1.1c0-.4.4-.7.7-.7 0 0 .3 0 .3 0zm-2-.8c-.2-.1-.5-.2-.8-.2h-3.4v-6.4h3.4c.4 0 .7.4.7.7v5.9h.1zm-3.3-5.7h2.3v.9h-2.3v-.9zm0 1.9h2.3v.9h-2.3v-.9zm0 1.8h2.3v.9h-2.3v-.9zm5.3-3.7h2.3v.9h-2.3v-.9zm0 1.9h2.3v.9h-2.3v-.9zm0 1.8h2.3v.9h-2.3v-.9z"/><path class="st0" opacity=".5" d="M11.3 7.8c-1.9 0-3.5 1.6-3.5 3.5s1.6 3.5 3.5 3.5 3.5-1.6 3.5-3.5-1.6-3.5-3.5-3.5zm-.6 4.3c0 .1-.1.2-.2.2h-.6c-.4 0-.8-.4-.8-.8v-.1h-.6v-.3h.6v-.1c0-.4.4-.8.8-.8h.6s.1.1.2.2v1.7zm2.7-.7c0 .5-.4.9-.8.9h-.6c-.1 0-.2-.1-.2-.2v-.3h-.6v-.3h.6v-.5h-.6v-.3h.6v-.3c0-.1.1-.2.2-.2h.6c.4 0 .8.4.8.8l.6.1v.3h-.6z"/></svg>