<svg xmlns="http://www.w3.org/2000/svg" width="100" height="100" viewBox="0 0 100 100"><path d="M50 5.456c-24.639 0-44.613 19.974-44.613 44.613s19.974 44.612 44.613 44.612 44.613-19.974 44.613-44.613-19.974-44.612-44.613-44.612zm31.534 47.083c0 2.2-1.8 4-4 4h-34.625l8.015 8.015c1.556 1.556 1.556 4.101 0 5.657l-3.494 3.494c-1.556 1.556-4.101 1.556-5.657 0l-20.478-20.479c-.861-.861-1.228-2.025-1.135-3.157-.093-1.132.274-2.296 1.135-3.157l20.479-20.479c1.556-1.556 4.101-1.556 5.657 0l3.494 3.494c1.556 1.556 1.556 4.101 0 5.657l-8.015 8.015h34.625c2.2 0 4 1.8 4 4v4.94z"/></svg>