<svg xmlns="http://www.w3.org/2000/svg" width="60" height="60" viewBox="0 0 60 60"><path fill="#999" d="M39.459 37.161c-1.729 1.063-3.654 1.834-5.704 2.26-.899.991-2.192 1.615-3.633 1.615s-2.734-.627-3.633-1.618c-2.049-.426-4.096-1.202-5.825-2.264-5.56 2.93-9.612 8.397-10.664 14.846h40c-.947-6-4.98-11.908-10.541-14.839z"/><path fill="#939393" stroke="#000" stroke-width="1.558" stroke-miterlimit="10" d="M28.862 35.47"/><path fill="#999" d="M49.479 23.134c0-2.449-1.689-4.495-3.979-5.011-1.738-6.96-8.063-12.123-15.559-12.123-7.497 0-13.803 5.12-15.532 12.144-2.24.551-3.877 2.575-3.877 4.99 0 2.839 2.426 5.147 5.265 5.147.145 0 1.204-.212 1.204-.212v-9.11c1-5.92 6.599-10.419 12.958-10.419 6.485 0 11.041 4.577 13.041 10.682v5.474c-1 5.067-4.903 9.098-9.881 10.329-.454-1.261-1.618-2.169-3.034-2.169-1.805 0-3.255 1.467-3.255 3.271 0 1.804 1.479 3.272 3.283 3.272 1.242 0 2.321-.701 2.875-1.722 5.336-.994 9.674-4.592 11.715-9.417 2.653-.208 4.776-2.426 4.776-5.126zm-22.532 9.004c.874-.698 1.973-1.123 3.176-1.123 1.216 0 2.327.433 3.205 1.145 4.395-1.347 7.591-5.433 7.591-10.268 0-5.932-4.811-10.74-10.745-10.74s-10.744 4.809-10.744 10.741c0 4.807 3.16 8.875 7.517 10.245z"/><path d="M33.458 34.928c.283.317.513.685.662 1.097 4.977-1.232 8.88-5.262 9.88-10.329v-5.474c-.972-2.966-2.551-5.565-4.658-7.46 1.609 1.77 2.847 3.985 3.658 6.46v5.474c-.977 4.95-4.729 8.905-9.542 10.232zm-5.627 2.199c0-1.804 1.45-3.271 3.255-3.271.63 0 1.204.187 1.694.498-.573-.896-1.547-1.498-2.694-1.498-1.805 0-3.255 1.467-3.255 3.271 0 1.155.61 2.167 1.52 2.75-.325-.507-.52-1.106-.52-1.75zm-16.3-12.993c0-2.415 1.638-4.439 3.877-4.99 1.73-7.024 8.036-12.144 15.533-12.144 4.183 0 7.999 1.61 10.859 4.241-2.937-3.219-7.169-5.241-11.859-5.241-7.497 0-13.803 5.12-15.532 12.144-2.24.551-3.877 2.575-3.877 4.99 0 1.643.815 3.105 2.05 4.048-.654-.855-1.051-1.907-1.051-3.048zm8.899-1.241c0-5.932 4.811-10.74 10.745-10.74 2.713 0 5.185 1.013 7.076 2.672-1.969-2.247-4.853-3.672-8.076-3.672-5.934 0-10.745 4.809-10.745 10.74 0 3.202 1.407 6.071 3.631 8.038-1.639-1.885-2.631-4.346-2.631-7.038zm1.236 15.261c1.729 1.063 3.775 1.838 5.825 2.264.899.991 2.192 1.618 3.633 1.618s2.734-.624 3.633-1.615c2.05-.426 3.974-1.196 5.704-2.26 1.486.784 2.859 1.785 4.098 2.939-1.481-1.582-3.197-2.938-5.098-3.939-1.729 1.063-3.654 1.834-5.704 2.26-.899.991-2.192 1.615-3.633 1.615s-2.734-.627-3.633-1.618c-2.049-.426-4.096-1.202-5.825-2.264-5.562 2.93-9.614 8.397-10.666 14.846h1.194c1.29-6.011 5.201-11.068 10.472-13.846z" fill="#666"/></svg>