<svg xmlns="http://www.w3.org/2000/svg" width="100" height="100" viewBox="0 0 100 100"><circle fill="#FFE75C" stroke="#E5CE00" stroke-miterlimit="10" cx="72.103" cy="74.176" r="6.96"/><circle fill="#FFE75C" stroke="#E5CE00" stroke-miterlimit="10" cx="33.875" cy="74.176" r="6.96"/><path fill="#FFE75C" d="M31.804 33.3c-2.2 0-4.405-1.754-4.9-3.897l-.688-2.981c-.495-2.144-2.624-4.415-4.731-5.047l-4.538-1.361c-2.107-.632-4.322.487-4.922 2.487s.633 4.154 2.741 4.786l.386.116c2.107.632 4.238 2.903 4.734 5.046l6.409 27.665c.496 2.143 2.703 3.897 4.903 3.897h42.343c2.2 0 4.633-1.685 5.406-3.745l8.718-23.221c.773-2.06-.394-3.745-2.594-3.745h-53.267z"/><path fill="none" stroke="#E5CE00" stroke-miterlimit="10" d="M31.804 33.3c-2.2 0-4.405-1.754-4.9-3.897l-.688-2.981c-.495-2.144-2.624-4.415-4.731-5.047l-4.538-1.361c-2.107-.632-4.322.487-4.922 2.487s.633 4.154 2.741 4.786l.386.116c2.107.632 4.238 2.903 4.734 5.046l6.409 27.665c.496 2.143 2.703 3.897 4.903 3.897h42.343c2.2 0 4.633-1.685 5.406-3.745l8.718-23.221c.773-2.06-.394-3.745-2.594-3.745h-53.267z"/><path d="M52.451 43.69c-.082-.458-.254-.828-.517-1.108-.262-.28-.579-.386-.951-.319-.372.065-.631.276-.775.634-.145.356-.177.761-.096 1.211l.163.915c.08.45.251.814.513 1.091.262.275.582.38.962.312.364-.064.62-.27.767-.614.146-.344.179-.746.098-1.205l-.164-.917zm-9.122 7.727c-.422-.538-.883-.761-1.381-.672-.468.083-.853.236-1.156.457-.304.222-.528.496-.675.823l.243 1.362c.241 1.352.606 2.359 1.097 3.022.489.662 1.043.938 1.66.828.507-.091.857-.484 1.051-1.184.194-.7.211-1.499.051-2.4-.171-.954-.468-1.701-.89-2.236zm25.6-4.792c-1.864-10.453-11.849-17.417-22.304-15.554-10.453 1.864-17.417 11.849-15.554 22.304 1.864 10.454 11.849 17.418 22.303 15.554 10.454-1.864 17.418-11.849 15.555-22.304zm-21.988 10.966c-.74 1.297-1.855 2.077-3.344 2.343-1.599.285-3.005-.102-4.219-1.158-1.214-1.059-2.012-2.664-2.396-4.816l-.635-3.563c-.399-2.24-.144-4.118.767-5.633.91-1.513 2.256-2.428 4.037-2.746.562-.1 1.086-.131 1.57-.09.485.04.99.14 1.518.299l-.115 2.655c-.452-.108-.862-.176-1.23-.204-.368-.027-.782-.002-1.241.08-.824.147-1.416.639-1.777 1.476s-.408 1.937-.14 3.301l.056.041c.245-.413.591-.764 1.037-1.056s.967-.491 1.56-.597c1.307-.232 2.423.136 3.352 1.105s1.546 2.313 1.853 4.03c.305 1.726.089 3.237-.653 4.533zm2.469-9.792c-.714-.568-1.162-1.362-1.344-2.383l-.163-.915c-.182-1.021-.039-1.924.43-2.71.468-.786 1.236-1.273 2.306-1.464 1.084-.193 1.979-.005 2.686.567.707.572 1.152 1.374 1.336 2.402l.163.915c.183 1.028.041 1.929-.425 2.702-.467.774-1.234 1.256-2.304 1.446-1.076.194-1.971.006-2.685-.56zm2.885 8.073l4.727-14.785 1.748.596-4.728 14.783-1.747-.594zm11.093-.52c-.466.777-1.233 1.262-2.302 1.452-1.076.191-1.974.004-2.691-.563-.718-.565-1.168-1.363-1.352-2.392l-.162-.915c-.182-1.013-.036-1.913.437-2.7.473-.786 1.243-1.274 2.312-1.465 1.085-.193 1.98-.004 2.687.568.707.572 1.15 1.369 1.333 2.39l.162.915c.182 1.029.042 1.933-.424 2.71zm-1.949-3.23c-.08-.45-.252-.817-.514-1.097-.263-.279-.58-.387-.951-.32-.381.068-.642.277-.782.629-.142.353-.172.755-.092 1.205l.163.915c.079.442.26.806.544 1.091.283.285.594.392.934.323.437-.07.712-.267.826-.589.113-.321.126-.736.035-1.242l-.163-.915z" fill="#465150"/></svg>