<svg xmlns="http://www.w3.org/2000/svg" width="50" height="50" viewBox="0 0 50 50"><circle cx="29" cy="26.7" r="1.6"/><circle cx="22.6" cy="26.7" r="1.6"/><path d="M17.9 15.9l.6.2c.4.2.6.4.8.8l1.6 7c0 .4.4.6.8.6h7.8c.4 0 .8-.2.8-.6l2.3-5.9c.2-.4 0-.6-.4-.6h-10.2c-.4 0-.8-.2-.8-.6l-.4-1.2c0-.4-.4-.8-.8-.8l-1.6-.4c-.4-.2-.8 0-.8.4l-.2.4c.1.1.3.5.5.7zm25.2-11.1h-36c-2.3 0-4.1 1.9-4.1 4.1v23.9c0 2.3 1.8 4.2 4.1 4.2h14.1v4.1h-4.1v4.1h16v-4.1h-4.1v-4.1h13.9c2.3 0 4.1-1.8 4.1-4.1v-24c.2-2.2-1.7-4.1-3.9-4.1zm0 28.1h-36v-24h36v24z"/></svg>