<svg xmlns="http://www.w3.org/2000/svg" viewBox="0 0 400 378.8" enable-background="new 0 0 400 378.8"><path class="st0" opacity=".2" d="M232.7 275.7c.2-1.2.2-2.9 0-5.2l-1.3-11.5-22.4-33.9c-1-1.6-1.8-2.6-2.9-3.4-.8-.5-1.6-1-2.1-1.3l-1-.3-1.8-16.5 28.3-2.6 1.3 11.8c.3 2.4.5 4.2 1 5.8.5 1.6 1 2.9 1.8 4.2l6 8.9 4.2-10c.5-1.3.8-2.9 1-4.5.3-1.6 0-3.7 0-6l-1.3-11.8 27.5-2.9 2 16.5-.8.5c-.8.3-1.3.8-1.8 1.6-.8.8-1.3 2.1-2.1 3.7l-14.7 37.8 1.3 11.5c.3 3.1.8 5 1.6 6 .5.8 1.6 1.3 3.1 1.3h1v.3h40.9l-24.6-235.8-270.3 28.3 28.3 270.6 182.8-19.3v-43.9h15zm-59.6-179.7c.3-4.2 1.3-7.1 2.9-10.5 2.4-5.5 6.6-9.4 13.4-13.1 6-3.1 14.4-5.2 24.7-6.3 7.1-.5 14.2-.5 21.5.3 7.3.8 14.7 2.6 21.8 5l.8.3 3.7 34.4-31.5 2.6-.3-2.1c-.5-5.2-1.8-8.7-4.2-11-2.1-2.1-5.2-3.1-9.4-2.6s-7.3 2.1-8.9 5c-1.8 3.1-2.1 7.3-1.6 13.4l4.2 40.6c.8 6.3 2.1 10.2 4.5 12.8 2.4 2.4 5.5 3.4 10 2.9 7.3-.8 12.8-3.1 14.9-5.5l-1.6-15.5-14.9 1.6-2.4-23.3 43-4.5 6 56.1-.5.5c-5.8 4.7-12.1 8.7-19.1 11.5-6.8 2.9-14.2 5.8-22 6.6-10.2 1-18.4-.3-23.6-1.6-6.6-1.3-11.8-4.2-15.7-8.4l-.8-.8c-2.6-2.6-4.5-4.5-6-8.9-1.6-4.5-2.9-11.3-3.9-21.2l-3.9-38.6c-1.1-9.2-1.4-15.2-1.1-19.7zm.5 89.7c.5 4.5-.5 8.4-3.4 11.8-2.6 3.4-6.3 5.2-10.8 5.8-4.5.3-8.4-.8-11.8-3.7-1.8-1.4-3.2-3.1-4.2-4.9-1-1.8-1.6-3.8-1.8-5.9-.1-1.1 0-2.2.1-3.2.3-3.1 1.5-6 3.6-8.6 2.9-3.4 6.6-5.5 10.8-5.5 4.5-.5 8.4.5 11.8 3.4 3.4 2.7 5.2 6.4 5.7 10.8zm-40.4-108.5c2.9-3.4 6.8-5.5 12.3-6 5.2-.8 10 .5 13.4 3.1 3.7 2.9 5.5 6.3 6 11.5v7.3l-1.3 69.2-17 1.8-.3-1-15.5-66.9c-.3-1.6-.5-2.6-.8-3.9v-.8l-.3-1.8c-.4-5.2.6-8.9 3.5-12.5zm62.7 152.1l3.9 38c1.3 12.1-.3 19.7-5 26-4.5 6-12.6 9.7-24.7 11-12.1 1.3-20.7-.8-26.5-5.5-6-5.2-9.2-12.3-10.5-24.4l-3.9-38c-.3-2.9-.8-4.5-1.6-5.5-.5-.8-1.8-1.6-3.9-1.8l-1-.3-1.8-16.3 35.4-2.1 1.6 14.9-.8.5c-1.6.8-2.4 1.6-2.9 2.9-.5 1.3-.5 3.7-.3 7.3l3.9 36.5c.5 4.5 1.6 7.3 3.1 9.4 1.6 1.8 3.1 2.6 6.3 2.1l.8-.5c3.1-.3 4.7-1.3 5.8-3.4 1.3-2.4 1.6-5.2 1-10l-3.7-36.2c-.5-3.9-1-6-1.8-7.3-.8-1-1.8-1.8-3.4-2.1l-1-.3-1.6-14.9 35.1-5.2 1.8 16.3-.8.5c-1.8.8-2.9 1.8-3.4 2.6-.4 1-.4 2.6-.1 5.8z"/><path d="M199.6 220.9l.8-.5-1.8-16.3-35.1 5.2 1.6 14.9 1 .3c1.6.3 2.6 1 3.4 2.1.8 1.3 1.3 3.4 1.8 7.3l3.7 36.2c.5 4.7.3 7.6-1 10-1 2.1-2.6 3.1-5.8 3.4l-.8.5c-3.1.5-4.7-.3-6.3-2.1-1.6-2.1-2.6-5-3.1-9.4l-3.9-36.5c-.3-3.7-.3-6 .3-7.3.5-1.3 1.3-2.1 2.9-2.9l.8-.5-1.6-14.9-35.4 2.1 1.8 16.3 1 .3c2.1.3 3.4 1 3.9 1.8.8 1 1.3 2.6 1.6 5.5l3.9 38c1.3 12.1 4.5 19.1 10.5 24.4 5.8 4.7 14.4 6.8 26.5 5.5 12.1-1.3 20.2-5 24.7-11 4.7-6.3 6.3-13.9 5-26l-3.9-38c-.3-3.1-.3-4.7.3-5.8.3-.8 1.3-1.8 3.2-2.6zm-82.6-19.2c6-2.9 10.5-6.6 13.6-11.5l.5-.8c1.8-3.1 3.4-5.5 3.9-10 .5-5 1.3-5.5 1-9.7-.8-8.4-3.1-14.4-7.3-19.7-3.4-4.2-7.9-7.1-13.6-8.7 4.2-2.6 7.6-6 9.7-10.5 2.9-5.5 3.7-11.3 2.9-18.6-1.3-11.8-5.2-18.9-13.6-24.4-7.6-5-19.4-6.8-34.9-5.2l-48.8 5.2 2.4 21.8 1 .3c2.1.3 3.7 1 4.7 2.1 1 1.3 1.6 3.9 2.1 8.7l6 58.2c.5 4.7.5 7.3-.3 8.9-.5 1.3-2.1 2.4-4.2 2.9l-1 .3 2.4 22.3 50.9-5c10.2-1.1 17.8-4.2 22.6-6.6zm-44.4-91.5l7.9-.8c5.2-.5 9.2 0 11.5 1.6 2.4 1.8 3.7 4.2 3.9 8.4.5 4.2-.5 6.3-2.1 8.1-1.8 1.8-5.5 3.1-11 3.9l-7.9.8-2.3-22zm8.2 73.4l-2.9-26.5 8.7-.8c5.5-.8 9.7-.3 12.3 1.8 2.9 2.1 4.2 5 4.7 9.7.5 4.7-.3 7.9-2.4 10.2-2.1 2.4-5.8 3.9-11.3 4.5l-9.1 1.1zm97-29.3c1 10 2.4 16.8 3.9 21.2 1.6 4.5 3.4 6.3 6 8.9l.8.8c3.9 4.2 9.2 7.1 15.7 8.4 5.2 1.3 13.4 2.6 23.6 1.6 7.9-.8 15.2-3.7 22-6.6 7.1-2.9 13.4-6.8 19.1-11.5l.5-.5-6-56.1-43 4.5 2.4 23.3 14.9-1.6 1.6 15.5c-2.1 2.4-7.6 4.7-14.9 5.5-4.5.5-7.6-.5-10-2.9-2.4-2.6-3.7-6.6-4.5-12.8l-4.2-40.6c-.5-6-.3-10.2 1.6-13.4 1.6-2.9 4.7-4.5 8.9-5s7.3.5 9.4 2.6c2.4 2.4 3.7 5.8 4.2 11l.3 2.1 31.5-2.6-3.7-34.4-.8-.3c-7.1-2.4-14.4-4.2-21.8-5-7.3-.8-14.4-.8-21.5-.3-10.2 1-18.6 3.1-24.7 6.3-6.8 3.7-11 7.6-13.4 13.1-1.6 3.4-2.6 6.3-2.9 10.5-.3 4.5 0 10.5.8 19.7l4.2 38.6zm-47.7-62.7v.8c.3 1.3.5 2.4.8 3.9l15.5 66.9.3 1 17-1.8 1.3-69.2v-7.3c-.5-5.2-2.4-8.7-6-11.5-3.4-2.6-8.1-3.9-13.4-3.1-5.5.5-9.4 2.6-12.3 6-2.9 3.7-3.9 7.3-3.4 12.6l.2 1.7zm129.5 183.8c-1.6 0-2.6-.5-3.1-1.3-.8-1-1.3-2.9-1.6-6l-1.3-11.5 14.7-37.8c.8-1.6 1.3-2.9 2.1-3.7.5-.8 1-1.3 1.8-1.6l.8-.5-1.8-16.5-27.5 2.9 1.3 11.8c0 2.4.3 4.5 0 6-.3 1.6-.5 3.1-1 4.5l-4.2 10-6-8.9c-.8-1.3-1.3-2.6-1.8-4.2s-.8-3.4-1-5.8l-1.3-11.8-28.3 2.6 1.8 16.5 1 .3c.5.3 1.3.8 2.1 1.3 1 .8 1.8 1.8 2.9 3.4l22.3 33.8 1.3 11.5c.2 2.3.2 4.1 0 5.2h28v-.3h-1.2zm-103.6-103.8c-4.2 0-7.9 2.1-10.8 5.5-2.2 2.6-3.3 5.4-3.6 8.6-.1 1-.1 2.1-.1 3.2.3 2.1.9 4.1 1.8 5.9 1 1.8 2.4 3.4 4.2 4.9 3.4 2.9 7.3 3.9 11.8 3.7 4.5-.5 8.1-2.4 10.8-5.8 2.9-3.4 3.9-7.3 3.4-11.8-.5-4.5-2.4-8.1-5.8-10.8-3.3-2.9-7.2-4-11.7-3.4zm43.6 49.3l.8-.5-1.8-16.3-35.1 5.2 1.6 14.9 1 .3c1.6.3 2.6 1 3.4 2.1.8 1.3 1.3 3.4 1.8 7.3l3.7 36.2c.5 4.7.3 7.6-1 10-1 2.1-2.6 3.1-5.8 3.4l-.8.5c-3.1.5-4.7-.3-6.3-2.1-1.6-2.1-2.6-5-3.1-9.4l-3.9-36.5c-.3-3.7-.3-6 .3-7.3.5-1.3 1.3-2.1 2.9-2.9l.8-.5-1.6-14.9-35.4 2.1 1.8 16.3 1 .3c2.1.3 3.4 1 3.9 1.8.8 1 1.3 2.6 1.6 5.5l3.9 38c1.3 12.1 4.5 19.1 10.5 24.4 5.8 4.7 14.4 6.8 26.5 5.5 12.1-1.3 20.2-5 24.7-11 4.7-6.3 6.3-13.9 5-26l-3.9-38c-.3-3.1-.3-4.7.3-5.8.3-.8 1.3-1.8 3.2-2.6zm-78.8 45.6c-2.6-3.1-5.8-5.2-9.7-6.6 2.9-1.8 5.2-4.5 6.8-7.6 2.1-4.2 2.9-8.7 2.4-14.2-1-8.9-3.9-14.7-10.2-18.6-5.5-3.7-13.6-4.7-26.2-3.4l-39.3 4.2 1.8 16.5h1c1.6.3 2.6.8 3.1 1.6.8 1 1 2.9 1.6 6.3l4.5 43.3c.3 3.4.3 5.8-.3 6.8-.5.8-1.3 1.6-2.9 2.1l-1 .3 1.8 17.3 40.6-4.2c12.1-1.3 20.7-4.5 25.4-9.2 5.2-5.2 7.1-11 6-20.2-.7-6.3-2.3-10.5-5.4-14.4zm-44.1-29.6l7.9-.8c3.9-.5 6.8 0 8.4 1.3 1.6 1 2.6 2.4 2.9 6 0 3.1-.8 4.5-1.8 5.8-1.3 1.3-4.2 2.4-7.9 2.6l-7.9.8-1.6-15.7zm22.8 50.3c-1.6 1.6-4.2 2.9-8.1 3.1l-9.2 1-2.1-19.3 8.7-.8c4.2-.5 7.1 0 8.9 1.6 2.1 1.6 2.9 3.4 3.4 7.1.3 3.4 0 5.7-1.6 7.3zm17.5-85.5c6-2.9 10.5-6.6 13.6-11.5l.5-.8c1.8-3.1 3.4-5.5 3.9-10 .5-5 1.3-5.5 1-9.7-.8-8.4-3.1-14.4-7.3-19.7-3.4-4.2-7.9-7.1-13.6-8.7 4.2-2.6 7.6-6 9.7-10.5 2.9-5.5 3.7-11.3 2.9-18.6-1.3-11.8-5.2-18.9-13.6-24.4-7.6-5-19.4-6.8-34.9-5.2l-48.8 5.2 2.4 21.8 1 .3c2.1.3 3.7 1 4.7 2.1 1 1.3 1.6 3.9 2.1 8.7l6 58.2c.5 4.7.5 7.3-.3 8.9-.5 1.3-2.1 2.4-4.2 2.9l-1 .3 2.4 22.3 50.9-5c10.2-1.1 17.8-4.2 22.6-6.6zm-44.4-91.5l7.9-.8c5.2-.5 9.2 0 11.5 1.6 2.4 1.8 3.7 4.2 3.9 8.4.5 4.2-.5 6.3-2.1 8.1-1.8 1.8-5.5 3.1-11 3.9l-7.9.8-2.3-22zm8.2 73.4l-2.9-26.5 8.7-.8c5.5-.8 9.7-.3 12.3 1.8 2.9 2.1 4.2 5 4.7 9.7.5 4.7-.3 7.9-2.4 10.2-2.1 2.4-5.8 3.9-11.3 4.5l-9.1 1.1zm97-29.3c1 10 2.4 16.8 3.9 21.2 1.6 4.5 3.4 6.3 6 8.9l.8.8c3.9 4.2 9.2 7.1 15.7 8.4 5.2 1.3 13.4 2.6 23.6 1.6 7.9-.8 15.2-3.7 22-6.6 7.1-2.9 13.4-6.8 19.1-11.5l.5-.5-6-56.1-43 4.5 2.4 23.3 14.9-1.6 1.6 15.5c-2.1 2.4-7.6 4.7-14.9 5.5-4.5.5-7.6-.5-10-2.9-2.4-2.6-3.7-6.6-4.5-12.9l-4.2-40.6c-.5-6-.3-10.2 1.6-13.4 1.6-2.9 4.7-4.5 8.9-5s7.3.5 9.4 2.6c2.4 2.4 3.7 5.8 4.2 11l.3 2.1 31.5-2.6-3.7-34.4-.8-.3c-7.1-2.4-14.4-4.2-21.8-5-7.3-.8-14.4-.8-21.5-.3-10.2 1-18.6 3.1-24.7 6.3-6.8 3.7-11 7.6-13.4 13.1-1.6 3.4-2.6 6.3-2.9 10.5-.3 4.5 0 10.5.8 19.7l4.2 38.7zm-47.7-62.7v.8c.3 1.3.5 2.4.8 3.9l15.5 66.9.3 1 17-1.8 1.3-69.2v-7.3c-.5-5.2-2.4-8.7-6-11.5-3.4-2.6-8.1-3.9-13.4-3.1-5.5.5-9.4 2.6-12.3 6-2.9 3.7-3.9 7.3-3.4 12.6l.2 1.7zm25.9 80c-4.2 0-7.9 2.1-10.8 5.5-2.2 2.6-3.3 5.4-3.6 8.6-.1 1-.1 2.1-.1 3.2.3 2.1.9 4.1 1.8 5.9 1 1.8 2.4 3.4 4.2 4.9 3.4 2.9 7.3 3.9 11.8 3.7 4.5-.5 8.1-2.4 10.8-5.8 2.9-3.4 3.9-7.3 3.4-11.8-.5-4.5-2.4-8.1-5.8-10.8-3.3-2.9-7.2-4-11.7-3.4zm167.8 121.9c-2.7 0-4.7 1-6.2 2.9s-2.2 4.4-2.2 7.5v7.1c0 3.1.7 5.6 2.2 7.6 1.5 2 3.5 2.9 6.2 2.9s4.8-1 6.3-2.9c1.5-2 2.3-4.5 2.3-7.6v-7.1c0-3-.8-5.5-2.3-7.5-1.5-1.9-3.6-2.9-6.3-2.9zm38 .5h-7.7v12.8h7.7c2.2 0 3.8-.6 5-1.8 1.1-1.2 1.7-2.7 1.7-4.5 0-1.9-.6-3.4-1.7-4.6-1.1-1.3-2.8-1.9-5-1.9zm-60.2-18.3h-40.9v-.3h-1c-1.6 0-2.6-.5-3.1-1.3-.8-1-1.3-2.9-1.6-6l-1.3-11.5 14.7-37.8c.8-1.6 1.3-2.9 2.1-3.7.5-.8 1-1.3 1.8-1.6l.8-.5-1.8-16.5-27.5 2.9 1.3 11.8c0 2.4.3 4.5 0 6-.3 1.6-.5 3.1-1 4.5l-4.2 10-6-8.9c-.8-1.3-1.3-2.6-1.8-4.2s-.8-3.4-1-5.8l-1.3-11.8-28.3 2.6 1.8 16.5 1 .3c.5.3 1.3.8 2.1 1.3 1 .8 1.8 1.8 2.9 3.4l22.3 33.8 1.3 11.5c.2 2.3.2 4.1 0 5.2h-15v63h175.3v-62.9h-91.6zm-41.5 48.9c-2.6 1.9-6.1 2.9-10.4 2.9-4.2 0-8-1.1-11.1-3.3-3.2-2.2-4.7-5.3-4.6-9.2l.1-.2h7.6c0 2.3.7 4 2.1 5.1 1.4 1.1 3.4 1.6 5.9 1.6 2.1 0 3.7-.4 4.9-1.3 1.1-.9 1.7-2 1.7-3.5s-.5-2.7-1.6-3.6c-1.1-.9-2.9-1.8-5.6-2.6-4.6-1.3-8.2-2.9-10.5-4.8-2.4-1.8-3.6-4.4-3.6-7.6 0-3.2 1.4-5.8 4.1-7.8 2.7-2 6.2-3 10.4-3 4.3 0 7.8 1.1 10.5 3.4s4 5.1 3.9 8.4l-.1.2h-7.6c0-1.8-.6-3.3-1.8-4.4-1.2-1.1-2.9-1.7-5.1-1.7-2.1 0-3.7.5-4.8 1.4-1.1.9-1.7 2.1-1.7 3.6 0 1.3.6 2.4 1.8 3.3 1.2.8 3.3 1.7 6.3 2.7 4.3 1.2 7.6 2.8 9.8 4.7 2.2 2 3.3 4.5 3.3 7.7.1 3.4-1.2 6.1-3.9 8zm41.4 2.3h-7.8v-16.2h-15.9v16.2h-7.8v-39h7.8v16.8h15.9v-16.8h7.8v39zm38.7-16c0 4.8-1.5 8.7-4.5 11.9-3 3.1-7 4.7-11.8 4.7-4.8 0-8.7-1.6-11.7-4.7s-4.5-7.1-4.5-11.9v-7c0-4.8 1.5-8.7 4.5-11.9 3-3.1 6.9-4.7 11.7-4.7 4.8 0 8.8 1.6 11.8 4.7s4.6 7.1 4.6 11.9v7zm32.2-1.5c-2.6 2.3-6.1 3.4-10.6 3.4h-7.7v14.1h-7.8v-39h15.5c4.5 0 8 1.1 10.6 3.4 2.6 2.3 3.9 5.3 3.9 9 0 3.8-1.3 6.8-3.9 9.1zm-115.2-245.1c-.1-1.8-1.6-3.1-3.5-2.9-1.8.2-3.2 1.8-3 3.6.2 1.8 1.8 3.1 3.6 2.9 1.9-.2 3.1-1.8 2.9-3.6zm-2.9 2.9c-1.4.2-2.6-.9-2.8-2.3-.1-1.4.8-2.7 2.2-2.8 1.4-.2 2.6.9 2.7 2.3.2 1.4-.7 2.7-2.1 2.8zm.5-2.5c.4-.2.6-.5.6-.9 0-.3-.2-.6-.4-.7-.2-.1-.5-.2-1.1-.1-.5.1-.9.1-1.2.2l.3 3.2.7-.1-.1-1.3h.4c.4 0 .6.1.7.4.1.4.2.6.3.8l.8-.1c-.1-.1-.2-.3-.3-.8-.2-.3-.4-.5-.7-.6zm-.9-.2h-.4l-.1-.9.4-.1c.5 0 .7.1.7.4.1.4-.2.6-.6.6z"/></svg>