<svg xmlns="http://www.w3.org/2000/svg" width="24" height="24" viewBox="-37 39 24 24" enable-background="new -37 39 24 24"><path d="M-25.8 44.2l-5.2 2.3c-.4.2-.6.5-.6.9v6.4c0 .4.2.7.5.9l5.1 2.8c.6.3 1.3.3 1.9 0l5.1-2.8c.3-.2.5-.5.5-.9v-6.4c0-.4-.2-.8-.6-.9l-5.2-2.3c-.4-.2-1-.2-1.5 0zm1.2 1.2l3.8 1.7c.2.1.2.3 0 .4l-3.3 1.7c-.6.3-1.2.3-1.8 0l-3.3-1.7c-.2-.1-.1-.3 0-.4l3.8-1.7c.3-.1.5-.1.8 0zm-5.8 2.8l4.2 2.1c.3.2.6.5.6.9v4.8c0 .2-.2.2-.3.2l-4-2.2c-.3-.2-.5-.5-.5-.9v-4.9zm10.8 0v4.9c0 .4-.2.7-.5.9l-4 2.2c-.1.1-.3 0-.3-.2v-4.8c0-.4.2-.7.6-.9l4.2-2.1z"/></svg>