<svg xmlns="http://www.w3.org/2000/svg" width="32" height="32" viewBox="-33 35 32 32" enable-background="new -33 35 32 32"><path d="M-8.5 45.6l-7.9-4.4c-.2-.1-.4-.2-.6-.2s-.4.1-.6.2l-7.9 4.4c-.3.2-.5.5-.5.9v9c0 .4.2.7.5.9l7.9 4.4c.2.1.4.2.6.2s.4-.1.6-.2l7.9-4.4c.3-.2.5-.5.5-.9v-9c0-.4-.2-.7-.5-.9zm-2.4 3.1l-4.6 2.6c-.3.2-.5.5-.5.9v5.1c0 .6-.4 1-1 1s-1-.4-1-1v-5.1c0-.4-.2-.7-.5-.9l-4.6-2.6c-.5-.3-.7-.9-.4-1.4.3-.5.9-.6 1.3-.4l4.6 2.6c.3.2.7.2 1 0l4.6-2.6c.5-.3 1.1-.1 1.3.4.5.5.3 1.1-.2 1.4z"/></svg>