<svg xmlns="http://www.w3.org/2000/svg" viewBox="-204.7 400.1 74.7 10.9" enable-background="new -204.7 400.1 74.7 10.9"><title>pp-bt-logo-white</title><desc>Created with Sketch.</desc><path d="M-170.8 401.2h-2.7c-.2 0-.3.1-.4.3l-1.1 6.9c0 .1.1.3.2.3h1.4c.1 0 .2-.1.3-.2l.3-2c0-.2.2-.3.4-.3h.9c1.8 0 2.8-.9 3.1-2.6.1-.7 0-1.3-.3-1.7-.5-.5-1.2-.7-2.1-.7zm.3 2.5c-.1 1-.9 1-1.6 1h-.4l.3-1.8c0-.1.1-.2.2-.2h.2c.5 0 1 0 1.2.3.1.1.2.4.1.7zm-19.8-2.5h-2.7c-.2 0-.3.1-.4.3l-1.1 6.9c0 .1.1.3.2.3h1.3c.2 0 .3-.1.4-.3l.3-1.9c0-.2.2-.3.4-.3h.9c1.8 0 2.8-.9 3.1-2.6.1-.7 0-1.3-.3-1.7-.5-.5-1.1-.7-2.1-.7zm.4 2.5c-.1 1-.9 1-1.6 1h-.4l.3-1.8c0-.1.1-.2.2-.2h.2c.5 0 1 0 1.2.3.1.1.1.4.1.7zm7.8 0h-1.3c-.1 0-.2.1-.2.2l-.1.4-.1-.1c-.3-.4-.9-.5-1.5-.5-1.4 0-2.7 1.1-2.9 2.6-.1.8.1 1.5.5 2s1 .7 1.6.7c1.2 0 1.8-.7 1.8-.7l-.1.4c0 .1.1.3.2.3h1.2c.2 0 .3-.1.4-.3l.7-4.4c0-.5-.1-.6-.2-.6zm-1.8 2.5c-.1.7-.7 1.2-1.5 1.2-.4 0-.7-.1-.9-.3-.2-.2-.3-.5-.2-.9.1-.7.7-1.2 1.5-1.2.4 0 .7.1.9.4.2.1.2.5.2.8zm21.2-2.5h-1.3c-.1 0-.2.1-.2.2l-.1.4-.1-.1c-.3-.4-.9-.5-1.5-.5-1.4 0-2.7 1.1-2.9 2.6-.1.8.1 1.5.5 2s1 .7 1.6.7c1.2 0 1.8-.7 1.8-.7l-.1.4c0 .1.1.3.2.3h1.2c.2 0 .3-.1.4-.3l.7-4.4c.1-.5 0-.6-.2-.6zm-1.8 2.5c-.1.7-.7 1.2-1.5 1.2-.4 0-.7-.1-.9-.3-.2-.2-.3-.5-.2-.9.1-.7.7-1.2 1.5-1.2.4 0 .7.1.9.4.2.1.3.5.2.8zm-10.7-2.5h-1.3c-.1 0-.2.1-.3.2l-1.8 2.6-.8-2.5c0-.2-.2-.3-.4-.3h-1.3c-.2 0-.3.2-.2.3l1.4 4.2-1.4 1.9c-.1.2 0 .4.2.4h1.3c.1 0 .2-.1.3-.2l4.4-6.2c.2-.2.1-.4-.1-.4zm14.1-2.3l-1.1 7.1c0 .1.1.3.2.3h1.1c.2 0 .3-.1.4-.3l1.1-6.9c0-.1-.1-.3-.2-.3h-1.3c-.1-.1-.2 0-.2.1zm-39.6 5.9l-.8 1.4h-.6l3.1-5.2 1.4 5.2h-.6l-.4-1.4h-2.1zm1.5-2.5l-1.2 2h1.7l-.5-2zm46.6 0c-.3-.4-.8-.7-1.4-.7-1.1 0-2.2 1-2.3 2-.2 1.1.6 2 1.7 2 .6 0 1.2-.3 1.6-.7l-.1.7c-.5.3-1 .5-1.6.5-1.4 0-2.4-1.1-2.2-2.5.2-1.4 1.6-2.6 3-2.6.6 0 1 .2 1.4.5l-.1.8zm.1 2.4c.1-.9 1-1.6 1.9-1.6.9 0 1.5.7 1.4 1.6-.1.9-1 1.6-1.9 1.6-1 0-1.6-.7-1.4-1.6zm.5 0c-.1.6.3 1.1.9 1.1s1.2-.5 1.3-1.1c.1-.6-.3-1.1-.9-1.1s-1.2.4-1.3 1.1zm3.9-1.2c.2-.3.5-.4.8-.4.4 0 .7.2.8.5.2-.3.6-.5 1-.5.8 0 .9.6.8 1.3l-.3 1.9h-.5l.3-1.8c.1-.4.1-.9-.4-.9-.6 0-.8.6-.8 1l-.3 1.6h-.5l.3-1.7c.1-.4.1-.9-.4-.9-.6 0-.8.6-.9 1.1l-.3 1.6h-.5l.5-3.1h.5l-.1.3zm4.6.1c.3-.3.7-.5 1.2-.5.9 0 1.4.8 1.2 1.6-.1.9-.8 1.6-1.7 1.6-.4 0-.8-.2-1-.5l-.3 2.2h-.5l.8-4.8h.5l-.2.4zm-.2 1c-.1.6.2 1.2.8 1.2.7 0 1.1-.5 1.2-1.2.1-.6-.2-1.1-.9-1.1-.5 0-1 .5-1.1 1.1zm5.8 1.6h-.5l.1-.4c-.3.3-.7.5-1.1.5-.9 0-1.4-.8-1.2-1.6.1-.9.8-1.6 1.8-1.6.4 0 .8.2 1 .5l.1-.4h.5l-.7 3zm-2.3-1.6c-.1.6.2 1.2.8 1.2.7 0 1.1-.5 1.2-1.2.1-.6-.2-1.1-.9-1.1-.5 0-1 .5-1.1 1.1zm3.8-1.1c.3-.3.6-.5 1-.5.9 0 1 .6.8 1.3l-.3 1.8h-.5l.3-1.7c.1-.5.1-.9-.5-.9-.7 0-.9.7-1 1.2l-.2 1.5h-.5l.5-3.1h.5l-.1.4zm2.3-.4h.6l.7 2.2 1.4-2.2h.6l-3.1 4.8h-.6l1.3-2-.9-2.8z"/></svg>