<svg xmlns="http://www.w3.org/2000/svg" viewBox="-247 382 192 16.8" enable-background="new -247 382 192 16.8"><title>pp-bt-logo-white</title><desc>Created with Sketch.</desc><path d="M-224.7 387.2c-1.7 0-3 .8-3.7 2v-1.7h-3.8v2h1.8v6h-2.2v2h7.8v-2h-3.5v-2.6c0-2.4 1.7-3.8 3.6-3.8.8 0 1.4.5 1.6 1.3l2-.6c-.4-1.5-1.6-2.6-3.6-2.6zm-12.8 3.2c1.1-.4 2-1.4 2-2.9 0-2.3-1.8-3.6-4.7-3.6h-6.4v2h1.6v9.6h-1.6v2h6.7c3.2 0 5.1-1.4 5.1-3.9.1-1.6-1-2.7-2.7-3.2zm-5.2-4.5h2.3c1.8 0 2.7.6 2.7 1.8 0 1.2-.9 1.8-2.7 1.8h-2.4v-3.6zm2.7 9.6h-2.7v-4h2.5c2.2 0 3.3.7 3.3 2s-1 2-3.1 2zm57.2-4.7c0-2.3-1.6-3.7-3.9-3.7-1.6 0-2.8.6-3.5 1.6v-1.3h-3.5v2h1.4v6h-1.5v2h5.2v-2h-1.6v-3.3c0-1.8 1.6-3 3.2-3 1 0 2 .5 2 2.2v4.1h-1.6v2h5.2v-2h-1.5v-4.6zm-17.3-3.3h-5.3v2h3.2v6h-4.2v2h10.2v-2h-3.9zm63.6-.3c-3.2 0-5.5 2.2-5.5 5.3 0 3.1 2.4 5.3 5.8 5.3 2.1 0 3.9-.8 5-1.8l-1.4-1.4c-.7.8-2 1.4-3.5 1.4-1.8 0-3.2-1-3.6-2.7h8.7v-.4c-.1-3.3-2.3-5.7-5.5-5.7zm-3.2 4.2c.4-1.4 1.6-2.4 3.2-2.4 1.4 0 2.7 1 3 2.4h-6.2zm-20.1-4.2c-1.7 0-3 .8-3.7 2v-1.7h-3.8v2h1.8v6h-2.2v2h7.8v-2h-3.5v-2.6c0-2.4 1.7-3.8 3.6-3.8.8 0 1.4.5 1.6 1.3l2-.6c-.4-1.5-1.6-2.6-3.6-2.6zm-14.1 8.6c-1.3 0-2.3-.6-2.3-2.2v-4.2h4.9v-2h-4.9v-3.6h-2.1v3.6h-2.6v2h2.6v4.3c0 2.7 1.9 4 4.4 4 2 0 3.4-.9 4.3-1.9l-1.4-1.4c-.8.8-1.8 1.4-2.9 1.4zm-28.6-13.3h2.3v3h-2.3zm53.1 4.7c-3.2 0-5.5 2.2-5.5 5.3 0 3.1 2.4 5.3 5.8 5.3 2.1 0 3.9-.8 5-1.8l-1.4-1.4c-.7.8-2 1.4-3.5 1.4-1.8 0-3.2-1-3.6-2.7h8.7v-.4c-.1-3.3-2.4-5.7-5.5-5.7zm-3.2 4.2c.4-1.4 1.6-2.4 3.2-2.4 1.4 0 2.7 1 3 2.4h-6.2zm-57.7-.4c0-2.5-2-3.9-4.5-3.9-2 0-3.4.8-4.3 1.7l1.4 1.5c.8-.7 1.8-1.2 3-1.2s2.4.6 2.4 2v.6c-.7-.2-1.6-.4-2.7-.4-2.2 0-4.7.9-4.7 3.4 0 2.1 1.8 3.1 3.9 3.1 1.4 0 2.9-.5 3.5-1.4v1.1h3.6v-2h-1.5v-4.5zm-2.2 2.4v.3c0 1.4-1.7 2.2-3.3 2.2-1.1 0-1.9-.4-1.9-1.3 0-1.2 1.3-1.6 2.6-1.6 1 0 2 .2 2.6.4zm149.6 0c-.2-.3-.6-.5-1-.5-.9 0-1.6.8-1.8 1.6-.1.9.3 1.6 1.2 1.6.4 0 .8-.2 1.1-.5l-.1.4h.5l.5-3.1h-.5l.1.5zm-1.3 2.2c-.7 0-.9-.6-.8-1.2.1-.6.6-1.1 1.2-1.1.7 0 1 .5.9 1.1-.2.7-.7 1.2-1.3 1.2zm7.9-2.7l-1.4 2.2-.7-2.2h-.6l1 2.8-1.4 2h.6l3.1-4.8zm-4 0c-.4 0-.7.2-1 .5l.1-.4h-.5l-.5 3.1h.5l.2-1.5c.1-.5.2-1.2 1-1.2.6 0 .6.4.5.9l-.3 1.7h.5l.3-1.8c.2-.7.1-1.3-.8-1.3zm-33.4-3.7c-.4-.5-1.1-.7-2-.7h-2.7c-.2 0-.3.1-.4.3l-1.1 6.9c0 .1.1.3.2.3h1.4c.1 0 .2-.1.3-.2l.3-2c0-.2.2-.3.4-.3h.9c1.8 0 2.8-.9 3.1-2.6.1-.7-.1-1.3-.4-1.7zm-1.7 1.9c-.1 1-.9 1-1.6 1h-.4l.3-1.8c0-.1.1-.2.2-.2h.2c.5 0 1 0 1.2.3.1.1.2.3.1.7zm7.8-.1h-1.3c-.1 0-.2.1-.2.2l-.1.4-.1-.1c-.3-.4-.9-.5-1.5-.5-1.4 0-2.7 1.1-2.9 2.6-.1.8.1 1.5.5 2s1 .7 1.6.7c1.2 0 1.8-.7 1.8-.7l-.1.4c0 .1.1.3.2.3h1.2c.2 0 .3-.1.4-.3l.7-4.4c.1-.5 0-.6-.2-.6zm-3.3 3.8c-.4 0-.7-.1-.9-.3-.2-.2-.3-.5-.2-.9.1-.7.7-1.2 1.5-1.2.4 0 .7.1.9.4.2.2.3.6.2.9-.1.6-.7 1.1-1.5 1.1zm15.4-1.9c-.9 0-1.7.7-1.9 1.6-.1.9.5 1.6 1.4 1.6s1.7-.7 1.9-1.6c.1-.9-.5-1.6-1.4-1.6zm-.5 2.7c-.7 0-1-.5-.9-1.1.1-.6.6-1.1 1.3-1.1.7 0 1 .5.9 1.1-.1.6-.6 1.1-1.3 1.1zm-8.5-7.1h-1.3c-.1 0-.2.1-.2.2l-1.1 7.1c0 .1.1.3.2.3h1.1c.2 0 .3-.1.4-.3l1.1-6.9c0-.3-.1-.4-.2-.4zm14.1 4.4c-.4 0-.8.2-1 .5-.1-.3-.4-.5-.8-.5-.3 0-.6.2-.8.4l.1-.3h-.5l-.6 3h.5l.3-1.6c.1-.5.2-1.1.9-1.1.5 0 .5.6.4.9l-.3 1.7h.5l.3-1.6c.1-.5.2-1 .8-1 .5 0 .5.5.4.9l-.3 1.8h.5l.3-1.9c.2-.6.1-1.2-.7-1.2zm-8.5-1.4c.6 0 1.1.2 1.4.7l.1-.7c-.4-.3-.9-.5-1.4-.5-1.4 0-2.8 1.2-3 2.6-.2 1.4.8 2.5 2.2 2.5.5 0 1.1-.2 1.6-.5l.1-.7c-.5.4-1 .7-1.6.7-1.1 0-1.9-1-1.7-2 .2-1.1 1.2-2.1 2.3-2.1zm-28.1-.5h-1.3c-.1 0-.2.1-.2.2l-.1.4-.1-.1c-.3-.4-.9-.5-1.5-.5-1.4 0-2.7 1.1-2.9 2.6-.1.8.1 1.5.5 2s1 .7 1.6.7c1.2 0 1.8-.7 1.8-.7l-.1.4c0 .1.1.3.2.3h1.2c.2 0 .3-.1.4-.3l.7-4.4c0-.5-.1-.6-.2-.6zm-3.3 3.8c-.4 0-.7-.1-.9-.3-.2-.2-.3-.5-.2-.9.1-.7.7-1.2 1.5-1.2.4 0 .7.1.9.4.2.2.3.6.2.9-.1.6-.7 1.1-1.5 1.1zm10.3-3.8h-1.3c-.1 0-.2.1-.3.2l-1.8 2.6-.8-2.5c0-.2-.2-.3-.4-.3h-1.3c-.2 0-.3.2-.2.3l1.4 4.2-1.4 1.9c-.1.2 0 .4.2.4h1.3c.1 0 .2-.1.3-.2l4.4-6.2c.1-.2 0-.4-.1-.4zm32.8 1.9c-.4 0-.8.2-1.2.5l.1-.4h-.5l-.8 4.8h.5l.3-2.2c.2.3.6.5 1 .5.9 0 1.6-.7 1.7-1.6.3-.9-.2-1.6-1.1-1.6zm-.5 2.7c-.7 0-.9-.6-.8-1.2.1-.6.6-1.1 1.2-1.1.7 0 1 .5.9 1.1-.2.7-.6 1.2-1.3 1.2zm-45.5-6.4c-.4-.5-1.1-.7-2-.7h-2.7c-.2 0-.3.1-.4.3l-1.1 6.9c0 .1.1.3.2.3h1.3c.2 0 .3-.1.4-.3l.3-1.9c0-.2.2-.3.4-.3h.9c1.8 0 2.8-.9 3.1-2.6.1-.7 0-1.3-.4-1.7zm-1.6 1.9c-.1 1-.9 1-1.6 1h-.4l.3-1.8c0-.1.1-.2.2-.2h.2c.5 0 1 0 1.2.3.1.1.1.3.1.7zm-12.2 4.9h.6l.8-1.4h2.1l.4 1.4h.6l-1.4-5.2-3.1 5.2zm1.7-1.9l1.2-2 .5 2h-1.7z"/></svg>