<svg xmlns="http://www.w3.org/2000/svg" width="100" height="100" viewBox="0 0 100 100"><path fill="#FCE666" d="M63.613 55.713l-3.088 1.206 10.221 20.375 2.753-.629"/><path fill="#333" d="M74.246 78.158l22.212-8.587-7.152-23.888-25.693 10.03zm-13.76-18.468s-.688.765-1.607.765-4.9-1.99-5.435-2.373c-.535-.382-1.761-1.608-3.98-.996-2.22.612-5.282 1.608-5.741 1.991-.459.382-1.378 1.683-1.378 2.143 0 .459-.535 1.795-.765 1.931s-1.226 1.743-.307 2.662c.918.918 1.838.689 2.679.383.842-.308 2.967-2.893 2.967-3.504 0-.612-.574-2.16-.574-2.16s1.358-.129 1.435 1.16c.077 1.289.842-1.084 2.91.906 2.066 1.991 7.206 5.86 7.206 5.86s3.527-.018 4.062-.324c.536-.305-.156.462-.489.734-.332.273-1.862.701-1.862.701s1.351 1.313 1.581 1.926c.229.612 1.071 2.628 1.071 2.628l4.583-2.187c-.002.002-5.054-11.021-6.356-12.246z"/><path fill="#FCE666" d="M25.105 77.008l-.937 1.97-21.626-9.487 3.789-24.456 27.345 10.392"/><path fill="#333" d="M33.677 55.428l3.139.857s.332.25 0 .996c-.332.745-9.297 20.876-9.297 20.876l-2.415-1.149"/><path fill="#333" d="M37.485 58.657s2.564-.345 4.209-1.225c1.645-.88 5.129-2.296 6.239-1.952 1.109.345 1.118.432 1.118.432s-4.812 1.73-5.807 2.151c-.996.421-1.858 2.256-1.896 2.677-.039.422-.983 2.634-1.29 2.978-.307.344-.795 2.354.66 3.272 1.454.918 2.239.316 2.622.162.382-.151 1.971-.689 2.775-1.876.804-1.187 1.722-2.411 2.468-2.22.746.192.996-.113 2.411 1.38 1.417 1.492 4.65 3.789 4.65 3.789s4.596 3.814 4.727 4.132c.304.741 1.504 2.928 1.312 3.47-.13.369-.541 1.546-1.734 1.697-.639.081-.995-.229-.995-.229l-4.094-4.554-1.455-1.903s.306 2.056.536 2.363c.229.306 2.853 3.077 3.138 3.406.45.517 1.185 1.047 1.342 1.42.323.763-.613 2.255-1.801 2.255-1.186 0-1.894-.467-1.894-.467l-2.756-2.519-1.09-1.35s.039 1.464.229 1.769c.192.306 3.177 3.024 3.177 3.024l.422.305s.075.383-.613.881c-.688.497-1.832.657-1.947.618-.115-.038-3.2-3.297-3.563-3.566-.363-.268 0 1.298 0 1.298l1.035.96 1.525 1.644s.119.04-.417.5c-.535.458-2.729.307-2.729.307s1.447-1.858.156-2.949c-.685-.579-.947-.693-.947-.693.299-.691.583-1.584.316-2.349-.269-.765-.928-1.474-1.655-1.665-.727-.192-1.905.144-1.905.144s.157-1.289-1.042-2.173c-.727-.536-2.03-.481-3.054.237-.567.397-1.931 1.477-1.931 1.477.039-.316-1.446-3.386-4.489-2.209l-1.76-1.495 5.797-13.354zm-4.765 15.972s-.448 1.631.048 2.064c2.067 1.809 3.187 1.331 3.187 1.331s0 .764.765 1.684c.765.918 2.296 1.568 2.296 1.568s-.306.393.383 1.158c.688.765 1.933 1.464 3.329.976 0 0-.44.411.402 1.177.841.764 1.167.737 2.01.66.841-.077 2.067-1.482 2.067-1.482s1.005-1.535 0-2.374c-.771-.643-1.829-.209-1.981-.019-.153.191 1.139-1.417 1.32-2.555.151-.956-.393-1.397-1.234-1.664-.841-.268-1.61.098-2.067.517-.514.472-.976.814-.976.814l-2.341 1.644s2.427-2.171 2.829-3.118c.223-.524.157-1.386-.488-1.781-.438-.266-.841-.593-1.722-.383-.166.041-2.449 1.686-2.449 1.686l-.804.574-.574.344s.612-1.073 0-1.722c-.612-.653-1.353-1.952-4-1.099z"/></svg>