<svg xmlns="http://www.w3.org/2000/svg" width="60" height="60" viewBox="-19 21 60 60" enable-background="new -19 21 60 60"><style type="text/css">.st0{fill:none;}</style><path class="st0" d="M-69.1 59h24v24h-24v-24z"/><path d="M21.5 36.8l-7.5 6h-6l-7.4-5.9-12 15 7.5 6 1.7-2.1 9.4 6.7c2.4 1.7 5.5 1.7 7.9.1l7.8-5.1 1.8-1.4 1.4 1.8 7.5-6-12.1-15.1zm8.6 14.7l-3.6 2.9-8.9-11.3 3.6-2.9 8.9 11.3zm-34.5 2.9l-3.8-3 9-11.3 3.8 3-9 11.3zm26.4.9l-5.7-4.9h-7.6c-1.7 0-3-1.3-3-3 0-1 .8-1.8 1.8-1.8h9.5l6.8 8.6-1.8 1.1z"/></svg>