<svg xmlns="http://www.w3.org/2000/svg" width="24" height="24" viewBox="-467 269 24 24" enable-background="new -467 269 24 24"><path d="M-455 283.5c2.5-.1 4.5-3 4.7-6.6 0-.2-.1-3-1.6-4.7-.8-.9-1.8-1.4-3-1.4h-.1c-1.2 0-2.2.5-3 1.4-1.5 1.7-1.6 4.5-1.6 4.7.1 3.6 2.1 6.4 4.6 6.6zm-4-6.5c.1-.4 1.1-2.3 1.2-2.5l.1-.3.2.1c.9.5 2 .6 2.4.6h.1c.4 0 1.5-.1 2.4-.6l.2-.1.1.3c.1.2 1.1 2.1 1.2 2.5-.2 3.2-2 5.7-4 5.8h-.1c-1.8 0-3.6-2.7-3.8-5.8zm4.5 10s.8-1.4.5-1.8c-.2-.5-2-.5-2.4 0-.3.4.5 1.8.5 1.8l-.6 3.2.3 1h2.2l.3-1-.8-3.2zm-3.8-3.7c-2.7 1.4-6.3 2.3-6.3 6.9v.9h7.9s-.7-2-1-2.9c-.6-.9-.6-4.9-.6-4.9zm6.7 0s-.2 3.9-.6 5.1c-.3.9-1 2.9-1 2.9h7.9v-.9c0-4.6-3.5-5.8-6.3-7.1z"/></svg>