<svg xmlns="http://www.w3.org/2000/svg" width="100" height="100" viewBox="0 0 100 100"><path d="M81.402 86.271h3.597v-1.448h-69.999v1.448h3.599v4.768h-3.599v1.449h70v-1.449h-3.598v-4.768zm-34.161 4.768h-23.123v-4.768h23.124v4.768zm28.641.002h-23.124v-4.767h23.124v4.767zm-29.931-34.844h-30.951v27.155h30.951v-27.155zm-12.715 8.087h-.001l-.419.377-.63-.377-.359.632-.45-.392-.451.725-.45-.332-.54.332-.449-.332-.63.286v-.919l-1.139.24v-7.603h5.519v7.363zm19.553-36.389h-37.789v27.157h37.789v-27.157zm-29.127 11.373c0 .385-1.302.695-2.91.695s-2.91-.311-2.91-.695c0-.356 1.12-.65 2.563-.69v-3.975c-1.683-.257-2.997-2.379-2.997-4.958h3.759l-.254 1.415-.162.901.656-.529c.112-.092.226-.182.339-.271l-.526 2.079 1.147-2.629.234-.534-.56.287c-.09.047-.181.094-.272.142l.307-.859h2.017c0 2.58-1.313 4.7-2.998 4.959v3.975c1.447.037 2.567.331 2.567.687zm25.469 9.808v4.768h-2.439v-4.768h-1.813l3.033-4.353 3.034 4.353h-1.815zm-1.921 7.121v27.155h37.79v-27.155h-37.79zm34.591 21.062v4.768h-2.439v-4.768h-1.813l3.032-4.352 3.034 4.352h-1.814z" fill="#333"/><path fill="#FCE666" d="M47.992 29.613c-16.494 0-29.865 13.371-29.865 29.866s13.372 29.866 29.865 29.866c16.495 0 29.866-13.371 29.866-29.866s-13.372-29.866-29.866-29.866zm23.921 29.866c0 4.737-1.382 9.147-3.756 12.862l-35.784-30.971c4.192-3.618 9.648-5.812 15.62-5.812 13.21 0 23.92 10.71 23.92 23.921zm-47.841 0c0-4.692 1.356-9.065 3.69-12.758l35.756 30.947c-4.179 3.572-9.598 5.732-15.526 5.732-13.211 0-23.92-10.711-23.92-23.921z"/></svg>