<svg xmlns="http://www.w3.org/2000/svg" width="100" height="100" viewBox="0 0 100 100"><path fill="#333" d="M5 72.261v9.969h9.629c.006 5.464 4.438 9.891 9.902 9.891 5.466 0 9.896-4.427 9.903-9.891h24.452v-9.969h-53.886zm13.707 9.958c0-3.217 2.607-5.826 5.825-5.826s5.826 2.608 5.826 5.826c0 3.217-2.608 5.825-5.826 5.825-3.218-.001-5.825-2.608-5.825-5.825zm42.105-43.219v43.23h7.165c.005 5.464 4.437 9.891 9.902 9.891 5.466 0 9.896-4.427 9.903-9.891h7.218v-19.395l-17.458-23.835h-16.73zm11.242 43.219c0-3.217 2.608-5.826 5.825-5.826s5.826 2.608 5.826 5.826c0 3.217-2.608 5.825-5.826 5.825s-5.825-2.608-5.825-5.825zm-6.594-38.571h9.725l12.459 17.011h-22.184v-17.011z"/><path fill="#F7E567" stroke="#DDCC30" stroke-width=".364" stroke-miterlimit="10" d="M45.147 56.843h13.537v13.538h-13.537v-13.538z"/><path fill="#3F3F3F" d="M50.585 65.649c.004-.585.109-1.025.316-1.32.207-.294.583-.634 1.131-1.018.282-.177.505-.396.667-.657.162-.261.243-.563.243-.904 0-.354-.095-.636-.284-.847-.189-.21-.459-.315-.809-.315-.282 0-.518.086-.708.259-.189.173-.289.43-.297.771h-2.079l-.013-.038c-.013-.875.266-1.534.837-1.974.571-.44 1.324-.66 2.259-.66 1.002 0 1.791.252 2.367.758.575.505.863 1.188.863 2.047 0 .527-.157 1.011-.471 1.454-.313.442-.713.79-1.197 1.042-.27.177-.452.368-.546.572-.095.205-.143.481-.143.831h-2.136v-.001zm2.13 2.63h-2.124v-1.707h2.124v1.707z"/><path fill="#F7E567" stroke="#DDCC30" stroke-width=".364" stroke-miterlimit="10" d="M45.147 41.373h13.537v13.538h-13.537v-13.538z"/><path fill="#3F3F3F" d="M50.585 50.179c.004-.585.109-1.026.316-1.321.207-.294.583-.634 1.131-1.017.282-.176.505-.396.667-.657.162-.261.243-.563.243-.903 0-.354-.095-.636-.284-.847-.189-.21-.459-.316-.809-.316-.282 0-.518.086-.708.259-.189.173-.289.43-.297.771h-2.079l-.013-.038c-.013-.876.266-1.535.837-1.975.571-.44 1.324-.661 2.259-.661 1.002 0 1.791.253 2.367.759.575.505.863 1.188.863 2.047 0 .526-.157 1.011-.471 1.453-.313.442-.713.79-1.197 1.043-.27.177-.452.367-.546.572-.095.204-.143.481-.143.831h-2.136zm2.13 2.629h-2.124v-1.706h2.124v1.706z"/><path fill="#F7E567" stroke="#DDCC30" stroke-width=".364" stroke-miterlimit="10" d="M29.627 56.843h13.538v13.538h-13.538v-13.538z"/><path fill="#3F3F3F" d="M35.066 65.649c.004-.585.109-1.025.316-1.32.207-.294.583-.634 1.131-1.018.282-.177.504-.396.667-.657.162-.261.243-.563.243-.904 0-.354-.095-.636-.284-.847-.189-.21-.459-.315-.809-.315-.282 0-.518.086-.708.259-.19.173-.29.43-.297.771h-2.079l-.013-.038c-.013-.875.266-1.534.837-1.974s1.324-.66 2.259-.66c1.003 0 1.792.252 2.367.758.575.505.862 1.188.862 2.047 0 .527-.157 1.011-.471 1.454-.314.442-.713.79-1.198 1.042-.27.177-.451.368-.546.572-.095.205-.142.481-.142.831h-2.135v-.001zm2.129 2.63h-2.123v-1.707h2.123v1.707z"/><path fill="#F7E567" stroke="#DDCC30" stroke-width=".364" stroke-miterlimit="10" d="M29.627 41.373h13.538v13.538h-13.538v-13.538z"/><path fill="#3F3F3F" d="M35.066 50.179c.004-.585.109-1.026.316-1.321.207-.294.583-.634 1.131-1.017.282-.176.504-.396.667-.657.162-.261.243-.563.243-.903 0-.354-.095-.636-.284-.847-.189-.21-.459-.316-.809-.316-.282 0-.518.086-.708.259-.19.173-.29.43-.297.771h-2.079l-.013-.038c-.013-.876.266-1.535.837-1.975.571-.44 1.324-.661 2.259-.661 1.003 0 1.792.253 2.367.759.575.505.862 1.188.862 2.047 0 .526-.157 1.011-.471 1.453-.314.442-.713.79-1.198 1.043-.27.177-.451.367-.546.572-.095.204-.142.481-.142.831h-2.135zm2.129 2.629h-2.123v-1.706h2.123v1.706z"/><path fill="#F7E567" stroke="#DDCC30" stroke-width=".364" stroke-miterlimit="10" d="M14.29 56.843h13.537v13.538h-13.537v-13.538z"/><path fill="#3F3F3F" d="M19.729 65.649c.003-.585.11-1.025.316-1.32.206-.294.583-.634 1.131-1.018.282-.177.505-.396.667-.657.162-.261.243-.563.243-.904 0-.354-.095-.636-.285-.847-.189-.21-.459-.315-.809-.315-.282 0-.518.086-.708.259-.189.173-.289.43-.296.771h-2.078l-.013-.038c-.012-.875.266-1.534.837-1.974.571-.44 1.324-.66 2.259-.66 1.002 0 1.791.252 2.366.758s.863 1.188.863 2.047c0 .527-.157 1.011-.471 1.454-.314.442-.713.79-1.198 1.042-.27.177-.452.368-.546.572-.095.205-.142.481-.142.831h-2.136v-.001zm2.129 2.63h-2.123v-1.707h2.123v1.707z"/></svg>