<svg xmlns="http://www.w3.org/2000/svg" width="100" height="100"><path class="icon-car-content" d="M95.777 56.436v17.297c0 .811-.631 1.441-1.441 1.441h-5.766v5.766c0 4.774-3.874 8.648-8.648 8.648s-8.648-3.874-8.648-8.648v-5.766h-41.801v5.766c0 4.774-3.874 8.648-8.648 8.648s-8.648-3.874-8.648-8.648v-5.766h-4.325c-.811 0-1.441-.631-1.441-1.441v-17.297c0-5.585 4.504-10.09 10.09-10.09h1.261l4.729-18.874c1.396-5.675 6.892-9.955 12.748-9.955h31.711c5.855 0 11.352 4.279 12.747 9.955l4.729 18.874h1.262c5.585 0 10.089 4.504 10.089 10.09zm-67.746 4.324c0-3.964-3.243-7.207-7.207-7.207s-7.207 3.243-7.207 7.207 3.243 7.207 7.207 7.207 7.207-3.243 7.207-7.207zm44.504-14.414l-4.01-16.081c-.135-.496-1.035-1.216-1.576-1.216h-31.711c-.541 0-1.441.721-1.577 1.216l-4.009 16.081h42.883zm14.594 14.414c0-3.964-3.243-7.207-7.207-7.207s-7.207 3.243-7.207 7.207 3.243 7.207 7.207 7.207 7.207-3.243 7.207-7.207z"/></svg>