<svg xmlns="http://www.w3.org/2000/svg" width="76" height="50" viewBox="0 0 76 50"><path fill="#B0AFB0" d="M5.688 1h64.625c2.577 0 4.687 2.084 4.687 4.633v38.734c0 2.546-2.11 4.633-4.687 4.633h-64.625c-2.58 0-4.688-2.087-4.688-4.633v-38.734c0-2.549 2.108-4.633 4.688-4.633z"/><path fill="#BCBBB5" d="M5.687 1h64.627c2.576 0 4.686 2.084 4.686 4.633v.617l-69.201 42.75h-.112c-2.579 0-4.687-2.087-4.687-4.633v-38.734c0-2.549 2.108-4.633 4.687-4.633z"/><path fill="#E3E4E4" d="M9.853 17.107h56.295v10.478h-56.295z"/><path fill="#000101" d="M1 5.941h74v8.759h-74z"/><path fill="#7C8093" d="M4.379 29.858h67.24v8.889h-67.24z"/></svg>