<svg xmlns="http://www.w3.org/2000/svg" width="76" height="50" viewBox="0 0 76 50"><path fill="#4D8DBA" d="M5.687 1h64.627c2.576 0 4.687 2.086 4.687 4.635v38.73c0 2.555-2.11 4.635-4.687 4.635h-64.627c-2.577 0-4.687-2.08-4.687-4.635v-38.73c0-2.549 2.11-4.635 4.687-4.635z"/><path d="M8.365 19.31l2.415.006c-.557-1.125-.835-1.687-1.391-2.789-.413 1.1-.616 1.664-1.024 2.783zm46.502-2.701c-.587 1.125-.882 1.688-1.468 2.807 1.045.006 1.567.006 2.608.012-.448-1.131-.675-1.694-1.14-2.819zm-15.517 1.659c.254-.112.408-.358.413-.669.004-.3-.149-.517-.406-.621-.228-.111-.584-.123-.928-.129-.967 0-1.451 0-2.417 0 0 .615 0 .932 0 1.553.947.006 1.424.006 2.373.012.379 0 .696-.004.965-.146zm8.217 10.851c-.223-.123-.56-.129-.892-.129-.921 0-1.383 0-2.313 0-.006.633-.012.955-.018 1.588.911 0 1.365 0 2.272 0 .36 0 .668-.011.923-.146.242-.135.395-.375.399-.68.011-.305-.131-.522-.371-.633zm-9.159-.123c-.982 0-1.473 0-2.456 0 .012.721.018 1.084.029 1.805.972 0 1.455 0 2.421 0 .722 0 1.166-.328 1.166-.938-.006-.615-.479-.873-1.16-.867zm-17.273-5.201c.205-.485.308-.737.515-1.229.018.492.024.737.042 1.229 5.294.006 10.584.013 15.876.019.011-1.031.013-1.547.023-2.578.124 0 .188 0 .313.006.218.006.281.023.279.34-.013.891-.019 1.342-.033 2.238 2.754 0 5.513.006 8.271.012.013-.24.015-.357.024-.598.65.315 1.674.598 3.025.598 1.375.006 2.063.006 3.43.006.33-.621.496-.938.828-1.559.65 0 .975 0 1.617 0 .246.627.364.942.607 1.563 2.143 0 4.283.007 6.426.007.048-.587.071-.886.122-1.478.334.592.501.891.831 1.481 1.656 0 3.314.006 4.973.006.297-3.28.578-6.557.828-9.844h-4.968c-.029.469-.047.703-.083 1.172-.248-.469-.373-.703-.627-1.172h-5.317c-.023.469-.041.703-.068 1.166-.238-.463-.362-.697-.604-1.166h-7.415c-1.259 0-2.373.152-3.283.574.006-.229.012-.34.018-.574h-5.245c0 .229-.004.34-.006.574-.568-.434-1.355-.574-2.229-.574h-18.993c-.448.984-.668 1.482-1.112 2.479-.55-.996-.829-1.494-1.387-2.479h-5.661c.03.445.042.674.071 1.125-.272-.451-.409-.68-.683-1.125h-4.63c-.604 1.519-1.189 3.035-1.775 4.559l-2.008 5.191c1.759 0 3.516.006 5.278.006.229-.633.345-.949.58-1.582.605 0 .907 0 1.519.006.312.627.465.949.773 1.582 2.023 0 4.047.007 6.075.007-.022-.48-.034-.722-.057-1.207.243.485.367.731.609 1.213 1.284.006 1.929.006 3.231.006zm25.958-7.573c.647-.558 1.647-.814 2.984-.814.752 0 1.127.006 1.876.006-.029.598-.041.902-.07 1.506-.729 0-1.095 0-1.828-.006-.705 0-1.111.094-1.51.416-.343.299-.588.855-.621 1.594-.029.756.118 1.295.461 1.652.278.281.813.363 1.314.369.343 0 .515 0 .857 0 .993-1.846 1.991-3.691 2.987-5.531 1.147 0 1.724 0 2.862 0 .935 2.215 1.839 4.436 2.718 6.674.166-2.227.326-4.447.474-6.668 1.141 0 1.704.006 2.823.006.956 1.629 1.888 3.27 2.812 4.922.136-1.641.266-3.281.391-4.922.738.006 1.105.006 1.834.006-.184 2.349-.383 4.699-.592 7.048-.998 0-1.504 0-2.518-.006-.992-1.771-2-3.533-3.027-5.285-.131 1.758-.266 3.521-.402 5.278-1.488 0-2.238-.006-3.751-.006-.249-.633-.369-.942-.618-1.569-1.554-.006-2.339-.006-3.915-.013-.319.634-.483.943-.805 1.57-.886 0-1.331 0-2.22-.007-.928 0-2.09-.182-2.733-.778-.649-.604-.976-1.418-.929-2.694.035-1.043.281-1.998 1.146-2.748zm-3.991-.82c.801 0 1.2 0 2.004 0-.068 2.344-.143 4.688-.224 7.037-.786-.006-1.178-.006-1.963-.006.069-2.345.129-4.688.183-7.031zm-4.526-.006c1.008 0 1.751.022 2.385.34.613.311.98.768.962 1.553-.021 1.119-.901 1.693-1.409 1.869.422.141.782.387.948.598.267.346.308.662.29 1.289-.012.551-.018.832-.031 1.389-.779-.006-1.168-.006-1.945-.006.007-.352.007-.533.013-.891.006-.422.065-1.031-.284-1.377-.277-.246-.71-.299-1.412-.305-.83 0-1.25 0-2.085-.006-.002 1.03-.006 1.541-.012 2.571-.771 0-1.158 0-1.929-.006 0-2.345-.006-4.683-.022-7.024 1.513 0 3.022.006 4.531.006zm-5.896-.006c.01.573.012.866.018 1.452-1.521-.006-3.042-.006-4.563-.012.014.504.021.756.033 1.267 1.476 0 2.955 0 4.43.006.004.573.01.86.01 1.44-1.468-.006-2.941-.006-4.413-.012.012.563.02.844.027 1.411 1.503 0 3.002.007 4.503.007.004.588.008.881.008 1.467-2.126-.006-4.254-.012-6.385-.012-.057-2.344-.119-4.682-.189-7.021 2.172 0 4.349.007 6.521.007zm-16.709 6.991c-1.487 0-2.225 0-3.683 0-.31-.645-.467-.961-.775-1.594-1.491 0-2.225-.006-3.674-.006-.235.627-.35.949-.58 1.588-.751 0-1.125-.006-1.864-.006.858-2.344 1.734-4.676 2.646-7.002 1.041 0 1.568 0 2.633.006 1.179 2.191 2.331 4.412 3.461 6.639-.118-2.215-.243-4.424-.373-6.639 1.195.006 1.799.006 3.018.006.908 1.57 1.799 3.152 2.681 4.734.677-1.576 1.363-3.158 2.06-4.729 1.272 0 1.911 0 3.195 0 .083 2.345.154 4.683.219 7.024h.003v.002c-.779 0-1.164-.006-1.937-.006-.061-1.84-.13-3.681-.203-5.515-.858 1.828-1.698 3.662-2.521 5.509-.653 0-.98 0-1.631 0-.975-1.853-1.955-3.697-2.961-5.531.101 1.84.195 3.68.286 5.52zm6.122 6.623c.03.521.047.779.077 1.295 1.609 0 2.42 0 4.047-.006.03.586.042.873.071 1.446-1.622 0-2.432 0-4.036.007.036.563.049.844.083 1.399 1.504 0 3.001 0 4.505 0 .801-.832 1.207-1.248 2.023-2.074-.846-.825-1.272-1.235-2.124-2.067-1.551 0-3.095 0-4.646 0zm50.514 1.406l.084-1.307c.028-.498.063-.996.095-1.494l.091-1.478h-1.499c-1.202 0-2.399 0-3.599 0-.086.006-.16.012-.227.029-.733.059-1.306.258-1.739.545.017-.229.023-.34.035-.568-1.633 0-3.267 0-4.898 0-.797 0-1.744.176-2.207.568.012-.229.018-.346.029-.574-3.03 0-6.061 0-9.086-.006-.009.234-.011.346-.017.58-.718-.475-1.956-.58-2.528-.58-2.039 0-4.08 0-6.119 0 0 .229 0 .346 0 .574-.582-.504-1.89-.574-2.683-.574-2.286 0-4.572-.006-6.86-.006-.604.604-.905.908-1.509 1.512-.604-.604-.906-.908-1.515-1.518-3.343 0-6.687 0-10.03 0 .219 3.287.438 6.58.659 9.867 3.199 0 6.395 0 9.59 0 .598-.604.9-.908 1.503-1.519.609.608.917.914 1.526 1.519 2 0 4 0 6 .006-.012-.92-.018-1.383-.031-2.31.238 0 .355 0 .594-.006.805.013 1.752-.012 2.586-.346 0 1.065.004 1.594.006 2.653 1.65 0 3.303 0 4.949 0 .01-1.024.021-1.541.033-2.565.096 0 .143 0 .236 0 .308 0 .338.012.334.293-.016.908-.021 1.364-.032 2.272 4.931 0 9.858 0 14.788 0 .917 0 1.882-.229 2.432-.633l-.027.633c1.508 0 3.015 0 4.521 0 .08 0 .163 0 .242-.006h.201c2.313 0 4.166-1.09 4.312-3.545.045-.738-.063-1.418-.422-2.016h.182zm-34.272 1.826c-.933 0-1.396 0-2.329 0 .018.949.025 1.424.045 2.367-1.44 0-2.158 0-3.594 0-.937-.933-1.409-1.396-2.357-2.332-.911.942-1.367 1.405-2.262 2.338-2.407 0-4.815 0-7.217.006-.154-2.361-.298-4.723-.45-7.084 2.492 0 4.983 0 7.47 0 .962.932 1.442 1.4 2.395 2.326.917-.926 1.381-1.396 2.313-2.326 2.018 0 4.034 0 6.047 0 1.499-.064 3.19.604 3.19 2.332 0 1.752-1.722 2.443-3.251 2.373zm11.2-.333c.255.347.284.668.272 1.289-.013.563-.022.845-.037 1.4-.732 0-1.105 0-1.844 0 .01-.352.012-.533.02-.885.009-.422.068-1.055-.271-1.383-.266-.252-.681-.311-1.354-.311-.797 0-1.194 0-1.987 0-.013 1.036-.019 1.553-.024 2.584-.74 0-1.111 0-1.856 0 .006-2.355.019-4.711.028-7.066 1.455 0 2.905 0 4.357 0 .954 0 1.645.041 2.252.328.586.322.941.768.918 1.57-.032 1.126-.876 1.706-1.364 1.882.405.142.736.388.89.592zm7.681-2.919c-1.438.006-2.876.006-4.311.006-.021.51-.03.768-.051 1.277 1.687 0 2.526 0 4.195 0-.029.573-.042.86-.07 1.436-1.658 0-2.498.006-4.177.006-.02.563-.026.844-.05 1.406 1.717 0 2.57 0 4.268 0-.029.592-.041.885-.064 1.471-2.023.006-4.048.006-6.068.006.063-2.356.135-4.711.214-7.061 2.06 0 4.119 0 6.183 0-.027.58-.046.873-.069 1.453zm4.299 5.602c-1.385 0-2.084 0-3.483 0 .028-.609.044-.914.069-1.523 1.401 0 2.097 0 3.48 0 .34 0 .58-.047.738-.176.125-.104.225-.27.236-.463.012-.205-.078-.369-.189-.463-.131-.111-.319-.158-.627-.158-1.475.012-3.848-.123-3.686-2.18.08-.99.81-2.092 2.709-2.092 1.448 0 2.172 0 3.598 0-.037.598-.061.896-.096 1.494-1.302 0-1.959 0-3.277 0-.331 0-.545.012-.733.129-.2.111-.284.281-.296.504-.014.27.143.445.366.527.184.059.391.075.696.075.387.013.576.013.961.023.973.026 1.623.184 2.001.571.326.34.483.763.438 1.494-.089 1.519-1.112 2.232-2.905 2.238zm9.059-.555c-.491.37-1.195.55-2.092.55-1.382 0-2.078 0-3.481 0 .007-.151.012-.284.018-.407.017-.37.031-.655.053-1.112h.014c.943-.006 1.555-.006 2.284-.006v.006h1.185c.338 0 .578-.041.734-.177.13-.107.224-.271.236-.463.012-.205-.071-.369-.189-.463-.13-.11-.316-.158-.627-.158-.43.007-.936-.006-1.434-.069-.538-.072-1.07-.205-1.479-.47l-.006-.006-.016-.006c-.493-.322-.81-.832-.748-1.623.076-.992.81-2.099 2.705-2.099 1.452 0 2.172 0 3.598 0-.035.597-.053.896-.096 1.488-1.3.006-1.959.006-3.277.006-.329 0-.541.013-.729.129-.207.114-.289.282-.302.511-.006.131.03.243.096.331s.16.152.27.19c.189.058.39.076.699.076.384.011.574.017.962.023.971.023 1.622.18 2 .568.321.34.481.762.44 1.493-.048.759-.327 1.318-.818 1.688zm-39.314-2.937c1.181 1.148 1.769 1.722 2.935 2.871-.047-1.893-.093-3.779-.136-5.672-1.13 1.119-1.692 1.682-2.799 2.801z" fill="#fff"/></svg>