<svg xmlns="http://www.w3.org/2000/svg" width="76" height="50" viewBox="0.5 48.5 76 50" enable-background="new 0.5 48.5 76 50"><path fill-rule="evenodd" clip-rule="evenodd" fill="#E3E4E4" d="M6.186 49.5h64.625c2.58 0 4.687 2.084 4.687 4.633v38.733c0 2.549-2.106 4.634-4.687 4.634h-64.625c-2.575 0-4.686-2.085-4.686-4.634v-38.733c0-2.549 2.111-4.633 4.686-4.633z"/><path fill-rule="evenodd" clip-rule="evenodd" fill="#F0F0F0" d="M6.186 49.5h64.627c2.574 0 4.687 2.084 4.687 4.633v.617l-69.201 42.75h-.113c-2.575 0-4.686-2.085-4.686-4.634v-38.733c0-2.549 2.111-4.633 4.686-4.633z"/><path fill-rule="evenodd" clip-rule="evenodd" fill="#365A8D" d="M53.671 66.653c-.237-.458-.599-.833-1.059-1.12-.468-.29-1.03-.49-1.669-.607-.645-.117-1.402-.176-2.267-.176h-4.018c-.416 0-.828.324-.921.723l-2.717 11.64c-.095.4.172.726.58.726h1.929c.415 0 .829-.325.924-.726l.657-2.819c.096-.396.507-.724.922-.724h.551c2.355 0 4.183-.479 5.491-1.43 1.308-.959 1.965-2.211 1.965-3.768-.001-.687-.119-1.259-.368-1.719zm-4.153 3.805c-.58.417-1.385.63-2.433.63h-.474c-.414 0-.674-.328-.582-.728l.58-2.471c.092-.396.505-.722.914-.722h.632c.74 0 1.294.121 1.676.369.366.243.557.621.557 1.131 0 .774-.294 1.372-.87 1.791zm9.431 7.381h2.421c.413 0 .826-.325.922-.726l1.398-5.992c.036-.141.064-.305.088-.494.018-.188.029-.343.029-.453 0-.854-.367-1.48-1.095-1.883-.733-.405-1.876-.606-3.438-.606-.775 0-1.551.059-2.332.176-.78.116-1.354.224-1.728.319l-.325 1.635c-.08.399-.013.727.147.727.313-.114.793-.257 1.426-.436.636-.176 1.214-.266 1.735-.266.778 0 1.36.082 1.743.246.388.165.587.451.587.859 0 .098-.013.188-.029.27-.019.08-.036.141-.042.174-1.101.062-2.128.163-3.076.3-.94.134-1.758.353-2.444.659-.728.324-1.278.754-1.651 1.299-.372.544-.556 1.201-.556 1.983 0 .736.26 1.34.787 1.8.521.46 1.195.69 2.023.69.515 0 .917-.033 1.206-.109.289-.07.599-.176.931-.313.246-.104.509-.249.793-.437.282-.184.525-.343.728-.474l-.248 1.052zm.609-2.572c-.318.223-.655.408-1.01.55-.355.146-.693.217-1.004.217-.48 0-.847-.07-1.095-.207-.251-.138-.376-.372-.376-.712 0-.386.096-.695.284-.93s.462-.415.817-.542c.35-.125.772-.219 1.271-.283.491-.061 1.023-.117 1.592-.166l-.479 2.073zm10.404-10.412l-2.751 12.26c-.09.398-.503.726-.919.726h-1.721c-.415 0-.679-.327-.581-.726l2.575-11.539c.096-.396.511-.721.923-.721h2.474z"/><path fill-rule="evenodd" clip-rule="evenodd" fill="#212C58" d="M19.711 66.675c-.238-.46-.594-.835-1.061-1.12-.472-.288-1.023-.488-1.667-.607-.647-.117-1.4-.176-2.266-.176h-4.02c-.418 0-.827.326-.923.723l-2.715 11.642c-.093.398.167.722.585.722h1.927c.412 0 .826-.323.919-.72l.659-2.825c.095-.398.505-.722.921-.722h.553c2.353 0 4.185-.477 5.493-1.43 1.311-.957 1.965-2.209 1.965-3.771-.001-.685-.125-1.258-.37-1.716zm-4.157 3.804c-.578.417-1.385.63-2.424.63h-.48c-.414 0-.678-.328-.585-.728l.58-2.471c.094-.399.508-.726.923-.726h.629c.736 0 1.292.127 1.667.373.375.245.562.621.562 1.131-.001.775-.291 1.373-.872 1.791zm9.438 7.379h2.418c.414 0 .824-.323.919-.72l1.405-5.996c.035-.143.063-.307.078-.496.023-.185.031-.339.031-.45.002-.853-.36-1.481-1.095-1.884-.728-.405-1.876-.606-3.438-.606-.776 0-1.551.057-2.326.178-.784.116-1.36.224-1.729.317l-.328 1.635c-.08.399-.009.729.15.729.315-.116.789-.263 1.425-.438.639-.174 1.213-.264 1.739-.264.77 0 1.354.082 1.743.246.39.163.585.449.585.857 0 .098-.016.188-.028.268-.025.082-.04.141-.044.178-1.104.062-2.125.159-3.074.296-.945.136-1.762.356-2.445.661-.729.326-1.279.756-1.653 1.299-.371.544-.559 1.207-.559 1.985 0 .736.261 1.339.788 1.796.523.462 1.2.694 2.024.694.517 0 .917-.039 1.208-.109.294-.076.604-.176.929-.313.246-.109.511-.253.793-.437.281-.188.528-.345.726-.476l-.242 1.05zm.599-2.57c-.315.223-.648.406-1.005.552-.355.141-.691.217-1.002.217-.479 0-.845-.07-1.096-.207-.246-.139-.375-.378-.375-.718 0-.38.094-.693.281-.928.19-.23.465-.411.822-.542.351-.119.77-.217 1.266-.281.498-.064 1.029-.117 1.59-.164l-.481 2.071zm14.051-7.598c-.413 0-.959.331-1.208.726l-3.406 5.769-.933-5.759c-.091-.4-.503-.728-.919-.728h-1.719c-.416 0-.678.327-.586.728l1.49 9.509c.027.209.059.38.082.526l-1.854 3.065c-.244.398-.113.726.296.726h1.997c.413 0 .953-.327 1.2-.726l8.304-13.836h-2.744z"/></svg>