<svg xmlns="http://www.w3.org/2000/svg" width="76" height="50" viewBox="0.5 48.5 76 50" enable-background="new 0.5 48.5 76 50"><g fill-rule="evenodd" clip-rule="evenodd"><path fill="#313E80" d="M6.187 49.5h64.625c2.58 0 4.687 2.085 4.687 4.634v38.732c0 2.551-2.106 4.634-4.687 4.634h-64.625c-2.577 0-4.687-2.083-4.687-4.634v-38.732c0-2.549 2.11-4.634 4.687-4.634z"/><path fill="#374893" d="M6.187 49.5h64.627c2.574 0 4.687 2.085 4.687 4.634v.616l-69.204 42.75h-.11c-2.577 0-4.687-2.083-4.687-4.634v-38.732c0-2.549 2.11-4.634 4.687-4.634z"/><path fill="#fff" d="M1.5 60.066h73.998v26.869h-73.998z"/><path fill="#313E80" d="M26.072 64.61l-4.563 12.173-.489-2.475v-.002l-1.63-8.195c-.281-1.135-1.101-1.466-2.114-1.505h-7.519l-.04.306c1.811.457 3.426 1.122 4.848 1.948l4.17 15.582h4.935l7.338-17.832h-4.936zm3.91 17.84l2.914-17.853h4.665l-2.92 17.853zm21.571-17.411c-.917-.362-2.373-.757-4.174-.757-4.613 0-7.856 2.422-7.886 5.89-.029 2.574 2.319 4.002 4.087 4.86 1.814.869 2.426 1.431 2.418 2.213-.016 1.191-1.451 1.738-2.793 1.738-1.861 0-2.854-.266-4.381-.937l-.609-.281-.65 3.994c1.089.503 3.101.929 5.199.956 4.892 0 8.073-2.399 8.114-6.103.02-2.034-1.225-3.578-3.923-4.85-1.621-.827-2.63-1.375-2.613-2.216.004-.739.844-1.533 2.674-1.533 1.525-.03 2.62.316 3.489.687l.415.207.633-3.868zm6.207 11.081c.391-1.025 1.858-4.988 1.858-4.988-.03.047.379-1.038.621-1.705l.308 1.545s.899 4.255 1.083 5.148c-.722 0-2.959 0-3.87 0zm5.75-11.506h-3.602c-1.119 0-1.953.321-2.45 1.479l-6.917 16.358h4.899s.799-2.199.977-2.682c.538 0 5.29.008 5.971.008.142.626.567 2.674.567 2.674h4.33l-3.775-17.837z"/><path fill="#D1A035" d="M75.5 86.936h-74v5.933c0 2.549 2.11 4.632 4.687 4.632h64.627c2.578 0 4.687-2.083 4.687-4.632v-5.933z"/></g></svg>