<svg xmlns="http://www.w3.org/2000/svg" width="76" height="50" viewBox="0.5 48.5 76 50" enable-background="new 0.5 48.5 76 50"><g fill-rule="evenodd" clip-rule="evenodd"><path fill="#E3E4E4" d="M6.187 49.5h64.625c2.58 0 4.687 2.08 4.687 4.635v38.73c0 2.555-2.106 4.635-4.687 4.635h-64.625c-2.577 0-4.687-2.08-4.687-4.635v-38.73c0-2.555 2.11-4.635 4.687-4.635z"/><path fill="#F0F0F0" d="M6.187 49.5h64.627c2.574 0 4.687 2.08 4.687 4.635v.615l-69.204 42.75h-.11c-2.577 0-4.687-2.08-4.687-4.635v-38.73c0-2.555 2.11-4.635 4.687-4.635z"/><ellipse fill="#BA2329" cx="28.69" cy="73.5" rx="14.495" ry="14.332"/><ellipse fill="#E39E2F" cx="48.312" cy="73.5" rx="14.496" ry="14.332"/></g></svg>