<svg xmlns="http://www.w3.org/2000/svg" width="100" height="100" viewBox="0 0 100 100"><circle cx="72.171" cy="83.629" r="9.681"/><circle cx="34.146" cy="83.629" r="9.681"/><path d="M29.7 26.77c-2.2 0-4.405-1.754-4.9-3.897l-1.662-7.194c-.495-2.144-2.624-4.415-4.731-5.047l-9.309-2.793c-2.107-.632-4.348.575-4.981 2.682l-.736 2.454c-.632 2.107.575 4.349 2.682 4.981l3.533 1.06c2.107.632 4.238 2.903 4.734 5.046l9.621 41.532c.496 2.143 2.703 3.897 4.903 3.897h46.876c2.2 0 4.633-1.685 5.406-3.745l13.226-35.231c.773-2.06-.394-3.745-2.594-3.745h-62.068z"/></svg>