<svg xmlns="http://www.w3.org/2000/svg" width="100" height="100" viewBox="0 0 100 100"><path fill="none" d="M81.926 35.927l-4.08-4.079c-2.213-2.214-5.83-2.214-8.045 0l-28.098 28.097-13.698-13.698c-2.213-2.213-5.832-2.213-8.045 0l-4.079 4.08c-2.214 2.213-2.214 5.832 0 8.045l21.681 21.918c2.214 2.213 5.832 2.213 8.045 0l36.319-36.318c2.213-2.213 2.213-5.832 0-8.045z"/><path d="M45.607 80.29c-2.213 2.213-5.831 2.213-8.045 0l-21.681-21.918c-2.214-2.213-2.214-5.832 0-8.045l4.079-4.08c2.213-2.213 5.832-2.213 8.045 0l13.697 13.698 28.098-28.098c2.215-2.214 5.832-2.214 8.045 0l4.08 4.079c2.213 2.213 2.213 5.832 0 8.045l-36.318 36.319z"/></svg>