<svg xmlns="http://www.w3.org/2000/svg" width="100" height="100" viewBox="0 0 100 100"><path d="M50 7.743c-23.338 0-42.257 18.919-42.257 42.257s18.919 42.257 42.257 42.257 42.257-18.919 42.257-42.257-18.919-42.257-42.257-42.257zm16.149 42.884c-.019.201-.067.393-.105.589-.274 1.529-1.018 3.061-2.271 4.314l-14.716 14.716c-2.868 2.868-7.195 3.233-9.615.812-2.421-2.421-2.055-6.748.812-9.615l11.443-11.443-11.443-11.443c-2.868-2.868-3.233-7.195-.812-9.615 2.421-2.421 6.748-2.055 9.615.812l14.716 14.716c1.253 1.253 1.997 2.784 2.271 4.314.038.196.086.388.105.589.02.212.006.418.007.627-.001.209.013.416-.007.627z"/></svg>