<svg xmlns="http://www.w3.org/2000/svg" width="32" height="32" viewBox="0 0 32 32"><path d="M18.962 10.629l-2.598 1.5-2.497-4.323c-.277-.481-.893-.643-1.369-.371-.476.279-.644.888-.365 1.37l3.004 5.192c.269.484.883.643 1.359.366l3.463-1.999c.483-.278.642-.883.366-1.362-.276-.483-.882-.641-1.363-.373zm6.994-3.879c-2.046-3.547-5.865-5.75-9.966-5.75-2.006 0-3.991.533-5.739 1.54-2.661 1.537-4.564 4.017-5.359 6.983s-.384 6.065 1.154 8.726c2.045 3.547 5.862 5.751 9.962 5.751 2.007 0 3.992-.534 5.741-1.544 2.66-1.535 4.563-4.014 5.358-6.98.794-2.966.386-6.065-1.151-8.726zm-1.747 7.949c-.588 2.192-1.994 4.025-3.962 5.161-1.292.745-2.758 1.139-4.239 1.139-3.031 0-5.854-1.629-7.369-4.251-2.339-4.061-.941-9.268 3.116-11.605 1.292-.747 2.759-1.143 4.241-1.143 3.028 0 5.85 1.629 7.364 4.252 1.135 1.967 1.437 4.256.849 6.447z"/></svg>