<svg xmlns="http://www.w3.org/2000/svg" width="100" height="125" viewBox="0 -12 100 125" enable-background="new 0 -12 100 125"><style type="text/css">.st0{fill:#070308;}</style><path class="st0" d="M72-5.3c-.4-.4-1.8-.4-2.1 0l-2.5 2.8c-.4.4-.4.7-.4 1.5 0 .4 0 .7.4 1.4l15.3 15.6-15.3 15.6c-.4.4-.4.7-.4 1.4 0 .4 0 .7.4 1.4l2.5 2.8c.4.4.7.4 1.4.4s.7 0 1.4-.4l19.9-21c-.3.2-19.9-20.8-20.6-21.5zm-39.4 5c0-.4 0-.7-.4-1.4l-2.5-2.8c-.4-.4-1.8-.4-2.1 0 0 0-19.9 21-20.2 21.7l19.9 21c.4.4.7.4 1.4.4s.7 0 1.4-.4l2.5-2.8c.4-.4.4-.7.4-1.4 0-.4 0-.7-.4-1.4l-15.3-15.9 15.3-15.6s0-1.4 0-1.4zm26.6-2.2c-.4-.4-1.4 0-1.8.4l-19.8 34.4c-.4.4 0 1.4.4 1.8l3.6 1.8s.7 0 1.8-.4l19.9-34.4c.4-.4 0-1.4-.4-1.8 0 0-3.7-1.8-3.7-1.8z"/></svg>