<svg xmlns="http://www.w3.org/2000/svg" width="50" height="50" viewBox="0 0 50 50"><path d="M39.9 27c.1-.6.1-1.3.1-2s-.1-1.3-.1-2l4.2-3.3c.4-.3.5-.8.2-1.3l-4-6.9c-.2-.4-.8-.6-1.2-.4l-5 2c-1-.8-2.2-1.5-3.4-2l-.7-5.3c-.1-.4-.5-.8-1-.8h-8c-.5 0-.9.4-1 .8l-.8 5.3c-1.2.5-2.3 1.2-3.4 2l-5-2c-.5-.2-1 0-1.2.4l-4 6.9c-.3.4-.1 1 .2 1.3l4.2 3.3c-.1.6-.1 1.3-.1 2s.1 1.3.1 2l-4.2 3.3c-.4.3-.5.8-.2 1.3l4 6.9c.2.4.8.6 1.2.4l5-2c1 .8 2.2 1.5 3.4 2l.8 5.3c.1.5.5.8 1 .8h8c.5 0 .9-.4 1-.8l.8-5.3c1.2-.5 2.3-1.2 3.4-2l5 2c.5.2 1 0 1.2-.4l4-6.9c.2-.4.1-1-.2-1.3l-4.3-3.3zm-14.9 5c-3.9 0-7-3.1-7-7s3.1-7 7-7 7 3.1 7 7-3.1 7-7 7z"/></svg>