<svg xmlns="http://www.w3.org/2000/svg" width="100" height="100" viewBox="0 0 100 100"><path d="M18.232 30.798c.441.257.868.399 1.184.66 1.5 1.146 3.025 2.324 4.486 3.511.44.353.829.481 1.352.138.364-.228.806-.483 1.274-.537 1.459-.255 1.768-1.22 1.893-2.539.135-1.675.488-3.345.756-5.016.173-1.014.787-1.45 1.837-1.446 2.648.04 5.322.001 7.998.034 1.146.001 1.591.403 1.769 1.548.307 1.976.612 3.952.918 5.928.038.172.039.346.084.487.217.703 3.559 1.838 4.134 1.399 1.543-1.177 3.082-2.327 4.649-3.474 1.019-.785 1.634-.788 2.549.095 1.848 1.808 3.699 3.644 5.455 5.541 1.314 1.44 1.23 1.756.053 3.253-1.02 1.316-2.025 2.639-3.046 3.953-.352.44-.438.836-.132 1.358.23.408.49.883.576 1.364.27 1.626 1.363 2.024 2.813 2.15 1.535.099 3.035.401 4.561.658 1.204.184 1.585.622 1.586 1.856.002 2.599.002 5.218 0 7.815-.001 1.273-.38 1.713-1.662 1.932-1.974.311-3.95.621-5.926.884-.58.085-.889.304-1.025.874-.088.352-.205.713-.393 1.012-.964 1.326-.695 2.424.396 3.566 1.011 1.056 1.846 2.281 2.77 3.424.566.703.749 1.46.091 2.154-1.979 2.068-3.949 4.17-6.024 6.111-1.146 1.093-1.709.969-2.977-.008-1.412-1.133-2.811-2.271-4.234-3.332-.294-.186-.784-.225-1.137-.142-.481.091-.915.456-1.368.536-1.481.256-1.833 1.18-1.927 2.504-.131 1.678-.488 3.346-.752 5.02-.171 1.037-.742 1.492-1.795 1.488-2.687-.009-5.403 0-8.09-.005-1.101-.002-1.573-.437-1.718-1.528-.337-2.032-.61-4.066-.969-6.113-.081-.354-.474-.709-.79-.932-.389-.26-.918-.27-1.306-.529-1.06-.742-1.898-.567-2.864.271-1.273 1.136-2.685 2.07-4.044 3.113-.747.543-1.497.57-2.158-.086-1.928-1.894-3.863-3.777-5.702-5.758-1.271-1.365-1.192-1.717-.086-3.196.999-1.245 1.965-2.548 2.982-3.749.528-.645.617-1.18.171-1.877-.255-.354-.477-.756-.528-1.154-.256-1.578-1.314-1.927-2.677-2.063-1.665-.175-3.293-.519-4.926-.749-.879-.135-1.308-.662-1.309-1.522-.005-2.783-.006-5.591.001-8.399.032-.879.478-1.409 1.396-1.541 2.068-.31 4.137-.616 6.201-1.004.356-.054.709-.445.97-.757.218-.267.214-.738.431-1.009 1.106-1.456.535-2.634-.528-3.816-.958-1.02-1.79-2.161-2.638-3.257-.607-.745-.745-1.538-.044-2.246 1.983-2.06 4.004-4.082 6.064-6.065.355-.351.887-.522 1.375-.788zm28.779 24.821c.007-6.669-5.311-12.032-11.952-12.073-6.682-.012-12.085 5.353-12.084 12.035 0 6.636 5.359 11.995 11.998 11.999 6.637.01 12.003-5.32 12.038-11.961zm17.849-10.63c.739-1.841 1.364-3.513 2.063-5.175.656-1.509-.485-3.476-2.115-3.66-1.661-.214-3.29-.524-4.922-.792-.657-.125-.92-.481-.91-1.186.073-1.749.073-3.47 0-5.219-.01-.705.256-1.06.911-1.155 1.671-.298 3.341-.606 5.015-.792.742-.088 1.105-.387 1.571-1 .884-1.198.757-2.25.135-3.522-.647-1.233-1.005-2.597-1.488-3.912-.22-.572-.04-.92.489-1.223 1.58-.845 3.154-1.756 4.693-2.683.618-.361 1.053-.224 1.449.263 1.111 1.362 2.279 2.718 3.34 4.123.352.447.707.495 1.232.58 1.629.258 2.635-.436 3.475-1.763.66-1.057 1.62-1.937 2.414-2.938.408-.524.833-.658 1.449-.271 1.548.93 3.165 1.844 4.752 2.728.485.268.657.616.471 1.143-.656 1.711-1.308 3.425-2.007 5.102-.186.519-.18.87.047 1.394.643 1.414 1.575 2.073 3.19 2.112 1.331.009 2.688.404 4.015.663.607.096.876.439.87 1.104-.048 1.76-.048 3.55 0 5.311.006.662-.253 1.013-.858 1.106-1.677.302-3.347.61-5.021.826-.754.09-1.361.221-1.59 1.053-.086.269-.261.536-.473.755-.49.566-.367 1.06-.099 1.713.671 1.583 1.27 3.211 1.891 4.832.222.608.085.969-.519 1.281-1.58.874-3.129 1.758-4.664 2.714-.613.358-1.049.266-1.455-.257-1.1-1.366-2.243-2.724-3.329-4.13-.36-.485-.754-.526-1.29-.616-1.702-.273-2.595.532-3.46 1.809-.708 1.089-1.628 2.017-2.465 3.023-.357.44-.747.529-1.28.214-1.577-.96-3.196-1.84-4.745-2.769-.304-.174-.514-.516-.782-.786zm12.16-7.421c3.262-.004 5.949-2.686 5.981-5.975.006-3.26-2.765-6.064-6.054-6.03-3.217.005-5.945 2.765-5.98 5.983-.006 3.332 2.719 6.056 6.053 6.022z" fill-rule="evenodd" clip-rule="evenodd"/></svg>