<svg xmlns="http://www.w3.org/2000/svg" width="100" height="100" viewBox="0 0 100 100"><path fill="none" d="M80.475 16.421l-1.545-1.523c-.84-.826-2.211-.826-3.051 0l-6.609 6.508-6.609-6.508c-.84-.826-2.21-.826-3.049 0l-1.547 1.523c-.838.826-.838 2.178 0 3.004l6.611 6.508-6.611 6.508c-.838.826-.838 2.178 0 3.004l1.547 1.525c.839.825 2.209.825 3.05 0l6.608-6.509 6.609 6.509c.84.825 2.211.825 3.051 0l1.545-1.523c.838-.826.838-2.178 0-3.004l-6.608-6.509 6.608-6.509c.838-.825.838-2.177 0-3.004z"/><path fill="#F9625D" d="M89.439 37.651c1.507 1.486 1.507 3.92 0 5.406l-2.782 2.743c-1.512 1.484-3.979 1.484-5.49 0l-11.897-11.717-11.895 11.717c-1.515 1.484-3.98 1.484-5.49 0l-2.785-2.746c-1.507-1.485-1.507-3.92 0-5.406l11.9-11.715-11.9-11.715c-1.507-1.486-1.507-3.92 0-5.406l2.785-2.742c1.51-1.485 3.976-1.485 5.487 0l11.898 11.715 11.897-11.716c1.512-1.485 3.979-1.485 5.49 0l2.782 2.742c1.507 1.486 1.507 3.92 0 5.406l-11.896 11.719 11.896 11.715z"/><path d="M76.008 56.666c-4.257 3.837-10.335 6.747-17.51 8.084l-1.071.199-7.745 7.783-7.664-7.856-1.07-.21c-13.945-2.737-23.685-11.496-23.685-21.301 0-9.356 8.592-17.371 20.701-20.617.419-4.148 1.651-8.059 3.528-11.576-20.217 3.038-35.476 16.678-35.476 33.064 0 15.198 13.124 28.03 31.15 32.238l12.285 13.229 12.984-13.125c17.765-4.008 30.854-16.373 31.517-31.164-4.432 5.606-10.726 9.671-17.944 11.252z"/></svg>