<svg xmlns="http://www.w3.org/2000/svg" width="100" height="100" viewBox="0 0 100 100"><path opacity=".1" fill="#231F20" d="M82.284 17.922c.082.243.137.499.137.769v60.433c0 1.334-1.082 2.416-2.416 2.416h-61.52c-.271 0-.526-.055-.769-.137.323.955 1.215 1.646 2.279 1.646h61.52c1.334 0 2.416-1.082 2.416-2.416v-60.433c0-1.063-.692-1.956-1.647-2.278z"/><path fill="#465150" d="M16.069 59.896v19.228c0 1.334 1.082 2.416 2.416 2.416h61.52c1.334 0 2.416-1.082 2.416-2.416v-19.228h-66.352zm23.058 14.205c.287.396.708.594 1.262.594.543 0 .922-.156 1.135-.471.214-.313.308-.85.281-1.609h2.167l.024.048c.01 1.266-.29 2.22-.902 2.863-.611.644-1.514.965-2.705.965s-2.144-.365-2.855-1.096-1.068-1.765-1.068-3.104v-3.441c0-1.334.345-2.368 1.032-3.104.688-.735 1.61-1.104 2.765-1.104 1.224 0 2.148.327 2.772.981.625.653.948 1.621.97 2.902l-.024.048h-2.167c.031-.757-.071-1.302-.309-1.636-.237-.333-.651-.5-1.242-.5-.506 0-.894.198-1.162.594-.27.396-.403.995-.403 1.798v3.46c-.002.812.142 1.416.429 1.812zm12.598 1.543c-.665.564-1.548.847-2.65.847-1.097 0-2.048-.32-2.852-.961-.805-.641-1.193-1.56-1.167-2.757l.016-.048h2.191c0 .712.15 1.224.451 1.535s.754.467 1.36.467c.475 0 .826-.127 1.056-.38s.345-.596.345-1.028c0-.448-.116-.803-.349-1.063-.231-.262-.641-.519-1.226-.771-1.197-.417-2.095-.89-2.693-1.42s-.898-1.272-.898-2.227c0-.944.349-1.713 1.045-2.306.695-.594 1.584-.891 2.665-.891 1.097 0 1.988.331 2.674.993s1.018 1.496.997 2.503l-.016.048h-2.184c0-.527-.132-.954-.396-1.281s-.636-.49-1.115-.49c-.448 0-.798.136-1.048.407-.251.271-.376.613-.376 1.024 0 .38.14.692.419.938s.765.518 1.455.818c1.092.369 1.913.837 2.465 1.404.551.566.826 1.333.826 2.298.001.996-.331 1.777-.995 2.341zm7.166.68h-2.341l-3.22-11.518h2.365l1.906 8.575.087.442h.048l.087-.419 1.922-8.599h2.365l-3.219 11.519z"/><path fill="#FFE75C" d="M34.356 49.834h15.098v7.851h-15.098zm16.607-16.607h15.098v15.098h-15.098zm0-14.736h15.098v13.226h-15.098zm-16.607 14.736h15.098v15.098h-15.098zm0-14.736h15.098v13.226h-15.098zm43.97 0h-10.755v13.226h13.171v-10.81c0-1.334-1.082-2.416-2.416-2.416zm-27.363 31.343h15.098v7.851h-15.098zm-33.215-16.607h15.098v15.098h-15.098zm49.823 0h13.171v15.098h-13.171zm-49.823-14.736h15.098v13.226h-15.098zm49.823 31.343h13.171v7.851h-13.171zm-49.823 0h15.098v7.851h-15.098z"/><path fill="#465150" d="M30.289 16.275l-3.305 6.247-3.256-6.247h-5.243c-.588 0-1.126.21-1.545.559l6.148 10.275-7.018 11.628v4.717h4.747l6.258-11.691 6.258 11.691h7.861l-10.179-16.345 6.482-10.834h-7.208z"/></svg>