<svg xmlns="http://www.w3.org/2000/svg" width="100" height="100" viewBox="0 0 100 100"><path fill="none" stroke="#000" stroke-width="4.098" stroke-linecap="round" stroke-miterlimit="10" d="M81.19 37.201"/><path fill="#333" d="M75.978 28.899h-55.855c-2.817 0-5.123 2.306-5.123 5.123v49.859h29.988l-3.923-6.067h-20.464v-35.104h54.897v6.88l5.602-2.401v-13.167c0-2.817-2.307-5.123-5.122-5.123zm-54.981 9.606c-1.556 0-2.816-1.261-2.816-2.818 0-1.556 1.261-2.817 2.816-2.817 1.557 0 2.818 1.261 2.818 2.817 0 1.557-1.261 2.818-2.818 2.818zm6.916 0c-1.555 0-2.818-1.261-2.818-2.818 0-1.556 1.263-2.817 2.818-2.817 1.556 0 2.818 1.261 2.818 2.817 0 1.557-1.262 2.818-2.818 2.818zm6.916 0c-1.557 0-2.818-1.261-2.818-2.818 0-1.556 1.261-2.817 2.818-2.817 1.556 0 2.818 1.261 2.818 2.817 0 1.557-1.262 2.818-2.818 2.818z"/><path d="M31.237 53.945l.014.045c.021 1.135-.328 2.039-1.04 2.705-.714.666-1.703 1.002-2.97 1.002-1.272 0-2.306-.408-3.099-1.229-.792-.816-1.189-1.867-1.189-3.153v-2.098c0-1.28.387-2.333 1.161-3.155.775-.822 1.78-1.233 3.018-1.233 1.306 0 2.326.334 3.061 1.005.736.669 1.093 1.582 1.074 2.739l-.015.041h-2.059c0-.695-.168-1.229-.502-1.599-.334-.369-.854-.555-1.559-.555-.634 0-1.137.257-1.509.772-.373.515-.559 1.169-.559 1.969v2.107c0 .807.196 1.467.588 1.982.392.514.921.77 1.589.77.661 0 1.152-.176 1.469-.532.315-.355.475-.883.475-1.585h2.052zm7.226.842c0-.406-.145-.731-.433-.98-.288-.245-.791-.479-1.513-.693-1.258-.363-2.208-.795-2.851-1.291-.644-.499-.964-1.182-.964-2.048 0-.865.368-1.572 1.105-2.122.738-.548 1.68-.823 2.826-.823 1.16 0 2.108.308 2.837.925.729.617 1.083 1.377 1.057 2.281l-.012.044h-2.053c0-.489-.164-.884-.49-1.186s-.786-.454-1.375-.454c-.567 0-1.002.125-1.313.377-.308.252-.464.573-.464.966 0 .357.164.651.498.879.331.23.901.476 1.716.73 1.163.324 2.048.752 2.647 1.284.599.531.9 1.23.9 2.095 0 .906-.357 1.62-1.072 2.141-.711.521-1.654.785-2.823.785-1.153 0-2.156-.297-3.012-.889-.856-.594-1.271-1.425-1.247-2.492l.014-.043h2.061c0 .627.192 1.09.577 1.38.385.294.921.44 1.608.44.574 0 1.015-.119 1.318-.356.305-.235.458-.554.458-.95zm7.305-.05l.13.571h.043l.123-.556 2.3-7.771h2.234l-3.589 10.563h-2.179l-3.582-10.563h2.233l2.287 7.756z" fill="#FCE666"/><circle fill="none" cx="64.711" cy="68.814" r="9.221"/><path fill-rule="evenodd" clip-rule="evenodd" fill="#333" d="M55.858 54.425c.27.156.531.243.724.403.917.7 1.852 1.421 2.744 2.146.269.216.507.294.827.084.222-.139.492-.296.778-.327.892-.157 1.081-.747 1.157-1.554.083-1.023.298-2.044.462-3.066.106-.621.481-.888 1.124-.885 1.619.023 3.255.001 4.892.02.699.002.973.248 1.081.949.188 1.207.375 2.416.562 3.624.024.106.024.212.052.298.133.43 2.176 1.124 2.528.855.943-.72 1.885-1.423 2.844-2.125.622-.479.999-.481 1.558.059 1.132 1.105 2.264 2.228 3.337 3.388.805.882.753 1.074.032 1.989-.623.806-1.237 1.614-1.861 2.418-.216.27-.269.511-.082.831.141.25.3.54.354.833.164.995.833 1.239 1.72 1.315.939.061 1.855.246 2.788.402.737.112.971.382.971 1.136.001 1.59.001 3.191 0 4.779 0 .778-.233 1.048-1.017 1.182-1.207.19-2.416.38-3.624.541-.354.051-.544.186-.628.534-.054.216-.125.436-.239.618-.59.812-.426 1.483.243 2.182.617.646 1.129 1.396 1.693 2.094.347.431.457.893.055 1.317-1.209 1.266-2.415 2.551-3.684 3.737-.701.669-1.045.593-1.82-.004-.863-.693-1.719-1.391-2.59-2.038-.18-.114-.479-.138-.695-.086-.293.055-.559.278-.836.326-.905.158-1.121.723-1.18 1.532-.079 1.026-.297 2.047-.46 3.07-.104.634-.453.911-1.097.909-1.643-.005-3.305 0-4.948-.003-.672-.001-.961-.267-1.051-.934-.206-1.243-.373-2.487-.592-3.739-.05-.217-.29-.435-.483-.57-.237-.157-.562-.165-.799-.323-.647-.454-1.161-.347-1.752.166-.778.694-1.642 1.267-2.473 1.904-.457.331-.916.349-1.32-.052-1.179-1.159-2.362-2.313-3.486-3.522-.778-.835-.729-1.05-.054-1.954.61-.762 1.201-1.559 1.824-2.293.324-.395.378-.722.105-1.147-.156-.217-.292-.463-.323-.706-.156-.967-.804-1.179-1.637-1.263-1.019-.106-2.015-.317-3.013-.458-.538-.082-.799-.404-.8-.932-.003-1.7-.003-3.418 0-5.136.02-.538.292-.861.854-.943 1.265-.188 2.531-.377 3.792-.614.218-.033.435-.271.593-.462.134-.164.131-.452.265-.617.676-.891.326-1.61-.324-2.334-.586-.625-1.094-1.321-1.612-1.992-.371-.455-.455-.94-.027-1.373 1.213-1.26 2.448-2.497 3.708-3.71.216-.212.542-.317.84-.479zm17.6 15.179c.004-4.078-3.249-7.357-7.31-7.384-4.086-.007-7.39 3.273-7.39 7.36 0 4.058 3.278 7.336 7.337 7.338 4.06.006 7.343-3.254 7.363-7.314z"/></svg>