<svg xmlns="http://www.w3.org/2000/svg" viewBox="0 0 100 125" enable-background="new 0 0 100 125"><path d="M83.7 26.7c0-.8-.3-1.6-.9-2.2l-16.8-18c-.6-.7-1.5-1-2.4-1h-42c-2.9 0-5.3 2.4-5.3 5.3v79.3c0 2.9 2.4 5.3 5.3 5.3h56.9c2.9 0 5.3-2.4 5.3-5.3 0 0-.1-63.4-.1-63.4zm-41.8 48.1c-.9.7-2.7 1.8-5.2 1.8-4.8 0-7.9-3.3-7.9-7.8 0-4.4 3.2-7.7 7.9-7.7 2.3 0 3.9.8 4.8 1.4.6.4.6 1 .3 1.6l-.5.9c-.4.7-.9.7-1.6.3-.7-.4-1.7-.8-2.8-.8-3 0-4.2 2.1-4.2 4.3 0 2.2 1.3 4.5 4.2 4.5 1.3 0 2.4-.6 3.1-1.1.6-.4 1.2-.4 1.6.2l.6.8c.3.6.2 1.2-.3 1.6zm8.3 1.8c-2.1 0-4-.9-4.8-1.5-.4-.4-.8-.8-.2-1.6l.7-.9c.4-.6.9-.7 1.6-.3.5.3 1.4.9 2.7.9 1.1 0 1.6-.5 1.6-1 0-2.1-6.6-1.8-6.6-6.5 0-2.8 2.3-4.6 5.4-4.6 1.7 0 3.3.6 4.1 1.1.6.4.7 1 .4 1.6l-.5 1c-.4.8-1 .7-1.6.4-.7-.3-1.4-.7-2.4-.7-1.2 0-1.6.5-1.6 1 0 2.2 6.6 1.7 6.6 6.4-.2 2.5-2 4.7-5.4 4.7zm21.1-14l-4.5 12.8c-.2.6-.7.9-1.3.9h-1.8c-.7 0-1.1-.3-1.3-.9l-4.5-12.8c-.3-.8.1-1.3.9-1.3h1.6c.7 0 1.1.3 1.3 1l2.4 7.6c.3.9.6 2.4.6 2.4s.3-1.5.6-2.4l2.4-7.6c.2-.7.6-1 1.3-1h1.5c.7 0 1.1.5.8 1.3zm7.8-34.9h-11c-2.9 0-5.3-2.4-5.3-5.3v-11.8c0-.3.4-.4.6-.2l16 16.7c.1.2 0 .6-.3.6z"/></svg>