<svg xmlns="http://www.w3.org/2000/svg" width="32" height="32" viewBox="34.5 66.5 32 32" enable-background="new 34.5 66.5 32 32"><path d="M65.625 86.224c-.525.515-1.375.507-1.89-.019l-12.3-12.541c-.514-.524-1.355-.524-1.87 0l-12.3 12.541c-.514.525-1.364.533-1.889.019l-.477-.468c-.524-.514-.533-1.364-.018-1.889l14.685-14.974c.514-.524 1.355-.524 1.87 0l14.684 14.974c.515.524.507 1.374-.018 1.889l-.477.468zm-5.106 1.413c0-.736-.424-1.762-.944-2.281l-8.129-8.13c-.521-.52-1.37-.52-1.89 0l-8.13 8.13c-.519.52-.944 1.545-.944 2.281v9.04c0 .734.602 1.335 1.336 1.335h4.862c.734 0 1.335-.601 1.335-1.335v-4.607c0-.735.601-1.336 1.336-1.336h2.3c.735 0 1.336.601 1.336 1.336v4.607c0 .734.602 1.335 1.335 1.335h4.862c.735 0 1.335-.601 1.335-1.335v-9.04z"/></svg>