<svg xmlns="http://www.w3.org/2000/svg" width="50" height="50" viewBox="0 0 50 50"><path d="M39.6 17.4h-5.4v-4c0-1.7-1.3-3-3-3h-22.5c-2 0-3.7 1.7-3.7 3.7v20.2h3.7c0 3 2.4 5.4 5.4 5.4s5.4-2.4 5.4-5.4h11.1c0 3 2.4 5.4 5.4 5.4 3 0 5.4-2.4 5.4-5.4h3.6v-9.1s-5.4-7.8-5.4-7.8zm-25.9 19.5c-1.7 0-2.7-1.3-2.7-2.7 0-1.7 1.3-2.7 2.7-2.7 1.7 0 2.7 1.3 2.7 2.7s-1 2.7-2.7 2.7zm17.9-8.4h-24.2v-13.8c0-1 .7-1.7 1.7-1.7h21.2c1 0 1.7.7 1.7 1.7-.4 0-.4 13.8-.4 13.8zm4.3 8.4c-1.7 0-2.7-1.3-2.7-2.7 0-1.7 1.3-2.7 2.7-2.7 1.7 0 2.7 1.3 2.7 2.7s-1.3 2.7-2.7 2.7zm-2-11.7v-5h4.7l3.7 5h-8.4z"/></svg>