<svg xmlns="http://www.w3.org/2000/svg" width="100" height="100" viewBox="0 0 100 100"><path fill="none" d="M-103 1675.439m0 0"/><path fill="#F7E567" d="M34.331 28.282c0-1.27 1.051-2.321 2.321-2.321h37.138c1.269 0 2.322 1.051 2.322 2.321v6.963h5.802c1.307 0 3.046.726 3.953 1.632l7.18 7.181c1.996 1.994 1.633 4.86 1.633 7.435v11.607c1.269 0 2.32 1.05 2.32 2.32 0 2.685-2.829 2.321-4.643 2.321h-2.32c0 5.115-4.171 9.284-9.285 9.284-5.113 0-9.284-4.169-9.284-9.284h-13.927c0 5.115-4.171 9.284-9.283 9.284-5.115 0-9.286-4.169-9.286-9.284-1.813 0-4.641.363-4.641-2.321v-37.138zm55.706 20.89v-1.088c0-.145-.219-.689-.326-.798l-7.072-7.071c-.108-.11-.653-.327-.798-.327h-5.729v9.284h13.925zm-13.926 18.569c0 2.539 2.103 4.643 4.641 4.643 2.539 0 4.643-2.104 4.643-4.643 0-2.538-2.104-4.642-4.643-4.642-2.538.001-4.641 2.104-4.641 4.642m-32.496 0c0 2.539 2.104 4.643 4.643 4.643 2.538 0 4.642-2.104 4.642-4.643 0-2.538-2.104-4.642-4.642-4.642-2.539.001-4.643 2.104-4.643 4.642"/><path fill="#DDCC30" d="M80.752 77.466c-5.214 0-9.483-4.126-9.714-9.284h-13.067c-.23 5.158-4.499 9.284-9.713 9.284s-9.482-4.124-9.716-9.279c-.05 0-.1.001-.149.002-.221.005-.449.009-.68.009-1.145 0-3.822 0-3.822-2.777v-37.139c0-1.522 1.238-2.761 2.761-2.761h37.138c1.523 0 2.763 1.238 2.763 2.761v6.523h5.361c1.402 0 3.275.773 4.264 1.761l7.181 7.181c1.863 1.862 1.815 4.441 1.774 6.718-.007.346-.013.689-.013 1.028v11.201c1.313.212 2.321 1.354 2.321 2.726 0 2.777-2.68 2.777-3.823 2.777-.23 0-.459-.004-.68-.009-.201-.004-.396-.007-.58-.007h-1.891c-.231 5.159-4.5 9.285-9.715 9.285zm-23.651-10.165h14.808v.44c0 4.877 3.967 8.844 8.844 8.844s8.845-3.967 8.845-8.844v-.44h2.761c.189 0 .39.004.597.009.216.004.438.008.663.008 2.146 0 2.942-.514 2.942-1.897 0-1.02-.861-1.88-1.881-1.88h-.44v-12.048c0-.344.007-.692.014-1.044.04-2.203.082-4.481-1.517-6.079l-7.181-7.181c-.829-.829-2.463-1.503-3.642-1.503h-6.242v-7.403c0-1.02-.861-1.881-1.882-1.881h-37.139c-1.02 0-1.881.861-1.881 1.881v37.137c0 1.384.798 1.897 2.942 1.897.225 0 .447-.004.662-.008.207-.005.407-.009.597-.009h.44v.44c0 4.877 3.968 8.844 8.846 8.844 4.876 0 8.843-3.967 8.843-8.844v-.439zm23.651 5.523c-2.802 0-5.081-2.28-5.081-5.083 0-2.802 2.279-5.082 5.081-5.082 2.803 0 5.083 2.28 5.083 5.082 0 2.803-2.28 5.083-5.083 5.083zm0-9.284c-2.277 0-4.2 1.924-4.2 4.201 0 2.278 1.923 4.202 4.2 4.202 2.278 0 4.202-1.924 4.202-4.202 0-2.277-1.924-4.201-4.202-4.201zm-32.494 9.284c-2.803 0-5.083-2.28-5.083-5.083 0-2.802 2.28-5.082 5.083-5.082 2.802 0 5.082 2.28 5.082 5.082 0 2.803-2.28 5.083-5.082 5.083zm0-9.284c-2.278 0-4.203 1.924-4.203 4.201 0 2.278 1.925 4.202 4.203 4.202 2.277 0 4.201-1.924 4.201-4.202 0-2.277-1.924-4.201-4.201-4.201zm42.22-13.928h-14.807v-10.164h6.17c.251 0 .913.256 1.111.459l7.07 7.068c.188.191.455.842.455 1.109v1.528zm-13.926-.88h13.045v-.648c-.015-.078-.155-.424-.217-.509l-7.053-7.049c-.063-.044-.408-.184-.515-.2l-5.261.001v8.405z"/><path fill="#4B5251" d="M48.258 63.1c-2.54 0-4.643 2.104-4.643 4.642 0 2.539 2.104 4.643 4.643 4.643 2.538 0 4.642-2.104 4.642-4.643-.001-2.539-2.104-4.642-4.642-4.642m32.494 0c-2.538 0-4.643 2.104-4.643 4.642 0 2.539 2.104 4.643 4.643 4.643 2.539 0 4.643-2.104 4.643-4.643 0-2.539-2.104-4.642-4.643-4.642"/><path d="M65.397 35.921l-.382-3.628-.088-.03c-.761-.262-1.534-.442-2.298-.533-.763-.091-1.533-.096-2.29-.017-1.087.114-1.963.343-2.603.68-.715.376-1.155.804-1.428 1.387-.172.368-.277.67-.315 1.12-.037.466-.008 1.111.096 2.091l.429 4.075c.11 1.052.241 1.769.409 2.259.16.459.369.678.636.955l.07.073c.425.437.982.737 1.657.893.555.128 1.419.286 2.49.172.833-.087 1.61-.386 2.336-.682.738-.302 1.417-.709 2.015-1.209l.06-.05-.633-6.019-4.546.478.262 2.485 1.596-.168.173 1.643c-.226.238-.798.488-1.572.569-.472.05-.813-.05-1.044-.303-.247-.275-.389-.692-.459-1.349l-.452-4.291c-.066-.651-.015-1.084.171-1.406.173-.296.486-.465.957-.514.439-.046.769.048 1.005.29.258.261.391.607.449 1.158l.022.217 3.277-.346zm-17.713 10.848c1.071-.112 1.883-.446 2.399-.688.627-.293 1.111-.703 1.437-1.217l.053-.086c.203-.327.363-.583.423-1.066.063-.515.146-.58.1-1.022-.094-.895-.332-1.534-.774-2.076-.355-.438-.84-.748-1.442-.928.453-.275.799-.646 1.033-1.11.3-.595.396-1.201.317-1.963-.132-1.257-.546-2.004-1.432-2.582-.816-.534-2.056-.718-3.685-.546l-5.158.543.243 2.31.115.014c.234.027.398.102.489.222.105.14.174.421.226.916l.649 6.174c.054.495.043.785-.029.943-.065.137-.21.245-.433.319l-.11.036.25 2.369 5.329-.562zm.459-5.331c.294.217.436.515.489 1.024.054.511-.018.828-.245 1.092-.215.25-.613.408-1.185.468l-.98.103-.295-2.808.91-.095c.589-.061 1.028.012 1.306.216m-.517-3.246c-.206.208-.595.344-1.158.403l-.82.086-.246-2.33.82-.086c.56-.059.969 0 1.213.176.256.185.381.444.428.897.05.458-.059.673-.237.854m3.839-3.713c.025.132.055.251.092.405l1.625 7.08.028.125 1.804-.19.144-7.342c.006-.184.011-.318.007-.468l-.001-.05c-.004-.117-.004-.17-.013-.254-.058-.544-.256-.923-.643-1.228-.367-.289-.849-.406-1.426-.346-.569.06-1.008.273-1.305.635-.309.377-.42.788-.363 1.332.007.072.019.121.035.208l.016.093zm1.595 8.96c-.296.371-.423.788-.375 1.239.046.457.26.84.631 1.138.371.297.787.424 1.239.376.463-.049.847-.259 1.143-.623.294-.363.42-.783.371-1.248-.05-.47-.258-.856-.618-1.148-.36-.293-.782-.416-1.252-.366-.459.049-.843.262-1.139.632m-3.558 8.778c.313-.203.556-.476.722-.806.228-.452.303-.91.241-1.488-.101-.955-.427-1.549-1.091-1.982-.587-.384-1.443-.491-2.78-.35l-4.166.438.185 1.758.115.012c.166.019.281.07.343.153.074.097.124.302.162.664l.482 4.59c.04.368.034.608-.017.717-.043.093-.144.166-.302.22l-.11.036.193 1.825 4.292-.452c1.284-.134 2.193-.462 2.704-.971.553-.556.739-1.174.637-2.14-.069-.662-.244-1.124-.585-1.541-.257-.314-.601-.544-1.025-.683m-3.271 1.296l.908-.096c.432-.045.754.007.955.155.21.156.313.37.351.738.039.369-.012.599-.176.789-.153.18-.445.294-.864.338l-.96.102-.214-2.026zm1.47-2.43c-.148.149-.432.249-.846.292l-.839.088-.175-1.668.839-.088c.412-.043.709-.001.885.126.155.112.267.264.307.642.033.329-.041.476-.171.608m14.4 4.962l-.192-1.831.119-.034c.152-.039.246-.104.289-.198.051-.112.058-.328.023-.66l-.127-1.211-2.354-3.586c-.104-.153-.202-.269-.293-.349-.079-.069-.156-.112-.232-.127l-.104-.022-.184-1.746 2.927-.308.132 1.243c.025.241.064.448.117.615.05.162.119.312.201.442l.651.941.442-1.057c.053-.144.09-.304.104-.475.017-.174.012-.383-.014-.625l-.131-1.243 2.929-.308.184 1.746-.098.043c-.071.032-.139.089-.201.173-.072.097-.145.231-.213.403l-1.557 3.998.128 1.21c.034.332.088.541.161.641.061.083.166.128.323.135l.123.007.193 1.832-3.346.351zm-6.622-1.314c.332-.036.488-.149.61-.366.136-.237.174-.559.122-1.042l-.403-3.853c-.043-.404-.1-.641-.185-.768-.073-.115-.19-.188-.355-.228l-.101-.023-.166-1.573 3.715-.556.183 1.735-.093.045c-.185.089-.304.185-.352.287-.055.114-.063.292-.031.601l.423 4.016c.134 1.277-.024 2.078-.541 2.761-.479.634-1.344 1.03-2.621 1.165-1.278.136-2.205-.076-2.805-.595-.649-.559-.971-1.31-1.105-2.588l-.422-4.015c-.032-.309-.079-.481-.155-.581-.068-.09-.205-.159-.404-.208l-.1-.024-.182-1.735 3.748-.229.166 1.572-.094.044c-.154.073-.251.169-.301.295-.055.143-.062.387-.019.791l.405 3.854c.05.481.154.79.335.993.166.187.342.265.674.23l.054-.005zm9.443-23.229c.02.188-.111.351-.304.372-.19.019-.356-.112-.376-.3-.019-.184.117-.347.307-.367.191-.02.353.112.373.295m-.595.063c.016.147.137.252.286.237.145-.015.239-.144.224-.289-.016-.147-.134-.255-.281-.239-.148.015-.243.146-.229.291m.222.152l-.076.009-.034-.331c.029-.01.07-.019.125-.024.063-.007.091 0 .117.013.021.012.038.036.041.068.004.037-.021.068-.061.084v.004c.034.008.054.03.069.075.016.049.023.068.032.08l-.082.008c-.012-.011-.021-.041-.034-.078-.011-.036-.033-.049-.076-.044l-.036.003.015.133zm-.018-.188l.036-.003c.043-.005.075-.023.072-.056-.004-.031-.028-.049-.077-.043-.02.001-.033.005-.041.008l.01.094zm-11.471 11.91c-.296.371-.423.788-.375 1.239.046.457.26.84.631 1.138.371.297.787.424 1.239.376.463-.049.847-.259 1.143-.623.294-.363.42-.783.371-1.248-.05-.47-.258-.856-.618-1.148-.36-.293-.782-.416-1.252-.366-.459.049-.843.262-1.139.632"/><g opacity=".6" fill="#4B5251"><path d="M2.691 40.029m27.459 0"/><path d="M2.691 39.529h27.458v1h-27.458z"/></g><g opacity=".6" fill="#4B5251"><path d="M15.993 50.36m14.157 0"/><path d="M15.993 49.86h14.157v1h-14.157z"/></g><g opacity=".6" fill="#4B5251"><path d="M9.624 45.265m20.526 0"/><path d="M9.624 44.765h20.526v1h-20.526z"/></g><path fill="none" d="M-103 1675.439m0 0"/></svg>