<svg xmlns="http://www.w3.org/2000/svg" width="60" height="60" viewBox="0 0 60 60"><path fill="#484B4E" d="M43.65 17.994c-.7-.7-1.75-1.4-2.8-1.4s-2.1.35-3.15.7l-1.75 1.4c-.7.7-1.05 1.4-1.4 2.45h-9.1c0-1.05-.7-2.1-1.4-2.8l-1.75-1.05c-1.05-.7-2.1-1.05-3.15-.7-1.4 0-2.45.7-3.15 1.4l-6.3 7.7c-.7 1.05-.7 2.1-.7 3.15 0 1.4.7 2.1 1.75 3.15l1.75 1.4c.35.35 1.4.7 2.45.7.35 0 .7 0 1.4-.35l11.55 9.1c.7.7 1.75.7 2.45.7h.35c1.05 0 1.75-.35 2.1-.7l11.2-8.75c.35 0 .7 0 .7 0 1.05 0 2.1-.35 2.8-1.05l1.75-1.4c1.05-.35 1.4-1.4 1.75-2.8 0-1.05-.35-2.1-.7-3.15l-6.65-7.7zm-21 4.9l-6.3 8.05c-.35.35-1.05.7-1.4.7-.35 0-.7 0-1.05-.35l-1.75-1.4c-.7-.35-.7-.7-.7-1.4s0-1.05.35-1.4l6.3-7.7c.35-.35.7-.7 1.4-.7.35 0 .7 0 1.05.35l1.75 1.4c.7.7.7 1.75.35 2.45zm18.2 10.5l-1.05.7c-.35 0-.35.35-.7.35s-.35 0-.7-.35l-6.3-5.6c-.35-.35-1.05-.7-1.75-.7h-4.55c-.35 0-1.05-.35-1.05-1.05v-1.75c0-.7.35-1.05 1.05-1.05h8.05c.35 0 .7 0 .7.35l6.3 7.7s.35.35.35.7 0 .7-.35.7zm7.7-4.55c0 .7-.35 1.05-.7 1.4l-1.75 1.4c-.35.35-.7.35-1.05.35s-1.05-.35-1.4-.7l-6.3-8.05c-.35-.35-.35-.7-.35-1.05s.35-1.05.7-1.05l1.4-1.4c.35-.35.7-.35 1.05-.35h.35c.7 0 1.05.35 1.4.7l6.3 7.7s.35.35.35 1.05z"/></svg>