<svg xmlns="http://www.w3.org/2000/svg" viewBox="-125 237 360 320" enable-background="new -125 237 360 320"><path d="M157.4 332.9c-2.2-5.9-7.8-9.9-14.1-9.9h-24.3c-6.3 0-11.9 3.9-14.1 9.9l-27.2 74.7 14.1 5.1 16.8-46.3v146.6h15v-75h15v75h15v-146.6l16.8 46.3 14.1-5.1-27.1-74.7z"/><circle cx="131.2" cy="298.4" r="17.5"/><path d="M83.1 413h-11c-3.9 0-7 3.1-7 7v51c0 3.9 3.1 7 7 7h11c3.9 0 7-3.1 7-7v-51c0-3.9-3.1-7-7-7z"/><circle cx="-21.2" cy="298.4" r="17.5"/><path d="M37.3 413h-11c-3.9 0-7 3.1-7 7v51c0 3.9 3.1 7 7 7h11c3.9 0 7-3.1 7-7v-51c0-3.9-3.1-7-7-7zm-5-5.4l-27.2-74.7c-2.2-5.9-7.8-9.9-14.1-9.9h-.8l-11.3 21.5-11.3-21.5h-.8c-6.3 0-11.9 3.9-14.1 9.9l-27.2 74.7 14.1 5.1 12.7-34.9-10.9 70.2h15v65h15v-65h15v65h15v-65h15l-10.9-70.2 12.7 34.9 14.1-5.1z"/></svg>