<svg xmlns="http://www.w3.org/2000/svg" width="100" height="100" viewBox="0 0 100 100"><path d="M69.778 16.599c-2.22 0-4.4.272-6.52.812-6.495-7.954-16.163-12.6-26.555-12.6-18.929 0-34.329 15.4-34.329 34.329 0 13.672 8.036 25.5 19.631 31.017-.157-1.208-.246-2.437-.246-3.687 0-2.568.347-5.055.986-7.421-6.265-4.406-10.371-11.685-10.371-19.909 0-13.415 10.914-24.329 24.329-24.329 8.299 0 15.951 4.19 20.468 11.208 1.319 2.049 3.925 2.852 6.167 1.892 2.04-.871 4.207-1.313 6.439-1.313 9.084 0 16.474 7.39 16.474 16.473 0 6.409-3.686 11.961-9.043 14.683.885 2.747 1.367 5.674 1.367 8.715 0 .531-.017 1.059-.046 1.583 10.31-3.622 17.723-13.449 17.723-24.981 0-14.597-11.876-26.472-26.474-26.472zm-19.61 21.462c-15.689 0-28.408 12.719-28.408 28.408 0 15.69 12.719 28.408 28.408 28.408 15.69 0 28.408-12.719 28.408-28.408s-12.718-28.408-28.408-28.408zm13.611 35.405l-9.893 9.893c-.842.842-1.872 1.343-2.9 1.527-.132.025-.261.058-.396.071-.142.014-.281.004-.422.005-.141 0-.279.009-.422-.005-.135-.013-.264-.045-.396-.071-1.028-.184-2.057-.685-2.9-1.527l-9.893-9.893c-1.928-1.928-2.174-4.837-.546-6.464 1.628-1.628 4.536-1.382 6.464.546l3.508 3.508v-20.024c0-2.726 1.883-4.957 4.185-4.957s4.185 2.231 4.185 4.957v20.024l3.508-3.508c1.928-1.928 4.837-2.174 6.464-.546 1.628 1.627 1.382 4.536-.546 6.464z"/></svg>