<svg xmlns="http://www.w3.org/2000/svg" width="85.827" height="58.631" viewBox="0 0 85.827 58.631"><path fill="#FDE500" d="M62.118 25.818c-4.566 1.483-9.158 2.962-13.702 4.474-1.903.619-5.19 2.004-7.318 1.574l-.026-.005-.026-.005c-2.128-.431-4.618-2.986-6.13-4.296-3.599-3.16-7.254-6.309-10.857-9.446-1.656-1.406-3.819-4.365-3.424-6.313.425-2.101 2.182-3.618 4.992-3.049l38.663 7.827c2.285.463 3.89 2.393 3.509 4.277-.487 2.399-3.106 4.123-5.681 4.962zm.961 18.349c-.381 1.884-2.584 3.044-4.896 2.576l-38.663-7.827c-2.312-.468-3.89-2.393-3.509-4.277l3.444-17.012c.645.868 1.412 1.669 2.276 2.4 3.87 3.304 7.793 6.619 11.558 10.035 1.937 1.775 4.34 3.956 7.202 4.535l.026.005.026.005c2.862.579 5.925-.495 8.399-1.377 4.793-1.662 9.701-3.211 14.577-4.745 1.054-.343 2.072-.783 3.004-1.331l-3.444 17.013z"/><path fill="#D3AE2A" d="M57.439 52.97l-2.826-7.602c-.039-.091-1.081-2.678-.11-4.701 1.185-2.47 3.404-3.222 5.924-2.013 1.476.709 2.301 2.536 2.652 3.513.982-.336 2.923-.838 4.399-.128 2.52 1.209 3.322 3.41 2.137 5.88-.972 2.024-3.641 2.828-3.753 2.869l-7.682 2.539c-.149.051-.31.038-.443-.028-.136-.065-.246-.181-.298-.329z"/></svg>