<svg xmlns="http://www.w3.org/2000/svg" width="100" height="100" viewBox="0 0 100 100"><path fill="#465150" d="M20.718 40.276c-.225-.098-.463-.14-.702-.14-.239 0-.477.042-.702.14l-6.293 2.697c-.661.295-1.096.941-1.096 1.658v5.619l-6.097 2.613c-.661.295-1.096.941-1.096 1.658v5.844c0 .674.379 1.306.997 1.601l6.294 3.147c.253.141.52.197.801.197s.548-.056.801-.197l6.293-3.147c.042-.014.07-.028.098-.056.028.028.056.042.098.056l5.264 2.632v-8.698l-3.844-1.646 3.844-1.646v-1.957l-4.463 1.918v-3.751l4.463-1.906v-1.965l-5.362 2.298-6.195-2.655 6.195-2.655 5.362 2.298v-1.407c0-.181.019-.358.042-.533l-4.702-2.017zm-1.601 20.089l-5.394 2.697v-4.805l5.394-2.304v4.412zm-.619-6.111l-5.675 2.43-5.675-2.43 5.675-2.43 5.675 2.43z"/><path fill="#FFE75C" d="M79.91 67.993c0 1.54-.852 2.949-2.196 3.671l-23.071 12.585c-.623.36-1.311.524-1.999.524-.688 0-1.376-.164-1.999-.524l-23.072-12.585c-1.344-.721-2.196-2.13-2.196-3.671v-25.169c0-1.77 1.115-3.343 2.753-3.933l23.072-8.39c.458-.164.95-.262 1.442-.262s.984.098 1.442.262l23.072 8.39c1.639.59 2.753 2.163 2.753 3.933v25.169z"/><path fill="#F6D807" d="M79.32 40.68m0 0l-26.672 10.402c-1.492 10.124.149 30.679.464 33.663.529-.059 1.05-.217 1.532-.496l23.072-12.584c1.344-.721 2.196-2.13 2.196-3.671v-25.17"/><path fill="#465150" d="M92.406 24.574l-3.197.109-5.031 8.68c-.084.152-.259.237-.439.223l-2.234-.241c-.09-.008-.181-.054-.253-.121-.021-.019-.041-.039-.062-.078-.074-.106-.108-.235-.062-.366l2.007-7.89-5.143.176-1.316 2.5c-.074.142-.211.226-.38.241l-1.905.065c-.119.006-.241-.051-.323-.127-.011-.011-.011-.011-.02-.021-.094-.105-.137-.223-.122-.363l.476-4.399-.776-4.358c-.034-.127.011-.258.087-.361.076-.102.204-.156.333-.17l1.913-.073c.119-.004.241.051.322.128.032.029.062.057.073.087l1.484 2.403 5.143-.176-2.54-7.734c-.045-.139-.02-.289.056-.411.075-.102.212-.186.351-.191l2.541-.086c.15.004.311.077.385.205l5.303 8.008 3.177-.109c1.906-.065 4.162.813 4.206 2.083.043 1.273-2.149 2.302-4.054 2.367zm-24.687-1.258s-13.962-.084-33.281 4.448"/><path fill="#465150" d="M36.605 64.65c-.064-1.287.041-2.169.314-2.645.276-.481.857-.971 1.754-1.476.533-.334.957-.761 1.268-1.28.314-.522.452-1.192.414-2.008-.043-.907-.274-1.689-.694-2.34-.417-.648-.986-1.092-1.701-1.334-.581-.196-1.058-.148-1.433.141-.372.286-.538.834-.5 1.642l-3.14-1.129-.027-.091c-.131-1.794.242-3.019 1.132-3.677.909-.672 2.167-.768 3.794-.266 1.805.557 3.288 1.584 4.417 3.081 1.145 1.519 1.763 3.284 1.842 5.268.051 1.284-.224 2.343-.818 3.171-.586.818-1.326 1.388-2.214 1.718-.474.246-.775.563-.905.951-.13.387-.176.973-.138 1.757l-3.365-1.483zm3.672 7.287l-3.373-1.651-.186-3.391 3.391 1.56.168 3.482z"/><path fill="#E5CE00" d="M80.357 42.142c-.011-.074-.03-.145-.044-.218-.029-.15-.062-.299-.106-.445-.024-.08-.054-.158-.082-.237-.048-.135-.101-.267-.161-.397-.036-.077-.075-.152-.115-.227-.034-.064-.061-.13-.098-.192l-.217-.364-.024.009c-.537-.74-1.286-1.327-2.181-1.649l-23.074-8.391c-1.082-.387-2.139-.388-3.223.001l-23.07 8.389c-1.845.664-3.084 2.433-3.084 4.403v25.169c0 1.722.942 3.297 2.457 4.109l23.061 12.58c.67.386 1.447.59 2.249.59.007 0 .014-.001.021-.001l.003.026.499-.056c.005 0 .009-.002.013-.003.276-.032.544-.092.804-.171.058-.018.115-.037.172-.057.253-.088.499-.191.728-.323l23.068-12.583c1.517-.814 2.459-2.39 2.459-4.111v-25.169c-.002-.229-.022-.457-.055-.682zm-52.547 29.082c-1.192-.641-1.933-1.878-1.933-3.23v-25.17c0-1.549.974-2.94 2.424-3.463l23.069-8.389c.431-.155.859-.233 1.272-.233s.842.079 1.271.232l23.073 8.39c.616.222 1.138.608 1.544 1.089l-26.336 10.27-.043.287c-1.411 9.575-.022 28.707.409 33.258-.584-.013-1.167-.162-1.678-.456l-23.072-12.585zm51.6-3.231c0 1.353-.74 2.591-1.935 3.232l-23.082 12.59c-.004.002-.008.004-.012.006-.258.147-.533.26-.826.335-.426-4.512-1.78-23.158-.454-32.715l25.975-10.129c.017.038.031.078.047.117.067.164.123.332.166.504.016.065.034.13.047.196.044.229.074.461.074.695v25.169z"/></svg>