<svg xmlns="http://www.w3.org/2000/svg" width="60" height="60" viewBox="0 0 60 60"><g fill="#484B4E"><path d="M25.888 27.074h5.462c1.156 0 2.058-.898 2.058-2.058v-6.876c0-1.156-.898-2.058-2.058-2.058h-7.778c-1.156 0-2.058.898-2.058 2.058v4.818"/><path d="M10.208 13.322c0-2.378 1.929-4.24 4.24-4.24 2.378 0 4.24 1.929 4.24 4.24 0 2.378-1.929 4.24-4.24 4.24-2.315.063-4.24-1.862-4.24-4.24zm35.344 4.303c-2.378 0-4.24-1.929-4.24-4.24 0-2.378 1.929-4.24 4.24-4.24 2.378 0 4.24 1.929 4.24 4.24s-1.925 4.24-4.24 4.24zm-20.245 10.671l-8.738-8.161c-.258-.258-.578-.386-.898-.515-.386-.129-.773-.195-1.159-.195-1.863 0-3.405 1.542-3.405 3.405v10.796c0 .964.386 1.863 1.156 2.507l-1.734 12.209c-.191 1.093.644 2.12 1.734 2.315.129 0 .191 0 .258 0 1.027 0 1.863-.773 1.991-1.734l.515-3.729.964 4.049c.258.898 1.027 1.542 1.991 1.542.191 0 .32 0 .515-.063.515-.129.964-.449 1.222-.898s.386-1.027.258-1.542l-3.022-12.404c.644-.644.964-1.48.964-2.378v-6.747l4.627 4.369c.386.386.836.578 1.413.578s1.093-.258 1.48-.644c.77-.769.704-2.053-.132-2.76zm24.231 20.05l-1.734-12.209c.707-.644 1.156-1.542 1.156-2.507v-10.797c0-1.863-1.542-3.405-3.405-3.405-.386 0-.773.063-1.222.191-.386.063-.707.258-.898.515l-8.738 8.161c-.39.386-.648.898-.648 1.413s.191 1.093.578 1.48c.386.386.898.644 1.48.644.515 0 1.027-.191 1.413-.578l4.627-4.369v6.747c0 .898.32 1.734.964 2.378l-3.022 12.404c-.129.515-.063 1.093.258 1.542.32.449.707.773 1.222.898.129.063.32.063.515.063.964 0 1.734-.644 1.991-1.542l.964-4.049.515 3.729c.129 1.027 1.027 1.734 1.991 1.734.063 0 .191 0 .258 0 1.157-.257 1.926-1.288 1.735-2.443z"/></g></svg>