<svg xmlns="http://www.w3.org/2000/svg" viewBox="-389 301 102 40" enable-background="new -389 301 102 40"><path d="M-373.8 315.4c-1.8.1-2.9 1.1-3.5 2.6-.7 1.4-.3 1.8 1.5 1.8.8 0 2.2-.3 3.1-.8.8-.5 1.2-1.2 1-2.3-.4-1.2-1.2-1.3-2.1-1.3zm8.3-7.9c-6.4-.1-12.9-.1-19.5 0-2.6 0-3.8 1.4-3.9 3.9-.1 3.1 0 6.3 0 9.4v9.8c.1 2.6 1.4 3.9 3.9 3.9 6.4.1 12.9.1 19.5 0 2.3-.1 3.8-1.5 3.8-3.8.1-6.4.1-12.9 0-19.5 0-2.2-1.4-3.7-3.8-3.7zm-3.7 13.7c-2.2 1.8-4.6 1.9-7.4 1.9-.7.1-1.6-.3-1.9.8-.1 1 .4 1.8 1.2 2.3 1.6 1 3.5.7 5.3.3.5-.1 1.6-1 2.2.4.4 1.6.1 2.6-1.2 3-1.5.5-3 .7-4.4.5-5.7 0-8.4-3-8-8.6.3-3.5 1.6-6.4 4.4-8.7 2.3-1.9 5-2.5 7.9-1.8 2.2.4 3.5 1.9 3.8 4.1.4 2.5-.1 4.3-1.9 5.8zm20.6-.8c-.1-2.6-1.2-4.9-5-4.9-2.2 0-3.7.5-4.5 1.1l.7 2.3c.8-.4 1.9-.8 3.1-.8 1.8 0 2.2.8 2.2 1.5v.1c-3.9 0-6.7 1.5-6.7 4.4 0 1.8 1.4 3.5 3.7 3.5 1.4 0 2.5-.5 3.3-1.5h.1l.3 1.1h3.1c-.1-.5-.1-1.6-.1-2.9-.2 0-.2-3.9-.2-3.9zm-3.7 3.1c-.3.8-1 1.2-1.8 1.2s-1.5-.4-1.5-1.4c0-1.4 1.5-1.8 3.3-1.8l.1 1.4c0 .3 0 .5-.1.6zm53.5-12.9h-2v6.7h-.1c-.5-1-1.8-1.8-3.4-1.8-2.9 0-5.2 2.3-5 6 0 3.4 2.2 5.7 4.9 5.7 1.8 0 3.3-1 3.8-2.2h.1l.1 1.9h1.8c-.1-.8-.1-1.9-.1-2.9v-13.4zm-1.9 11.7c-.1.4-.1.7-.3 1-.4 1.5-1.6 2.5-3 2.5-2.2 0-3.3-1.9-3.3-4.2 0-2.5 1.2-4.4 3.4-4.4 1.5 0 2.6 1.1 3 2.5.1.3.1.5.1.8v1.8zm-33.9-2c-.3 1.2-.5 2.6-.7 3.8h-.1l-.8-3.8-1.1-4.5h-2.9l-1.2 4.6c-.3 1.1-.5 2.5-.8 3.8-.1-1.2-.4-2.6-.7-3.8l-1-4.6h-3.7l3.3 11.3h3.3l1.1-3.9c.3-1.1.5-2.2.8-3.5h.1c.3 1.5.4 2.5.8 3.5l1.1 3.9h3.3l3.5-11.3h-3.5l-.8 4.5zm42.7.2c-1.5-.5-2.2-1-2.2-1.9 0-.8.7-1.5 1.9-1.5 1.1 0 1.9.4 2.3.5l.5-1.5c-.5-.4-1.6-.7-2.9-.7-2.5 0-3.9 1.5-3.9 3.3 0 1.4 1 2.5 3 3.1 1.5.5 2.2 1.1 2.2 2s-.7 1.6-2.2 1.6c-1.1 0-2.2-.4-2.7-.8l-.5 1.8c.8.4 1.9.8 3.1.8 2.6 0 4.2-1.5 4.2-3.3.2-1.6-.7-2.6-2.8-3.4zm-22.3-2.4l-.1-2.2h-1.8c.1 1.1.1 2.2.1 3.5v7.8h2v-6.1c0-.4.1-.7.1-1 .3-1.5 1.2-2.6 2.9-2.6.3 0 .5 0 .7.1v-2c-.1-.1-.4-.1-.5-.1-1.6.1-2.9 1.1-3.4 2.6zm-4.8 2.3c-.1-2.6-1.2-4.9-5-4.9-2.2 0-3.7.5-4.5 1.1l.7 2.3c.8-.4 1.9-.8 3.1-.8 1.8 0 2.2.8 2.2 1.5v.1c-3.9 0-6.7 1.5-6.7 4.4 0 1.8 1.4 3.5 3.7 3.5 1.4 0 2.5-.5 3.3-1.5h.1l.3 1.1h3.1c-.1-.5-.1-1.6-.1-2.9-.2 0-.2-3.9-.2-3.9zm-3.6 3.1c-.3.8-1 1.2-1.8 1.2s-1.5-.4-1.5-1.4c0-1.4 1.5-1.8 3.3-1.8l.1 1.4c0 .3 0 .5-.1.6z"/></svg>