<svg xmlns="http://www.w3.org/2000/svg" viewBox="-125 237 360 320" enable-background="new -125 237 360 320"><ellipse cx="143.4" cy="489.7" rx="26.6" ry="26.6"/><ellipse cx="118.8" cy="314.5" rx="12.6" ry="12.5"/><path d="M-70.176 385.148l59.99 17.885-17.885 59.99-59.99-17.885z"/><ellipse cx="33.1" cy="489.7" rx="26.6" ry="26.6"/><path d="M154.2 393.8v-116.1h-114.7l-61.4 200-76.9-23.9-3.8 13.8 92.6 27.5 4.2-14.2c4.1-17.7 19.9-31 38.9-31 22.1 0 39.9 17.9 39.9 39.9 0 0 0 .1 0 .1v6.2h30.4v-6.1c0-.1 0-.2 0-.3 0-22 17.9-39.9 39.9-39.9s39.9 17.9 39.9 39.9c0 .3 0 6.5 0 6.5 16.2 0 29.2-13.1 29.2-29.2v-73.1h-58.2zm-14.2 0h-46.7c-.4 0-.7.3-.7.7v27.6h-39.9v-55.5l-20.9-16.6 17.4-58.2h90.8v102zm-56.6-8h48.9v-38.4c0-8.2-6.6-14.8-14.8-14.8-8.2 0-14.8 6.6-14.8 14.8v23.5h-34.3v43.1h15v-28.2z"/></svg>