<svg xmlns="http://www.w3.org/2000/svg" width="24" height="24" viewBox="0 0 24 24"><path d="M20.4 16.6c-.1 0-.2 0-.2.2-.4.8-.8 1.6-1.2 2.3l-.5 1-.1-.2-1.6-3.1c0-.1 0-.2-.1-.2h-1.1l.2.4c.2.2.3.4.3.7l.1.1c.6 1.1 1.1 2.1 1.7 3.2.1.1 0 .2 0 .2l-.7 1.4s-.1.1-.1.2c.3 0 .6 0 .9 0 .1 0 .2 0 .2-.2 1-1.9 2-3.9 3-5.9 0 0 .1-.1 0-.2-.3.1-.5.1-.8.1zm-4.4 1.1c-.1-.2-.2-.5-.3-.7-.2-.2-.4-.3-.7-.4-.6-.2-1.2-.2-1.8-.1-.4 0-.7.2-1 .3-.3.2-.5.5-.5.8 0 .1 0 .2.1.2h.8c.1 0 .1 0 .2-.1.1-.3.3-.4.5-.5.4-.1.8-.1 1.2 0 .4.1.7.4.7.9 0 .2 0 .2-.2.2-.7 0-1.4 0-2 .1-.6.1-1.2.3-1.5.9v-.1c0-.5 0-1-.2-1.5-.7-1.6-2.9-1.6-3.9-.7 0 0-.1.1-.2.1v-.2c0-.7 0-1.4 0-2 0-.2-.1-.2-.3-.2s-.4 0-.6 0c-.2 0-.2 0-.2.2 0 1 0 2.1 0 3.1v.5l-.1-.2c-.2-.9-.7-1.4-1.6-1.6-.6-.1-1.2-.1-1.7 0-.7.2-1.2.6-1.5 1.3-.2.5-.2 1-.2 1.6.2.7.6 1.3 1.3 1.5.9.3 1.7.3 2.6-.1.5-.2.8-.5 1-1 0-.1 0-.2-.1-.2-.2 0-.5 0-.7 0-.1 0-.2 0-.2.1-.1.3-.3.4-.6.5-.3.1-.7.1-1 .1-.6-.1-1.1-.6-1.2-1.2 0-.2 0-.2.2-.2 1.3 0 2.6 0 3.8 0v.2c0 .5 0 1.1 0 1.6 0 .1 0 .2.1.2.2 0 .5 0 .7 0 .1 0 .2 0 .2-.1v-.5c.7.6 1.3.8 2.1.7.7 0 1.3-.3 1.7-.9.2-.2.3-.4.4-.7 0 .8.4 1.2 1.2 1.5.3.1.7.1 1.1.1.6 0 1.1-.2 1.5-.6 0 0 0-.1.1-.1v.4c0 .1 0 .1.2.1h.6c.1 0 .1 0 .1-.1 0-.5 0-1 0-1.4 0-.5 0-1.2-.1-1.8zm-11.3.8h-1.1c-.4 0-.9 0-1.3 0-.2 0-.2 0-.2-.2.2-.9.9-1.2 1.7-1.1.5 0 1 .3 1.2.9.2.4.1.4-.3.4zm5.6.4c0 .8-.4 1.4-1 1.6-1 .3-2-.3-2.1-1.4 0-.4 0-.9.2-1.2.3-.5 1-.8 1.7-.7.7.2 1.2.7 1.2 1.4v.3zm3.3 1.7c-.4 0-.7 0-.9-.2-.3-.2-.4-.4-.4-.7 0-.3.2-.5.5-.5.3-.1.6-.2.9-.2.4 0 .8 0 1.2 0 .2 0 .2 0 .2.2-.1.9-.6 1.4-1.5 1.4zm2.9-15.8l-.6.2c-.7 0-1.4.2-2.1.3-.7.2-1.2.5-1.7 1.1-.5.7-.7 1.6-.5 2.5.2.8.7 1.4 1.4 1.7.9.3 1.7.2 2.5 0 .5-.2 1-.5 1.4-.9.1-.1.1-.1.2 0 .2.3.5.7.8.9.2.2.4.2.6 0l1.2-1c.2-.2.2-.3.1-.5l-.1-.2c-.5-.4-.7-.9-.7-1.5 0-.5 0-1 0-1.6v-1.8c0-.4-.1-.9-.3-1.3-.3-.7-1-1.1-1.7-1.3-.9-.3-1.9-.3-2.8 0-1.2.3-2.1 1.1-2.3 2.4 0 .2.1.3.3.4l1.6.2c0-.1.2-.2.2-.4.1-.4.4-.7.8-.9.3-.1.6-.1.9 0 .4.1.7.3.8.7.1.3.1.6 0 1 .1 0 0 0 0 0zm.1 2c0 .5 0 .9-.2 1.4-.2.4-.5.7-.9.9-.7.2-1.3-.2-1.4-.9-.1-.6 0-1.1.5-1.5.3-.3.7-.4 1.2-.4.2 0 .5 0 .7 0 .1 0 .1 0 .1.1v.4zm4.5 4.9c-1.7.7-3.4 1-5.2 1.1-1.3 0-2.5-.1-3.8-.3-1.4-.3-2.6-.8-3.9-1.4l-.4-.2s-.1 0-.2 0 0 .1 0 .2l.1.1c.3.3.7.6 1.1.9 1.9 1.3 4.1 1.9 6.5 1.9.8 0 1.6-.1 2.4-.3 1.3-.3 2.4-.7 3.5-1.4l.2-.2c.1-.1.2-.2.1-.3-.1-.1-.2-.2-.3-.1h-.1zm1.7-1.1c-.3-.1-.7-.2-1-.1-.5 0-1 .1-1.5.4 0 .1-.1.1-.1.2s.1 0 .2 0c.4 0 .7-.1 1.1-.1.2 0 .4 0 .6.1.2 0 .3.2.3.3v.2c-.1.5-.3.9-.5 1.4 0 0 0 .1 0 .2.1 0 .2 0 .2 0l.1-.1c.6-.6.9-1.4.9-2.2-.1-.1-.2-.2-.3-.3z"/></svg>