<svg xmlns="http://www.w3.org/2000/svg" width="100" height="100" viewBox="0 0 100 100"><path fill="#FFF5B5" d="M50.984 66.55c-.542.313-1.427.313-1.968 0l-23.828-13.758c-.541-.312-.984-1.078-.984-1.704v-27.514c0-.624.443-1.392.984-1.703l23.828-13.758c.541-.313 1.426-.313 1.968 0l23.827 13.758c.541.312.984 1.079.984 1.703v27.514c0 .626-.443 1.393-.984 1.704l-23.827 13.758z"/><path opacity=".6" fill="#FCE666" enable-background="new" d="M25.643 52.628c-.541-.313-.984-1.08-.984-1.704v-25.469c0-.625 1.033-1.222 1.573-.909l22.675 13.065c.542.313.984 1.08.984 1.705v25.468c0 .625-.133 1.213-.295 1.307-.162.093-.738-.086-1.279-.397l-22.674-13.066z"/><path fill="#FCE666" d="M50.438 66.775c-.048-.17-.102-.477-.102-.854v-27.514c0-.466.354-1.078.757-1.311l23.811-13.748c.32-.185.613-.295.791-.339.048.169.101.476.101.854l.001 27.513c0 .467-.354 1.078-.757 1.312l-23.812 13.748c-.321.184-.613.295-.79.339z"/><path fill="#DDCC30" d="M76.25 51.543v-27.514c0-.208-.04-.425-.107-.641-.028-.105-.06-.194-.095-.26-.215-.498-.583-.952-1.008-1.197l-23.829-13.757c-.33-.19-.759-.295-1.211-.295s-.881.105-1.211.295l-23.828 13.758c-.679.392-1.211 1.313-1.211 2.098v27.514c0 .784.532 1.705 1.211 2.098l23.828 13.757c.33.19.759.295 1.211.295.061 0 .12-.007.179-.01.029.016.071.023.123.023.243 0 .71-.167 1.153-.423l23.811-13.747c.542-.313.983-1.079.983-1.704l.001-.29zm-25.459 14.832v-27.514c0-.303.267-.766.529-.917l23.811-13.747c.07-.041.138-.077.203-.109.005.072.007.149.007.23v27.225c0 .466-.354 1.078-.757 1.311l-23.787 13.733c-.004-.066-.006-.137-.006-.212zm-25.375-13.521c-.403-.232-.757-.845-.757-1.311v-27.514c0-.466.354-1.078.757-1.311l23.828-13.756c.19-.111.466-.174.756-.174s.566.063.756.174l23.828 13.757c.18.104.347.284.48.492-.128.058-.259.124-.389.199l-23.81 13.747c-.542.313-.984 1.079-.984 1.704v27.514c0 .136.007.269.019.396-.248-.011-.489-.063-.656-.16l-23.828-13.757z"/><path d="M70.579 92.121c3.679-8.169 14.421-14.38 14.421-22.745v-19.497c0-1.45-1.175-2.625-2.625-2.625-1.449 0-2.625 1.175-2.625 2.625 0 0 0 9.77 0 13.4 0 3.337-2.665 4.592-2.665 4.592-3.114 2.299-12.498 9.576-12.498 9.576-.784.426-2.804-.955-.136-2.844l7.53-6.23c1.215-.792 1.557-2.418.766-3.632-.792-1.215-2.417-1.557-3.632-.766l-13.23 8.357c-4.131 1.823-2.882 12.505-1.469 19.788h16.163zm-24.995 0c1.413-7.282 2.662-17.965-1.469-19.788l-13.23-8.357c-1.214-.791-2.84-.449-3.632.766-.792 1.214-.449 2.84.766 3.632l7.53 6.23c2.668 1.889.648 3.27-.136 2.844 0 0-9.384-7.277-12.498-9.576 0 0-2.665-1.255-2.665-4.592 0-3.631 0-13.4 0-13.4 0-1.45-1.175-2.625-2.625-2.625s-2.625 1.175-2.625 2.625v19.497c0 8.365 10.742 14.576 14.421 22.745h16.163z" fill="#333"/></svg>