<svg xmlns="http://www.w3.org/2000/svg" width="620" height="330" viewBox="0 0 620 330"><path fill="#1F3A7D" d="M62.509.233h494.945v329.531h-494.945v-329.531z"/><path fill="#fff" d="M557.5 294.05l-193.655-129.108 193.655-129.107v-35.835h-54.126l-193.468 128.982-193.467-128.982h-53.833v36.031l193.361 128.911-193.361 128.912v36.146h53.662l193.638-129.098 193.638 129.098h53.956v-35.95z"/><path fill="#CF3447" d="M557.455.378l-.142-.378h-27.2l-220.207 146.809-220.206-146.809h-27.094v18.204l220.101 146.738-220.101 146.739v18.319h26.923l220.377-146.923 220.378 146.923h26.986l.185-.493v-17.661l-220.349-146.904 220.349-146.902v-17.662z"/><path fill="#fff" d="M351.141 110.019v-109.413h-82.469v109.412h-206.172v109.962h206.172v109.962h82.469v-109.962h206.172v-109.961h-206.172z"/><path fill="#CF3447" d="M334.647 132.011v-131.405h-49.481v131.404h-222.666v65.978h222.666v131.954h49.481v-131.954h222.666v-65.978h-222.666z"/></svg>