<svg xmlns="http://www.w3.org/2000/svg" width="65" height="65" viewBox="0 0 65 65"><g opacity=".6"><circle cx="47.2" cy="29.5" r="2"/><circle cx="17.8" cy="29.5" r="2"/><path d="M44.1 26.8c0-1.7-1.4-3-3-3-1.7 0-3 1.4-3 3 0 1.7 1.4 3 3 3 1.7 0 3-1.4 3-3zm3.1 5.9c-.3 0-.6.1-.9.1.5.9.8 1.9.8 3v6.4h3.5v-6.2c-.1-1.8-1.6-3.3-3.4-3.3zm-23.3-9c-1.7 0-3 1.4-3 3 0 1.7 1.4 3 3 3 1.7 0 3-1.4 3-3s-1.3-3-3-3zm-9.4 12.3v6.2h3.5v-6.4c0-1.1.3-2.1.8-3-.3-.1-.6-.1-.9-.1-1.9 0-3.4 1.5-3.4 3.3zm26.6-5c-.5 0-.9.1-1.4.2.6 1.1.9 2.4.9 3.7v9.7h5.3v-8.7c0-2.8-2.1-4.9-4.8-4.9zm-22 4.8v8.7h5.3v-9.7c0-1.3.4-2.6.9-3.7-.5-.1-.9-.1-1.4-.1-2.7 0-4.8 2.1-4.8 4.8z"/></g><path d="M32.5 26.6c2.5 0 4.5-2 4.5-4.5s-2-4.5-4.5-4.5-4.5 2-4.5 4.5 2 4.5 4.5 4.5zm0 1.2c-3.9 0-7 3.2-7 7v12.5h14.1v-12.4c-.1-3.9-3.2-7.1-7.1-7.1z"/><path d="M32.5.2l-1 3.2h-3.4l2.7 2-1 3.3 2.7-2 2.7 2-1-3.3 2.7-2h-3.4zm1 59.4l-1-3.3-1 3.3h-3.4l2.7 2-1 3.2 2.7-2 2.7 2-1-3.2 2.7-2zm-29.1-24.9l2.8 2-1.1-3.2 2.8-2h-3.4l-1.1-3.2-1 3.2h-3.4l2.7 2-1 3.2zm14.1-30.7l-1.1 3.2h-3.4l2.8 2-1.1 3.2 2.8-2 2.7 2-1-3.2 2.7-2h-3.4zm-10.3 10.2l-1 3.3h-3.4l2.7 2-1 3.2 2.7-2 2.8 2-1.1-3.2 2.8-2h-3.4zm1.1 31.3l-1.1-3.2-1 3.2h-3.4l2.7 2-1 3.3 2.7-2 2.8 2-1.1-3.3 2.8-2zm10.2 10.3l-1-3.2-1.1 3.2h-3.4l2.8 2-1.1 3.2 2.8-2 2.7 2-1-3.2 2.7-2zm45.5-24.3h-3.4l-1-3.2-1.1 3.2h-3.4l2.8 2-1.1 3.2 2.8-2 2.7 2-1-3.2zm-18.5-27.5l-1 3.2h-3.4l2.7 2-1 3.2 2.7-2 2.8 2-1.1-3.2 2.8-2h-3.4zm8.6 15.5l-1.1 3.2 2.8-2 2.7 2-1-3.2 2.7-2h-3.4l-1-3.3-1.1 3.3h-3.4zm2.7 26l-1-3.2-1.1 3.2h-3.4l2.8 2-1.1 3.3 2.8-2 2.7 2-1-3.3 2.7-2zm-10.2 10.3l-1.1-3.2-1 3.2h-3.4l2.7 2-1 3.2 2.7-2 2.8 2-1.1-3.2 2.8-2z" opacity=".45"/></svg>