<svg xmlns="http://www.w3.org/2000/svg" width="100" height="100" viewBox="0 0 100 100"><path fill-rule="evenodd" clip-rule="evenodd" fill="#333" d="M39.414 36.656c0-.08 0-.16 0-.24.266-.271.793-.596.751-.808-.142-.712-.485-1.384-.751-2.071 0-.561 0-1.121 0-1.681.246-1.177 1.38-1.607 2.042-2.435.256-.322.432-.963.689-.988 1.873-.182 2.553-1.678 3.495-2.93.595-.789 1.314-1.485 1.978-2.223.065-1.209.144-2.547.762-3.553.559-.91 1.147-1.722 1.165-2.824.471-.119.883-.224 1.261-.32-.049-.424-.098-.851-.154-1.342-.233.021-.529.049-.765.072.085-.383.16-.721.254-1.143.387.196.755.382 1.126.568.998-.49-.81-1.619.496-2.095.861-.313 1.662-.796 2.557-1.236-.028-.213-.07-.526-.118-.886.573 0 1.036 0 1.506 0-.212-.866.744-2.02 1.509-1.904 0 .492 0 .988 0 1.65.219-.709.379-1.228.609-1.973.223.516.316.734.468 1.083.127-.7.225-1.231.321-1.763.24 0 .48 0 .72 0 .718.322 1.437.646 2.29 1.031-.365.408-.666.745-1.071 1.197.563.111 1.04.206 1.6.316-1.707 1.394-1.666 2.942-.002 4.088.568.391.835.813.565 1.588-.138.398.124.996.335 1.441.346.727.847 1.379 1.189 2.106.292.618.402 1.321.687 1.944.347.756.792 1.467 1.194 2.197-.095.069-.19.139-.285.207.275.154.534.363.829.453 1.177.354 1.312 1.232.979 2.174-.531 1.498-1.187 2.955-1.814 4.418-.152.354-.33.791-.628.971-1.253.758-2.546 1.452-3.851 2.117-.271.138-.723.18-.976.047-1.307-.685-2.943-1.16-2.359-3.261.063-.226-.256-.559-.398-.842-.471-.937-.76-2.097-.145-2.846.922-1.12 1.48-2.372 2.085-3.632.226-.473.449-.945.813-1.711-.385-.341-.906-1.182-1.454-1.199-.886-.029-1.972.295-2.274 1.381-.199.715-.136 1.504-.189 2.26.167.053.334.106.5.16-.646.873-1.354 1.709-1.925 2.629-.787 1.268-2.173 2.336-1.577 4.143.007.023-.167.1-.161.129.189.804.204 1.734.644 2.371.456.66 1.326 1.033 2.01 1.528-.509.979-.744 1.933-1.351 2.46-.695.607-1.056 1.16-1.084 2.072-.048 1.547-.207 3.091-.316 4.576-2.141.296-2.445.299-2.333 1.938-.968.349-1.841.486-1.95-1.26-.388 1.004-.6-.487.114-1.09-.925-1.401-2.025-2.518-1.566-3.891-.341-.373-.725-.609-.704-.801.11-.98-.206-1.717-.99-2.232-.086.291-.085.686-.282.875-.712.688-1.453 1.362-2.259 1.933-.395.279-1.06.563-1.426.415-.709-.289-1.337-.838-1.894-1.387-.118-.116.234-.688.34-1.057.099-.346.158-.702.22-.984-.439.033-.745.052-1.051.07zm-11.872-.043c.584.224 1.168.449 2.19.841-.861.456-1.648.872-2.436 1.288.123.129.246.259.368.388.981.164 1.962.327 3.185.53-.955 1.363-1.732 2.472-2.478 3.535.981-.096 1.401.682 1.535 1.544.159 1.021.432 1.85 1.069 2.754.704.999.98 2.425.632 3.526.632.24 1.503.3 1.799.743.521.781-.117 1.475-.748 2.029-.252.221-.467.484-.778.812.375.193.625.321 1.192.613-2.619 1.457-5.012.391-7.545.366-.089.136-.298.452-.369.559-1.106 0-2.035 0-2.955 0 .759-.626 1.365-1.326 2.131-1.699.653-.317 1.489-.26 2.46-.398-1.33-.643-2.376-1.148-3.236-1.563.735-.707 1.379-1.327 2.023-1.947-.229-.17-.459-.34-.684-.506.108-.252.277-.647.371-.868.606 0 1.392.235 1.773-.057.522-.4.735-1.147.159-1.896-.231-.301-.102-.88-.142-1.391-.491-.108-1.143-.251-1.671-.368.273-1.134.503-2.084.732-3.033-.13-.057-.26-.114-.39-.171-.316.546-.632 1.093-.948 1.64-.037-.004-.074-.009-.111-.013.223-.751.445-1.502.655-2.209-.245-.07-.442-.126-.64-.183.178-.389.253-.972.553-1.131.912-.483.933-1.066.58-1.619.459-.782.851-1.449 1.242-2.116.162 0 .322 0 .482 0zm-11.28 13.68c.82-.83 1.641-1.661 2.458-2.488-.397-.363-.776-.709-1.234-1.127.394-.21.758-.404 1.066-.568-.098-.318-.199-.646-.329-1.066.84.113 1.608.217 2.235.302.07-.527.012-.896.159-1.02.303-.255.711-.507 1.087-.525.552-.026 1.178.033 1.653.284.401.212.767.708.896 1.152.106.366-.018 1.021-.287 1.227-.639.491-.997.972-.984 1.826.009.595-.229 1.222-.469 1.787-.303.712-.863 1.04-1.692.872-.268-.055-.602.083-.875.203-1.37.6-2.638.668-3.686-.617.002-.082.002-.162.002-.242z"/><path fill-rule="evenodd" clip-rule="evenodd" d="M44.256 75.479c.146 1.252.279 2.502-.454 3.646-1.097-.151-.932-1.021-.918-1.65.009-.407.406-.808.638-1.206.156-.269.328-.527.493-.79.081 0 .161 0 .241 0zm10.862 10.859c0 .87.036 1.721-.02 2.565-.02.309-.188.75-.418.862-.257.124-.695.015-.997-.121-1.058-.477-2.102-.986-3.126-1.53-.293-.156-.502-.471-.75-.712.273-.143.636-.218.803-.44.638-.848 1.195.173 1.788.028.969-.235 1.94-.466 2.72-.652zm-13.367-5.586c.625-.253 1.012-.427 1.411-.565.377-.131 1.034-.408 1.106-.304.292.425.564.976.552 1.472-.025.965-.247 1.925-.376 2.812-.512.284-.993.551-1.624.901-1.397-1.139.5-3.153-1.069-4.316zm-10.241 1.666c.589 0 1.179 0 1.928 0-.79 1.763-1.351.69-1.928 0z"/><path fill-rule="evenodd" clip-rule="evenodd" fill="#333" d="M87.108 59.239c1.877-1.153 2.188-3.423 3.573-4.918.043-.046.014-.155.013-.235.003-1.053-.426-2.024-.564-3.055-.088-.654-.671-.808-1.247-.938-1.297-.291-2.635.249-3.919-.211-1.521 1.14-2.778.158-4.094-.484-.284-.139-.552-.206-.76-.503-1.218-1.737-1.421-1.776-3.421-.808-.289.141-.557.362-.828-.023-.237-.338-.233-.59.072-.939 1.033-1.176.932-1.58-.504-2.277-1.047-.51-1.847-1.229-2.26-2.355-.371-1.016-1.054-1.521-2.219-1.37-1.262.163-2.196-.333-2.812-1.532-.722-1.404-1.161-2.874-1.409-4.416-.072-.454.044-1.01-.627-1.126-.798-.004-1.597-.003-2.396-.001-.36.023-.681.197-1.028.279-.819.191-1.501.697-1.696 1.523-.207.879.164 1.643.932 2.17.131.09.303.148.375.287.265.505.525 1.169.224 1.58-.338.459-.724-.198-1.072-.375-.991-.504-1.801-.219-2.142.891-.307.994-.578 2.058-.24 3.064.442 1.316.524 2.436-.836 3.242-.063.037-.098.125-.14.193-.293.469-.636.576-1.064.159-.663-.646-1.37-.497-2.092-.112-.565.301-1.058.726-1.605 1.033-1.162.652-2.316 1.744-3.737.386-.412-.394-1.034-.362-1.432.04-.76.77-1.302.213-1.923-.176-.676-.422-1.259-.868-1.05-1.796.062-.151.147-.292.21-.442.228-.377.493-.727.794-1.047.524-.559.515-1.093.052-1.708-.481-.64-.946-1.199-1.867-.925-1.669.498-2.616 2.397-1.865 3.959.324.675.442 1.359.532 2.063.17 1.35.037 1.496-1.247 1.588-.159.012.04-.006-.118.016-2.74.379-4.781 1.626-5.532 4.468-.04.195-.049.409-.278.495-.275.018-.558.021-.821.125-1.226.48-2.722.605-2.958 2.359-.044.331-.451.427-.75.532-.379.133-.781.253-1.055.545-.566.606-1.104.477-1.679.036-.383-.294-.808-.623-1.305-.379-.532.263-.393.803-.365 1.279.055.95-.219 1.14-1.093.668-.569-.308-1.11-.625-1.782-.61-.767.017-1.58-.035-1.838.938-.247.928.138 1.649 1.112 2.099.624.286 1.385.528 1.606 1.171.492 1.432 1.444 2.635 1.893 4.078.088.208.021.372-.129.512-.765.946-.704 2.185-1.129 3.254-.306.771-.689 1.037-1.549.728-1.833-.659-3.805-.823-5.614-1.646-.871-.396-1.93-.293-2.813-.878-.552-.365-2.766.372-3.228.904-.228.263-.274.554-.233.892.281 2.279-.182 4.437-1.293 6.413-.428.76-.914 1.474-1.143 2.324 0 .24.611.306.611.546.655 1.2-.203 2.574-.611 3.774 0 .08 0 .16 0 .24.576.621 1.349.999 2.13.96 1.341-.067 1.926.504 2.274 1.739.376 1.339 1.052 1.57 2.38 1.062 1.101-.422 2.166-.592 3.373-.281 1.294.333 2.711.619 3.688-.819.187-.274.568-.258.877-.336 1.511-.38 1.826-1.979 2.864-2.847.124-.103.045-.396-.044-.574-.516-1.026-.01-1.748.683-2.438.987-.984 1.897-2.053 3.429-2.22.423-.046.817-.314 1.208-.517 1.166-.601 1.489-1.213 1.347-2.521-.122-1.123.557-1.725 1.644-1.408.689.2 1.391.368 2.054.661.76.335 1.533.268 2.149-.266.948-.823 2.246-1.067 3.129-1.978.258-.266.576-.236.891-.098.748.329 1.35.732 1.629 1.612.808 2.55 2.928 3.967 5.078 5.13 1.161.628 2.206 1.387 3.314 2.065.134.082.222.238.359.316 1.561.886 2.093 2.104 1.288 3.801-.197.418-.188.877.242 1.19.328.24.693.211 1.007-.024.963-.726 1.301-1.894 1.908-2.86.381-.606-.25-1.176-.664-1.667-.239-.283-.244-.589-.004-.869.219-.256.509-.175.78-.104.242.063.403.249.585.405.382.327.8.637 1.249.152.457-.494.355-1.031-.054-1.514-.423-.499-1.021-.754-1.558-1.1-.999-.642-2.448-.599-2.979-1.977-.091-.233-.479-.297-.757-.292-1.643.031-2.429-1.005-2.949-2.356-.271-.704-.712-1.247-1.357-1.622-.905-.524-1.418-1.208-1.234-2.344.07-.434-.084-.924.455-1.092.604-.188.564.411.741.718.294.51.614 1.088 1.273.578.7-.543.755-.039.926.424.562 1.524 1.534 2.6 3.201 2.923.393.076.745.288 1.124.418.348.087.489.424.751.613.564.368 1.14.725 1.735 1.03 1.243.637 1.824 1.562 1.575 2.98-.09.511-.073 1.109.331 1.458.898.774 1.402 1.931 2.488 2.512.306.159.357.484.501.749.432.738 1.07 1.065 1.925.962.148-.018.291-.055.434-.094-.386.27-1.123.405-.608 1.29.302.517.513 1.086.777 1.625.12.244.271.474.416.726.224-.259.409-.475.653-.759.267.355.469.625.679.906.68-1.278.709-.03 1.291.171-.204-.741-.408-1.482-.629-2.279.239-.081.505-.171.741-.25-.285-.478-.132-.949.138-.897.348.067.729.185.955-.229.188-.348.101-.698-.064-1.03-.267-.533-.781-.772-1.263-1.053-.271-.156-.756-.297-.683-.588.269-1.073-.643-1.623-1.063-2.437.728-.089 1.477.249 1.814-.674.425-1.163 1.3-1.654 2.552-1.568.439.03.852.208 1.292.226.223.055.444.125.681.079.576-.117 1.046-.424 1.391-.879.382-.505.89-.794 1.463-.989.485-.164 1.099-.201 1.104-.89.005-.6-.546-.733-.979-.916-.926-.392-1.629-1.163-1.591-2.055.066-1.598.747-3.132.812-4.759.006-.148.146-.282.243-.408.411-.529.562-1.131.55-1.795-.02-1.103.804-1.886 1.128-2.863.104-.313.464-.274.735-.154.724.319 1.465.348 2.265.085-.622 1.35-.613 1.403.639 1.896.319.127.513.316.704.593.695 1.008 1.386 1.023 2.171.044.579-.723 1.18-1.403 2.009-1.853.529-.287.952-.711.697-1.35-.3-.75-.898-.479-1.42-.252-.321.141-.602.193-.869-.095-.271-.29-.172-.604-.045-.896.282-.635.73-1.176 1.308-1.531z"/><path d="M64.021 59.456l1.563 2.524 3.426-5.484-7.746-1.496 1.227 1.981c-32.051 9.934-35.262 24.666-35.232 24.587 3.895-9.159 28.776-20.492 36.762-22.112zm-28.068 6.376c-.098-.11 1.733 1.945 1.733 1.945l.001-5.889-5.481-.262s1.814 2.037 1.782 2c-7.131 5.836-8.212 12.635-6.73 17.941.432-7.162 4.439-13.166 8.695-15.735zm-6.201-9.908c.181.02 2.394.251 2.394.251l-2.381-6.243-5.172 5.45s2.592.272 2.401.253c-5.724 13.722-3.99 21.075.264 25.934-4.96-8.982-.437-18.489 2.494-25.645zm31.46 24.01c-.004 0-.007.002-.011.002-14.473-4.882-30.149-3.495-33.943 1.633 7.411-6.179 25.789-1.319 33.458 1.113.14.061.67.191.766.21l.231 2.534 5.438-3.215-6.184-4.96.245 2.683z" fill="#FCE666"/></svg>