<svg xmlns="http://www.w3.org/2000/svg" width="60" height="60" viewBox="21.5 39.5 60 60" enable-background="new 21.5 39.5 60 60"><path fill="#999" d="M75.5 45.5h-6l-4 22h-2v-11l-18 11v-11l-18 11.125v22.875h50l-2-45zm-38 39h-4v-5h4v5zm0-7h-4v-5h4v5zm6 7h-4v-5h4v5zm0-7h-4v-5h4v5zm6 7h-4v-5h4v5zm0-7h-4v-5h4v5zm6 7h-4v-5h4v5zm0-7h-4v-5h4v5zm6 7h-4v-5h4v5zm0-7h-4v-5h4v5zm6 7h-4v-5h4v5zm0-7h-4v-5h4v5z"/><path fill="#939393" stroke="#000" stroke-width="1.558" stroke-miterlimit="10" d="M50.361 74.971"/><g fill="#666"><path d="M45.5 58.5v-2l-18 11.125v22.875h1v-22zm18 0v-2l-18 11v2"/><path d="M69.5 45.5l-4 22h-2v1h3l4-22h5v-1z"/></g></svg>