<svg xmlns="http://www.w3.org/2000/svg" width="22" height="22" viewBox="0 0 22 22"><path d="M5.5 13.4v2.2c0 .3.2.5.5.5h6.1c.3 0 .5-.2.5-.5v-2.2c0-.2-.2-.5-.5-.5h-6.2c-.2 0-.4.2-.4.5zm6.1.4v1.3h-1.6l1.3-1.3h.3zm-2.3 0h.7l-1.3 1.3h-.8l.2-.1 1.2-1.2zm-2.9-.1h1.6l-.5.6c-.1.1-.1.2-.1.3 0 .1.1.3.1.3.1.1.1.1.2.1h-1.3v-1.3zm11.4-2c-.2-.1-.2-.2-.2-.3l-.3-7.1c0-.2-.1-.4-.4-.4h-1.9c-.2 0-.4.1-.4.4l-.2 5.6-3.4-1.7s-.2-.1-.3 0c-.1.1-.1.2-.1.3v1.2l-2.8-1.5c-.2-.1-.3-.1-.4 0-.1 0-.1.1-.1.2v1.2l-2.9-1.5s-.2-.1-.3 0c-.1.1-.2.3-.2.3v9.3c0 .2.1.4.4.4h13.4c.2 0 .4-.1.4-.4v-5.7c0-.1-.1-.3-.3-.3zm-2.2-6.9h1l.3 6.2-1.5-.8.2-5.4zm.5 12.5h-2.2v-3.8h2.2v3.8zm1-.1h-.3v-4c.1-.2-.1-.5-.4-.5h-2.8c-.3 0-.5.2-.5.5v4h-8.3v-8l2.6 1.4c.1.1.3.1.5 0 .1-.1.2-.2.2-.4v-1l2.6 1.4c.1.1.3.1.5 0 .1-.1.2-.2.2-.4v-1l5.7 3v5z"/></svg>