<svg xmlns="http://www.w3.org/2000/svg" width="100" height="100" viewBox="0 0 100 100"><path fill="#FFE75C" stroke="#E5CE00" stroke-miterlimit="10" d="M83.808 49.999c0 18.673-15.138 33.81-33.808 33.81-18.672 0-33.809-15.138-33.809-33.81 0-18.672 15.137-33.808 33.809-33.808 18.671 0 33.808 15.136 33.808 33.808z"/><path fill="#465150" d="M80.29 44.848c0 .42 0 0 0 0l-.87.986c-.533-.629-1.132-1.157-1.741-1.71l-1.335.196-1.22-1.379v1.707l1.045.791.696.788.93-1.051c.234.438.465.877.697 1.315v1.313l-1.047 1.182-1.915 1.315-1.451 1.448-.93-1.055.465-1.182-.928-1.051-1.568-3.351-1.335-1.51-.349.393.524 1.906.986 1.117c.563 1.625 1.12 3.179 1.859 4.733 1.147 0 2.227-.122 3.366-.265v.92l-1.393 3.417-1.278 1.444-1.045 2.237c0 1.226 0 2.452 0 3.678l.349 1.448-.58.655-1.279.789-1.335 1.117 1.104 1.248-1.51 1.316.29.852-2.265 2.564h-1.508l-1.277.789h-.814v-1.051l-.346-2.106c-.449-1.32-.917-2.63-1.393-3.94 0-.967.058-1.925.115-2.892l.582-1.313-.814-1.579.059-2.168-1.104-1.248.552-1.806-.898-1.019h-1.569l-.522-.591-1.568.987-.638-.725-1.452 1.249c-.986-1.118-1.973-2.234-2.961-3.351l-1.161-2.761 1.045-1.575-.58-.657 1.276-3.025c1.048-1.304 2.143-2.555 3.251-3.811l1.975-.526 2.206-.262 1.51.395 2.148 2.167.755-.853 1.043-.131 1.975.657h1.51l1.045-.92.465-.657-1.047-.657-1.742-.131c-.483-.671-.933-1.376-1.507-1.972l-.582.262-.232 1.71-1.045-1.182-.231-1.316-1.161-.917h-.466l1.162 1.313-.465 1.182-.928.262.58-1.182-1.047-.524-.927-1.051-1.744.393-.231.524-1.045.658-.58 1.446-1.451.722-.64-.722h-.696v-2.366l1.51-.789h1.161l-.234-.919-.927-.92 1.566-.329.87-.984.696-1.184h1.279l-.349-.919.814-.526v1.051l1.741.393 1.741-1.444.117-.658 1.508-1.051c-.546.068-1.092.118-1.625.263v-1.184l.58-1.314h-.58l-1.275 1.182-.349.657.349.921-.582 1.575-.928-.526-.811-.919-1.279.919-.465-2.102 2.206-1.445v-.789l1.394-.92 2.206-.526 1.51.526 2.786.526-.696.788h-1.51l1.51 1.577 1.161-1.313.353-.578s4.452 3.99 6.996 8.355c2.542 4.365 3.737 9.511 3.737 10.556zm-28.753-18.333l-.117.788.814.526 1.391-.92-.695-.789-.93.526-.463-.131m1.278-5.388l-3.02-1.183-3.482.394-4.297 1.182-.813.789 2.67 1.839v1.052l-1.045 1.051 1.394 2.762.927-.527 1.164-1.839c1.794-.555 3.402-1.183 5.107-1.972l1.395-3.548m3.135 11.04l-.465-1.184-.814.264.234 1.444 1.045-.524m.463-.265l-.232 1.579 1.277-.264.928-.919-.813-.789c-.273-.727-.587-1.405-.928-2.103h-.695v.788l.463.526v1.182m-17.183 24.97l-.93-1.841-1.742-.394-.929-2.496-2.322.262-1.973-1.444-2.091 1.839v.29c-.633-.183-1.41-.207-1.973-.554l-.465-1.313v-1.446l-1.393.131c.116-.92.232-1.839.349-2.759h-.813l-.812 1.051-.813.393-1.161-.655-.116-1.446.232-1.577 1.742-1.313h1.393l.232-.789 1.742.393 1.278 1.579.232-2.63 2.206-1.839.813-1.972 1.625-.657.929-1.313 2.089-.396 1.046-1.575c-1.045 0-2.09 0-3.135 0l1.974-.92h1.392l1.975-.658.232-.786-.697-.658-.813-.264.232-.788-.58-1.182-1.394.524.232-1.051-1.625-.92-1.277 2.233.115.789-1.277.527-.813 1.708-.348-1.577-2.206-.92-.349-1.182 2.903-1.71 1.278-1.182.116-1.445-.696-.395-.929-.132-.58 1.446s-.971.19-1.221.252c-3.188 2.938-9.63 9.28-11.127 21.254.059.278 1.085 1.887 1.085 1.887l2.438 1.444 2.438.658 1.046 1.315 1.625 1.182.929-.131.696.314v.212l-.928 2.497-.697 1.051.232.527-.58 1.968 2.09 3.812 2.089 1.841.93 1.313-.117 2.761.697 1.575-.697 3.023s-.055-.019.034.284c.09.303 3.72 2.318 3.951 2.146.23-.175.427-.328.427-.328l-.232-.655.928-.92.349-.92 1.51-.527 1.161-2.892-.348-.786.811-1.182 1.742-.396.93-2.103-.232-2.627 1.393-1.972.232-1.972c-1.907-.944-3.797-1.918-5.689-2.891m-2.555-29.832l1.161.789h.93v-.92l-1.161-.526-.93.657m-3.018-1.051l-.581 1.445h1.161l.581-1.314c.501-.354.999-.71 1.509-1.051l1.161.395c.774.526 1.547 1.051 2.322 1.576l1.162-1.051-1.278-.526-.581-1.183-2.206-.263-.116-.657-1.045.264-.464.92-.581-1.183-.232.526.116 1.314-.928.788m4.179-3.286l.581-.525 1.161-.263c.795-.387 1.594-.647 2.438-.92l-.463-.789-1.499.215-.708.706-1.168.169-1.038.487-.505.244-.308.413 1.509.263m1.974 12.485l.697-1.051-1.046-.788.349 1.839"/></svg>