<svg xmlns="http://www.w3.org/2000/svg" width="26" height="26" viewBox="0 0 26 26"><path fill="#6B6C6D" d="M23.4 7c-2.1-3.7-6.1-6-10.4-6-2.1 0-4.2.6-6 1.6-2.8 1.6-4.8 4.2-5.6 7.3s-.4 6.3 1.2 9.1c2.1 3.7 6.1 6 10.4 6 2.1 0 4.2-.6 6-1.6 2.8-1.6 4.8-4.2 5.6-7.3.8-3.1.4-6.3-1.2-9.1z"/><path fill="#fff" d="M22.7 15.6c-.7 2.6-2.3 4.7-4.7 6.1-1.5.9-3.2 1.3-5 1.3-3.6 0-6.9-1.9-8.7-5-2.7-4.8-1.1-10.9 3.7-13.7 1.5-.8 3.2-1.3 5-1.3 3.6 0 6.9 1.9 8.7 5 1.3 2.3 1.6 5 1 7.6z"/><path fill="#6B6C6D" d="M11.7 13.6c0 .3.1.5.3.7l.1.1 3.3 3.3c.4.4 1.1.4 1.6 0 .4-.4.5-1.1 0-1.6l-3-3v-6c0-.6-.4-1.1-1-1.1h-.2c-.6 0-1 .5-1 1.1-.1 0-.1 6.5-.1 6.5z"/></svg>