<svg xmlns="http://www.w3.org/2000/svg" width="24" height="24" viewBox="0 0 24 24"><path enable-background="new" d="M12.539 6.584c-.359-.335-.942-.335-1.299 0l-5.59 5.484c-.357.336-.65.995-.65 1.47v4.817c0 .474.416.859.921.859h3.342c.504 0 .917-.389.917-.859v-3.963c0-.478.415-.858.919-.858h1.581c.504 0 .92.384.92.858v3.963c0 .474.41.859.916.859h3.34c.512 0 .922-.389.922-.859v-4.817c0-.476-.293-1.136-.646-1.47l-5.593-5.484zm9.754 3.794l-3.516-3.516v-3.619c0-.275-.227-.5-.5-.5h-2c-.275 0-.5.225-.5.5v.619l-3.07-3.07c-.389-.39-1.025-.39-1.414 0l-9.586 9.586c-.623.621.878 2.123 1.5 1.5l8.086-8.086c.389-.39 1.025-.39 1.414 0l8.086 8.086c.561.561 2.061-.94 1.5-1.5z"/></svg>