<svg xmlns="http://www.w3.org/2000/svg" width="421" height="141.1" viewBox="0 0 421 141.1"><path d="M282.3 104.8c0-8.1-2.4-14.5-7.3-19.4s-11.5-7.3-19.8-7.3c-2.1 0-7.2.1-15.3.4v57.1h12.7c19.8 0 29.7-10.2 29.7-30.8zm-14.9 16.2c-2.9 3.7-6.9 5.6-12 5.6-1.9 0-3.7-.1-5.3-.2v-39c2-.2 3.5-.3 4.6-.3 11.4 0 17.1 6.1 17 18.3.1 6.7-1.4 11.9-4.3 15.6zm59.2 5.6h-25.9v-17.1h18.8v-8.6h-18.8v-13.4h26.3v-9h-36.5v57.1l36.1.1v-9.1zm30.2-48.9h-4.4l-22.8 57.9h11.3l4-11.6h19.6l4.2 11.6h11.2l-23.1-57.9zm-9.1 38.6l6.9-21.1 6.9 21.1h-13.8zm73.3 10.4h-25.9l.1-48.2h-10.2v57.2h36v-9zm-352.4-82.1l-16 .1.1 35.8-36.4.1-.1-35.8h-16.2l.3 91.4h16.2l-.1-41.2 36.3-.1.2 41.2 16-.1-.3-91.4zm139.6 91l-.2-77 30.4-.1-.1-14.4-75.6.2v14.5l29.1-.1.2 77 16.2-.1zm-69.8-109.6l.4-.2s-.1.1-.4.2zm20.6 47.4c-5.3-8.3-1.7-26.1-1.7-26.1-7.4 7.2-6.3 13.1-5.6 21.2 1 24.5-5 21.7-5 21.7 5.4-10.8-8.4-26.9-12.7-40.4-5.5-17.4 2.5-22.8 4.4-23.8-22 10.1-15.6 32.1-15.6 32.1-10.8-2.3-9.6-28.9-10.2-35.9-1.4-23.3-17.5-22.2-17.5-22.2 20.5 11.3.7 30.4.1 36.5-8.5 21.5 1.7 36.3 1.7 36.3-6.3.5-13.8-20.1-13.8-20.1-10.2 35.9 9 57.6 9 57.6-3.9 2-17.1-17.6-17.1-17.6 1.9 52 45.7 50.1 54.1 47.2 46.6-13.4 33.8-55.4 29.9-66.5z"/></svg>