<svg xmlns="http://www.w3.org/2000/svg" width="620" height="330" viewBox="0 0 620 330"><path fill="#171796" d="M62.5 0h495v330h-495z"/><path fill="#fff" d="M62.5 0h495v220h-495z"/><path fill="#f00" d="M62.5 0h495v110h-495zm247.521 267.309c35.283 0 64.149-28.868 64.149-64.149v-76.228h-128.301v76.228c0 35.284 28.867 64.149 64.149 64.149h.003z"/><path fill="#fff" d="M310.021 266.281c34.61 0 62.926-28.318 62.926-62.926v-75.188h-125.854v75.188c0 34.611 28.317 62.926 62.928 62.926z"/><path fill="#f00" d="M273.653 130.532h-24.217v26.606h24.217v-26.606zm0 53.21h24.217v-26.604h-24.217v26.604zm-24.216 19.465c0 2.416.15 4.799.429 7.143h23.788v-26.607h-24.217v19.464zm72.652-19.465h-24.219v26.607h24.219v-26.607zm0 53.213h24.216v-26.605h-24.216v26.605zm24.216 14.555c5.371-4.053 10.051-8.975 13.826-14.553h-13.826v14.553zm-72.65-14.555h24.217v-26.605h-24.217v26.605zm-13.849 0c3.781 5.587 8.471 10.514 13.85 14.57v-14.57h-13.85zm54.391 26.608c2.68-.188 5.314-.549 7.89-1.078v-25.529h-24.217v25.533c2.567.525 5.195.886 7.867 1.072 2.819.174 5.64.164 8.458 0l.002.002zm55.872-53.213c.28-2.352.431-4.743.431-7.168v-19.437h-24.196v26.606h23.766v-.001zm-47.98-26.608h24.216v-26.604h-24.216v26.604zm0-53.21h-24.217v26.606h24.217v-26.606zm48.411 26.607v-26.606h-24.195v26.606h24.195z"/><path fill="#fff" d="M371.855 126.151l15.016-34.037-11.44-18.473-18.953 7.017-13.306-15.211-17.535 10.049-15.635-12.805-15.635 12.805-17.533-10.049-13.309 15.21-18.953-7.017-11.443 18.477 14.996 34.044c18.896-8.553 39.849-13.318 61.879-13.318 22.021 0 42.963 4.763 61.854 13.309h-.003z"/><path fill="#0093DD" d="M263.942 82.16l-.027.033-18.796-6.96-10.518 16.982 4.029 9.16 10.206 23.169c7.621-3.369 15.566-6.132 23.775-8.224l-8.668-34.159-.001-.001z"/><path fill="#fff" d="M262.86 98.953c.673 1.276 1.055 2.728 1.055 4.264 0 5.06-4.127 9.187-9.188 9.187-4.458 0-8.192-3.206-9.017-7.431 1.587 2.806 4.6 4.705 8.039 4.705 5.085 0 9.232-4.146 9.232-9.232.001-.508-.041-1.008-.121-1.493z"/><path d="M254.441 86.243l-.031.152-.639 3.296 2.529 2.211.116.102-.146.05-3.176 1.094-.65 3.296-.031.152-.115-.103-2.535-2.202-3.179 1.085-.148.051.031-.154.639-3.295-2.527-2.211-.117-.103.146-.051 3.175-1.092.65-3.296.031-.152.115.102 2.535 2.204 3.179-1.085z"/><path fill="#F7DB17" d="M250.626 90.925l2.37 2.067 2.967-1.021-5.337-1.046zm.02-.105l5.339 1.045-2.362-2.065-2.977 1.02zm-5.732-1.122l5.337 1.044-2.37-2.065-2.967 1.021zm5.317 1.151l-5.339-1.044 2.362 2.063 2.977-1.019zm.299-.201l3.574-4.101-2.971 1.014-.603 3.087zm-3.839 4.404l3.574-4.101-2.975 1.02-.599 3.081zm3.657-4.031l-3.574 4.101 2.97-1.014.604-3.087zm3.838-4.404l-3.574 4.101 2.975-1.02.599-3.081zm-3.863 4.044l-1.765-5.145-.607 3.079 2.372 2.066zm1.895 5.527l-1.765-5.146-.604 3.086 2.369 2.06zm-1.663-5.181l1.764 5.146.608-3.079-2.372-2.067zm-1.896-5.527l1.765 5.146.604-3.087-2.369-2.059z"/><path fill="#171796" d="M294.53 77.048l-.032.026-17.388-9.963-13.168 15.049 8.669 34.159c8.044-2.047 16.341-3.445 24.83-4.147l-2.913-35.124h.002z"/><path fill="#f00" d="M270.46 107.842c8.506-2.165 17.282-3.645 26.26-4.386l-.736-8.879c-9.475.784-18.737 2.345-27.716 4.629l2.192 8.636zm-4.357-17.168c9.443-2.404 19.186-4.045 29.153-4.869l-.724-8.716c-10.456.863-20.675 2.587-30.582 5.107l2.153 8.478z"/><path fill="#0093DD" d="M325.543 77.055l-.037.021-15.505-12.697-15.473 12.671 2.913 35.124c4.144-.343 8.33-.524 12.56-.524 4.249 0 8.454.184 12.616.529l2.924-35.124h.002z"/><path d="M309.968 92.85l-.112.073-.888 1.173c-.318.099-.395.293-.272.566-.425-.042-.474.314-.492.704-.406-.617-.85-.785-1.326-.5-.018-.375-.304-.551-.715-.639-.293-.017-.52-.106-.71-.236l-.276-.173c-.206-.144-.369-.008-.281.12l1.307 2.121c-.022.131.01.246.144.333l.229.646-.053.184c-.359-.17-.722-.191-1.081-.216-.277-.014-.468-.082-.589-.224-.088-.103-.147-.042-.149.134-.005.87.264 1.651.976 2.431-.376.007-.753.018-1.131.034-.129.01-.154.063-.119.169.206.496.553.944 1.34 1.248-.339.183-.533.465-.582.848-.015.364-.122.622-.345.741-.098.052-.133.105-.039.173.411.301.92.314 1.458.183-.256.439-.368.9-.323 1.384.339.092.672.024 1-.084-.047.1-.071.285-.084.503-.012.188-.067.373-.17.559-.052.054-.105.137.007.167.547.147 1.056.084 1.491-.077 0 .396.003.794.123 1.185.029.095.114.166.204.042.252-.349.524-.645.858-.842.051.146.122.273.254.35.156.09.24.277.249.56 0 .049-.003.098.058.146.242.012.838-.619.96-.973.335.197.462.4.715.751.09.124.161.047.208-.041.102-.396.109-.783.108-1.18.435.162.942.226 1.49.077.112-.031.059-.114.007-.166-.102-.187-.171-.407-.185-.595-.015-.217-.022-.368-.069-.468.328.11.659.176 1 .085.047-.484-.087-.943-.344-1.385.537.13 1.066.119 1.479-.183.094-.066.057-.121-.039-.173-.221-.118-.33-.376-.346-.741-.049-.383-.242-.666-.58-.847.786-.305 1.133-.755 1.338-1.248.036-.107.01-.161-.119-.17-.375-.016-.781-.039-1.158-.044.713-.778.988-1.565.984-2.436-.002-.176-.062-.237-.149-.133-.121.142-.292.223-.567.237-.361.024-.709.039-1.068.209l-.053-.185.25-.64c.133-.087.166-.201.144-.333l1.271-2.121c.089-.129-.074-.264-.278-.12l-.277.173c-.189.13-.418.218-.711.236-.41.087-.68.271-.697.646-.478-.285-.919-.119-1.326.5-.019-.39-.067-.745-.492-.704.122-.273.027-.474-.29-.573l-1.05-1.173-.112-.073v.005z"/><path fill="#F7DB17" d="M314.09 95.118c-.083-.042-.201.028-.264.155s-.055.276.031.319c.064.032.137-.01.193-.092l.036-.059.008-.015c.062-.127.079-.266-.003-.306l-.001-.002zm-8.159 0c.085-.042.202.028.264.155.063.127.064.269-.021.311-.085.043-.168-.039-.229-.166-.063-.127-.099-.257-.014-.3zm7.395 1.475c-.053 0-.097.044-.097.096 0 .053.042.097.097.097.053 0 .096-.043.096-.097 0-.052-.043-.096-.096-.096zm-6.569 0c-.052 0-.096.042-.096.096 0 .053.042.097.096.097s.097-.043.097-.097-.043-.096-.097-.096zm6.996-.495c-1.229-.148-2.454-.217-3.683-.217s-2.458.066-3.696.188c-.042.013-.034.146.022.14 1.231-.119 2.455-.184 3.676-.184 1.211 0 2.42.064 3.63.21.064.006.089-.131.051-.137zm-7.411-.137c1.251-.122 2.492-.191 3.729-.189 1.229 0 2.455.068 3.684.217l.182-.3-.146-.008c-.125-.063-.15-.263-.06-.446.091-.186.268-.285.392-.226.063.031.101.102.111.187l.726-1.204c-.332.212-.534.349-.946.41-.457.067-.666.227-.6.5.063.255-.093.217-.328.089-.511-.279-.881.115-1.062.574-.119.304-.259.295-.274-.021l-.011-.326c-.034-.363-.146-.466-.352-.365-.263.127-.285.041-.224-.094.046-.099.141-.209.107-.36-.014-.109-.107-.149-.246-.16l-1.057-1.184-.906 1.184c-.14.009-.231.049-.248.16-.032.151.085.256.131.354.062.134.037.22-.223.093-.208-.1-.304-.005-.338.358l-.021.341c-.015.315-.154.324-.273.021-.181-.459-.573-.854-1.086-.574-.236.128-.331.166-.297-.089.037-.279-.175-.433-.632-.5-.413-.061-.615-.198-.947-.41l.683 1.111.087-.094c.124-.062.299.04.391.226.091.184.064.386-.059.446l-.052.016.162.266.003-.003zm7.15 1.484l-.039.018c-.075.031-.131.107-.219.202-.093.098-.209.203-.344.306l-.071-.01.01-.071c.13-.101.243-.202.332-.297l.126-.149-.463-.049c-.129.039-.256.089-.361.154-.097.058-.175.126-.224.204l-.071.018-.019-.071c.058-.095.148-.175.258-.24l.173-.088-.523-.04-.1.076-.092.109-.07.013-.014-.071.104-.126.015-.015-.393-.022-.014.012-.09.096-.061.109-.066.029-.029-.066.074-.133.043-.054-.56-.02-.022.019-.107.083-.078.103-.07.02-.02-.07.096-.125.035-.031-.596-.007-.586.005.035.033.096.125-.019.07-.072-.02-.078-.103-.107-.083-.024-.02-.563.018.048.057.073.133-.027.066-.067-.029-.062-.109-.09-.096-.017-.017-.396.021.021.02.104.125-.013.072-.071-.014-.092-.109-.104-.079-.009-.005-.537.037.198.1c.109.065.202.145.258.239l-.019.072-.071-.019c-.048-.078-.128-.146-.224-.203-.117-.072-.259-.126-.4-.167h-.004l-.437.039.141.173c.09.095.202.196.332.297l.01.071-.071.01c-.136-.104-.252-.208-.344-.306l-.22-.229c-.319-.146-.577-.207-.938-.239-.249-.023-.518-.015-.746-.129.059.139.122.268.205.373.087.111.196.197.341.239l.036.041c.046.256.137.466.275.629.085.098.186.18.307.243-.123-.133-.216-.271-.28-.409-.109-.231-.147-.466-.126-.685l.056-.047.047.057c-.018.2.015.417.117.631.092.192.259.386.475.563.039.031 0 .103-.047.09-.252-.072-.473-.2-.624-.377-.146-.169-.243-.386-.294-.646-.153-.052-.269-.146-.361-.267-.077-.099-.139-.214-.192-.335.046.698.297 1.306.743 1.853.1.123.269.297.415.353.149.057.154.162-.032.164l-.171.002c.137.051.267.107.379.171.207.119.354.264.365.444l-.048.056-.055-.047c-.01-.141-.134-.261-.313-.363-.185-.106-.423-.19-.655-.261l-.748.005.214.137c.133.071.306.14.559.198.145.035.271.085.38.148.115.068.212.151.288.244l-.009.073-.072-.008c-.068-.084-.155-.159-.26-.22-.099-.059-.217-.104-.352-.137-.263-.063-.443-.132-.583-.209-.122-.064-.214-.133-.3-.2.293.641.732.934 1.36 1.123l.099.03.015.004.434.089.426.061.047.056-.056.047-.433-.062-.279-.054-.174.02c-.378.022-.685.366-.709.805l-.002.025c.144-.13.292-.255.445-.345.19-.11.389-.168.593-.112l.036.063-.063.036c-.173-.046-.346.005-.516.103-.175.103-.347.257-.513.412-.039.239-.134.464-.334.613.1.056.17.106.266.074l.425-.177c.148-.05.3-.084.46-.093l.054.051-.051.054c-.147.007-.291.039-.43.087l-.361.147c.359.077.749-.001 1.086-.128l.217-.067.28-.129c.107-.045.215-.083.297-.093l.057.046-.046.058c-.183.021-.206.033-.361.128 0 .034-.107.093-.206.156l-.141.109c-.155.141-.235.295-.307.468-.048.114-.085.236-.111.364.09-.176.197-.344.328-.493.153-.176.339-.327.562-.432l.069.024-.025.068c-.21.098-.384.239-.527.407-.146.168-.263.362-.356.563l-.068.14c.179-.198.345-.364.525-.5.216-.163.462-.256.682-.217l.042.061-.061.042c-.188-.034-.407.053-.601.197-.197.15-.397.363-.597.588.3.043.597-.042.883-.138.148-.049.298-.221.39-.248l.093-.109.166-.163.073.007-.006.073-.156.153-.15.185-.039.025c-.098.114-.246.265-.28.392-.093.342-.041.603-.199.938.116-.062.209-.132.285-.218.087-.098.153-.22.209-.375.061-.169.154-.317.272-.439.122-.126.269-.222.425-.28l.067.031-.031.066c-.143.052-.275.14-.388.256-.107.11-.194.246-.25.402-.06.166-.131.298-.229.407-.071.081-.154.148-.254.207l.197-.012c.129-.01.344-.107.454-.193.107-.083.189-.196.251-.336l.068-.026.026.068c-.068.156-.161.283-.282.377-.091.069-.196.122-.319.151.263-.009.507-.068.761-.163.106-.039.143-.273.207-.339l.172-.257c.076-.092.164-.165.267-.207l.066.029-.027.066c-.085.034-.159.098-.227.176l-.159.239c.016.119-.084.372-.087.497-.011.334-.003.666.087.997l.264-.313.001-.024c.03-.173.054-.357.066-.541.011-.183.011-.363-.01-.536l.043-.057.058.046c.022.181.022.368.012.554l-.049.438.125-.167c.061-.131.096-.26.109-.387.015-.13.008-.256-.021-.375l.039-.062.062.039c.031.131.041.269.023.411-.014.105-.039.215-.08.323l.29-.198-.005-.37.029-.31.076-.054.054.079-.026.288.008.396c.008.134.079.302.203.375.168.101.257.266.303.446.026-.236.028-.456.005-.652-.027-.232-.09-.435-.186-.599l.02-.072.07.02c.103.18.17.393.198.641.028.237.021.505-.021.795.166-.134.621-.42.573-.968l-.046-.122.023-.068.068.022.063.18.019.123.082-.063.131.087-.068-.29c-.016-.141-.008-.279.022-.41l.062-.039.039.063c-.029.118-.035.246-.021.374.015.126.05.256.108.387l.008.04.115.106-.046-.416c-.013-.188-.012-.374.011-.556l.058-.045.044.057c-.021.173-.021.354-.01.536.012.185.036.366.064.541l.002.012.248.319c.09-.331.119-.663.107-.998l-.105-.491-.163-.246c-.067-.08-.142-.142-.227-.176l-.029-.067.067-.029c.1.043.189.116.267.207l.168.251.233.346c.25.093.484.152.737.162-.122-.03-.228-.081-.317-.151-.121-.093-.213-.22-.281-.376l.025-.068.068.026c.063.14.143.254.25.335.139.107.472.202.652.207-.1-.061-.184-.127-.256-.208-.096-.109-.17-.241-.229-.408-.056-.154-.142-.291-.249-.401-.111-.116-.244-.202-.389-.256l-.03-.067.067-.03c.156.059.303.152.424.279.118.121.213.271.273.44.055.154.121.275.208.375.077.088.171.159.288.22-.159-.338-.107-.598-.199-.94l-.314-.521c.074-.083.217.144.404.207.285.097.582.181.881.139-.199-.225-.398-.438-.598-.588-.193-.146-.385-.229-.572-.195l-.061-.043.042-.06c.22-.04.438.052.653.215.181.137.327.285.507.485l-.049-.126c-.097-.2-.212-.393-.358-.562-.145-.166-.32-.308-.527-.407l-.025-.068.068-.024c.223.105.409.256.563.432.132.151.239.322.33.5-.023-.132-.063-.256-.11-.37-.071-.172-.151-.327-.306-.467-.102-.092-.341-.229-.34-.292l-.102-.039-.268-.085-.046-.057.058-.046c.081.01.187.046.296.091l.16.098c.086.007.226.077.339.121.335.127.727.205 1.085.129l-.364-.148c-.139-.048-.279-.08-.43-.086l-.051-.054.055-.051c.159.006.311.042.459.093l.426.176c.096.044.164-.012.266-.073-.201-.15-.295-.375-.335-.612l-.003-.004c-.166-.154-.338-.31-.514-.412-.169-.098-.342-.147-.515-.103l-.063-.036.036-.063c.204-.055.402.001.593.111.153.09.303.216.447.348l-.002-.028c-.025-.439-.331-.781-.709-.805-.127-.008-.309.034-.303-.052.006-.097.158-.071.381-.14.627-.189 1.067-.482 1.362-1.124l-.304.201c-.14.077-.322.148-.582.209-.135.031-.252.078-.354.137-.104.062-.189.137-.258.22l-.074.008-.008-.073c.076-.093.173-.176.288-.244.11-.063.236-.113.38-.148.252-.059.426-.127.559-.198l.214-.137-.747-.005c-.234.071-.472.156-.656.261-.179.103-.303.222-.313.363l-.055.047-.048-.056c.013-.181.158-.325.364-.444.113-.063.244-.12.381-.171l-.17-.002c-.189-.003-.182-.107-.033-.164.147-.056.311-.229.41-.353.441-.544.671-1.163.742-1.841-.054.117-.112.229-.188.323-.092.118-.209.213-.361.267-.051.261-.148.478-.293.646-.15.177-.352.302-.602.375-.047.013-.085-.057-.047-.09.215-.178.359-.368.453-.56.1-.214.135-.431.117-.631l.047-.057.056.047c.019.218-.017.453-.128.685-.064.138-.157.276-.279.408.119-.063.221-.145.305-.242.138-.163.229-.373.276-.629l.036-.041c.145-.044.252-.129.34-.239.084-.106.146-.233.205-.372-.228.113-.494.104-.744.128-.347.03-.601.11-.902.247l.007-.001zm-.096-.285c-1.108-.144-2.215-.185-3.326-.187-1.114 0-2.229.065-3.353.183l-.023.075c.004.046.062.057.197.044 1.048-.098 2.094-.151 3.147-.151 1.1 0 2.201.034 3.32.166.055.015.126-.139.037-.132v.002zm-6.645-.116c1.112-.115 2.219-.179 3.319-.179s2.198.064 3.299.206l.051-.206-.094.024c-.109 0-.201-.09-.201-.201 0-.11.09-.2.201-.2.083 0 .152.051.184.122l.098-.276c-1.18-.137-2.355-.199-3.537-.199-1.188 0-2.377.063-3.572.175l.094.267c.036-.052.097-.088.165-.088.111 0 .2.09.2.2 0 .111-.089.201-.2.201l-.059-.011.054.153-.003.012h.001zm4.996-.678c-.11 0-.2.09-.2.2 0 .111.09.201.2.201s.2-.09.2-.201c0-.11-.09-.2-.2-.2zm0 .105c-.054 0-.097.044-.097.096 0 .053.043.097.097.097.052 0 .097-.044.097-.097 0-.052-.043-.096-.097-.096zm-1.763-.149c-.109 0-.2.09-.2.2 0 .111.089.2.2.2s.2-.089.2-.2c.001-.11-.088-.2-.2-.2zm0 .105c-.053 0-.097.042-.097.096s.043.097.097.097.096-.043.096-.097c0-.052-.042-.096-.096-.096zm-1.733-.066c-.11 0-.2.09-.2.2 0 .111.09.201.2.201.108 0 .2-.09.2-.201 0-.11-.09-.2-.2-.2zm0 .105c-.054 0-.097.042-.097.096s.043.097.097.097c.052 0 .096-.043.096-.097 0-.052-.042-.096-.096-.096z"/><path d="M310.06 95.112c-.023-.111-.08-.211-.163-.285-.083-.077-.189-.127-.305-.144-.054-.007-.063-.095-.012-.111.098-.032.186-.108.256-.216.073-.113.129-.256.154-.418.009-.055.105-.057.113-.001.024.137.082.249.157.339.09.107.204.183.315.225.05.02.041.103-.014.11-.096.015-.171.068-.229.143-.081.101-.132.236-.163.359-.013.054-.101.051-.112-.003l.003.002zm.053-.192c.032-.085.076-.168.132-.238l.161-.137c-.083-.049-.163-.114-.233-.195l-.118-.189-.123.258c-.05.076-.108.14-.176.188.082.031.155.077.219.134l.138.179zm1.301 8.333l-.838.335-.078-.034.033-.078.84-.335.078.033-.035.079zm.097-.531l-.983.534-.083-.024.023-.083.984-.534.083.024-.024.083zm-2.975-.107l.983.534.024.084-.082.024-.984-.535-.024-.083.083-.024zm.083.526l.839.335.034.078-.08.034-.839-.335-.034-.079.078-.033h.002zm.365.707c.223.054.425.078.583.05.144-.025.252-.098.311-.237v-.804c-.174-.002-.345-.024-.493-.066-.178-.051-.276-.16-.328-.29-.066-.175-.043-.383-.006-.536l.073-.044.044.073c-.032.134-.054.316.002.463.037.098.112.179.247.217.148.041.322.062.5.062.175 0 .349-.021.496-.065.134-.039.241-.112.313-.2s.106-.19.093-.286l-.08-.131c-.055-.039-.133-.057-.208-.061l-.231.026-.126.021-.068-.053.053-.068.118-.02.26-.029c.098.004.197.029.273.083.068.048.117.118.131.214.018.13-.026.266-.119.38-.087.105-.213.193-.373.239-.136.039-.29.062-.446.068v.787l.003.025c.061.134.166.204.307.23.157.029.359.003.583-.051l.073.044-.046.073c-.237.057-.454.083-.632.052-.15-.027-.269-.094-.351-.215-.079.121-.202.188-.351.215-.177.033-.394.007-.632-.052l-.046-.073.074-.044v.003zm.58.341l.654-.015.062.061-.06.062-.655.015-.063-.061.062-.062zm.966-5.02c.245-.204.478-.37.688-.484.217-.117.414-.181.586-.173l.059.063-.064.059c-.149-.006-.325.053-.523.158-.205.109-.43.271-.668.471l-.087-.008.008-.086h.001zm-.986.091c-.229-.212-.485-.392-.725-.512-.227-.115-.437-.176-.591-.163l-.065-.055.055-.065c.18-.017.411.05.659.174.247.126.513.312.75.53l.004.086-.087.003v.002zm-.347 1.636c.061-.136.136-.253.222-.357.087-.103.183-.193.283-.276l.085.008-.008.087c-.097.078-.187.164-.268.26-.08.097-.148.204-.203.328l-.08.03-.031-.08zm.605-2.826c.08.107.144.227.186.363.042.134.065.285.063.454.009.131.01.27-.012.406-.021.14-.068.277-.157.4-.07.098-.165.158-.269.185-.087.021-.178.016-.268-.012.047.163.083.339.01.502l-.083.029-.208-.101-.208-.084-.001-.001c-.155-.061-.282-.119-.385-.183-.106-.063-.188-.131-.244-.202l.002.003c-.072-.079-.118-.172-.144-.276l-.036-.283-.315-.189c-.105-.07-.192-.142-.263-.214l.001-.086.087.002.244.197.333.196c.201.021.402.083.603.178.172.082.344.188.516.313l.044.032.041.031c.083.035.17.045.248.025.076-.018.146-.063.198-.137.078-.107.118-.227.137-.349.02-.125.019-.256.01-.381v-.004c.002-.157-.019-.298-.057-.42-.039-.124-.095-.231-.166-.327l.012-.085.085.012-.004.006zm-.612 1.706c-.169-.126-.337-.23-.506-.31-.172-.08-.343-.136-.512-.16l.029.22c.021.085.057.162.115.226l.002.001c.049.061.119.117.212.175.098.059.218.115.366.173l-.002-.002.218.088.151.072c.03-.136-.017-.292-.061-.436l-.012-.047zm1.265-1.633c-.072.096-.129.203-.166.327-.039.124-.059.262-.058.42v.003c-.008.126-.01.258.01.382.02.122.061.241.137.349.053.073.123.117.199.137.079.02.165.01.247-.026l.041-.03.045-.033c.171-.125.344-.232.516-.313.201-.095.401-.155.604-.178l.332-.197.242-.197.087-.001v.086c-.069.071-.158.144-.263.214l-.316.188-.035.283c-.025.104-.072.197-.143.277l.001-.003c-.058.071-.139.139-.244.202-.103.062-.229.122-.386.182l-.002.002-.207.083-.209.102-.082-.03c-.074-.162-.038-.338.009-.501-.089.029-.181.032-.267.011-.104-.023-.199-.086-.27-.184-.09-.124-.137-.261-.158-.4-.021-.139-.02-.275-.011-.406-.002-.169.021-.319.063-.454.042-.137.105-.258.186-.363l.085-.012.011.085.002-.005zm1.531 1.164c-.171.024-.34.08-.511.16-.17.079-.337.184-.507.31l-.014.047c-.043.144-.091.3-.06.436l.151-.072.217-.088-.002.002c.148-.058.27-.114.367-.173.094-.056.162-.114.213-.175l.002-.001c.057-.063.092-.141.115-.226l.031-.22h-.002zm-.529.087c-.193 0-.352.157-.352.352s.158.354.352.354.352-.158.352-.354c0-.195-.159-.352-.352-.352zm0 .112c-.131 0-.239.107-.239.239s.108.239.239.239c.133 0 .24-.107.24-.239s-.107-.239-.24-.239zm0 .098c-.078 0-.142.063-.142.142s.063.142.142.142.143-.063.143-.142-.065-.142-.143-.142zm-2.765-.203c.193 0 .354.158.354.352 0 .194-.158.354-.354.354-.194 0-.352-.158-.352-.354.001-.193.158-.352.352-.352zm0 .113c.132 0 .239.107.239.239 0 .133-.107.24-.239.24s-.239-.107-.239-.24c0-.132.108-.239.239-.239zm0 .097c.078 0 .142.063.142.142s-.063.142-.142.142-.142-.063-.142-.142.064-.142.142-.142zm-5968.425-2027.335l-.106.081-.797 1.237c-.309.123-.371.322-.228.586-.428-.01-.449.349-.437.739-.454-.585-.908-.718-1.361-.398-.046-.373-.345-.526-.761-.583-.294.006-.526-.066-.726-.182l-.289-.151c-.216-.128-.368.02-.27.141l1.463 2.016c-.013.132.029.244.168.32l.276.629-.038.188c-.372-.143-.735-.137-1.095-.135-.277.008-.473-.045-.604-.177-.096-.096-.15-.031-.14.144.061.867.388 1.627 1.157 2.35-.375.035-.75.075-1.125.12-.127.02-.149.075-.105.178.242.478.623.899 1.43 1.143-.324.207-.496.503-.517.888.014.365-.074.63-.287.765-.094.061-.124.116-.025.176.434.269.942.243 1.468.071-.222.458-.299.926-.217 1.405.345.065.67-.026.991-.16-.04.103-.05.289-.046.508.002.188-.039.378-.127.569-.048.059-.096.146.019.165.557.107 1.06.005 1.48-.189.031.395.064.791.214 1.172.037.093.126.157.206.027.225-.367.474-.683.792-.905.061.143.142.264.281.33.162.078.259.258.291.538.004.049.005.098.068.143.242-.007.788-.68.882-1.043.35.172.492.366.771.695.098.116.163.035.204-.057.071-.402.05-.789.018-1.185.445.129.956.153 1.492-.036.109-.039.05-.118-.006-.166-.114-.179-.202-.394-.229-.58-.03-.215-.05-.365-.105-.46.336.085.671.125 1.004.008.01-.486-.157-.933-.448-1.354.546.088 1.072.037 1.462-.294.087-.073.047-.125-.052-.17-.231-.101-.359-.35-.4-.713-.077-.377-.294-.645-.644-.8.761-.363 1.073-.838 1.24-1.346.028-.109-.002-.161-.131-.16-.377.012-.782.021-1.158.044.652-.83.866-1.636.798-2.503-.016-.176-.08-.232-.16-.122-.109.15-.274.245-.548.281-.358.052-.704.092-1.05.288l-.067-.18.201-.657c.126-.096.15-.212.117-.342l1.108-2.212c.078-.135-.095-.258-.287-.099l-.264.194c-.181.144-.401.248-.692.289-.401.119-.657.323-.646.698-.498-.248-.926-.049-1.285.599-.048-.387-.123-.737-.545-.665.101-.282-.008-.475-.333-.551l-1.135-1.09-.118-.065v-.001z"/><path fill="#F7DB17" d="M-5655.451-1925.774c-.086-.036-.199.043-.252.175-.053.131-.032.279.055.315.067.027.136-.02.186-.105l.031-.062.007-.015c.053-.132.059-.271-.027-.306l-.001-.001zm-8.136.619c.08-.049.204.012.275.135s.083.264.002.312c-.081.049-.17-.026-.241-.148-.072-.121-.117-.249-.037-.298h.001zm7.485.909c-.052.005-.092.052-.088.103.004.053.05.093.103.089s.093-.05.089-.103c-.006-.052-.052-.093-.104-.089zm-6.55.498c-.052.004-.092.05-.089.103.004.052.05.092.103.088s.093-.05.089-.103-.05-.093-.103-.088zm6.939-1.023c-1.235-.055-2.463-.03-3.688.063-1.225.094-2.446.253-3.672.468-.041.016-.022.148.033.138 1.22-.212 2.434-.37 3.65-.462 1.207-.092 2.417-.118 3.636-.066.064.001.079-.137.041-.141zm-7.401.424c1.239-.217 2.471-.379 3.705-.471 1.225-.094 2.453-.118 3.689-.064l.157-.312-.146.003c-.129-.053-.17-.251-.093-.44.077-.192.245-.305.373-.254.066.026.109.094.125.177l.634-1.255c-.315.236-.507.387-.913.481-.45.101-.647.276-.56.544.081.248-.076.223-.32.112-.53-.239-.87.182-1.015.654-.095.312-.236.314-.274-.001l-.035-.324c-.062-.359-.18-.453-.378-.338-.253.148-.282.063-.23-.077.038-.101.124-.219.079-.366-.023-.107-.117-.142-.258-.14l-1.144-1.101-.813 1.25c-.139.019-.227.067-.234.178-.021.153.104.249.157.343.071.128.053.216-.216.11-.214-.084-.303.017-.309.382l.004.342c.01.316-.129.334-.271.041-.215-.444-.636-.807-1.126-.491-.226.147-.317.19-.303-.066.015-.282-.206-.418-.668-.451-.415-.029-.627-.152-.975-.337l.766 1.056.079-.099c.118-.072.302.016.407.195.105.176.093.38-.025.449l-.051.02.183.253v-.003zm7.242.939l-.037.021c-.072.036-.122.117-.202.218-.086.105-.193.218-.32.331l-.072-.005.004-.071c.123-.111.227-.22.309-.322l.113-.158-.465-.013c-.125.049-.248.109-.348.182-.092.065-.164.138-.208.22l-.069.024-.024-.07c.049-.099.134-.185.238-.258l.165-.101-.524-.001-.093.084-.083.115-.07.019-.019-.069.094-.134.014-.016-.394.007-.012.012-.082.102-.055.114-.064.033-.032-.064.063-.137.04-.058-.561.023-.021.02-.101.092-.07.108-.068.024-.025-.068.086-.132.032-.033-.594.04-.585.048.038.03.107.118-.015.072-.073-.015-.086-.097-.113-.075-.026-.018-.559.061.051.053.083.126-.021.069-.069-.024-.07-.103-.096-.089-.018-.015-.394.051.023.018.114.118-.008.071-.072-.007-.099-.101-.11-.072-.009-.005-.533.079.206.084c.113.057.212.129.275.219l-.013.073-.073-.013c-.053-.074-.138-.137-.238-.185-.121-.062-.267-.106-.411-.135h-.003l-.433.072.152.161c.097.087.217.18.355.271l.016.07-.07.015c-.144-.094-.267-.188-.366-.279l-.236-.21c-.33-.123-.592-.164-.952-.168-.25-.005-.518.025-.754-.072.069.134.143.258.234.356.095.103.21.181.357.214l.039.038c.065.252.17.455.322.606.092.092.198.165.323.218-.133-.122-.236-.253-.311-.385-.127-.222-.181-.453-.177-.673l.052-.052.051.054c-.002.2.047.415.166.619.106.184.287.365.515.526.041.028.008.104-.04.094-.256-.053-.486-.164-.651-.329-.157-.158-.271-.366-.341-.623-.157-.041-.279-.127-.381-.24-.084-.092-.154-.201-.216-.318.098.692.395 1.279.882 1.791.108.114.291.275.44.32.154.045.167.15-.02.166l-.17.015c.14.04.274.087.391.141.216.103.373.236.398.416l-.043.059-.06-.043c-.02-.139-.153-.249-.338-.338-.192-.093-.436-.159-.673-.211l-.745.061.224.121c.138.061.317.117.571.156.147.022.277.064.391.119.12.058.222.135.306.222l-.002.073-.074-.003c-.074-.079-.166-.147-.275-.2-.104-.051-.224-.088-.361-.109-.266-.042-.451-.098-.598-.164l-.314-.176c.341.617.802.875 1.442 1.016l.102.022.014.002.44.056.428.028.051.052-.052.052-.436-.029-.282-.032-.172.033c-.375.051-.655.417-.646.856l.001.025c.133-.141.271-.277.417-.377.182-.125.376-.197.582-.157l.04.061-.061.04c-.176-.031-.344.032-.506.142-.168.114-.326.284-.48.45-.02.242-.097.473-.287.638.104.047.178.092.271.053l.41-.207c.144-.062.292-.108.451-.127l.058.047-.046.057c-.146.019-.288.062-.423.12l-.349.174c.364.049.746-.057 1.074-.211l.211-.082.269-.15c.103-.054.208-.099.289-.115l.061.042-.042.061c-.181.035-.203.05-.35.156.002.034-.1.101-.193.171l-.134.119c-.143.152-.211.312-.27.49-.039.118-.066.242-.083.372.076-.182.171-.358.29-.517.139-.187.313-.352.527-.472l.07.018-.019.07c-.202.113-.364.268-.495.446-.133.179-.234.381-.313.587l-.058.145c.164-.211.317-.39.487-.539.202-.179.44-.29.663-.267l.047.057-.057.047c-.191-.02-.402.082-.585.242-.185.164-.369.392-.549.631.302.019.591-.087.87-.205.144-.06.281-.242.37-.277l.084-.115.153-.175.074.001-.001.073-.144.164-.137.195-.037.028c-.088.12-.224.282-.25.411-.067.349.005.604-.127.951.11-.07.198-.148.267-.239.079-.104.136-.231.179-.389.047-.174.131-.328.238-.459.113-.134.252-.241.403-.312l.068.025-.025.069c-.138.062-.264.16-.367.284-.099.119-.174.261-.217.421-.049.17-.109.307-.199.424-.065.087-.142.159-.237.225l.195-.026c.127-.02.334-.134.438-.228.101-.092.174-.21.225-.355l.066-.031.032.066c-.057.161-.139.294-.253.397-.086.076-.187.137-.308.176.262-.029.5-.107.747-.22.102-.047.12-.283.18-.353l.151-.27c.069-.098.151-.177.252-.228l.068.024-.022.068c-.081.041-.151.11-.212.193l-.142.251c.025.117-.054.377-.047.502.014.334.046.665.162.988.076-.122.157-.231.24-.331l-.001-.024c.016-.175.026-.36.024-.544-.002-.183-.016-.364-.05-.533l.04-.061.061.041c.036.179.051.365.053.551l-.015.441.112-.177c.051-.135.077-.266.08-.393.005-.131-.012-.256-.05-.372l.035-.064.064.035c.041.128.061.266.053.407-.005.106-.023.218-.055.329l.274-.221-.033-.368.006-.311.072-.06.06.074-.004.289.036.395c.018.133.102.294.232.358.174.087.276.245.335.423.009-.238-.006-.457-.045-.65-.046-.23-.122-.428-.231-.585l.014-.073.072.015c.116.171.2.379.247.623.046.234.059.502.04.794.156-.146.587-.466.497-1.008l-.055-.119.018-.069.07.017.077.174.027.122.077-.069.137.078-.09-.284c-.026-.141-.03-.278-.008-.411l.058-.044.043.059c-.019.121-.016.248.007.376.026.123.071.251.138.376l.012.041.122.097-.078-.411c-.027-.186-.039-.373-.031-.554l.054-.05.048.053c-.008.174.005.354.031.535.026.183.064.363.106.534l.002.012.271.3c.064-.337.07-.67.032-1.003l-.143-.482-.181-.232c-.072-.074-.151-.131-.238-.158l-.034-.065.064-.033c.104.034.199.101.281.185l.187.237.259.327c.257.073.495.115.748.107-.124-.021-.233-.064-.328-.128-.127-.084-.23-.203-.31-.354l.02-.07.07.02c.072.135.162.242.276.315.147.098.485.167.665.158-.104-.053-.192-.113-.271-.189-.105-.101-.188-.227-.26-.387-.067-.151-.163-.28-.28-.384-.118-.107-.259-.182-.405-.225l-.035-.064.064-.036c.16.047.314.13.446.248.125.11.232.253.304.418.068.15.143.266.237.357.083.082.183.146.305.198-.185-.324-.153-.588-.269-.922l-.353-.496c.067-.089.227.126.419.175.291.074.593.136.887.07-.215-.209-.43-.406-.639-.54-.204-.132-.403-.199-.586-.152l-.064-.038.038-.063c.217-.056.441.018.668.164.192.123.348.259.541.446l-.058-.121c-.111-.192-.241-.376-.401-.533-.157-.154-.342-.283-.557-.367l-.03-.066.067-.029c.231.088.426.224.592.388.143.141.264.303.368.473-.034-.131-.083-.251-.139-.36-.084-.167-.176-.316-.34-.443-.107-.083-.357-.202-.36-.265l-.105-.031-.273-.065-.05-.053.053-.05c.082.004.189.031.303.069l.167.086c.086 0 .231.058.347.094.344.101.739.15 1.092.046l-.373-.12c-.142-.037-.285-.058-.436-.053l-.055-.05.05-.055c.16-.005.314.018.466.057l.438.144c.099.036.163-.024.26-.093-.211-.135-.323-.351-.379-.586l-.003-.003c-.177-.141-.36-.284-.543-.373-.177-.085-.353-.123-.522-.063l-.066-.031.032-.066c.199-.07.4-.029.6.067.159.078.319.192.471.312l-.004-.027c-.058-.437-.389-.756-.767-.748-.127.001-.305.058-.306-.029-.001-.097.152-.083.369-.168.611-.236 1.028-.561 1.273-1.224l-.287.224c-.135.087-.311.172-.566.252-.132.041-.244.097-.341.163-.099.07-.18.151-.242.238l-.072.014-.014-.072c.068-.099.158-.189.268-.266.103-.071.226-.131.368-.176.247-.077.414-.16.542-.241l.202-.154-.747.052c-.226.089-.457.191-.634.309-.171.116-.285.243-.284.386l-.052.051-.052-.052c0-.181.133-.336.33-.471.107-.071.233-.139.366-.2l-.17.011c-.188.011-.19-.094-.044-.161.143-.066.292-.252.382-.382.398-.577.581-1.211.601-1.892-.044.122-.095.236-.162.336-.083.125-.191.228-.341.293-.03.264-.112.487-.243.667-.137.187-.329.328-.572.419-.046.017-.089-.051-.054-.086.201-.194.331-.394.41-.593.085-.22.102-.439.069-.637l.043-.061.06.043c.035.216.018.453-.076.691-.055.143-.135.287-.248.429.113-.071.21-.161.285-.265.127-.173.201-.39.229-.649l.032-.042c.142-.055.242-.148.321-.265.075-.111.129-.243.176-.386-.219.129-.486.142-.733.183-.346.06-.593.16-.883.317zm-.116-.277c-1.115-.06-2.221-.017-3.33.066-1.111.084-2.219.233-3.329.437l-.018.076c.008.046.065.053.2.029 1.037-.177 2.076-.31 3.127-.39 1.095-.083 2.197-.132 3.322-.085.055.011.115-.148.026-.135v.002zm-6.635.389c1.1-.2 2.199-.348 3.298-.431 1.096-.083 2.196-.102 3.305-.043l.035-.21-.093.032c-.109.008-.207-.074-.215-.184-.008-.111.074-.207.184-.215.083-.006.157.039.193.108l.076-.283c-1.188-.048-2.363-.019-3.542.07-1.184.089-2.366.241-3.549.444l.114.26c.032-.055.089-.095.157-.1.11-.009.206.074.215.184.008.11-.074.207-.185.215l-.059-.006.066.149-.003.012h.002zm4.931-1.056c-.11.008-.192.104-.184.215.008.11.104.192.215.184.11-.008.192-.104.184-.215-.008-.11-.105-.192-.215-.184zm.009.105c-.054.004-.093.052-.089.103s.05.092.103.088c.052-.003.093-.051.088-.103-.004-.052-.05-.092-.102-.088zm-1.77-.014c-.109.008-.193.104-.184.214.008.111.104.193.214.185.111-.009.193-.105.185-.215-.008-.111-.105-.193-.215-.184zm.008.103c-.052.004-.093.05-.089.103.005.054.051.093.104.089s.092-.05.088-.103c-.004-.053-.05-.093-.103-.089zm-1.733.067c-.111.008-.193.104-.184.215.008.11.104.192.214.184.109-.008.193-.105.184-.215-.008-.11-.104-.193-.214-.184zm.008.104c-.054.004-.093.051-.089.104s.05.092.104.088c.051-.004.092-.05.088-.103-.005-.052-.051-.093-.103-.089z"/><path d="M-5659.471-1925.474c-.031-.109-.096-.204-.184-.272-.089-.07-.197-.112-.315-.119-.055-.003-.07-.09-.021-.109.096-.04.177-.123.239-.236.065-.118.108-.265.123-.428.004-.056.101-.065.112-.01.034.135.102.242.184.326.098.1.216.167.33.201.053.016.049.099-.005.111-.095.022-.165.08-.218.158-.074.107-.114.245-.135.37-.009.055-.097.059-.112.005l.003.003zm.039-.196c.026-.087.063-.174.114-.246l.15-.15c-.087-.042-.172-.101-.247-.178l-.134-.179c-.022.098-.058.187-.102.266-.044.08-.098.148-.16.201.083.025.16.064.229.116l.151.169zm1.929 8.21l-.811.398-.08-.028.028-.08.81-.398.08.028-.027.08zm.056-.536l-.941.607-.085-.018.018-.084.941-.608.085.018-.018.085zm-2.975.12l1.022.459.03.081-.081.03-1.022-.458-.03-.081.081-.031zm.124.517l.862.272.04.075-.077.04-.863-.27-.04-.076.076-.04h.002zm.417.677c.227.037.429.047.586.006.141-.036.244-.116.292-.26l-.061-.801c-.174.012-.346.001-.496-.029-.182-.037-.288-.138-.349-.264-.079-.169-.073-.378-.046-.534l.069-.05.05.069c-.022.136-.03.319.037.461.046.095.127.171.264.198.151.028.327.037.503.024.175-.014.346-.048.489-.104.13-.049.231-.13.297-.223.065-.093.092-.198.071-.293l-.09-.124c-.058-.035-.138-.047-.213-.045l-.228.044-.124.031-.072-.047.047-.072.117-.028.256-.049c.098-.004.199.014.279.062.072.041.125.107.146.203.028.129-.005.267-.089.388-.078.112-.198.21-.354.268-.132.049-.284.083-.439.102l.06.784.005.026c.07.128.181.189.323.206.159.017.358-.025.577-.095l.077.038-.04.077c-.232.075-.447.118-.626.1-.152-.015-.275-.074-.365-.187-.07.126-.188.201-.334.242-.174.046-.393.036-.634-.004l-.052-.069.069-.049zm.604.298l.652-.065.066.057-.057.065-.651.065-.066-.056.056-.066zm.583-5.081c.23-.222.448-.405.65-.535.208-.134.399-.211.57-.217l.063.06-.059.063c-.15.006-.321.076-.512.198-.194.124-.407.303-.63.52l-.087-.002.002-.086h.002zm-.975.165c-.246-.194-.514-.353-.762-.454-.234-.098-.448-.142-.602-.118l-.069-.05.05-.069c.178-.029.413.019.669.124.257.106.536.271.789.471l.01.086-.086.009v.002zm-.221 1.657c.05-.139.115-.262.193-.372.079-.109.167-.207.261-.298l.086.002-.002.087c-.091.086-.173.178-.248.281-.072.102-.133.214-.178.342l-.077.037-.036-.079zm.388-2.862c.088.101.159.215.212.348.053.13.087.279.098.448.018.13.03.268.019.406-.011.142-.047.281-.128.411-.062.103-.152.17-.254.204-.084.027-.176.03-.268.009.06.159.109.331.047.5l-.08.035-.216-.085-.213-.067-.001-.002c-.159-.049-.29-.097-.398-.153-.11-.055-.197-.116-.259-.182l.002.003c-.077-.074-.129-.163-.163-.265l-.058-.28-.329-.165-.278-.193-.005-.087.086-.004.259.178.347.171c.203.006.407.053.613.132.179.068.357.161.539.273l.046.029.043.026c.085.03.173.033.25.009.074-.024.141-.074.187-.152.07-.113.099-.234.109-.358.01-.126-.002-.257-.019-.382v-.003c-.01-.158-.042-.296-.089-.415-.048-.12-.112-.224-.19-.313l.005-.086.085.006v.005zm-.48 1.746c-.178-.111-.354-.204-.529-.27-.177-.066-.352-.109-.523-.12l.046.217c.026.082.069.155.132.215l.001.002c.054.057.128.107.225.158.102.051.227.098.379.145l-.002-.002.223.071.156.06c.02-.138-.038-.29-.093-.43l-.019-.046h.003zm1.136-1.724c-.064.102-.112.213-.14.34-.029.126-.039.267-.025.423v.003c.002.126.01.258.038.38.029.12.078.235.162.337.058.07.131.108.209.122.08.014.165-.002.244-.044l.039-.034.042-.036c.161-.138.325-.258.491-.351.192-.109.388-.185.588-.222l.317-.222.226-.215.086-.008.007.086c-.064.077-.146.155-.245.233l-.302.213-.013.285c-.018.105-.056.202-.122.287l.001-.003c-.051.075-.127.149-.228.22-.098.069-.22.139-.371.211l-.001.001-.2.1-.2.116-.085-.023c-.086-.157-.064-.335-.029-.501-.088.036-.177.047-.266.031-.105-.017-.204-.07-.281-.163-.099-.116-.156-.249-.188-.387-.031-.137-.04-.273-.042-.404-.014-.169-.003-.32.029-.458.033-.139.087-.264.158-.376l.084-.018.018.084.001-.004zm1.615 1.046c-.168.036-.333.105-.498.198-.163.092-.321.208-.481.346l-.01.048c-.032.147-.067.306-.026.439l.145-.083.209-.105-.001.002c.144-.068.259-.134.352-.2.09-.063.153-.126.199-.191l.002-.002c.052-.067.082-.147.098-.233l.014-.222h-.002zm-.522.125c-.193.015-.339.185-.324.378.014.194.184.341.377.326.194-.014.34-.184.325-.379-.015-.194-.185-.339-.378-.325zm.008.113c-.131.01-.23.125-.219.257.01.132.125.23.257.22s.23-.126.22-.258c-.011-.132-.125-.23-.258-.219zm.008.097c-.078.006-.136.073-.13.151s.073.137.151.131.137-.074.131-.152-.074-.135-.152-.13zm-2.772.008c.193-.014.363.131.379.325.015.193-.131.363-.326.379-.193.015-.363-.131-.378-.326-.013-.193.131-.362.325-.378zm.008.112c.132-.01.247.09.257.22s-.089.247-.22.257c-.131.01-.247-.089-.257-.219s.089-.248.22-.258zm.007.098c.079-.006.147.053.152.131s-.052.146-.131.151c-.077.006-.146-.052-.151-.13s.053-.146.13-.152zm12252.355-15371.246l-.118.064-.976 1.103c-.324.075-.415.262-.314.544-.42-.074-.496.278-.545.666-.359-.647-.788-.848-1.285-.6.01-.375-.261-.572-.663-.691-.292-.038-.511-.146-.69-.289l-.263-.194c-.195-.159-.367-.036-.289.098l1.142 2.215c-.032.128-.008.246.118.342l.178.662-.066.18c-.347-.198-.706-.246-1.062-.299-.275-.033-.46-.117-.569-.267-.08-.108-.144-.054-.159.122-.072.867.138 1.667.789 2.498-.376-.022-.753-.04-1.131-.052-.129 0-.159.052-.131.16.168.51.48.983 1.24 1.346-.351.156-.565.422-.644.8-.041.363-.169.611-.4.713-.102.045-.14.097-.051.169.387.332.893.384 1.439.293-.287.419-.435.87-.427 1.356.331.117.668.076 1.004-.008-.056.095-.094.279-.123.495-.025.187-.094.368-.21.545-.057.05-.116.129-.006.166.534.189 1.046.165 1.492.037-.031.395-.057.791.034 1.19.021.097.1.175.2.059.279-.329.571-.604.92-.776.038.15.101.282.227.369.148.101.218.294.205.575-.004.049-.01.098.047.15.24.03.881-.554 1.03-.897.319.222.43.436.657.804.079.13.156.06.21-.025.131-.387.168-.772.197-1.168.422.194.923.296 1.48.19.115-.022.067-.11.02-.165-.087-.192-.14-.419-.139-.608.002-.217.006-.368-.033-.472.319.136.644.226.991.161.082-.478-.015-.946-.238-1.406.525.17 1.055.199 1.488-.069.098-.059.067-.117-.025-.176-.212-.135-.3-.401-.288-.766-.018-.385-.191-.683-.516-.888.809-.243 1.188-.666 1.43-1.142.044-.103.023-.159-.105-.178-.374-.044-.776-.098-1.152-.132.77-.722 1.104-1.486 1.166-2.353.013-.176-.044-.242-.14-.144-.13.132-.307.2-.584.194-.361-.003-.709-.015-1.081.127l-.038-.189.296-.619c.141-.076.182-.187.169-.321l1.43-2.017c.098-.122-.055-.269-.269-.142l-.288.151c-.201.115-.434.186-.728.181-.413.056-.698.22-.745.592-.454-.322-.906-.189-1.36.398.011-.39-.011-.748-.437-.739.143-.265.064-.471-.246-.594l-.957-1.249-.106-.082v.005z"/><path fill="#F7DB17" d="M6595.798-17289.554c-.078-.048-.204.013-.275.135-.071.122-.073.272.008.321.062.037.137.001.2-.075l.039-.057.011-.015c.071-.121.1-.258.02-.305l-.002-.003zm-8.136-.619c.087-.036.2.043.252.174.053.132.044.273-.045.31-.087.036-.164-.052-.216-.183-.052-.132-.078-.264.007-.3h.002zm7.261 2.031c-.052-.004-.099.037-.102.089-.005.052.034.099.088.103s.099-.035.103-.089c.004-.052-.035-.099-.089-.103zm-6.549-.5c-.052-.004-.099.035-.103.089-.004.052.035.099.088.103.055.004.099-.035.103-.089s-.035-.098-.088-.103zm7.013.039c-1.214-.24-2.429-.403-3.655-.495-1.224-.094-2.456-.12-3.699-.094-.043.01-.046.144.012.142 1.238-.025 2.463.003 3.679.096 1.207.092 2.408.249 3.603.485.063.009.098-.124.06-.134zm-7.379-.7c1.256-.026 2.499-.001 3.732.095 1.225.094 2.442.255 3.656.495l.203-.284-.145-.02c-.118-.071-.13-.274-.024-.449.105-.179.287-.264.406-.195.062.035.094.108.097.193l.816-1.145c-.348.185-.559.307-.976.337-.461.032-.681.175-.635.453.042.259-.11.209-.334.063-.489-.317-.888.048-1.103.492-.142.293-.281.274-.272-.042l.014-.326c-.007-.365-.109-.475-.323-.391-.272.107-.288.019-.216-.111.054-.094.155-.197.134-.35-.007-.109-.097-.158-.232-.178l-.965-1.262-.994 1.111c-.14-.002-.233.031-.259.14-.044.148.065.262.103.362.052.138.02.222-.23.075-.199-.114-.303-.029-.364.332l-.048.337c-.037.314-.178.311-.273.001-.145-.472-.507-.894-1.04-.655-.244.11-.342.14-.289-.111.06-.276-.14-.445-.592-.546-.406-.092-.597-.246-.913-.481l.597 1.16.093-.086c.128-.053.296.061.373.253.078.191.036.39-.092.44l-.054.013.142.277h.004zm7.016 2.024l-.04.016c-.077.024-.139.097-.234.184-.1.09-.224.187-.366.279l-.069-.016.015-.07c.139-.091.257-.182.355-.271l.136-.14-.458-.083c-.13.029-.261.07-.372.127-.1.05-.182.112-.237.186l-.073.012-.012-.073c.063-.09.16-.162.275-.219l.18-.074-.518-.081-.105.069-.1.101-.072.007-.007-.072.113-.117.016-.013-.389-.053-.014.01-.097.089-.069.103-.069.024-.021-.069.083-.126.048-.05-.558-.062-.024.016-.113.075-.087.097-.071.014-.014-.071.106-.118.036-.028-.592-.052-.585-.04.034.035.086.132-.025.068-.069-.025-.07-.108-.101-.091-.023-.022-.562-.024.044.061.063.137-.032.064-.065-.034-.053-.113-.082-.103-.015-.018-.396-.009.019.022.095.133-.019.07-.07-.019-.083-.115-.099-.088-.008-.005-.538-.003.19.114c.104.073.191.159.238.258l-.024.069-.07-.024c-.04-.081-.115-.155-.207-.22-.111-.08-.249-.145-.387-.196h-.003l-.438.004.127.184c.082.101.185.21.308.321l.004.072-.071.004c-.128-.114-.237-.227-.32-.331l-.202-.244c-.308-.17-.559-.25-.917-.309-.247-.041-.515-.055-.733-.185.048.143.101.275.176.388.078.116.18.211.321.264l.032.043c.025.259.101.475.227.648.077.105.172.194.287.265-.112-.14-.193-.285-.249-.429-.091-.239-.111-.476-.074-.691l.06-.043.043.061c-.034.198-.017.417.069.638.077.198.229.405.431.598.036.033-.008.103-.054.086-.245-.09-.456-.236-.593-.422-.132-.181-.213-.404-.244-.668-.149-.064-.257-.166-.34-.293-.069-.104-.123-.224-.167-.348-.007.698.196 1.323.6 1.903.089.129.245.317.387.382.144.069.142.175-.044.162l-.172-.013c.133.061.259.128.366.2.197.135.333.29.33.471l-.051.052-.052-.051c0-.141-.114-.271-.286-.386-.176-.12-.406-.223-.634-.309l-.745-.052.201.154c.128.081.295.162.543.241.142.045.263.105.367.177.11.076.2.167.269.265l-.014.073-.073-.015c-.061-.089-.141-.17-.241-.238-.095-.067-.209-.12-.34-.163-.257-.081-.432-.165-.566-.252l-.284-.222c.244.66.66.986 1.27 1.222l.097.039.016.005.426.121.419.092.043.06-.059.043-.428-.094-.273-.074-.175.006c-.378-.005-.71.314-.768.748l-.003.026c.153-.119.31-.233.469-.31.199-.097.402-.138.6-.067l.032.065-.065.031c-.17-.059-.345-.021-.523.063-.184.089-.364.23-.542.373-.058.236-.169.453-.38.587.095.064.161.118.259.094.145-.054.289-.105.438-.143.152-.039.306-.061.466-.057l.05.055-.055.05c-.147-.005-.293.017-.435.053l-.372.12c.353.105.747.055 1.094-.045l.221-.051.289-.107c.11-.037.221-.066.303-.07l.054.05-.05.053c-.184.008-.209.018-.371.101-.002.034-.113.085-.216.14l-.15.098c-.164.128-.256.276-.34.443-.056.109-.103.228-.139.355.103-.169.224-.328.364-.467.166-.164.364-.3.593-.387l.067.029-.03.066c-.218.082-.402.21-.557.366-.158.156-.288.341-.399.534l-.078.134c.193-.184.371-.338.562-.458.228-.145.48-.22.695-.164l.039.064-.064.038c-.186-.048-.41.021-.614.151-.207.135-.424.333-.639.541.297.065.598.003.891-.07.151-.038.314-.197.408-.217l.1-.101.179-.15.073.013-.013.072-.167.141-.163.173-.042.022c-.106.106-.265.244-.309.369-.118.334-.086.598-.269.92.121-.052.219-.116.302-.196.095-.09.169-.208.236-.357.074-.164.18-.305.305-.419.131-.115.285-.2.446-.247l.065.036-.036.064c-.146.041-.285.118-.406.225-.115.102-.212.23-.279.383-.072.161-.155.287-.26.388-.078.076-.166.137-.269.187l.197.003c.129 0 .351-.082.468-.159.113-.075.202-.18.275-.316l.07-.019.02.069c-.08.151-.182.27-.31.354-.095.062-.205.106-.329.127.263.012.51-.03.772-.105.108-.031.162-.262.231-.322l.191-.243c.083-.086.176-.151.281-.185l.064.033-.031.064c-.087.028-.167.086-.239.159l-.178.225c.007.12-.112.364-.124.49-.036.332-.053.663.011 1l.286-.292.003-.024c.043-.169.081-.351.106-.534.027-.181.039-.361.031-.534l.048-.054.054.05c.01.183-.005.369-.031.553l-.082.434.138-.158c.07-.125.115-.251.138-.377.025-.129.028-.255.007-.375l.043-.059.058.043c.022.133.021.272-.008.411-.021.104-.055.212-.104.317l.304-.177.024-.369.053-.306.08-.048.048.082-.048.285-.023.395c-.002.134.056.307.174.39.16.112.235.283.267.468.044-.232.062-.453.054-.648-.01-.235-.055-.44-.139-.612l.024-.07.069.025c.089.187.139.404.149.653.01.239-.017.505-.081.79.175-.12.651-.372.645-.921l-.036-.124.028-.066.066.028.05.183.008.125.088-.058.123.098-.046-.294c-.007-.143.013-.28.053-.407l.065-.035.034.064c-.038.116-.054.242-.049.371.005.126.03.259.079.394l.005.041.105.114-.013-.418c.001-.188.017-.375.054-.553l.061-.042.039.061c-.034.171-.047.351-.049.534-.003.185.007.369.023.544l.001.012.223.338c.114-.323.169-.652.183-.987l-.068-.498-.143-.258c-.061-.084-.131-.152-.213-.193l-.023-.068.068-.024c.098.05.182.13.251.227l.148.264.207.362c.242.112.472.19.722.218-.12-.04-.221-.098-.306-.175-.113-.102-.195-.236-.253-.397l.031-.066.067.031c.052.145.123.265.224.355.13.117.454.236.635.255-.095-.068-.175-.142-.239-.228-.088-.115-.15-.253-.198-.423-.044-.159-.119-.302-.217-.421-.101-.124-.228-.22-.367-.285l-.025-.068.068-.025c.151.07.292.175.403.312.107.129.19.285.238.459.044.158.101.283.179.389.068.094.158.172.27.24-.133-.348-.061-.605-.126-.951l-.275-.544c.079-.077.205.159.387.238.276.117.566.224.866.205-.18-.239-.363-.467-.549-.632-.182-.16-.368-.256-.556-.238l-.057-.047.047-.057c.222-.022.433.086.635.264.17.151.304.309.467.522l-.039-.129c-.08-.207-.182-.407-.315-.587-.132-.177-.296-.33-.495-.446l-.018-.07.07-.018c.215.121.387.286.527.472.119.161.214.34.291.524-.015-.134-.043-.26-.082-.377-.058-.177-.126-.338-.271-.49-.094-.1-.321-.253-.315-.317l-.099-.047-.26-.105-.042-.061.061-.042c.08.017.185.06.289.114l.152.11c.086.012.22.093.329.146.324.152.709.259 1.072.211l-.351-.175c-.135-.057-.273-.1-.422-.119l-.047-.058.057-.047c.159.019.309.067.451.127l.411.208c.092.052.164.001.27-.053-.188-.164-.265-.395-.287-.635l-.004-.004c-.153-.167-.312-.334-.479-.451-.162-.11-.33-.174-.506-.141l-.062-.04.04-.061c.208-.038.401.032.583.157.145.101.285.238.419.379l.001-.027c.009-.44-.271-.805-.646-.856-.126-.019-.31.01-.298-.075.014-.095.162-.059.39-.11.64-.141 1.101-.399 1.444-1.017l-.318.178c-.147.065-.333.123-.598.163-.136.021-.256.059-.361.11-.108.054-.2.121-.275.2l-.073.002-.003-.073c.083-.087.186-.163.306-.222.114-.056.245-.096.391-.119.257-.039.434-.095.571-.155l.224-.121-.745-.062c-.237.054-.482.121-.673.211-.186.089-.319.198-.339.338l-.059.044-.043-.06c.027-.18.182-.312.397-.416.117-.055.252-.101.393-.141l-.17-.014c-.187-.018-.173-.122-.019-.167.15-.044.325-.206.434-.32.481-.509.758-1.109.881-1.78-.063.113-.129.219-.211.307-.102.111-.225.197-.382.239-.07.257-.184.465-.34.624-.163.164-.374.273-.628.328-.048.009-.081-.064-.04-.094.228-.16.387-.34.494-.525.117-.205.167-.419.165-.619l.052-.054.052.052c.004.219-.05.449-.178.673-.075.133-.18.264-.311.385.122-.054.232-.128.322-.218.151-.151.257-.354.324-.606l.038-.038c.147-.033.262-.109.358-.214.091-.1.164-.222.233-.354-.236.095-.501.066-.751.07-.348.005-.608.065-.919.178l-.003-.009zm-.075-.292c-1.093-.228-2.193-.353-3.3-.438-1.111-.085-2.228-.105-3.357-.073l-.028.073c-.001.045.056.061.193.058 1.052-.018 2.099.009 3.149.089 1.096.084 2.192.201 3.299.418.052.019.135-.129.045-.129l-.002.002zm-6.616-.62c1.118-.03 2.226-.01 3.324.073 1.097.084 2.186.231 3.274.457l.067-.203-.097.017c-.109-.009-.193-.105-.185-.215.009-.11.105-.193.216-.184.082.006.148.062.173.136l.119-.269c-1.166-.227-2.334-.377-3.512-.467-1.184-.09-2.374-.118-3.575-.098l.074.274c.04-.05.103-.08.171-.075.111.008.193.104.185.215-.009.11-.105.192-.216.184l-.059-.014.043.156-.004.012h.002zm5.033-.297c-.109-.008-.206.074-.214.184-.008.111.074.207.184.215s.207-.074.215-.184-.074-.207-.185-.215zm-.008.105c-.053-.004-.099.036-.103.088-.003.053.035.099.089.104.052.004.099-.037.104-.089.004-.052-.035-.099-.09-.104zm-1.746-.283c-.109-.008-.207.074-.215.185-.008.11.074.206.185.214.109.009.206-.073.214-.184.008-.11-.074-.206-.184-.215zm-.008.104c-.052-.004-.099.035-.104.089-.004.054.035.099.089.103s.1-.035.104-.089c.003-.052-.035-.099-.089-.103zm-1.723-.196c-.111-.008-.207.074-.216.184-.008.11.074.207.185.215.109.008.206-.074.215-.184.008-.112-.075-.208-.184-.215zm-.008.104c-.055-.005-.099.034-.104.088-.003.054.035.099.089.103.052.004.099-.034.103-.088.004-.053-.035-.099-.088-.103z"/><path d="M6591.778-17289.866c-.014-.113-.062-.216-.14-.297-.077-.083-.179-.142-.293-.166-.054-.011-.056-.099-.003-.111.099-.024.193-.095.272-.197.081-.106.148-.245.185-.403.013-.055.108-.049.113.006.014.14.062.256.132.351.081.113.189.196.296.247.05.023.033.105-.021.109-.097.007-.175.055-.239.124-.089.095-.151.224-.19.347-.018.052-.105.042-.112-.012v.001zm.069-.189c.039-.082.089-.161.151-.226l.171-.125c-.079-.055-.153-.126-.218-.212l-.105-.197-.141.248c-.057.072-.12.132-.191.175.079.037.149.089.207.15l.125.188zm.664 8.409l-.862.27-.076-.04.04-.075.863-.271.076.04-.041.075zm.137-.522l-1.022.457-.081-.03.03-.081 1.022-.457.081.03-.03.081zm-2.958-.332l.941.607.018.085-.085.018-.941-.606-.018-.086.085-.018zm.042.53l.811.398.028.08-.082.028-.811-.398-.028-.081.08-.027h.002zm.31.731c.218.071.418.111.578.095.145-.016.259-.079.327-.214l.062-.801c-.174-.016-.343-.051-.486-.105-.174-.064-.264-.18-.304-.314-.054-.179-.014-.386.034-.535l.076-.038.039.077c-.043.13-.078.31-.035.461.03.1.098.188.23.235.144.053.317.086.495.1.174.014.349.005.498-.027.136-.029.249-.095.327-.176.077-.082.12-.183.115-.279l-.069-.136c-.053-.044-.13-.068-.204-.076l-.232.009-.127.011-.064-.057.057-.064.119-.01.261-.01c.098.011.193.044.267.104.064.052.107.125.114.222.008.131-.046.263-.147.37-.095.099-.228.177-.391.21-.138.029-.294.04-.45.035l-.06.784.001.026c.051.138.151.216.29.252.155.041.357.031.585-.006l.07.05-.052.069c-.242.039-.459.049-.635.004-.148-.039-.261-.114-.333-.242-.089.115-.217.172-.365.188-.18.018-.394-.024-.627-.1l-.039-.077.074-.037zm.552.386l.654.035.058.065-.065.058-.654-.036-.058-.065.065-.057zm1.346-4.933c.261-.184.504-.333.724-.43.226-.1.427-.149.597-.127l.053.067-.067.054c-.149-.019-.329.026-.535.118-.212.094-.447.237-.701.419l-.085-.015.014-.086zm-.99.016c-.212-.229-.455-.427-.684-.565-.217-.132-.422-.208-.577-.208l-.061-.06.06-.061c.18-.003.405.08.643.224.238.144.488.349.708.585l-.003.086-.087-.003v.003zm-.469 1.604c.069-.13.154-.241.247-.339.094-.097.196-.181.304-.256l.084.015-.015.085c-.103.07-.198.15-.286.239-.086.09-.163.192-.228.311l-.082.025-.024-.081zm.817-2.771c.072.113.126.236.158.376.032.136.044.289.03.458-.003.13-.011.269-.042.403-.032.139-.089.271-.189.388-.077.092-.176.144-.281.163-.088.015-.178.003-.265-.031.034.165.056.344-.029.501l-.085.023-.201-.117-.199-.099-.002-.002c-.149-.071-.272-.14-.369-.211-.101-.071-.178-.144-.228-.22l.001.004c-.066-.086-.103-.182-.122-.287l-.013-.286-.301-.212c-.099-.078-.182-.156-.245-.234l.007-.086.087.008.228.215.317.222c.2.036.394.113.588.223.166.094.328.213.491.351l.042.036.038.033c.08.042.166.059.244.045.079-.013.15-.053.209-.122.087-.101.134-.217.162-.337.03-.124.037-.254.039-.38v-.003c.014-.158.002-.299-.025-.423-.03-.127-.077-.238-.141-.34l.018-.083.084.018-.004.003zm-.739 1.655c-.159-.138-.319-.255-.481-.348-.165-.092-.33-.16-.499-.198l.013.222c.016.086.045.165.098.233l.001.001c.045.065.109.126.199.191.093.067.208.132.352.201l-.002-.002.209.105.146.083c.041-.133.006-.292-.027-.439l-.012-.048.004.001zm1.385-1.533c-.079.09-.144.193-.191.313-.049.121-.079.257-.089.415v.004c-.018.124-.03.256-.018.381.009.123.042.245.109.358.046.077.112.126.187.152.076.025.163.022.248-.008l.043-.027.046-.029c.181-.111.361-.206.539-.273.206-.079.411-.124.614-.131l.347-.172.256-.178.087.005-.007.086c-.075.066-.167.132-.278.193l-.33.165-.056.28c-.035.101-.087.191-.164.265l.002-.004c-.064.068-.15.128-.259.183-.107.054-.238.104-.4.152l-.001.002-.214.067-.214.085-.081-.035c-.061-.168-.012-.341.048-.5-.093.021-.184.018-.268-.009-.103-.032-.191-.101-.254-.204-.081-.13-.117-.271-.127-.411-.012-.14 0-.275.019-.406.01-.169.045-.316.097-.448.052-.133.125-.248.212-.348l.086-.005.005.085.005-.004zm1.439 1.278c-.173.012-.346.054-.523.121-.175.066-.35.158-.53.27l-.017.046c-.055.14-.114.292-.093.429l.156-.059.223-.072-.002.002c.152-.046.277-.094.379-.144.1-.048.172-.102.227-.158l.002-.003c.062-.06.104-.133.132-.216l.048-.217h-.003zm-.535.046c-.193-.014-.362.131-.378.325-.015.193.131.363.324.379.194.014.362-.131.378-.326.014-.194-.131-.362-.324-.378zm-.008.112c-.133-.01-.248.09-.257.22-.011.132.089.247.22.257.131.01.246-.089.257-.22.009-.131-.089-.247-.22-.257zm-.008.098c-.078-.006-.147.053-.151.131-.007.078.052.146.129.151.079.006.147-.052.153-.13.004-.078-.053-.146-.131-.152zm-2.742-.412c.194.014.341.184.327.377-.015.194-.184.341-.38.327-.193-.015-.338-.185-.324-.38.014-.193.184-.339.377-.324zm-.008.113c.133.01.23.125.22.257-.009.132-.125.23-.257.22s-.23-.126-.22-.258.126-.229.257-.219zm-.007.097c.077.006.137.073.13.151-.005.078-.073.137-.151.131s-.137-.074-.131-.152.073-.136.152-.13z"/><path fill="#171796" d="M356.129 82.179l-.041.015-13.195-15.082-17.35 9.943-2.926 35.124c8.49.703 16.785 2.106 24.829 4.155l8.681-34.154.002-.001z"/><path d="M328.965 84.342c.604-.146 1.197-.178 1.774.176.253.104.443.238.56.409.268-.207.54-.401.822-.566.396-.294.799-.553 1.234-.698.623-.315 1.243-.503 1.865-.56.658-.113 1.32-.119 1.979-.08.549.032 1.08.184 1.586.476l1.377.686c.485.271.971.515 1.457.721.615.242 1.308.324 2.046.352.361.013.716.013 1.065-.08.281-.074.457.104.146.295-2.281 1.399-4.068.155-5.593-.402.559.378 1.051.77 1.466 1.168.58.559 1.229 1.126 2.375 1.648.696.316 1.453.565 2.426.574.33.003.685-.01 1.069-.074.194-.03.276-.013.28.089.004.068-.016.205-.131.281-.588.395-1.142.499-1.76.538-1.176.074-2.434-.312-3.584-.929-.92-.495-1.541-1.098-2.273-1.639-.732-.539-1.363-.839-2.043-.982-.67-.144-1.395-.127-2.006.062.183.036.338.122.432.231.314.186.719.268 1.304.334.304.036.21.246-.259.499-.282.362-.648.559-1.136.511-.671.445-.911.177-1.136-.115-.027.184-.081.365-.161.539.029.095.032.199-.01.293.107.166.159.328.124.505.018.095.049.187.15.271.14.127.229.274.247.453.001.119.066.217.161.305.137.112.275.212.412.38.406.146.593.458.66.86.307.099.434.32.493.584.175.074.335.162.426.316.625.002 1.236.002 1.808.062.536.058.973.392 1.363.825.264.04.531.054.805-.009.282-.123.58-.218.904-.246.537-.045 1.074-.073 1.586.05.347.083.617.267.839.518.319.363.812.314 1.231.135.57-.242 1.044-.234 1.627.021.25-.096.499-.142.748-.115.214-.231.439-.289.673-.295.38-.014.655.045.583.532-.02.132-.098.26-.197.305-.174.377-.506.487-.928.451-.046.259-.152.451-.321.575.194.598.009.838-.435.829-.094.173-.231.28-.468.246-.173.21-.376.318-.6.354.026.156.093.229.204.397.301.456-.152.641-.566.647.106.301.119.603.082.903.422.256.479.525.09.79.285.499.174.865-.359 1.133-.009.278-.037.559-.223.715-.127.107-.309.127-.189.329.217.358.17.812-.15.824-.068-.006-.131.003-.136.112l-.096.113c-.385.206-.745.442-1.075.715-.049.032-.098.056-.146.011-.242.525-.691 1.058-1.188 1.594-.077.395-.301.661-.67.8-.026.122-.104.194-.22.225.206.23.284.451.084.67-.245.269-.569.531-.894.614-.689.176-1.121.144-1.398-.121-.244-.232-.148-.408.007-.481-.425.033-.512-.191-.5-.491.024-.149.075-.13.225-.125.231.007.439-.119.658-.19.085-.144.194-.268.332-.372.077-.481.382-.749.795-.907.334-.127.653-.449.963-.866l.573-.986c-.133-.174-.17-.348-.174-.522-.176-.098-.299-.219-.383-.355-.301-.021-.424-.156-.468-.344l-.226-.029c-.146.095-.295.178-.479.17-.242.249-.494.453-.749.626-.089.247-.267.347-.483.377-.616.074-.984.841-1.323 1.154-.137.101-.222.279-.282.495-.029.403-.1.72-.32.727-.199-.009-.23-.029-.236-.051l-.26.012c.167.182.193.412.039.614-.152.198-.373.26-.584.274-.438.029-.793-.009-1.123-.143-.314-.129-.352-.316-.342-.499-.227-.107-.271-.215-.248-.32.031-.138.157-.207.314-.163.138-.065.273-.109.41-.136.398-.429.808-.797 1.257-.968.132-.159.283-.303.468-.422.052-.384.305-.688.614-.969.027-.139.073-.278.151-.417l.006-.2c-.125-.233-.199-.514-.107-.747-.037-.112-.049-.259-.033-.371-.74.439-.969.29-1.053-.066-.271.227-.523.332-.704.006-.263.078-.526.167-.788.063-.172.066-.344.127-.541.14-.08.158-.188.316-.332.475-.009.332-.125.664-.338.997-.123.354-.277.708-.479 1.063.003.114-.014.228-.074.344.058.409-.079.607-.305.709-.06.164-.149.33-.286.495l-.019.163c.09.241.105.48-.14.722-.196.123-.407.254-.615.356-.246.12-.475.063-.681-.012-.364-.13-.336-.257-.289-.381-.113.045-.244.051-.358-.005l-.231-.17c-.078-.142-.105-.27.085-.371.239-.105.402-.184.591-.378.065-.146.148-.257.266-.287.114-.267.254-.447.445-.496.141-.331.289-.696.468-1.012.062-.097.107-.196.077-.305-.003-.09.004-.175.079-.225.042-.036.116-.069.022-.119-.086-.295-.032-.577.113-.794.191-.29.406-.99.203-1.334-.037-.192-.075-.412-.051-.593-.07-.004-.122.006-.191-.043-.157-.096-.287-.005-.406.17-.086.218-.173.41-.26.41-.08.564-.357 1.002-.646 1.114-.066.26-.109.519-.072.777.028.282 0 .475-.131.507-.144.036-.277.119-.36.349l-.05.231c.198.205.139.461-.053.649-.43.424-.965.362-1.53.195-.409-.161-.508-.332-.468-.506-.58-.049-.463-.494.017-.628.517-.145.936-.476 1.279-.947.03-.561.159-.942.461-1.002.029-.344.137-.653.282-.946.15-.266.244-.558.189-.913-.32-.2-.333-.407-.039-.619.098-.057.087-.115-.033-.174-.195-.02-.172-.207-.158-.383-.008-.092-.055-.139-.142-.141-.434-.063-.326-.241-.14-.434.078-.087.13-.218.049-.27-.068-.043-.113-.19-.128-.321-.265-.2-.151-.405 0-.603-.149-.127-.22-.313-.241-.529-.494-.021-.678-.272-.41-.638.112-.154.258-.303.434-.444.113-.185.223-.368.169-.553-.142-.359.312-.632.698-.912-.053-.095-.08-.188-.084-.281-.219-.211-.162-.406.078-.592-.054-.096-.08-.192-.09-.286-.542.107-.539-.217-.286-.738-.315-.182-.227-.502.344-.991.009-.112.028-.198.062-.259-.27.007-.493.087-.688.209-.217.142-.432.123-.648.034-.066-.107-.17-.199-.287-.282-.147-.13-.182-.276-.15-.433-.639.035-.762-.438-.379-.716.215-.169.371-.347.43-.541.172-.438.539-.736.895-1.042 0-.126.029-.251.067-.378-.158-.106-.323-.183-.507-.197-.064-.163-.188-.339-.395-.438-.118-.071-.157-.139-.084-.3-.339-.303-.254-.487-.168-.661l.001-.004z"/><path fill="#F7DB17" d="M340.552 100.793l-.12.005c-.165.168-.362.335-.545.479-.158-.183-.393.018-.162.129l-.118.081c-.075.199-.144.283-.364.318l-.104.02.01-.246.048-.29-.026-.043-.042.028-.05.298-.011.272c-.559.179-.882.761-1.263 1.174-.164.143-.247.338-.309.543-.031.109-.043.609-.156.617h-.17c-.061-.091-.143-.093-.244-.006-.234-.005-.481-.007-.688.025-.143.153.247.097.453.224.096.057.137.169.099.325-.19.455-1.255.309-1.608.121-.164-.086-.171-.186-.164-.327l.223-.017c.127-.019.253-.056.377-.126.034-.02.07-.039.031-.108-.039-.07-.076-.051-.109-.031-.105.061-.213.091-.32.105l-.334.012h-.027c-.062-.036-.108-.078-.083-.116.026-.035.129.004.148.011.165-.077.308-.126.485-.16.375-.4.756-.777 1.272-.984.155-.186.322-.332.524-.465.072-.447.289-.685.613-.981.039-.184.084-.315.176-.478v-.271c-.124-.234-.197-.438-.1-.7-.061-.191-.053-.319-.029-.496l-.002-.1.305-.223.279-.171c-.016.176-.008.359.025.552l-.002.002-.135.181-.051.19.036.035.034-.036.043-.155.125-.164.014-.019c.17-.005.338-.096.506-.23.151-.124.303-.284.453-.451l-.007.732c-.146.131-.272.29-.37.484l.016.047.047-.017c.09-.178.203-.324.336-.446h.006l.035-.035v-.002l.072-.058c.166-.128.355-.226.559-.305-.031.216-.045.426-.008.628.041.221.145.43.357.612l.014.007zm-10.642-6.197c.027-.051.098-.116.121-.111l.013-.003c.076-.144.156-.277.239-.397.107-.156.221-.295.342-.412h.051v.051c-.117.113-.229.247-.334.4-.082.119-.16.249-.234.391l.023.119c.023.224.053.349.152.478l.035-.022c.039-.1.095-.188.164-.266.084-.095.188-.175.311-.241l.209-.217.13-.225.048-.02.02.047-.139.241c-.061.078-.134.154-.225.229l-.007.004c-.116.063-.215.138-.294.226l-.145.226c.053.037.075.14.026.205-.149.213-.324.339-.048.521-.01.144.036.253.131.353.063.066.057.3-.1.468-.146.148-.034.108.117.127l.034.011v-.001c.056-.107.121-.204.192-.294l.225-.249c.109-.107.195-.225.258-.344.061-.115.096-.234.103-.349l.039-.032.032.037c-.008.124-.045.251-.11.378-.065.126-.156.248-.271.36l-.219.243-.184.281c.182.111.123.31.152.492l.094.026.006-.01.107-.17.17-.269.049-.012.012.049-.17.27-.107.169-.004.008c.111.092.119.258-.019.385-.272.205-.195.269.059.432.032.239.034.432-.019.636l.004.018.017.202.017.203-.033.04-.039-.033-.017-.203-.003-.053-.043.098c-.182.399-.371.726-.412 1.174-.438.104-.373.535-.396.917-.346.466-.746.839-1.303 1.024-.104.034-.356.096-.381.229-.003.047.17.149.28.089.307-.293.46-.13.108.17-.028.057-.006.12.055.174.317.285 1.104.378 1.463.151.266-.166.404-.348.173-.601.015-.358.155-.709.532-.81.045-.082.031-.233.012-.316-.036-.312.013-.588.09-.888l.103-.085c.144-.029.419-.444.505-.844l.051-.266c.023-.139.076-.163.146-.081l.105-.246c.146-.214.359-.385.606-.264-.063-.175-.108-.372-.12-.572-.019-.238.004-.483.078-.709l.074-.059.214-.506.215-.511.046-.02.02.048-.215.51-.214.505.011.081c-.064.204-.086.429-.07.648.018.238.076.468.164.655l.014.054c.117.068.116.085.111.241-.004.122.014.243.043.39.232.43-.01 1.149-.236 1.51-.109.175-.139.373-.094.573.141.136.049.275-.074.37l.002.103c.012.14-.038.258-.111.373-.19.344-.337.711-.49 1.07-.277.076-.334.238-.445.497-.161.046-.178.093-.245.241-.187.188-.364.3-.601.407-.198.089-.008.176.131.271.126.093.29-.109.393-.263.112-.169.227-.119.153.014-.081.145-.14.354-.148.462-.042.117.404.207.481.21.271.014.613-.252.827-.388.177-.181.149-.338.071-.559l.002-.015c-.114.004-.222-.01-.328-.032-.129-.029-.255-.073-.384-.127l-.02-.047.047-.021c.128.053.249.097.373.123.103.022.208.033.321.03l.018-.171c.143-.174.24-.346.316-.554.301-.142.303-.288.262-.611.067-.13.082-.207.076-.354.199-.354.363-.716.498-1.099.237-.315.352-.614.324-.99.021-.146.074-.229.182-.225.078-.109.148-.222.213-.348l.039.004v-.026l.07-.227.099-.154c.044-.108.06-.212.049-.313-.011-.104-.048-.205-.106-.304l-.08-.128c-.014-.051-.004-.101.047-.151h.05v.051l-.026.08.067.103.003.006c.064.109.105.222.117.338.012.115-.005.234-.057.354l-.007.012-.09.138-.066.212-.003.013c.168 0 .315-.052.477-.132l.01-.01c.082-.064.168-.164.24-.295.061-.108.109-.242.137-.396l.042-.029.03.041c-.03.163-.082.301-.146.418-.056.103-.12.187-.187.251.262.078.488.002.735-.075-.036-.348-.03-.613.007-.822.041-.227.117-.386.213-.507l.051-.006.006.05c-.089.112-.16.263-.198.476-.036.199-.042.453-.008.789l.013-.004c.104.178.16.307.373.168l.225-.172.036-.063c.204-.217.409-.419.612-.598.205-.181.411-.336.616-.461l.049.011-.011.05c-.203.122-.404.276-.607.452-.174.153-.348.322-.521.505l.019.166c.019.241.062.387.405.255.193-.073.213-.081.39-.188l.21-.107.336-.246.329-.199c.019-.13.048-.257.09-.379.106-.313.284-.603.507-.877l.011-.01c.187-.101.337-.22.458-.354.122-.136.213-.287.281-.451l.048-.02.021.047c-.072.171-.169.329-.294.471-.126.14-.28.264-.473.368-.216.268-.39.547-.49.849l-.079.326.019.021-.015.048-.015.008c-.021.176-.017.361.017.554.151-.005.305-.089.459-.215.164-.134.332-.317.498-.505l.008-.012c.04-.133.092-.251.161-.345.073-.102.163-.178.273-.226l.047.02-.019.048c-.098.042-.18.11-.245.2-.065.091-.116.205-.155.336l-.006.762.025-.021c.188-.146.402-.253.636-.338l.048.039c-.037.229-.056.455-.018.663.035.196.123.378.299.541.066-.12.146-.228.229-.326l.091-.098.009-.008.206-.188.156-.145.156-.146.051.002-.002.051-.156.145-.157.146-.001.001-.193.173.01.199.002.107c.15.041.24.042.393.039.051.301.077.349.34.354l.01-.314c.013-.116.037-.23.078-.338l.045-.021.021.046c-.039.101-.063.208-.075.32l-.01.308h.021c.105.216.229.321.451.418.062-.099.107-.196.137-.294.032-.108.045-.218.039-.327l.032-.037.039.032c.009.117-.007.234-.042.352-.036.117-.094.233-.172.349l-.023.02c.01.126.03.219.074.313l.105-.206c.055-.094.116-.179.191-.254h.05v.051l-.179.239-.125.249.091.134c-.417.715-.864 1.706-1.687 2.031-.425.168-.611.385-.695.84-.16.123-.273.249-.378.422-.277.093-.524.231-.825.218 0 .194.064.278.258.28.37-.186.453-.22.486-.193.045.039-.053.305-.359.52l-.018.096c.26.406.938.261 1.303.165.262-.068.732-.378.863-.639.05-.121-.064-.275-.178-.402-.521.079-.423-.421.025-.212.152-.046.171-.047.213-.215.4-.155.566-.323.657-.751.401-.434.807-.88 1.097-1.4.08-.098.127-.27.104-.359.072-.085.111-.192.137-.29.026-.104.043-.207.039-.312l.035-.037.037.034c.004.11-.014.22-.041.331l-.083.254c.026.064.039.109.097.093.348-.28.699-.478 1.076-.71.026-.16.129-.238.287-.245.063.002.086-.018.109-.076.088-.22-.023-.371-.129-.554-.098-.272.076-.338.251-.468.183-.135.169-.493.176-.7h.001l-.021-.106-.062-.22.021-.046.045.023.064.228.018.087c.176-.09.357-.194.426-.389.061-.215-.057-.418-.16-.601l-.138.063-.272.113-.045-.02.02-.045.269-.114.204-.095c.078-.052.158-.107.215-.181.125-.182-.212-.344-.33-.417l.002-.015-.506-.466-.002-.051.051-.002.469.431c.026-.266.029-.521-.054-.784l-.086-.251-.021-.008c-.143-.073-.244-.163-.309-.266-.066-.103-.1-.217-.109-.341l.033-.039.04.034c.008.111.036.216.097.307.06.093.15.175.283.241.142.073.439.036.611-.047.24-.136-.072-.409-.146-.57-.052-.116-.064-.235-.087-.358l.065-.012-.097-.102-.129-.078-.021-.045.045-.021.152.091.129.143.069-.014c.236-.047.366-.179.51-.349l-.257-.266-.294-.247-.005-.051.051-.005.297.251.27.282.01.032c.217.02.253-.024.361-.219-.027-.099-.072-.192-.129-.281l-.217-.266v-.051h.05c.085.088.163.181.226.277.062.094.108.192.139.298.101.002.209.007.296-.046.188-.112.029-.516-.021-.673l.009-.006-.075-.048-.133-.084-.012-.049.049-.012.134.085.098.062.044-.034c.139-.111.188-.258.229-.41.065-.235.079-.131.353-.172.295-.045.454-.078.629-.423.091-.046.139-.085.154-.197.029-.204.014-.309-.22-.326-.326-.025-.524.039-.745.254l.088.134-.01.051-.049-.01-.082-.127c-.297-.029-.535.018-.813.122l-.083-.034.139.227c.048.104.072.203.075.298l-.034.037-.038-.034c-.003-.086-.023-.176-.068-.271-.043-.097-.109-.197-.205-.305l-.001-.002c-.231-.083-.443-.125-.66-.12l.108.105.141.137v.051h-.051l-.14-.137-.14-.137-.014-.015c-.184.015-.375.063-.585.151-.132.056-.267.098-.399.122.098.095.182.2.246.321.069.123.121.26.155.412l-.026.042-.042-.026c-.032-.145-.083-.276-.148-.394-.065-.118-.146-.222-.243-.313l-.014-.03c-.123.018-.244.02-.361.001l.145.24-.017.047-.048-.017-.133-.28c-.113-.022-.223-.064-.326-.128.035.128.061.267.08.413.025.194.042.401.047.619l-.033.036-.037-.034c-.004-.217-.019-.422-.045-.611-.024-.174-.057-.339-.103-.488l-.147-.137c-.116-.129-.247-.229-.391-.305v.177c-.014.108-.059.217-.143.323l-.051.007-.007-.051c.076-.097.116-.192.129-.288l-.009-.207c-.223-.104-.469-.153-.723-.175l.192.272.185.327c.102.083.156.185.187.295.029.109.036.227.041.346l-.034.037-.037-.034c-.004-.114-.011-.227-.038-.329-.028-.1-.077-.19-.167-.263l-.01-.011-.184-.328-.227-.313-.003-.003-.259-.005.042.06.06.17-.033.039-.039-.032-.049-.141-.076-.095-.528.035c.179.229.322.467.434.711.124.272.206.553.254.843l-.029.041-.041-.029c-.048-.283-.128-.56-.249-.824-.115-.253-.266-.499-.455-.735l-.025.002c-.139.013-.279.042-.412.08l.158.112.152.151-.005.051-.05-.005-.145-.144-.205-.141-.211.077-.115.04c.12.087.235.182.347.287.134.129.259.273.371.441l-.01.049-.05-.01c-.109-.163-.23-.305-.36-.43-.122-.117-.253-.22-.388-.314-.146.032-.295.041-.443.035.092.182.171.363.231.548.065.199.11.399.125.603l-.032.039-.039-.032c-.016-.199-.059-.393-.123-.587-.064-.193-.149-.384-.246-.573l-.271-.029c.053.166.098.338.137.512.046.205.084.415.111.629l-.031.041-.041-.031c-.025-.212-.063-.42-.109-.623-.042-.188-.092-.374-.15-.557-.258-.278-.543-.551-.892-.695.071.091.128.186.169.285.063.152.094.315.088.487l-.035.033-.034-.035c.003-.161-.022-.314-.083-.46-.054-.128-.133-.249-.241-.361l-.246-.049c-.229-.022-.458-.037-.688-.046.177.16.313.307.302.484l-.039.032-.033-.039c.012-.165-.151-.313-.342-.482l-.412-.008.191.229c.072.104.123.209.146.313v.005c.016.162.055.304.127.421.069.115.17.205.309.269l.018.047-.047.019c-.151-.068-.262-.17-.34-.297-.077-.125-.119-.275-.136-.446-.022-.095-.069-.19-.136-.287-.061-.089-.141-.181-.236-.271l-.457-.002c.063.181.107.367.139.556.035.231.052.468.057.707l-.035.036-.037-.034c-.003-.236-.02-.471-.055-.697-.031-.194-.076-.383-.144-.567h-.042c-.1-.163-.192-.234-.336-.301l-.008.047-.065.146-.051.01-.009-.049.053-.12.008-.065-.072-.031c-.074-.306-.143-.433-.387-.537l-.022.262c-.02.111-.056.224-.122.331l-.049.012-.012-.049c.063-.1.095-.202.112-.305l.021-.279-.041-.015c-.066-.428-.144-.668-.588-.837l.003.169c-.005.097-.023.194-.062.295l-.046.021-.021-.046c.036-.093.052-.184.057-.273l-.013-.253-.346-.323c.004.157-.018.314-.062.472-.054.191-.142.383-.267.574l-.049.011-.011-.049c.119-.184.205-.37.257-.554.051-.176.069-.354.056-.531l-.122-.179-.01.022-.052.117-.048.02-.02-.047.053-.117.041-.095-.008-.061c-.016-.137-.089-.242-.188-.332l-.002-.002-.049.129-.124.199-.05.006-.007-.051.115-.184.056-.158-.104-.169-.068.117-.134.135-.051-.005.006-.051.119-.122.068-.12.01-.126c.037-.201-.038-.322-.146-.49l.007-.013-.217.057c-.096.043-.202.106-.313.183l-.049-.01.011-.049c.115-.078.225-.144.323-.188.101-.044.194-.068.274-.063l.008-.156c-.326.121-.584.178-.79.19-.218.014-.384-.021-.521-.08l-.019-.047.048-.02c.128.056.284.088.489.075.203-.013.454-.068.777-.189l-.004-.01c.059-.13.105-.257.139-.384-.116.03-.23.029-.344.025h-.023l-.035-.035.035-.036h.023c.12.002.24.005.359-.034l.021-.127c.018-.142.184-.176.301-.049.098.104.188.215.284.261.195.093.415.01.573-.118l-.145-.047-.023-.044.045-.022.186.06.042-.044c.403.035.666-.05.925-.311-.229.005-.435-.002-.612-.021-.195-.022-.356-.062-.476-.12l-.016-.048.047-.016c.11.055.266.093.453.113.189.021.415.028.671.021h.003l.07-.084c.111-.045.222-.096.303-.187-.471-.051-.918-.144-1.341-.363-.108-.123-.281-.191-.466-.238-.342-.043-.645.042-.924.188l-.201-.197-.316-.083-.437-.005-.031-.039.039-.031.437.005.409.093c.462-.174.845-.271 1.177-.256.386-.112.786-.159 1.188-.149l-.016-.014v-.094c.217-.22.268-.422.197-.604-.072-.189-.268-.367-.539-.529l-.877-.012c-.191.021-.381.063-.566.125.154.056.29.147.4.277.137.161.234.381.287.658l-.054.078-.078-.054c-.048-.253-.136-.451-.258-.597-.128-.184-.423-.256-.517-.293-.307.031-.61.065-.875.134-.198.051-.372.12-.506.225.199-.042.405-.034.585.056.171.085.315.244.407.503l-.043.085-.084-.042c-.076-.224-.197-.357-.339-.427-.282-.141-.864-.019-1.11.164-.143.107-.286.246-.428.407-.025.031-.055.061-.114.008-.06-.054-.034-.082-.007-.111.148-.168.299-.316.453-.431.15-.11.305-.19.465-.228.162-.182.404-.29.682-.362.272-.07.584-.105.9-.137-.094-.188-.213-.3-.35-.36-.146-.064-.314-.074-.496-.057-.38.13-.717.334-1.041.563l.086.002.262.022.041.087c-.027.076-.238.029-.311.024-.084-.005-.175.001-.275.025l-.046.004c-.396.244-.679.491-1.009.771l-.055.02c-.293-.012-.495.029-.616.12-.108.083-.117.214-.097.39-.05.164-.113.345-.129.537-.344.295-.727.59-.904 1.021-.04.125-.106.236-.189.335l.171.067.044.042.037-.217c.025-.101.061-.193.107-.269l.05-.01.011.049c-.044.066-.076.153-.1.247-.027.113-.042.236-.045.351l-.072.004-.076-.139-.186-.059-.24.218c-.068.056-.133.116-.148.205-.01.157.184.185.365.196.416.024.086.26.313.467.111.077.215.167.293.275.157.058.255.044.363-.005.021-.281-.004-.425.12-.425h.013l.029-.107.095-.158.051-.005.005.051-.084.14-.028.117.015.273c.236-.115.451-.145.691-.156.451-.527.645-.394.248-.01l-.063.121c-.069.132-.113.234-.128.414-.116.101-.683.566-.472.739.149-.021.242-.015.186.096-.07.148-.282.457-.213.626.027.062.117.056.207.034l.02-.018c.148-.121.305-.26.451-.421.146-.158.28-.339.391-.546l.07-.047.155-.487.202-.507.063-.006c.062.089.121.154.182.196l.16.058.16-.054.177-.188.05-.008.01.051c-.066.091-.129.157-.196.203l-.2.066c-.067 0-.134-.024-.201-.071l-.162-.165-.176.445c-.061.164-.113.331-.158.495l.006.09c-.117.22-.26.41-.414.578-.123.137-.255.258-.384.366.019.121.049.235.104.353.246-.212.476-.427.678-.648.201-.224.378-.453.516-.692l.049-.013.014.049-.241.362-.01.046c-.026.021-.04.105-.048.215-.009.148 0 .333.017.465l-.03.041-.041-.031c-.018-.139-.026-.327-.018-.478l.012-.107-.167.19c-.205.227-.44.444-.69.66l-.007.005.022.039c-.218.158-.395.213-.151.425l.245-.176.26-.188.051.009-.008.05-.263.188-.253.181c-.004.1.018.172.063.25l.054-.005.548-.398.051.009-.01.051-.529.386-.064.081c-.18.129-.805.515-.738.782v.002c.15-.043.301-.095.443-.168.148-.076.293-.18.43-.319h.051v.051c-.142.145-.291.249-.446.33v.007l-.003.073-.004.073-.037.034-.034-.037.003-.073.002-.041c-.127.059-.256.103-.386.139.054.252-.079.469-.214.686-.076.062-.702.568-.441.721l.227.058.007-.005zm.283-8.812c-.131-.079-.298-.175-.461-.207-.083-.16-.195-.289-.347-.387-.12-.078-.12-.071-.075-.158.137-.015.193-.052.195-.089l.186.029.139.096.051.007.007-.051c-.042-.054-.1-.095-.173-.12-.07-.024-.154-.036-.254-.033l-.021.004c-.053-.024-.131-.041-.229-.038-.093-.088-.17-.19-.133-.317l.021.008.199.07.138.091.05.002.004-.051-.16-.108-.154-.058c.537-.109 1.018-.101 1.498.185.253.104.371.225.509.41l-.138.115c-.313-.008-.545.036-.689.147-.131.098-.157.273-.162.449v.004z"/><path d="M340.881 100.66c-.105.065-.193.111-.302.129l.013-.013c.07-.132.152-.248.243-.352l.036-.041.004.13.006.148v-.001zm1.348 2.884c-.072.107-.16.206-.26.295-.098.088-.209.171-.327.25l-.05-.011.009-.049c.114-.074.222-.156.319-.242.096-.087.181-.18.248-.282l.05-.01.011.049zm.89-1.062l-.135.207-.051.009-.01-.049.135-.206.051-.011.01.05zm-.485-.068c-.023.103-.061.2-.126.289-.064.09-.161.17-.3.233l-.047-.018.019-.048c.127-.059.213-.13.271-.21.061-.08.093-.169.113-.264l.043-.026.027.044zm.873-1.066l-.095.123-.068.149-.046.022-.022-.045.074-.163.104-.136h.051v.051l.002-.001zm.714.07l-.098.305-.143.31-.049.013-.013-.049.137-.296.097-.302.044-.024.025.043zm-.325-4.175c.221.325.27.661.278.998l.087-.368.004-.012c.094-.13.152-.26.182-.389s.029-.259.006-.388l.029-.041.043.029c.023.139.023.278-.007.417-.03.137-.091.273-.188.411-.061.226-.104.454-.147.683l-.008.042-.07-.007.001-.076c.005-.426.01-.852-.267-1.256l.011-.051.051.01-.005-.002zm-.542.698l-.008.082-.007.083-.039.032-.032-.039.006-.081.008-.084.04-.032.032.039zm-.153.949c.057.181.099.365.129.554l.041.393.049-.069c.059-.073.138-.138.23-.191l.049.014-.014.049c-.086.051-.156.107-.208.174-.052.065-.087.139-.101.222l-.072-.007c.002-.195-.015-.386-.044-.571s-.071-.366-.126-.544l.023-.044.044.02zm.757.339c.03.146.051.287.058.422.006.136.001.268-.014.396l-.041.03-.031-.04c.016-.122.021-.25.014-.384-.007-.132-.024-.27-.056-.41l.028-.042.042.028zm.648-.121c.024.134.038.264.031.389-.007.128-.031.248-.083.365-.045.134-.048.268-.025.4.023.138.076.274.137.413l-.018.047-.047-.018c-.065-.143-.119-.285-.144-.429-.024-.146-.021-.292.027-.438l.003-.003c.047-.107.07-.222.076-.341.006-.12-.007-.246-.031-.373l.029-.041.045.029zm.313-1.075l-.05.203-.051.204-.043.025-.025-.044.051-.203.05-.204.044-.025.024.044zm-.321-1.786l.058.186-.024.045-.045-.023-.057-.186.023-.044.045.022zm.165-1.356l-.005.532c-.076.068-.132.155-.161.263-.029.108-.032.242-.005.402l-.029.042-.043-.029c-.031-.171-.025-.314.007-.434.032-.122.097-.22.183-.296l-.015-.227-.003-.253.035-.035.036.035zm-1.347-.473c.208.137.387.288.511.468.126.181.197.388.189.632l-.051.031-.354-.152c.078.507.059.911-.052 1.221-.117.327-.334.551-.644.678l-.048-.044c.061-.192.097-.385.111-.577.014-.192.006-.384-.026-.574l.029-.041.041.029c.032.197.042.396.026.593-.014.173-.043.344-.092.519.253-.124.432-.323.533-.604.111-.312.127-.726.039-1.25l.049-.039.363.156c-.004-.205-.068-.381-.176-.536-.119-.171-.291-.315-.492-.447l-.01-.051.049-.01h.005zm3.526-.694l-.029.07-.028.07-.045.02-.02-.046.029-.07.027-.069.046-.021.02.046zm-.829-.018l.17.11.108.153-.015.048-.047-.015-.096-.136-.146-.095-.02-.045.045-.02zm-1.231.354c.089.1.148.215.179.347.031.129.036.272.02.426l-.039.032-.031-.039c.016-.146.012-.281-.018-.402-.029-.119-.081-.225-.163-.314l.003-.051.052.004-.003-.003zm-4.163.4l-.014.141-.014.14-.039.033-.031-.04.014-.14.015-.14.038-.033.033.039h-.002zm.773-.407l.06.201.019.06-.025.044-.043-.024-.02-.06-.06-.201.024-.044.045.024zm1.583 1.064l.015.086v.086l-.039.033-.033-.039v-.075l-.013-.075.024-.044.045.026.001.002zm.546-1.206l.064.107-.016.116-.049.015-.015-.049.01-.067-.046-.074v-.051h.051v.003zm-3.779.191l.04.241c.027.077.071.148.134.215.083.095.125.188.148.282l.029.273-.035.038-.037-.034-.025-.261c-.021-.085-.059-.168-.132-.253-.069-.073-.116-.153-.148-.238-.031-.084-.046-.174-.046-.267l.035-.036.037.036v.004zm1.529 1.03c.084.157.132.313.149.469.021.155.01.313-.018.478-.031.19.01.376.114.551.096.163.247.317.443.461-.061-.211-.097-.417-.089-.617.011-.235.082-.462.246-.675.07-.091.118-.186.149-.282l.066-.288.039-.031.03.039-.066.304c-.034.101-.087.203-.161.301-.155.202-.222.414-.231.634-.01.224.039.455.114.692l-.055.041c-.246-.166-.434-.349-.549-.543-.111-.19-.158-.391-.122-.598.026-.158.034-.31.017-.458-.018-.147-.062-.293-.142-.442l.015-.048.051.012zm-.614.939c0 .17-.048.339-.132.509-.066.134-.154.266-.26.397l.164-.068.283-.168.197-.175.201-.242.051-.008.008.05-.208.251-.187.166.023.111.024.123-.027.043-.042-.028-.027-.125-.016-.078-.254.145-.29.116-.039-.058c.137-.162.253-.323.333-.485.078-.159.125-.317.125-.476l.035-.036.038.036zm-.747-.06v.162l-.037.035-.035-.035v-.162l.035-.035.037.035zm-.47-.915c.098.239.124.463.087.671-.037.209-.136.402-.284.585l-.005.005c-.142.122-.248.269-.326.434-.054.11-.094.229-.125.354l.125-.151c.094-.094.203-.168.351-.208.149-.083.292-.175.423-.277.135-.104.258-.218.373-.347l.05-.003.003.05c-.117.133-.244.249-.381.355-.137.105-.282.2-.438.285l-.008.003c-.133.036-.236.104-.322.19-.086.087-.154.194-.221.306l-.066-.025c.036-.202.09-.393.172-.564.081-.173.191-.326.342-.455.141-.173.232-.355.268-.551.033-.195.009-.405-.084-.632l.02-.047.048.02v.002zm1.521 2.437c-.023.064.023.125.119.249l.066.085c.128.171.176.364.179.568.003.198-.034.405-.073.605l-.07-.001c-.032-.222-.127-.418-.266-.592-.141-.176-.328-.332-.543-.476l-.009-.051.049-.01c.222.148.413.31.559.492.11.139.194.288.243.453.023-.142.042-.284.041-.421-.004-.188-.048-.368-.166-.526l-.063-.083c-.113-.145-.166-.215-.133-.315l.046-.023.022.046h-.001zm.647-.043l.08.085.079.085-.001.05-.051-.001-.079-.085-.08-.085.002-.051.05.002zm.795.256l-.147.478-.15.478-.044.022-.022-.044.148-.478.149-.478.044-.024.022.046zm.45 2.667v.119l-.021.045-.045-.021v-.171l.045-.021.021.046v.003zm-.473-.784l-.065.251-.065.253-.043.026-.026-.044.065-.253.064-.251.044-.026.026.044zm-.681-.003l.063.063v.05h-.051l-.062-.062v-.051h.05zm-.799-.383l-.051.142-.051.142-.045.021-.021-.046.051-.142.05-.142.046-.022.023.046-.002.001zm-1.146 1.211l-.094.152-.042.173-.041.029-.029-.04.047-.187.107-.176.051-.001.001.05zm-3.278 3.211l-.07.109-.108.105-.051-.007.005-.05.1-.097.059-.091.047-.02.019.047-.001.004zm.514-.272l-.07.093-.11.063-.046-.021.021-.046.09-.051.05-.066.048-.019.018.048v-.001zm.681-.415l-.042.059-.073.059-.049-.012.013-.049.059-.046.034-.045.049-.012.013.049-.004-.003zm1.024-2.665l-.063.285c-.009.094-.004.188.016.281l-.026.042-.042-.027c-.023-.101-.027-.204-.018-.305l.066-.302.045-.022.023.046-.001.002zm.697-7.092c-.003.08-.024.158-.062.236-.038.078-.091.154-.161.231l-.051.001-.002-.05.15-.214.053-.208.038-.035.035.039zm-.712-.629c.063.107.101.217.121.326.021.107.026.216.019.324l-.037.034-.033-.038c.006-.103.001-.203-.018-.306-.021-.102-.057-.204-.113-.305l.014-.049.047.014zm-.942 1.17c-.129-.095-.221-.191-.279-.287-.059-.1-.08-.198-.064-.3l.04-.029.03.041c-.014.085.006.168.055.252.053.088.139.177.259.266l.009.051-.051.008.001-.002zm1.044 1.773v.155l-.036.036-.035-.036v-.155l.035-.035.036.035zm-1.335-1.344c.211.198.336.438.403.704.042.164.06.339.063.521l.008-.002c.095-.032.168-.117.219-.253.054-.143.081-.342.086-.594l.005-.019c.075-.122.12-.246.151-.368l.057-.373.066-.018c.121.173.229.352.313.544.082.192.139.396.16.617l-.033.039-.039-.032c-.02-.212-.075-.409-.153-.595-.067-.158-.151-.307-.249-.451l-.049.287c-.031.127-.078.252-.155.379-.005.258-.034.461-.089.609-.059.158-.147.256-.263.295l-.031.002-.013.269-.039.032-.033-.039c.025-.297.019-.578-.047-.832-.063-.253-.184-.48-.383-.67l-.002-.051.051-.001h-.004zm.782 3.345l-.044.282-.043.279-.041.029-.029-.04.043-.28.045-.282.041-.029.028.041zm-1.501.637l.039.214-.03.04-.042-.029-.039-.213.029-.041.041.029h.002zm1.297-1.724c-.018.142-.053.278-.108.411-.058.132-.136.26-.237.383l-.002.001c-.129.141-.191.285-.211.437s.002.31.045.471l-.026.045-.044-.026c-.045-.168-.066-.334-.046-.497.021-.164.09-.324.228-.476.099-.115.174-.238.228-.363.054-.127.087-.258.104-.393l.039-.031.03.041v-.003zm-.338-.505c.024.137.003.272-.055.409-.057.132-.147.266-.265.397l-.003.003c-.123.103-.209.215-.277.331l-.17.363-.047.02-.02-.046c.051-.125.103-.251.174-.373.072-.122.163-.239.291-.347.11-.126.197-.251.25-.377.053-.122.072-.245.049-.366l.029-.042.043.029v-.001zm-1.656.787c.038.273-.004.508-.107.714-.101.205-.262.381-.459.539l-.051-.007.007-.051c.189-.151.344-.32.44-.515.096-.193.137-.414.1-.673l.031-.041.04.031-.001.003zm-2.117 1.171l.061.127.064.136-.016.047-.047-.016-.065-.136-.061-.126.017-.047.047.017v-.002zm-.838.017c-.002.161.011.321.05.474.04.153.106.302.214.443l.002.007c.055.109.086.218.106.329l.03.244c.102-.109.18-.22.237-.336.065-.133.099-.271.103-.415l.035-.034.035.036c-.004.152-.041.301-.109.444-.07.144-.174.28-.309.412l-.061-.024-.031-.314c-.021-.103-.049-.205-.098-.308-.111-.148-.182-.305-.225-.466-.042-.161-.055-.326-.053-.494l.035-.036.037.036v.002zm.113 2.865l.041-.264.082-.262.046-.021.021.046-.08.253-.039.251-.038.032-.033-.035zm-.098.799l.044-.318.04-.03.031.04-.044.318-.04.03-.031-.04zm-.548 1.337l.149-.182.14-.228.05-.014.013.049-.144.232-.159.192h-.051v-.051h.002zm-.793-4.487v.132l-.037.035-.035-.035v-.132l.035-.036.037.036zm-1.344 3.091l-.006-.099-.007-.099.034-.037.038.033.007.099.006.098-.034.037-.038-.034v.002zm3.371-5.5c-.068.236-.122.481-.117.692.004.203.061.373.207.468.171.11.246.276.317.438l.013.029.047-.249c.013-.104.013-.205-.002-.296l.029-.043.041.029c.016.098.016.207.004.316-.013.122-.041.246-.076.354l-.065.005-.054-.117c-.066-.151-.137-.309-.291-.407-.17-.109-.236-.3-.242-.526-.002-.219.051-.471.121-.714l.044-.024.024.044v.001zm-.236-.901c.023.185.016.354-.014.524-.031.17-.087.339-.16.523-.086.22-.125.453-.114.688.011.232.071.464.179.685l-.016.047-.047-.017c-.115-.228-.177-.471-.188-.712-.012-.244.029-.487.118-.717.072-.179.126-.345.155-.51.031-.163.037-.325.015-.502l.03-.04.042.031zm-1.566 2.229c-.049.107-.059.215-.041.323.021.108.067.22.134.33l-.012.049-.049-.013c-.07-.117-.122-.236-.141-.355-.021-.12-.01-.242.045-.363l.047-.018.017.047zm-.682-.245l.008.214-.049.186v.002c-.031.06-.037.12-.025.181l.09.191-.01.051-.051-.01c-.051-.071-.086-.145-.102-.218-.015-.077-.008-.151.033-.229l.042-.161-.007-.194.029-.04.041.029v-.002zm3.991-5.912c-.021.188-.011.363.026.531.037.166.102.326.189.478l-.014.049-.049-.013c-.09-.156-.158-.323-.197-.497-.039-.175-.051-.358-.025-.555l.039-.03.03.039v-.002zm-.5.485c.093.164.173.342.233.536.06.193.101.407.115.643l-.034.038-.038-.034c-.012-.229-.053-.437-.111-.626-.06-.188-.137-.36-.227-.521l.013-.049.049.013zm-2.48.076c-.239.341-.344.617-.363.857-.02.237.044.437.139.62l.002.005c.064.189.094.377.089.565-.003.188-.042.376-.108.563l-.047.021-.02-.046c.064-.181.1-.359.105-.54.003-.18-.023-.359-.086-.538-.099-.194-.165-.406-.145-.656.021-.251.129-.541.377-.894l.051-.01.008.051h-.002zm2.313-.981c.02.103.011.21-.037.314-.042.096-.115.188-.225.273-.111.087-.176.198-.205.334-.031.139-.024.3.01.48l-.029.042-.043-.028c-.033-.191-.04-.36-.008-.509.033-.15.105-.277.232-.375.099-.078.164-.161.203-.246.041-.089.049-.182.03-.271l.028-.042.044.028zm-2.449.21c.047.151.049.3.005.448-.042.146-.13.291-.265.434l-.002.003c-.129.107-.207.244-.256.396-.051.155-.069.327-.078.507l-.038.034-.034-.037c.01-.185.029-.362.081-.524.052-.163.138-.31.276-.427.125-.134.206-.27.247-.404.039-.134.038-.271-.005-.407l.022-.044.044.024.003-.003zm1.401.074v.159l.06.147-.01.05-.05-.01-.072-.174v-.181l.041-.031.031.041v-.001zm-.067-.369c-.129.054-.227.146-.297.275-.068.129-.108.295-.121.498l.013.024c.067.094.115.204.146.328.032.135.043.288.039.454l-.038.034-.034-.035c.004-.161-.007-.309-.037-.438-.026-.108-.067-.206-.125-.288-.265.248-.395.521-.403.819-.01.312.112.65.347 1.012l-.01.051-.049-.012c-.242-.374-.368-.727-.358-1.052.011-.321.149-.614.438-.879v-.001c.012-.224.055-.405.132-.549.079-.146.188-.248.333-.309l.047.02-.02.048h-.003zm-.398-.514l-.008.076c-.019.17-.036.36-.165.476-.071.063-.117.139-.149.219l-.061.268-.038.03-.031-.04.064-.285c.036-.092.088-.175.168-.246.107-.097.127-.274.143-.429l.008-.078.041-.031.028.04zm3.892 4.152l.1.272c.023.093.035.188.029.288l-.037.034-.035-.037-.025-.269-.096-.258.018-.048.046.018zm.011 1.277c.031.146.033.297.007.446-.026.15-.081.303-.163.458l-.164.386-.048.02-.019-.047.164-.388.002-.003c.079-.148.131-.294.157-.438.024-.142.022-.283-.007-.42l.028-.042.043.028zm-.81-1.189c.232.26.384.533.455.821.074.288.066.592-.022.907l-.044.024-.024-.044c.085-.305.093-.595.022-.871-.07-.277-.216-.541-.441-.792l.004-.051.05.006zm-.072 1.434c-.072.151-.151.304-.249.455s-.212.303-.348.454c-.077.087-.149.183-.212.288-.062.108-.115.226-.157.357l-.068-.014c.007-.107-.007-.215-.036-.322s-.078-.217-.144-.324v.002c-.13-.192-.186-.387-.176-.578.012-.192.088-.383.226-.574.077-.133.133-.269.172-.402s.059-.269.064-.403l.036-.034.034.037c-.006.14-.025.28-.066.42-.041.141-.1.28-.181.421l-.002.003c-.129.181-.202.36-.212.538-.01.179.045.356.165.536l.001.001c.069.114.119.229.152.344l.032.161.101-.198c.065-.111.141-.212.222-.302.134-.148.246-.298.341-.446.096-.149.176-.298.244-.446l.047-.018.019.047-.005-.003zm-2.126-.684c-.005.177.012.344.047.5.036.154.095.3.177.434l-.012.049-.049-.012c-.085-.14-.146-.292-.184-.453-.038-.163-.055-.336-.049-.518l.035-.034.035.034zm-1.21.648v.208l-.036.036-.036-.036v-.208l.036-.036.036.036zm.4-1.106c.003.122-.014.241-.051.355-.039.113-.1.223-.188.325l-.051.004-.002-.051c.081-.097.138-.197.172-.303.035-.106.051-.217.047-.331l.035-.036.035.034.003.003zm-1.09 2.147c-.195-.487-.242-.874-.193-1.188.049-.317.195-.559.387-.755.129-.133.242-.263.314-.426.074-.163.107-.358.082-.622l.032-.039.039.032c.026.277-.01.483-.088.658-.077.173-.194.31-.327.446-.183.186-.321.417-.369.717-.047.303 0 .678.191 1.152l-.02.045-.047-.02h-.001zm-.629-.8c-.029.079-.041.158-.031.236.009.079.037.158.086.238l-.011.049-.049-.012c-.054-.088-.087-.177-.097-.267s.002-.18.037-.27l.045-.021.021.045h-.001zm3.092-2.196c.129.181.203.368.219.563.015.195-.029.397-.141.607l-.047.015-.015-.047c.104-.197.146-.387.132-.568-.013-.183-.085-.358-.205-.528l.008-.051.051.009h-.002zm.966-.755c.079.188.12.378.128.57.008.19-.02.384-.079.578l-.069-.01c-.007-.18-.045-.341-.111-.482s-.166-.264-.295-.368l-.004-.051.05-.005c.139.111.243.241.314.393.044.093.077.194.097.302.021-.119.031-.238.025-.356-.007-.183-.045-.365-.121-.545l.02-.047.048.02-.003.001zm.573-.785c.128.126.217.292.273.497.053.202.072.439.063.712v.002c-.013.115-.018.228-.004.332.011.103.04.197.094.282l-.01.05-.051-.011c-.061-.095-.092-.2-.105-.313-.014-.11-.008-.228.004-.349v.002c.011-.266-.01-.497-.06-.69-.052-.192-.136-.348-.253-.465v-.05h.051l-.002.001zm-1.521-.151c-.082.102-.133.22-.158.352-.023.134-.02.28.004.44l-.029.041-.041-.029c-.025-.167-.029-.323-.003-.465.026-.144.083-.271.173-.385l.051-.005.003.051zm-2.983 2.009c-.014.297-.1.537-.238.736-.139.197-.327.354-.55.483l-.049-.013.013-.049c.213-.125.396-.275.527-.464.133-.188.214-.416.227-.697l.037-.034.035.037h-.002zm-.076-1.027c.016.111.01.219-.015.326-.024.105-.067.212-.121.32l-.048.017-.016-.047c.053-.104.094-.205.115-.305.023-.1.029-.197.016-.3l.03-.041.041.031-.002-.001zm2.02-.148v.102l.035.524.002.047-.032.039h-.011l-.029.01-.036-.035v-.58l-.011-.142.033-.039.039.032v.012l.008.029.002.001zm.487-.9c-.144.174-.2.342-.204.507-.002.164.048.328.123.491.169.272.225.543.207.814-.018.271-.106.54-.225.809l-.048.018-.019-.047c.117-.261.203-.523.219-.783s-.036-.517-.197-.776l-.002-.003c-.08-.173-.133-.347-.13-.526.003-.181.067-.363.22-.551l.051-.005.005.051v.001zm-3.133-5.587c.236-.181.468-.283.71-.309.242-.024.49.027.762.154l.269-.003.274-.004.037.036-.037.036-.274.003-.247.003-.006.005c-.289.256-.537.396-.758.441-.227.048-.422-.003-.6-.13l-.011-.062.062-.012c.16.11.332.156.531.115.192-.04.41-.159.666-.376-.234-.103-.449-.144-.656-.122-.225.022-.443.12-.666.292l-.063-.009.007-.058zm.7-.137c.1 0 .18.08.18.18 0 .098-.08.179-.18.179-.098 0-.179-.079-.179-.179s.08-.18.179-.18zm1.235 1.084c.128-.067.227-.139.311-.212l.201-.224.051-.008.008.051-.211.235c-.086.077-.191.15-.326.221l-.047-.015.013-.048zm2.542-1.053l.198.002.193.105.004.051-.05.005-.166-.092-.161-.001-.045-.026.027-.044zm-1.454.059c.057-.13.143-.229.262-.293.117-.063.266-.088.446-.072l.032.039-.039.033c-.167-.015-.303.008-.406.063-.104.054-.18.142-.23.259l-.047.018-.018-.047zm.166.238l.08-.165c.042-.046.102-.078.184-.101l.044.024-.024.044-.15.081-.06.127-.041.029-.029-.04h-.004zm-2.421.805l-.101.193-.033.229-.033.037-.039-.032c-.006-.097.01-.181.036-.258l.108-.208.049-.012.011.049.002.002zm.694.31v.108l-.037.035-.035-.035v-.108l.035-.035.037.035zm-.451-.775l.213.041.217-.026.042.026-.026.044-.234.027-.238-.045-.021-.046.046-.021h.001zm.445-1.302l-.143.045-.09.13-.045.024-.023-.044c.018-.057.055-.121.115-.166.047-.036.111-.061.188-.059l.036.035-.036.036-.002-.001zm-.721.073l-.129.075-.058.078-.046.023-.022-.046.08-.11.148-.087.046.02-.019.047zm-.445.014l-.112.101-.073.126-.046.021-.021-.046.084-.146.127-.116.051.01-.01.05zm-.572.458l-.137.12-.123.148-.051.008-.008-.051.13-.156.146-.127.051.007-.008.051zm.058.63l-.103.111-.104.11-.05.002-.002-.051.103-.11.104-.111.051-.001.001.05zm-.58.168v.222l-.035.036-.036-.036v-.222l.036-.036.035.036zm.743.975l-.035.363-.003.034-.038.032-.033-.039.004-.034.033-.363.039-.033.033.04zm-.436-.324l-.008.236-.037.034-.035-.036.009-.237.037-.034.034.037zm-.404-3.085c.076.027.143.066.195.118.057.055.099.121.127.202l-.023.046-.046-.022-.107-.175-.171-.104-.021-.045.046-.021v.001zm3.549 4.627c.068.154.105.309.107.462.003.155-.027.31-.094.465l-.045.02-.02-.048c.061-.145.09-.29.086-.435-.001-.146-.035-.29-.1-.436l.018-.047.048.019zm-1.157 1.337c.051-.174.123-.326.208-.464.085-.139.181-.265.276-.389.111-.143.185-.299.224-.459.042-.173.044-.352.013-.521l.029-.04.041.029c.033.179.031.366-.014.55-.039.17-.117.336-.235.487-.095.122-.188.246-.272.382-.082.133-.152.28-.2.446l-.044.024-.023-.044-.003-.001zm-1.488-.392l.109-.173.181-.127.048.017-.018.047-.162.112-.092.148-.047.021-.021-.046h.002zm-.288-.105l.175-.197c.064-.06.139-.11.223-.145l.046.02-.021.045-.2.131-.166.189-.051.006-.007-.05.001.001zm1.542-1.527l.177.042.167-.021.043.024-.024.044-.188.024-.204-.049-.018-.047.047-.017zm-.768-.1l.053-.063.007-.008.051-.003.003.05-.006.009-.057.062-.05.003-.003-.05h.002zm16.59 4.786l.09.119.061.133-.023.044-.045-.022-.054-.119-.08-.105.001-.051.05.001zm-18.418 8.645c.078.071.159.136.249.182.088.044.186.072.296.072l.037.035-.037.036c-.121 0-.229-.031-.328-.08-.097-.049-.184-.117-.266-.191l-.002-.051.051-.003z"/><path fill="#f00" d="M343.559 85.42c.409.019.803.002 1.139-.054-.357.26-.816.434-1.31.516.097-.075.157-.153.187-.233.025-.077.02-.154-.016-.229zm-.976-.101c.266.044.541.075.813.093l.012.018c.043.061.057.119.037.177-.023.064-.085.133-.187.203l-.017.093c-.18.022-.364.033-.552.029l-.282-.015.028-.022c.099-.104.163-.212.181-.324.014-.083.004-.166-.034-.249v-.003zm-7.21-2.072c.459-.061.926-.075 1.402-.063.156.063.271.156.344.278.078.137.105.316.073.539l.057.075.075-.057c.036-.254.004-.461-.09-.624-.045-.078-.104-.146-.176-.202l.127.007c.547.029.973.186 1.449.422l.011.013c.101.105.135.215.118.328-.018.118-.089.247-.203.379l.008.095.095-.009c.129-.151.214-.301.235-.447.011-.083.004-.161-.025-.24.401.199.809.39 1.205.599l.023.013.006.026c.033.112.021.208-.035.291-.06.087-.17.162-.327.221l-.039.086.087.039c.186-.07.314-.159.391-.271.063-.093.088-.195.072-.311.264.142.525.288.795.417l.001.001c.048.095.056.18.018.258-.039.083-.13.161-.275.232l-.03.09.09.031c.174-.087.284-.186.336-.297.037-.076.046-.154.029-.237l.284.115c.259.096.571.18.907.241l.008.01c.063.086.084.17.068.249-.014.083-.064.168-.146.253l.002.095.021.018c-1.018-.104-1.924-.592-2.872-.958l-.339-.131c-.351-.132-.704-.311-1.056-.454l-.046-.022-.072-.023-.045-.018.006.005c-.32-.103-.645-.183-.974-.229-.365-.05-.736-.06-1.118-.011l-.061-.01c.031-.2.006-.377-.094-.529-.07-.109-.176-.205-.322-.285l.002.002zm-1.668.448c.469-.204.943-.334 1.426-.414.223.088.369.195.451.322.08.126.1.272.072.441-.205-.02-.408-.018-.607.004-.223.024-.441.075-.656.151-.107-.227-.253-.363-.422-.438-.084-.037-.172-.059-.264-.068v.002zm5.128 2.594l-.385-.23c-.634-.349-1.36-.563-2.089-.591l.019-.017c.259-.264.315-.513.228-.746-.068-.181-.227-.349-.444-.5.244-.013.471.001.726.037.357.051.822.172 1.246.343.104.228.133.428.088.598-.048.178-.182.325-.396.448l-.025.091.09.024c.25-.14.403-.316.461-.531.043-.166.03-.352-.043-.559.287.129.546.282.727.449.236.163.469.328.697.501.002.29-.083.454-.223.54-.148.09-.36.102-.602.077l-.073.061v.005zm1.395 1.049c-.424-.331-.837-.676-1.282-.975.246.02.466 0 .633-.099.16-.1.266-.272.284-.555.266.206.521.423.765.655l.369.342.002.007c.029.104.039.193.031.269-.009.073-.035.134-.076.182-.045.049-.108.084-.188.105-.119.034-.274.041-.465.02l-.072.051-.001-.002zm1.461.963l-.423-.233c-.324-.191-.629-.412-.927-.642.183.015.336.005.459-.029.106-.029.191-.078.252-.146.061-.068.099-.152.109-.257l-.001-.146c.292.249.598.48.929.683l.52.298.002.036c.021.134-.055.218-.191.271-.159.063-.396.09-.669.106l-.063.056.003.003zm1.56.612c-.495-.135-.974-.324-1.412-.537.251-.019.472-.048.632-.111.182-.071.285-.183.279-.359.289.146.58.273.875.377.051.116.055.211.006.29-.059.099-.188.18-.348.25l-.033.088v.001l.001.001zm3.252-.331c.042-.006.304-.074.168.024-.958.628-2.173.626-3.319.331.178-.08.323-.176.396-.296.056-.09.065-.192.039-.306.365.119.734.204 1.116.253.001.059-.015.117-.06.175-.062.074-.164.147-.332.222l-.033.087.088.035c.188-.084.311-.171.383-.261.063-.08.09-.16.09-.243.471.051.957.044 1.464-.021zm-6.624 16.502c-.072.074-.132.157-.19.256-.278.093-.524.231-.825.218 0 .194.064.279.258.28.37-.186.453-.22.486-.193.045.039-.053.304-.359.52l-.018.096c.26.405.938.261 1.303.165.262-.068.732-.378.863-.639.05-.119-.064-.275-.178-.402-.289.044-.389-.09-.343-.183-.305-.108-.644-.131-.997-.118zm-10.415-3.283c-.212.173-.448.31-.724.401-.104.034-.356.096-.381.228-.003.048.17.15.28.09.307-.293.46-.131.108.17-.028.057-.006.12.055.174.317.285 1.104.378 1.463.151.266-.166.404-.349.173-.601l.018-.17-.438-.044-.269-.156-.285-.243zm6.855 2.386l-.079.011c-.143.153.247.097.453.224.096.057.137.169.099.325-.19.455-1.255.309-1.608.121-.164-.086-.171-.186-.164-.327l.223-.017c.127-.019.253-.056.377-.126.034-.02.07-.04.031-.108-.039-.07-.076-.051-.109-.031-.105.059-.213.091-.32.105l-.334.012h-.027c-.062-.036-.108-.078-.083-.116.026-.035.129.004.148.011.165-.077.308-.126.485-.16l.072-.075c.324.028.633.077.839.152h-.003zm-4.918-.28c-.065.039-.088.095-.136.197-.186.188-.363.3-.601.407-.197.09-.007.176.132.271.125.093.289-.109.393-.263.111-.169.227-.118.152.014-.08.145-.14.354-.148.463-.041.117.404.207.481.21.272.013.614-.253.827-.388.178-.181.15-.339.072-.56l.002-.014c-.115.003-.223-.01-.328-.033-.129-.029-.256-.073-.385-.127l-.02-.047.029-.024-.469-.107-.001.001zm1.905-18.132l.224.002.408.093c.463-.175.846-.271 1.176-.256.387-.112.787-.16 1.188-.149l-.014-.014v-.095c.217-.22.267-.422.197-.604-.072-.189-.268-.367-.539-.53l-.877-.011c-.192.021-.381.063-.566.125.154.056.289.146.4.277.137.161.234.381.287.658l-.055.078-.078-.054c-.047-.253-.135-.452-.257-.597-.129-.184-.424-.256-.517-.293-.309.031-.611.064-.875.134-.199.05-.373.12-.507.225.198-.043.405-.034.585.055.171.085.316.245.407.504l-.042.085-.085-.043c-.077-.223-.196-.356-.339-.427-.281-.14-.863-.018-1.109.165-.144.107-.287.246-.429.407l-.05.036c.527.035 1.059.063 1.469.228h-.002zm-1.566-.297l.025-.072c.148-.168.299-.315.453-.43.15-.11.305-.19.465-.229.162-.181.404-.289.684-.361.272-.07.584-.105.898-.137-.094-.188-.213-.3-.35-.36-.146-.064-.316-.074-.496-.057-.38.131-.717.334-1.041.563l.086.002.262.022.041.087c-.027.076-.238.029-.311.024-.084-.006-.175.001-.275.025l-.046.004c-.341.21-.599.423-.873.656.209.075.372.161.478.263z"/><path fill="#0093DD" d="M371.143 124.534l14.257-32.317-10.518-16.981-18.756 6.944-8.681 34.154c8.181 2.087 16.099 4.844 23.694 8.201l.004-.001z"/><path fill="#fff" d="M352.961 94.642c9.395 2.396 18.49 5.562 27.214 9.419l-5.501 12.474c-8.039-3.553-16.416-6.469-25.072-8.676l3.359-13.217z"/><path fill="#f00" d="M375.559 114.531l3.675-8.33c-8.606-3.806-17.579-6.927-26.847-9.292l-2.166 8.521c8.791 2.243 17.301 5.205 25.465 8.813l-.127.288z"/><path d="M355.033 103.399c.246-.155.508-.117.771-.075.214-.08.459-.107.727-.098.114-.062.246-.106.396-.134.08-.062.082-.129.012-.2-.067-.081-.105-.161-.109-.243-.424-.246-.58-.62-.742-.991-.24-.064-.354-.146-.379-.236l-.35-.036c-.549.061-.69-.117-.886-.263-.163-.054-.305-.144-.396-.314l-.181-.228c-.149-.19-.104-.443.122-.429.159.018.318.018.465-.046.17-.076.426-.074.619-.059.23-.013.375-.161.599-.369l-.003-.268c-.035-.096.01-.139.137-.126.298.011.476.15.596.349.348.061.621.228.806.519.46.002.771.176.81.347.027.126-.107.27-.316.422l.004.095c.123.107.205.215.247.321.259.1.507.232.738.429.659-.077 1.772.402 3.275 1.361.976.175 1.923.445 2.832.838l.575.018c1.631-.241 3.211-.056 4.678 1.065.553.066 1.05.241 1.531.439.355.146.719.204 1.086.238.593.057 1.193.203 1.79.48.67.15 1.296.36 1.683.829.275.333.209.639-.141.766-.213.446-.635.466-1.266.246-.436.08-.915-.269-1.35-.596-.604-.194-1.16-.543-1.709-.914-.285-.214-.574-.349-.854-.409-.221-.047-.417-.078-.549 0-.065.039-.058.062 0 .109.152.129.26.32.295.552.031.204-.002.438.01.688.013.263.171.453.435.616.181.11.396.229.707.271.148.03.19.116.186.229.083.397.16.798.305 1.158.04.103.119.151.236.238.403.29.194.614-.173.684-.32.284-.598.475-.927.55-.263.088-.37-.02-.458-.148-.158-.004-.238-.067-.305-.17-.32-.236-.047-.646.721-.471.016-.09.081-.117.146-.115-.046-.199-.072-.421.014-.628l-.226-.132c-.277-.088-.539-.215-.746-.409-.393-.369-1.007-.679-1.599-.99-.488-.024-.852-.249-1.234-.439l-.519-.007c-.151-.05-.274.002-.366.111-.153.186-.331.154-.541.13-.241-.027-.485-.01-.727-.013-.119.029-.236.066-.365.068-.271-.015-.537-.019-.719.134-.149.157-.299.146-.449.088-.111-.053-.193-.107-.24-.167-.189-.038-.312-.086-.353-.143-.317-.09-.407-.18-.393-.27-.422-.101-.222-.433.052-.444.323-.013.618.049.934.093.266.075.594.031.811-.164.139-.128.191-.236.363-.331-.547-.036-.949-.132-1.245-.319-.799-.503-1.437-.625-1.945-.198-.136.076-.241.107-.386.052-.123-.048-.279-.048-.401-.02-.288.065-.573.029-.861-.075-.423.106-.843.129-1.265.043-.356.187-.617.208-.783.064l-.445-.273c-.227-.034-.324-.091-.334-.166-.289-.033-.325-.139-.324-.255-.12-.138-.074-.244.047-.333.215-.09.438-.122.686.005.148.069.258.139.347.208.165-.02.306 0 .43.046.091-.144.351-.15.634-.134.143-.095.311-.161.528-.181l-.019-.102c-.285-.074-.432-.281-.573-.49-.438-.008-.753-.191-1.065-.384-.258.021-.464-.064-.664-.185-.164.013-.344.02-.516-.024-.339.093-.659.087-.963 0-.213.02-.384-.002-.561-.018-.199.229-.424.271-.67.153-.136-.172-.328-.284-.57-.348-.186-.061-.242-.14-.273-.227-.226-.138-.18-.275.037-.379.162-.078.366-.094.676.06.101.038.213.063.34.074h-.005z"/><path fill="#fff" d="M365.775 106.674c-.021-.038-.066-.132-.232-.038-.51-.027-1.08-.021-1.508-.273-.446-.262-.906-.536-1.399-.517.146-.138.329-.232.54-.29.284-.074.62-.079.991-.02.521.085.98.187 1.337.319.342.129.582.289.688.494l.028.032c.138.088.256.178.355.272l.195.222c-.16.015-.326.003-.49-.029-.179-.036-.352-.097-.508-.177l.003.005z"/><path d="M366.948 82.06l.029.153.642 3.323-2.553 2.226-.117.103.148.052 3.199 1.106.65 3.323.03.153.118-.103 2.558-2.218 3.204 1.099.148.05-.029-.152-.643-3.325 2.553-2.226.117-.103-.148-.051-3.199-1.107-.649-3.323-.031-.153-.117.103-2.56 2.219-3.203-1.1-.147-.049z"/><path fill="#F7DB17" d="M365.384 87.724l2.386-2.078 2.999 1.032-5.385 1.046zm5.782-1.122l2.393-2.08 2.99 1.034-5.383 1.046zm5.403-.941l-2.385 2.079-2.999-1.033 5.384-1.046zm-5.782 1.124l-2.393 2.079-2.989-1.033 5.382-1.046zm-3.5-4.419l2.992 1.025.606 3.113-3.598-4.138zm3.863 4.444l2.998 1.033.6 3.106-3.598-4.139zm3.517 4.21l-2.993-1.024-.605-3.113 3.598 4.137zm-3.864-4.445l-2.998-1.031-.6-3.106 3.598 4.137zm2.076-5.242l.608 3.105-2.394 2.08 1.786-5.185zm-1.916 5.568l.604 3.113-2.391 2.073 1.787-5.186zm-1.889 5.152l-.607-3.105 2.393-2.08-1.786 5.185zm1.917-5.569l-.604-3.113 2.391-2.072-1.787 5.185z"/></svg>