<svg xmlns="http://www.w3.org/2000/svg" width="100" height="100" viewBox="0 0 100 100"><path d="M71.91 64.047h-71.91v-48.094h71.91v48.094zm-69.109-2.8h66.309v-42.494h-66.309v42.494zm8.773-5.645c.27.162.596.264.922.269l13.756.021 33.473.045c.715.002 1.338-.408 1.644-1.054.315-.637.204-1.396-.243-1.922l-17.955-21.644c-.353-.442-.903-.675-1.468-.661-.553.026-1.074.292-1.402.748l-10.117 14.078-5.794-7.158c-.355-.439-.895-.683-1.458-.658-.562.009-1.089.291-1.434.749l-10.463 14.565c-.41.559-.455 1.277-.145 1.883.151.326.403.573.684.739zm46.004-20.793c3.107.001 5.621-2.512 5.627-5.614.006-3.104-2.512-5.622-5.609-5.627-3.104-.003-5.627 2.506-5.633 5.609-.002 3.107 2.51 5.621 5.615 5.632z"/></svg>