<svg xmlns="http://www.w3.org/2000/svg" width="100" height="100" viewBox="0 0 100 100"><path d="M63.508 26.943c0 2.2-1.8 4-4 4h-32.103c-2.2 0-4-1.8-4-4v-1.114c0-2.2 1.8-4 4-4h32.103c2.2 0 4 1.8 4 4v1.114zm18.211 14.483v-33.513c0-2.2-1.8-4-4-4h-68.524c-2.2 0-4 1.8-4 4v73.402c0 2.2 1.8 4 4 4h32.697c5.489 6.582 13.749 10.772 22.989 10.772 16.527 0 29.924-13.397 29.924-29.924 0-10.282-5.188-19.351-13.086-24.737zm-46.762 24.737c0 3.522.613 6.899 1.731 10.038h-18.379c-2.2 0-4-1.8-4-4v-55.174c0-2.2 1.8-4 4-4h50.295c2.2 0 4 1.8 4 4v19.223c0 .338.044.684.108 1.031-2.497-.675-5.12-1.042-7.831-1.042-16.527 0-29.924 13.397-29.924 29.924zm35.894-4.057v6.631h-16.867c1.196 5.88 6.406 10.319 12.634 10.319 2.63 0 5.161-.788 7.318-2.279l.822-.569 3.771 5.454-.823.568c-3.271 2.262-7.105 3.457-11.089 3.457-10.767 0-19.525-8.759-19.525-19.524s8.759-19.525 19.525-19.525c3.983 0 7.817 1.195 11.089 3.458l.823.568-3.771 5.454-.822-.569c-2.157-1.491-4.688-2.279-7.318-2.279-5.691 0-10.525 3.711-12.23 8.837l16.463-.001z"/></svg>