<svg xmlns="http://www.w3.org/2000/svg" width="100" height="100" viewBox="0 0 100 100"><path d="M44.923 60.47h-.162c-9.285-.109-17.237-6.824-18.909-15.965-.653-3.566-.255-7.106.955-10.307-.434.157-.87.312-1.285.51-.097.046-.188.101-.285.148-.501.253-.984.537-1.452.845-.102.069-.209.131-.311.202-.511.357-1 .751-1.464 1.176-.099.094-.193.189-.289.283-.416.403-.81.829-1.178 1.284-.054.066-.114.127-.166.195-.394.506-.749 1.052-1.076 1.617-.077.131-.147.266-.219.399-.318.592-.61 1.202-.847 1.848-2.723 7.437 1.095 15.671 8.532 18.399 1.104.404 2.228.647 3.348.771l4.187 9.027 5.405 1.981-1.98 5.404.038.081 5.404 1.979-1.98 5.406.038.079 5.404 1.981-1.794 4.904 9.356 3.429 3.612-9.866-4.925-10.639-7.057-15.201c-.301.015-.601.03-.9.03zm47.925 3.328l-10.964-7.578-20.629-14.249c.078-1.277.019-2.58-.219-3.896-.098-.526-.222-1.04-.365-1.542-.047-.164-.104-.323-.158-.484-.106-.336-.216-.667-.34-.99-.073-.187-.159-.363-.234-.543-.126-.29-.254-.58-.397-.857-.094-.186-.192-.364-.291-.542-.145-.265-.298-.527-.459-.782-.112-.176-.224-.347-.342-.518-.169-.248-.344-.49-.526-.726-.124-.161-.248-.323-.373-.478-.198-.235-.405-.463-.614-.688-.131-.141-.257-.283-.392-.418-.238-.239-.486-.464-.741-.688-.12-.105-.229-.218-.355-.318-.377-.318-.77-.62-1.175-.899-.023-.015-.044-.026-.066-.04-.386-.264-.784-.511-1.193-.743-.143-.081-.291-.152-.438-.229-.29-.154-.585-.305-.89-.443-.173-.077-.354-.147-.532-.219-.281-.115-.565-.227-.855-.328-.191-.066-.385-.125-.581-.186-.287-.087-.575-.166-.865-.237-.019-.005-.039-.007-.06-.015-.221 5.877-2.575 11.433-6.81 15.667-.899.902-2.097 1.396-3.369 1.396-1.272 0-2.468-.495-3.37-1.396-1.857-1.857-1.857-4.88 0-6.739 2.277-2.275 3.635-5.185 3.977-8.299-7.209 2.733-11.679 10.282-10.242 18.138 1.425 7.796 8.183 13.271 15.821 13.361.352.004.708-.015 1.063-.03.168-.011.332-.011.5-.021.522-.045 1.048-.111 1.576-.208 1.314-.241 2.556-.647 3.726-1.173l9.303 6.429 6.437-1.177 1.178 6.435.079.059 6.437-1.178 1.173 6.437.085.057 6.436-1.176 1.068 5.835 11.138-2.038-2.152-11.743zm-55.361-27.458c-.621.621-.621 1.626 0 2.245.31.312.715.465 1.123.465.405 0 .811-.154 1.122-.465 4.68-4.68 6.576-11.084 5.737-17.183-.584-4.246-2.48-8.342-5.736-11.598-3.967-3.968-9.18-5.952-14.391-5.952-1.177 0-2.352.115-3.514.318-.123.021-.251.029-.375.052-.293.058-.583.144-.874.214-.347.082-.694.152-1.036.251-.052.016-.105.04-.155.055-2.228.679-4.353 1.762-6.284 3.219-.748.563-1.474 1.163-2.152 1.843-7.937 7.935-7.937 20.846 0 28.782 1.274 1.275 2.703 2.353 4.236 3.236.024-.069.04-.137.064-.207.265-.724.593-1.443 1.055-2.302.071-.134.143-.265.214-.392-1.201-.716-2.32-1.576-3.326-2.583-6.695-6.694-6.695-17.594 0-24.29 1.012-1.012 2.13-1.853 3.305-2.56.604-.362 1.229-.67 1.864-.952.155-.069.308-.135.463-.198.633-.26 1.274-.492 1.929-.672.057-.016.115-.026.171-.04.612-.164 1.233-.285 1.858-.378.161-.024.322-.047.484-.069.667-.081 1.337-.132 2.008-.135.024 0 .047-.005.071-.005.303 0 .603.02.905.038.154.007.307.006.461.019.486.039.973.096 1.455.176 2.674.442 5.257 1.52 7.515 3.228.625.474 1.235.977 1.805 1.547 2.688 2.688 4.277 6.055 4.807 9.554.791 5.218-.8 10.729-4.809 14.739z"/></svg>