<svg xmlns="http://www.w3.org/2000/svg" width="32" height="32" viewBox="0 0 32 32"><path fill="#007BB6" d="M32 28c0 2.209-1.791 4-4 4h-24c-2.209 0-4-1.791-4-4v-24c0-2.209 1.791-4 4-4h24c2.209 0 4 1.791 4 4v24z"/><path fill="#fff" d="M25 16.81v6.19h-3.43v-5.775c0-1.451-.496-2.441-1.736-2.441-.948 0-1.512.667-1.76 1.313-.091.23-.114.552-.114.875v6.028h-3.431s.047-9.782 0-10.796h3.431v1.53c-.007.011-.016.024-.022.035h.022v-.035c.456-.734 1.27-1.784 3.091-1.784 2.258.001 3.949 1.544 3.949 4.86zm-14.059-9.81c-1.173 0-1.941.806-1.941 1.865 0 1.037.746 1.866 1.896 1.866h.022c1.196 0 1.94-.83 1.94-1.866-.022-1.059-.743-1.865-1.917-1.865zm-1.737 16h3.429v-10.796h-3.429v10.796z"/></svg>