<svg xmlns="http://www.w3.org/2000/svg" width="100" height="100" viewBox="0 0 100 100"><path d="M67.384 42.839h-33.768v-7.562c0-9.31 7.574-16.884 16.884-16.884 6.051 0 11.354 3.211 14.335 8.007l8.387-5.463c-4.769-7.53-13.169-12.544-22.723-12.544-14.824 0-26.884 12.06-26.884 26.884v7.562h-6.095c-2.2 0-4 1.8-4 4v40.768c0 2.2 1.8 4 4 4h64.96c2.2 0 4-1.8 4-4v-40.768c0-2.2-1.8-4-4-4h-15.096zm-9.455 26.316c-1.611 1.499-2.929 4.525-2.929 6.725v3.122c0 2.2-1.8 4-4 4h-2c-2.2 0-4-1.8-4-4v-3.122c0-2.2-1.318-5.226-2.929-6.725 0 0-2.904-2.702-2.904-6.879 0-5.983 4.85-10.832 10.832-10.832s10.832 4.85 10.832 10.832c.001 4.178-2.902 6.879-2.902 6.879z"/></svg>