<svg xmlns="http://www.w3.org/2000/svg" viewBox="-449 251 60 60" enable-background="new -449 251 60 60"><path d="M-400.5 276.9h-2.9v-4.3c0-8.5-6.9-15.3-15.3-15.3s-15.3 6.9-15.3 15.3v4.3h-3.5c-1.3 0-2.3 1-2.3 2.3v23.2c0 1.3 1 2.3 2.3 2.3h37c1.3 0 2.3-1 2.3-2.3v-23.2c0-1.3-1-2.3-2.3-2.3zm-14 15c-.9.9-1.7 2.6-1.7 3.8v1.8c0 1.3-1 2.3-2.3 2.3h-1.1c-1.3 0-2.3-1-2.3-2.3v-1.8c0-1.3-.8-3-1.7-3.8 0 0-1.7-1.5-1.7-3.9 0-3.4 2.8-6.2 6.2-6.2 3.4 0 6.2 2.8 6.2 6.2.1 2.4-1.6 3.9-1.6 3.9zm5.4-15h-19.3v-4.3c0-5.3 4.3-9.6 9.6-9.6s9.6 4.3 9.6 9.6v4.3z"/></svg>