<svg xmlns="http://www.w3.org/2000/svg" width="28" height="24" viewBox="-469 269 28 24" enable-background="new -469 269 28 24"><path d="M-464.393 276.837l3.744 1.091-1.091 3.744-3.744-1.091zm2.493 5.763l-4.7-1.4-1.7 6 4.7 1.4z"/><circle cx="-455.9" cy="290.8" r="2.2"/><path d="M-446.1 283.4v-11.1h-6.7c-1.4 0-2.7.3-3.3 2.1 0 0-4.8 17-4.8 17h2c0-.2 0-.3 0-.5 0-1.6 1.3-3 3-3 1.6 0 3 1.3 3 3 0 .2 0 .4 0 .5h3.2c0-.2 0-.3 0-.5 0-1.6 1.3-3 3-3 1.6 0 2.9 1.3 3 2.9v.6c1.7 0 2.6-1 2.6-2.7v-5.3h-5zm-1.1 0h-9l1.2-7.4s.4-1.5 2-1.5h5.7v8.9z"/><circle cx="-446.9" cy="290.8" r="2.2"/><path d="M-458 272.9l-5 17-4.4-1.2-.3 1.2 5.4 1.5 5.4-18.2z"/></svg>