<svg xmlns="http://www.w3.org/2000/svg" width="24" height="24" viewBox="0 0 24 24"><path enable-background="new" d="M1.367 2.176c.268-.113.561-.176.867-.176h14.53c1.23 0 2.236 1.006 2.236 2.235v3.47h-2.236v-2.912c0-.307-.25-.559-.558-.559l-13.412.002c-.308 0-.56.251-.56.558v13.412c0 .308.252.558.56.558l13.412.002c.308 0 .558-.252.558-.56v-2.91h2.236v3.47c0 1.228-1.006 2.234-2.236 2.234h-14.53c-.307 0-.6-.063-.867-.176-.801-.342-1.367-1.136-1.367-2.058v-14.531c0-.922.566-1.718 1.367-2.059zm12.39 5.047c-.389-.389-1.024-.389-1.414 0-.389.389-.389 1.025 0 1.414l1.829 1.829h-5.891c-.55 0-1 .45-1 1s.45 1 1 1h5.89l-1.828 1.829c-.389.389-.389 1.025 0 1.414.39.389 1.025.389 1.414 0l4.243-4.243-4.243-4.243z"/></svg>