<svg xmlns="http://www.w3.org/2000/svg" width="100" height="100" viewBox="0 0 100 100"><path fill="#FFE600" d="M98.438 89.217l-87.655 9.219-9.219-87.653 87.655-9.219z"/><path fill="none" d="M25.572 24.1l-2.507.263.75 7.132 2.508-.264c1.722-.181 2.914-.596 3.544-1.232.543-.555.878-1.211.73-2.615-.146-1.384-.525-2.18-1.309-2.746-.749-.537-2-.719-3.716-.538zm1.397 41.144l-2.569.272.537 5.102 2.568-.27c1.268-.133 2.138-.434 2.591-.893.396-.404.624-.855.519-1.857-.122-1.16-.463-1.627-.935-1.967-.538-.391-1.451-.52-2.711-.387zm4.867 16.504c.499-.582.655-1.279.536-2.414-.118-1.129-.431-1.781-1.072-2.258-.616-.457-1.601-.615-2.927-.477l-2.775.293.652 6.199 2.941-.311c1.28-.132 2.173-.481 2.645-1.032zm-7.171-42.18l.903 8.592 3.003-.316c1.746-.183 2.967-.665 3.623-1.428.694-.811.913-1.781.749-3.346-.164-1.561-.597-2.47-1.496-3.134-.849-.627-2.195-.85-4-.66l-2.782.292z"/><path d="M46.498 46.062c-.908 1.135-1.297 2.41-1.151 3.791.147 1.398.796 2.57 1.933 3.484 1.137.91 2.411 1.297 3.792 1.152 1.418-.15 2.598-.793 3.498-1.906.903-1.111 1.287-2.397 1.138-3.819-.153-1.438-.788-2.62-1.893-3.515-1.104-.896-2.393-1.271-3.831-1.119-1.404.146-2.575.797-3.486 1.932z"/><path d="M57.085 38.795c.337 3.219.735 5.417 1.254 6.918.487 1.404 1.13 2.073 1.943 2.921l.215.224c1.301 1.335 3.01 2.252 5.071 2.731 1.703.393 4.345.873 7.625.529 2.547-.27 4.926-1.182 7.148-2.089 2.261-.926 4.335-2.171 6.167-3.701l.184-.151-1.938-18.423-13.914 1.464.801 7.604 4.882-.513.528 5.026c-.686.732-2.439 1.494-4.81 1.744-1.442.152-2.489-.153-3.194-.931-.76-.842-1.193-2.115-1.404-4.127l-1.381-13.133c-.209-1.991-.051-3.317.518-4.302.531-.907 1.487-1.422 2.93-1.574 1.346-.141 2.35.148 3.075.889.786.796 1.198 1.858 1.376 3.545l.07.66 10.028-1.058-1.169-11.103-.268-.093c-2.33-.802-4.695-1.351-7.03-1.631-2.337-.279-4.698-.296-7.013-.053-3.324.35-6.006 1.05-7.967 2.081-2.188 1.151-3.533 2.458-4.367 4.245-.527 1.127-.851 2.049-.965 3.427-.115 1.428-.025 3.402.292 6.401l1.313 12.473zm-19.695 15.351c1.918-.896 3.397-2.152 4.392-3.727l.164-.265c.619-.998 1.112-1.786 1.294-3.261.191-1.578.45-1.775.308-3.13-.288-2.739-1.021-4.698-2.372-6.357-1.088-1.336-2.57-2.287-4.414-2.836 1.385-.841 2.444-1.979 3.162-3.4.915-1.82 1.215-3.675.969-6.01-.404-3.844-1.672-6.132-4.379-7.9-2.501-1.635-6.293-2.197-11.28-1.672l-15.788 1.662.744 7.071.353.042c.716.083 1.22.312 1.498.678.32.427.533 1.291.692 2.804l1.988 18.896c.159 1.516.131 2.405-.094 2.886-.196.419-.639.747-1.325.976l-.337.111.763 7.252 16.313-1.717c3.282-.345 5.766-1.364 7.349-2.103zm-14.325-29.783l2.507-.263c1.716-.181 2.967.001 3.717.54.783.565 1.163 1.362 1.309 2.746.147 1.404-.188 2.06-.73 2.615-.63.636-1.822 1.051-3.544 1.232l-2.508.264-.751-7.134zm2.503 23.797l-.903-8.592 2.782-.292c1.805-.19 3.151.032 4.001.659.898.664 1.332 1.574 1.496 3.134.165 1.564-.053 2.535-.749 3.346-.657.764-1.877 1.245-3.623 1.428l-3.004.317zm15.997-29.809l.052.284c.077.408.168.772.28 1.241l4.975 21.67.088.381 5.518-.581.441-22.469c.02-.564.03-.977.021-1.433l-.007-.155c-.005-.358-.008-.523-.036-.778-.175-1.667-.78-2.825-1.964-3.756-1.129-.887-2.598-1.245-4.364-1.059-1.742.184-3.087.836-3.995 1.942-.944 1.156-1.285 2.413-1.11 4.076.022.22.053.372.101.637zm-2.822 56.667c-.783-.961-1.837-1.666-3.135-2.092.958-.623 1.7-1.455 2.209-2.465.697-1.387.926-2.789.74-4.557-.309-2.924-1.307-4.74-3.341-6.068-1.796-1.174-4.417-1.504-8.512-1.072l-12.749 1.342.566 5.379.353.041c.508.057.858.215 1.048.467.228.299.381.928.497 2.033l1.478 14.047c.119 1.129.103 1.865-.052 2.191-.134.287-.443.514-.928.676l-.337.111.588 5.586 13.142-1.381c3.93-.414 6.711-1.416 8.273-2.975 1.694-1.699 2.262-3.594 1.95-6.549-.213-2.025-.747-3.437-1.79-4.714zm-14.343-9.504l2.568-.271c1.261-.133 2.173-.002 2.712.387.472.34.813.807.935 1.967.104 1.004-.122 1.455-.519 1.859-.453.459-1.323.76-2.591.893l-2.568.27-.537-5.105zm7.435 16.234c-.471.551-1.364.9-2.645 1.033l-2.941.311-.651-6.199 2.774-.293c1.326-.139 2.311.018 2.927.477.642.477.955 1.129 1.072 2.258.119 1.132-.037 1.831-.536 2.413zm55.512-29.365l-8.962.943.399 3.805c.078.74.094 1.383.042 1.914-.046.521-.157 1.014-.32 1.455l-1.353 3.234-1.994-2.883c-.251-.398-.463-.855-.616-1.355-.163-.51-.28-1.141-.358-1.881l-.4-3.805-8.961.943.561 5.344.317.068c.235.049.472.178.712.389.277.242.58.6.896 1.068l7.203 10.978.391 3.707c.106 1.014.082 1.674-.073 2.02-.131.285-.42.484-.883.607l-.367.102.591 5.605 10.25-1.08-.59-5.605-.379-.021c-.479-.021-.805-.158-.99-.41-.223-.307-.385-.945-.491-1.961l-.39-3.705 4.761-12.238c.212-.523.433-.936.652-1.23.194-.256.397-.432.618-.529l.295-.131-.561-5.348zm-23.261 7.951l.282-.139-.56-5.311-11.366 1.703.507 4.811.308.074c.506.121.859.344 1.087.693.259.391.432 1.115.562 2.354l1.24 11.791c.156 1.479.039 2.465-.374 3.193-.376.656-.85 1.008-1.868 1.117l-.164.016c-1.016.107-1.554-.137-2.059-.703-.558-.625-.876-1.568-1.031-3.045l-1.24-11.793c-.13-1.236-.111-1.982.059-2.416.15-.391.45-.684.922-.906l.285-.135-.508-4.811-11.473.697.559 5.313.305.074c.61.148 1.026.361 1.236.635.234.305.377.832.477 1.781l1.293 12.287c.411 3.912 1.391 6.207 3.379 7.922 1.838 1.588 4.678 2.23 8.586 1.818 3.91-.412 6.553-1.631 8.02-3.566 1.59-2.09 2.069-4.539 1.657-8.451l-1.293-12.289c-.1-.945-.069-1.492.097-1.838.145-.31.509-.606 1.075-.876zm-14.103-16.286c-1.403.147-2.574.798-3.485 1.933-.908 1.135-1.297 2.41-1.151 3.791.147 1.398.796 2.57 1.933 3.484 1.137.91 2.411 1.297 3.792 1.152 1.418-.151 2.598-.793 3.498-1.906.903-1.112 1.287-2.397 1.138-3.82-.153-1.438-.788-2.62-1.893-3.515-1.105-.896-2.393-1.271-3.832-1.119z" fill="#000001"/></svg>