<svg xmlns="http://www.w3.org/2000/svg" width="100" height="100" viewBox="0 0 100 100"><path fill="#4B5251" d="M94.141 71.887c0 4.076-3.335 7.41-7.409 7.41h-25.194c0 3.937 2.963 7.27 2.963 8.893 0 1.618-1.342 2.962-2.963 2.962h-23.711c-1.621 0-2.964-1.344-2.964-2.962 0-1.715 2.964-4.865 2.964-8.893h-25.193c-4.074 0-7.409-3.334-7.409-7.41v-50.386c0-4.074 3.335-7.41 7.409-7.41h74.098c4.074 0 7.409 3.336 7.409 7.41v50.386zm-5.928-50.386c0-.788-.695-1.481-1.481-1.481h-74.098c-.787 0-1.481.693-1.481 1.481v38.53c0 .787.694 1.481 1.481 1.481h74.098c.786 0 1.481-.694 1.481-1.481v-38.53z"/><path fill="#F7E567" d="M34.485 51.3c0 2.919-2.367 5.286-5.286 5.286h-9.251c-2.919 0-5.287-2.367-5.287-5.286v-22.467c0-2.919 2.367-5.286 5.287-5.286h9.251c2.919 0 5.286 2.367 5.286 5.286v22.467zm51.54-19.823c0 2.919-2.367 5.286-5.286 5.286h-37.003c-2.919 0-5.287-2.367-5.287-5.286v-2.643c0-2.919 2.367-5.286 5.287-5.286h37.003c2.919 0 5.286 2.367 5.286 5.286v2.643zm-1.321 13.215c0-2.919-2.367-5.287-5.286-5.287h-35.682c-2.919 0-5.287 2.367-5.287 5.287v7.929c0 2.919 2.367 5.286 5.287 5.286h35.682c2.919 0 5.286-2.367 5.286-5.286v-7.929z"/></svg>