<svg xmlns="http://www.w3.org/2000/svg" width="24" height="24" viewBox="0 0 24 24"><path d="M21.3 19.6c-.3 0-.7.1-.9.3l-5.7-5.7c.5-.6.8-1.3.8-2.2 0-.8-.3-1.6-.8-2.2l4-4c.5.4 1 .6 1.7.6 1.5 0 2.7-1.2 2.7-2.7s-1.3-2.7-2.8-2.7-2.7 1.2-2.7 2.7c0 .6.2 1.2.6 1.7l-4 4c-.6-.5-1.3-.8-2.2-.8-.8 0-1.6.3-2.2.8l-2.5-2.7c.2-.3.3-.6.3-.9 0-.9-.8-1.7-1.7-1.7s-1.8.8-1.8 1.7.8 1.7 1.7 1.7c.4 0 .7-.1 1-.3l2.6 2.6c-.5.6-.8 1.4-.8 2.2 0 .4.1.8.2 1.1l-4 1.8c-.4-.5-1-.9-1.7-.9-1.2.1-2.1 1-2.1 2.1s.9 2.1 2.1 2.1 2.1-.9 2.1-2.1c0-.2 0-.4-.1-.5l4-1.8c.6 1 1.7 1.7 2.9 1.7l.2 2.5c-.7.2-1.2.9-1.2 1.6 0 .9.8 1.7 1.7 1.7s1.7-.8 1.7-1.7c0-.9-.7-1.6-1.5-1.7l-.2-2.5c.6-.1 1.1-.4 1.5-.7l5.7 5.7c-.2.3-.3.6-.3.9 0 .9.8 1.7 1.7 1.7.9 0 1.7-.8 1.7-1.7 0-.9-.8-1.7-1.7-1.7z"/></svg>