<svg xmlns="http://www.w3.org/2000/svg" width="16" height="16" viewBox="0 0 16 16"><path d="M13.5 12.6c-.2 0-.4.1-.5.2l-3.4-3.5c.3-.3.5-.8.5-1.3s-.2-1-.5-1.3l2.4-2.4c.3.2.6.4 1 .4.9 0 1.6-.7 1.6-1.6s-.8-1.6-1.7-1.6c-.9 0-1.6.7-1.6 1.6 0 .4.1.7.4 1l-2.4 2.3c-.4-.3-.8-.4-1.3-.4s-1 .1-1.3.4l-1.5-1.6c.1-.2.2-.4.2-.5 0-.5-.5-1-1-1s-1.1.5-1.1 1 .5 1 1 1c.2 0 .4-.1.6-.2l1.6 1.6c-.4.3-.6.8-.6 1.3 0 .2.1.5.1.7l-2.3 1c-.2-.3-.6-.5-1-.5-.7.1-1.3.6-1.3 1.3 0 .7.5 1.3 1.3 1.3s1.3-.5 1.3-1.3c0-.1 0-.2-.1-.3l2.4-1.1c.4.6 1 1 1.7 1l.1 1.5c-.4.1-.7.5-.7 1s.5 1 1 1 1-.5 1-1-.4-1-.9-1l-.1-1.6c.4 0 .6-.2.9-.4l3.4 3.4c-.1.2-.2.4-.2.5 0 .5.5 1 1 1s1-.5 1-1c.1-.5-.4-.9-1-.9z"/></svg>