<svg xmlns="http://www.w3.org/2000/svg" width="16" height="16" viewBox="0 0 16 16"><path d="M15.87 4.17l-1.04-1.039c-.173-.174-.454-.174-.626 0l-6.204 6.203v1.667h1.666l6.204-6.205c.173-.173.173-.453 0-.626zm-11.87-.17h5v1h-5zm0 3h3v1h-3zm0 3h2v1h-2zm6.75-9h-8.5c-.689 0-1.25.561-1.25 1.25v11.5c0 .689.561 1.25 1.25 1.25h8.5c.689 0 1.25-.561 1.25-1.25v-2.75l-1.5 1v1c0 .276-.224.5-.5.5h-7c-.276 0-.5-.224-.5-.5v-10c0-.276.224-.5.5-.5h7c.276 0 .5.224.5.5v1.906l1.5-1v-1.656c0-.689-.561-1.25-1.25-1.25z"/></svg>