<svg xmlns="http://www.w3.org/2000/svg" viewBox="0 0 100 100" enable-background="new 0 0 100 100"><style type="text/css">.st0{opacity:0.1;}</style><path class="st0" d="M76.7 18.2l6 6-59.4 59.6-6-6 59.4-59.6zm-13.2 33.3l-16.5 16.5h22.8l-6.3-16.5zm-23.4-14.7c-2.3 0-4.3 1.9-4.3 4.3 0 2.3 1.9 4.3 4.3 4.3.8 0 1.5-.2 2.2-.6l1.5-1.5c.4-.6.6-1.4.6-2.2-.1-2.4-2-4.3-4.3-4.3zm35.4 2.7v37h-37l-8.5 8.5h45.5c4.7 0 8.5-3.8 8.5-8.5v-45.5l-8.5 8.5zm-51-14h37l8.5-8.5h-45.5c-4.7 0-8.5 3.8-8.5 8.5v45.5l8.5-8.5v-37zm19.2 17.8l-1.5 1.5c.7-.4 1.2-.9 1.5-1.5z"/></svg>