<svg xmlns="http://www.w3.org/2000/svg" width="100" height="100" viewBox="0 0 100 100"><path fill="#96968F" d="M81.749 82.139c0 1.932-1.581 3.514-3.515 3.514h-66.72c-1.933-.001-3.514-1.583-3.514-3.514v-74.937c0-1.932 1.581-3.514 3.514-3.514h66.722c1.932 0 3.514 1.581 3.514 3.514l-.001 74.937zm-64.965-8.785c0 1.933 1.581 3.515 3.514 3.515h49.154c1.932 0 3.514-1.581 3.514-3.515v-57.369c0-1.932-1.581-3.514-3.514-3.514h-49.155c-1.932 0-3.514 1.581-3.514 3.514l.001 57.369zm47.415-28.684c0 1.932-1.581 3.514-3.514 3.514h-31.621c-1.932 0-3.514-1.581-3.514-3.514s1.581-3.514 3.514-3.514h31.622c1.932 0 3.513 1.581 3.513 3.514zm0-18.446c0 1.932-1.581 3.514-3.514 3.514h-31.621c-1.932 0-3.514-1.581-3.514-3.514s1.581-3.514 3.514-3.514h31.622c1.932 0 3.513 1.581 3.513 3.514zm0 36.892c0 1.932-1.581 3.514-3.514 3.514h-31.621c-1.932 0-3.514-1.581-3.514-3.514s1.581-3.515 3.514-3.515h31.622c1.932.001 3.513 1.583 3.513 3.515z"/><circle fill="#f00" cx="76.833" cy="74.915" r="21"/><path fill="#fff" d="M81.609 74.916l4.98-4.98c1.557-1.556 1.754-3.903.441-5.217-1.313-1.313-3.66-1.115-5.217.441l-4.98 4.98-4.98-4.981c-1.557-1.556-3.903-1.755-5.217-.441-1.313 1.313-1.115 3.661.441 5.216l4.98 4.981-4.98 4.981c-1.557 1.556-1.754 3.903-.441 5.217 1.313 1.313 3.66 1.115 5.217-.441l4.98-4.98 4.98 4.98c1.556 1.557 3.902 1.754 5.215.441 1.313-1.313 1.115-3.661-.44-5.217l-4.979-4.98z"/></svg>