<svg xmlns="http://www.w3.org/2000/svg" width="100" height="100" viewBox="0.5 0.5 100 100" enable-background="new 0.5 0.5 100 100"><path d="M92.48 93.156c0 2.2-1.8 4-4 4h-75.96c-2.2 0-4-1.8-4-4v-85.312c0-2.2 1.8-4 4-4h75.96c2.2 0 4 1.8 4 4v85.312zm-73.96-10c0 2.2 1.8 4 4 4h55.96c2.2 0 4-1.8 4-4v-65.312c0-2.2-1.8-4-4-4h-55.96c-2.2 0-4 1.8-4 4v65.312zm53.98-32.656c0 2.2-1.8 4-4 4h-36c-2.2 0-4-1.8-4-4s1.8-4 4-4h36c2.2 0 4 1.8 4 4zm0-21c0 2.2-1.8 4-4 4h-36c-2.2 0-4-1.8-4-4s1.8-4 4-4h36c2.2 0 4 1.8 4 4zm0 42c0 2.2-1.8 4-4 4h-36c-2.2 0-4-1.8-4-4s1.8-4 4-4h36c2.2 0 4 1.8 4 4z"/></svg>