<svg xmlns="http://www.w3.org/2000/svg" width="24" height="24" viewBox="-37 39 24 24" enable-background="new -37 39 24 24"><style type="text/css">.st0{enable-background:new ;}</style><path class="st0" d="M-18.5 52.8v-4l-1.4 1.5c-1.3-1.3-3.2-1.6-4.9-.9-1.8.8-2.8 2.5-2.7 4.5.1 2 1.4 3.5 3.3 4.1 1.7.5 3.3 0 4.6-1.2.2-.2.3-.3.3-.3s0-.1 0-.1l-1-.9s-.1 0-.1 0-.3.3-.4.4c-.8.7-1.8 1-2.9.7-1.2-.4-2.1-1.4-2.2-2.7-.1-1.3.6-2.5 1.8-3 1.1-.5 2.4-.3 3.3.6l-1.3 1.4h3.6zm-5.7-6c0-.2-.2-.5-.5-.5h-4.1c-.2 0-.5.2-.5.5 0 .2.2.5.5.5h4.1c.3 0 .5-.2.5-.5zm-5 4.8c0 .2.2.5.5.5.1-.3.2-.6.4-.9h-.4c-.3-.1-.5.1-.5.4zm.2 1.8h-.9c-.2 0-.5-.2-.5-.5v-7.4c0-.2.2-.5.5-.5h6.3c.2 0 .5.2.5.5v2.4c.4 0 .8.1 1.1.1v-3.6c0-.2-.2-.5-.5-.5h-8.5c-.2 0-.5.2-.5.5v9.6c0 .2.2.5.5.5h2.1c0-.3-.1-.6-.1-.8v-.3zm-.2-4.2c0 .2.2.5.5.5h1.4c.3-.3.7-.6 1.1-.9h-2.5c-.3 0-.5.2-.5.4z"/></svg>