<svg xmlns="http://www.w3.org/2000/svg" width="100" height="100" viewBox="0 0 100 100"><path d="M50 27.145c-12.661 0-22.924 10.263-22.924 22.924s10.263 22.924 22.924 22.924 22.924-10.263 22.924-22.924-10.263-22.924-22.924-22.924zm11.424 22.494c-1.313 1.313-3.661 1.115-5.216-.441l-2.831-2.831v16.158c0 2.2-1.52 4-3.377 4s-3.377-1.8-3.377-4v-16.157l-2.831 2.831c-1.556 1.556-3.903 1.754-5.216.441s-1.115-3.661.441-5.216l7.983-7.984c.68-.68 1.51-1.083 2.34-1.232.107-.02.211-.047.32-.057.115-.011.227-.003.34-.004.114 0 .225-.007.34.004.109.01.213.037.32.057.83.149 1.66.552 2.34 1.232l7.983 7.983c1.556 1.556 1.754 3.903.441 5.216zm27.092-25.876l-35.052-20.237c-1.905-1.1-5.023-1.1-6.928 0l-35.052 20.237c-1.905 1.1-3.464 3.8-3.464 6v40.474c0 2.2 1.559 4.9 3.464 6l35.052 20.237c1.905 1.1 5.023 1.1 6.928 0l35.052-20.237c1.905-1.1 3.464-3.8 3.464-6v-40.474c0-2.2-1.559-4.9-3.464-6zm-6.536 40.701c0 2.2-1.559 4.9-3.464 6l-21.052 12.154c-1.905 1.1-3.464.2-3.464-2v-24.309c0-2.2 1.559-4.9 3.464-6l.224-.129c-.529-.219-1.037-.539-1.48-.981l-2.831-2.831v16.158c0 2.2-1.52 4-3.377 4s-3.377-1.8-3.377-4v-16.158l-2.831 2.831c-.442.442-.951.762-1.48.981l.224.129c1.905 1.1 3.464 3.8 3.464 6v24.309c0 2.2-1.559 3.1-3.464 2l-21.052-12.154c-1.905-1.1-3.464-3.8-3.464-6v-24.309c0-2.2 1.559-3.1 3.464-2l16.241 9.376c-.029-1.068.4-2.217 1.292-3.108l3.413-3.413-16.945-9.783c-1.905-1.1-1.905-2.9 0-4l21.052-12.155c1.905-1.1 5.023-1.1 6.928 0l21.052 12.155c1.905 1.1 1.905 2.9 0 4l-16.947 9.783 3.413 3.413c.892.892 1.321 2.04 1.292 3.108l16.241-9.376c1.905-1.1 3.464-.2 3.464 2v24.309z"/></svg>