<svg xmlns="http://www.w3.org/2000/svg" width="100" height="100" viewBox="0 0 100 100"><path fill="#fff" d="M50.407 68.131"/><path d="M94.643 36.128l-12.944-7.474c-2.032-1.173-5.356-1.173-7.389 0l-3.977 2.296v-7.094c0-2.346-1.662-5.225-3.694-6.398l-12.945-7.473c-2.033-1.173-5.356-1.173-7.389 0l-12.945 7.474c-2.032 1.173-3.693 4.052-3.693 6.398v7.093l-3.978-2.296c-2.032-1.173-5.355-1.173-7.388 0l-12.945 7.474c-2.032 1.173-3.694 4.052-3.694 6.398v14.948c0 2.346 1.662 5.225 3.694 6.397l12.945 7.474c2.032 1.174 5.355 1.174 7.388 0l3.979-2.297v7.096c0 2.346 1.661 5.225 3.693 6.397l12.945 7.474c2.032 1.174 5.356 1.174 7.388 0l12.945-7.474c2.032-1.173 3.694-4.052 3.694-6.397v-7.095l3.977 2.296c2.032 1.172 5.356 1.172 7.388 0l12.945-7.475c2.032-1.173 3.694-4.053 3.694-6.398v-14.946c0-2.346-1.662-5.225-3.694-6.398zm-29.154-7.239v4.858l-4.123 2.381c-2.032 1.173-3.694 4.052-3.694 6.398v2.26l-2.041 1.178c-2.032 1.173-3.694.213-3.694-2.133v-7.118c0-2.346 1.662-5.225 3.694-6.398l6.164-3.559c2.032-1.173 3.694-.213 3.694 2.133zm-25.347-9.753l6.164-3.559c2.032-1.173 5.355-1.173 7.389 0l6.164 3.559c2.031 1.173 2.031 3.092 0 4.265l-6.164 3.559c-2.033 1.173-5.356 1.173-7.389 0l-6.164-3.559c-2.033-1.173-2.033-3.092 0-4.265zm-5.631 9.753c0-2.346 1.662-3.306 3.693-2.133l6.164 3.559c2.032 1.173 3.694 4.052 3.694 6.398v7.118c0 2.346-1.662 3.306-3.694 2.133l-2.04-1.178v-2.26c0-2.346-1.661-5.225-3.693-6.398l-4.124-2.381v-4.858zm-14.452 33.612c0 2.346-1.662 3.307-3.694 2.133l-6.165-3.559c-2.031-1.174-3.693-4.053-3.693-6.398v-7.118c0-2.346 1.662-3.306 3.693-2.133l6.164 3.559c2.032 1.173 3.694 4.052 3.694 6.399v7.117zm-1.757-16.871l-6.164-3.559c-2.032-1.173-2.032-3.092 0-4.265l6.164-3.559c2.032-1.173 5.355-1.173 7.388 0l3.978 2.296 2.186 1.262c2.032 1.173 2.032 3.092 0 4.265l-.976.563s0 0 0 .001l-5.188 2.995c-2.033 1.174-5.356 1.174-7.388.001zm9.325 19.004c-2.032 1.174-3.694.213-3.694-2.133v-7.117c0-2.347 1.662-5.226 3.694-6.399l6.164-3.559c2.031-1.173 3.693-.213 3.693 2.133v4.858l-4.123 2.381c-2.032 1.174-3.693 4.053-3.693 6.398v2.259l-2.041 1.179zm20.436 16.537c0 2.346-1.662 3.307-3.694 2.133l-6.164-3.559c-2.031-1.173-3.693-4.053-3.693-6.398v-7.117c0-2.346 1.662-3.307 3.693-2.133l6.164 3.559c2.032 1.173 3.694 4.052 3.694 6.398v7.117zm-1.757-16.872l-5.188-2.995-.573-.33-.403-.233c-.254-.146-.476-.305-.666-.472-1.333-1.169-1.111-2.766.667-3.793l2.186-1.262v-.001l3.978-2.297c.079-.046.172-.078.255-.12.001 0 .001 0 .001 0 1.962-.996 4.913-.996 6.875 0 0 0 .001 0 .001-.001.084.043.177.075.257.121l6.164 3.56c2.031 1.172 2.031 3.092 0 4.265l-.977.563-5.188 2.995c-2.034 1.173-5.357 1.173-7.389 0zm19.183 9.048c0 2.346-1.662 5.225-3.694 6.397l-6.164 3.56c-2.032 1.172-3.694.213-3.694-2.134v-7.118c0-2.346 1.662-5.225 3.694-6.397l6.145-3.548h.001l.02-.012c.508-.293.992-.453 1.434-.491.884-.077 1.593.333 1.969 1.136.188.402.291.902.291 1.488v7.119zm10.578-10.846c0 2.346-1.662 3.307-3.695 2.133l-2.038-1.177v-2.261c0-2.346-1.662-5.225-3.694-6.398l-4.125-2.382v-4.857c0-1.759.935-2.739 2.259-2.625.441.039.927.198 1.435.492l.02.011 6.145 3.548c2.033 1.173 3.695 4.052 3.695 6.398v7.118zm-1.756-16.871l-6.163-3.559c-2.033-1.173-2.033-3.092 0-4.265l6.163-3.559c2.032-1.173 5.356-1.173 7.388 0l6.164 3.559c2.032 1.173 2.032 3.092 0 4.265l-6.164 3.559c-2.032 1.173-5.357 1.173-7.388 0zm19.182 9.047c0 2.346-1.662 5.226-3.694 6.398l-6.164 3.559c-2.032 1.174-3.694.213-3.694-2.133v-7.117c0-2.347 1.662-5.226 3.694-6.399l6.164-3.559c2.032-1.173 3.694-.213 3.694 2.133v7.118z"/></svg>