<svg xmlns="http://www.w3.org/2000/svg" width="100" height="100" viewBox="0 0 100 100"><path d="M53.8 4.2c-1.5-.8-5.1-.7-6.5 0l-36.6 19c-1.6.9-2.7 4.7-2.7 5.8v39.9c0 1.6 1.2 5 2.7 5.9l36.6 20.9c1.4.8 3.9.8 5.4 0l36.6-20.9c1.2-.7 2.7-4.3 2.7-5.9v-39.9c0-2-1.3-5.1-2.7-5.9l-35.5-18.9zm-37.7 65.9c-.9-.5-1.7-1.8-1.7-2.9v-32.7c0-1.1.8-1.5 1.7-1l28.7 16.4c.9.5 1.7 1.8 1.7 2.9v32.7c0 1.1-.8 1.5-1.7 1l-28.7-16.4zm37.6-27.1c-2.3 1.3-4.1 1.3-6.5 0l-27.6-15.3c-.9-.5-.9-1.4 0-1.9l28.8-14.3c.9-.5 2.5-.5 3.4 0l28.7 14.3c.9.5.9 1.4 0 1.9l-26.8 15.3zm1.5 43.5c-.9.5-1.7.1-1.7-1v-32.6c0-1.1.8-2.4 1.7-2.9l28.7-16.3c.9-.5 1.7-.1 1.7 1v32.7c0 1.1-.8 2.4-1.7 2.9l-28.7 16.2z"/></svg>