<svg xmlns="http://www.w3.org/2000/svg" width="22" height="22" viewBox="0 0 22 22"><path d="M17.8 14.2h-.4v-4.6c0-.2-.2-.4-.4-.4h-2.5v-4.5c0-.2-.2-.4-.4-.4h-6c-.2 0-.4.2-.4.4v4.6h-2.6c-.2 0-.4.2-.4.4v4.6h-.5c-.2 0-.4.2-.4.4v2.6c0 .2.2.4.4.4h1.8c.2 0 .4-.2.4-.4v-.4h3.2v.4c0 .2.2.4.4.4h1.8c.2 0 .4-.2.4-.4v-.4h3.2v.4c0 .2.2.4.4.4h1.8c.2 0 .4-.2.4-.4v-2.6c.2-.3 0-.5-.2-.5zm-1.4-4.1v4.1h-5v-4.1h5zm-7.9-5h5v4.1h-5s0-4.1 0-4.1zm-2.9 5h5v4.1h-5s0-4.1 0-4.1zm11.7 6.8h-.9v-.4c0-.2-.2-.4-.4-.4h-4.1c-.2 0-.4.2-.4.4v.4h-.9v-.4c0-.2-.2-.4-.4-.4h-4.2c-.2 0-.4.2-.4.4v.4h-.9v-1.8h12.6s0 1.8 0 1.8z"/></svg>