<svg xmlns="http://www.w3.org/2000/svg" width="100" height="100" viewBox="0 0 100 100"><path fill-rule="evenodd" clip-rule="evenodd" d="M76.401 24.903c-3.048 2.637-33.927 29.343-46.295 40.073-.545.473-.976.494-1.603.232-5.445-2.258-10.903-4.494-16.368-6.712-1.223-.495-2.048-1.251-2.13-2.625-.083-1.387.688-2.203 1.824-2.858 16.057-9.242 65.028-37.487 73.458-42.369 1.191-.689 2.344-.975 3.549-.096 1.006.734 1.3 1.76 1.107 2.943-1.596 9.576-10.776 64.803-11.374 68.242-.364 2.108-2.162 3.016-4.245 2.169-6.313-2.569-12.629-5.137-18.922-7.748-.737-.303-1.134-.244-1.65.402-3.265 4.055-6.585 8.073-9.89 12.093-1.01 1.229-2.118 1.61-3.328 1.177-1.286-.466-1.945-1.463-1.949-3.055-.01-4.828-.019-9.654.022-14.479.003-.457.216-.996.505-1.353 12.108-14.873 37.08-45.461 37.432-45.901-.044-.045-.095-.085-.143-.135z"/></svg>