<svg xmlns="http://www.w3.org/2000/svg" width="100" height="100" viewBox="0 0 100 100"><path fill-rule="evenodd" clip-rule="evenodd" d="M10 26.32c.278-7.46 4.456-14.438 12.97-18.092 8.346-3.589 16.362-2.295 23.268 3.794 3.225 2.845 6.153 6.024 9.2 9.069 8.544 8.534 17.073 17.072 25.616 25.612 1.729 1.73 1.741 2.37.092 4.167-2.641 2.885-3.231 2.898-5.986.145-10.914-10.93-21.828-21.862-32.738-32.795-4.267-4.277-9.32-5.885-15.149-4.078-9.887 3.076-13.355 15.881-6.328 23.513 4.018 4.364 8.314 8.477 12.507 12.667 10.745 10.764 21.51 21.499 32.244 32.265 2.666 2.681 5.753 4.148 9.609 3.832 3.835-.311 7.072-3.539 7.387-7.367.295-3.604-.869-6.646-3.39-9.17-10.995-11.022-22.017-22.023-33.011-33.037-.99-.986-2.109-1.635-3.541-1.674-2.942-.083-4.813 2.355-3.803 5.138.346.952 1.018 1.856 1.741 2.585 7.358 7.416 14.76 14.794 22.141 22.18 1.652 1.647 1.694 2.276.118 3.98-.664.71-1.412 1.341-2.168 1.954-.818.659-1.649.554-2.418-.151-.211-.191-.408-.391-.616-.59-7.468-7.472-14.918-14.971-22.431-22.408-3.125-3.094-4.564-6.746-3.726-11.046 1.698-8.739 11.669-11.489 18.043-6.692.651.491 1.243 1.05 1.822 1.626 10.813 10.804 21.597 21.628 32.438 32.404 3.972 3.953 6.197 8.576 6.106 14.239-.155 9.545-8.5 16.55-17.959 15.196-4.497-.645-8.219-2.618-11.397-5.788-14.612-14.592-29.224-29.18-43.834-43.77-4.388-4.388-6.836-9.617-6.807-17.708z"/></svg>