<svg xmlns="http://www.w3.org/2000/svg" width="100" height="100" viewBox="34.5 66.5 100 100" enable-background="new 34.5 66.5 100 100"><path opacity=".7" d="M130.414 118.648c-7.435-15.844-26.306-22.663-42.15-15.227-15.842 7.434-22.658 26.307-15.223 42.149 7.433 15.843 26.304 22.659 42.148 15.223 15.842-7.434 22.661-26.3 15.225-42.145zm-17.918 36.41c-12.676 5.947-27.771.495-33.719-12.181-5.947-12.673-.496-27.769 12.181-33.717 12.675-5.946 27.77-.495 33.718 12.179 5.948 12.676.496 27.769-12.18 33.719zm-10.958-32.792c2.714 0 5.178 1.104 6.957 2.884l3.916-3.914c-2.784-2.783-6.628-4.502-10.873-4.502-8.492 0-15.376 6.881-15.376 15.373 0 8.491 6.884 15.376 15.374 15.376 4.247 0 8.091-1.721 10.875-4.506l-3.916-3.911c-1.779 1.78-4.243 2.883-6.957 2.883-4.612 0-8.48-3.173-9.546-7.451h12.103v-4.778h-12.103c1.066-4.28 4.934-7.454 9.546-7.454z"/><path opacity=".4" d="M64.465 124.087c-8.468-.951-16.259-6.147-20.145-14.428-5.946-12.676-.492-27.77 12.181-33.718 12.676-5.948 27.77-.496 33.719 12.18 1.075 2.289 1.771 4.66 2.127 7.039 2.022-.513 4.114-.856 6.254-1.029-.447-2.941-1.313-5.87-2.644-8.7-7.435-15.845-26.304-22.662-42.15-15.227-15.839 7.433-22.657 26.303-15.223 42.149 4.842 10.313 14.528 16.797 25.071 18.017.096-2.145.373-4.243.81-6.283zm3.605-9.871c1.624-3.049 3.649-5.576 3.649-5.576-1.75 0-1.924.091-4.639.091-4.611 0-8.479-3.174-9.544-7.451h12.101v-4.78h-12.1c1.064-4.275 4.933-7.45 9.544-7.45 2.715 0 5.178 1.102 6.958 2.881l3.915-3.913c-2.784-2.782-6.628-4.502-10.873-4.502-8.491 0-15.375 6.882-15.375 15.375 0 8.488 6.884 15.373 15.373 15.373.335-.001.66-.03.991-.048z"/></svg>