<svg xmlns="http://www.w3.org/2000/svg" viewBox="0 0 404.654 98.179" enable-background="new 0 0 404.654 98.179"><path d="M169.148 27.639c-3.165-3.718-8.773-5.684-16.216-5.684h-22.25c-1.521 0-2.817 1.107-3.054 2.609l-8.997 57.053c-.177 1.126.693 2.144 1.832 2.144h10.624c1.521 0 2.816-1.107 3.054-2.61l2.428-15.392c.237-1.503 1.532-2.61 3.053-2.61h7.041c14.656 0 23.114-7.093 25.325-21.15.994-6.147.039-10.978-2.84-14.36zm-13.649 15.154c-1.216 7.987-7.316 7.987-13.215 7.987h-3.357l2.354-14.912c.142-.901.919-1.565 1.832-1.565h1.539c4.016 0 7.81 0 9.765 2.288 1.171 1.369 1.525 3.397 1.082 6.202zm63.936-.256h-10.654c-.913 0-1.69.664-1.832 1.566l-.468 2.979-.745-1.079c-2.307-3.349-7.45-4.468-12.585-4.468-11.77 0-21.826 8.92-23.783 21.43-1.018 6.241.427 12.206 3.966 16.369 3.251 3.825 7.891 5.417 13.419 5.417 9.488 0 14.75-6.095 14.75-6.095l-.476 2.961c-.178 1.126.692 2.145 1.832 2.145h9.595c1.521 0 2.816-1.107 3.053-2.609l5.76-36.472c.178-1.126-.692-2.144-1.832-2.144zm-14.848 20.738c-1.029 6.088-5.861 10.174-12.025 10.174-3.09 0-5.564-.994-7.154-2.876-1.576-1.866-2.169-4.524-1.669-7.484.959-6.034 5.87-10.252 11.94-10.252 3.025 0 5.482 1.003 7.103 2.903 1.631 1.914 2.272 4.589 1.805 7.535zm71.593-20.738h-10.709c-1.024 0-1.982.508-2.557 1.356l-14.772 21.757-6.26-20.907c-.392-1.308-1.596-2.205-2.961-2.205h-10.527c-1.271 0-2.166 1.25-1.756 2.454l11.792 34.612-11.091 15.649c-.87 1.228.008 2.927 1.513 2.927h10.698c1.014 0 1.964-.497 2.541-1.331l35.614-51.4c.852-1.23-.028-2.912-1.525-2.912z" fill="#fff" opacity=".8"/><path d="M327.844 27.639c-3.165-3.718-8.773-5.684-16.216-5.684h-22.251c-1.521 0-2.817 1.107-3.053 2.609l-8.997 57.053c-.177 1.126.693 2.144 1.832 2.144h11.416c1.065 0 1.972-.775 2.138-1.827l2.551-16.175c.237-1.503 1.532-2.61 3.054-2.61h7.041c14.656 0 23.114-7.093 25.325-21.15.994-6.147.039-10.978-2.84-14.36zm-13.648 15.154c-1.216 7.987-7.316 7.987-13.216 7.987h-3.357l2.354-14.912c.143-.901.919-1.565 1.832-1.565h1.539c4.016 0 7.81 0 9.765 2.288 1.171 1.369 1.525 3.397 1.083 6.202zm63.935-.256h-10.654c-.913 0-1.69.664-1.832 1.566l-.469 2.979-.745-1.079c-2.307-3.349-7.45-4.468-12.585-4.468-11.77 0-21.826 8.92-23.783 21.43-1.018 6.241.427 12.206 3.966 16.369 3.252 3.825 7.891 5.417 13.419 5.417 9.488 0 14.75-6.095 14.75-6.095l-.476 2.961c-.178 1.126.692 2.145 1.832 2.145h9.595c1.521 0 2.816-1.107 3.053-2.609l5.76-36.472c.179-1.126-.691-2.144-1.831-2.144zm-14.848 20.738c-1.029 6.088-5.862 10.174-12.025 10.174-3.091 0-5.564-.994-7.155-2.876-1.576-1.866-2.169-4.524-1.669-7.484.96-6.034 5.87-10.252 11.94-10.252 3.025 0 5.482 1.003 7.103 2.903 1.632 1.914 2.273 4.589 1.806 7.535zm39.516-41.319h-10.278c-.913 0-1.69.665-1.832 1.567l-9.132 58.097c-.177 1.125.693 2.143 1.832 2.143h9.184c1.521 0 2.816-1.107 3.053-2.609l9.004-57.053c.179-1.127-.691-2.145-1.831-2.145z" opacity=".4" fill="#fff"/><path fill="#fff" opacity=".75" d="M31.273 25.045c.201-1.276 1.02-2.322 2.124-2.85.501-.24 1.062-.374 1.649-.374h23.919c2.834 0 5.475.186 7.891.575.69.111 1.362.239 2.015.383.652.145 1.286.307 1.899.486.307.09.608.184.905.282 1.186.394 2.29.858 3.307 1.397 1.198-7.637-.008-12.834-4.139-17.541-4.549-5.183-12.765-7.403-23.277-7.403h-30.515c-2.149 0-3.978 1.563-4.313 3.685l-12.705 80.574c-.251 1.59.978 3.027 2.587 3.027h18.838l4.732-30.006 5.083-32.235z"/><path fill="#fff" opacity=".4" d="M74.981 24.944c-.091.582-.193 1.175-.312 1.787-4.023 20.66-17.792 27.804-35.376 27.804h-8.953c-2.148 0-3.962 1.563-4.297 3.686l-4.585 29.065-1.3 8.245c-.219 1.391.856 2.648 2.264 2.648h15.878c1.879 0 3.48-1.368 3.772-3.224l.156-.807 2.991-18.968.193-1.048c.293-1.857 1.893-3.224 3.772-3.224h2.375c15.383 0 27.428-6.25 30.947-24.324 1.471-7.552.711-13.856-3.179-18.288-1.175-1.34-2.639-2.448-4.346-3.352z"/><path fill="#fff" d="M70.77 23.265c-.613-.179-1.246-.341-1.899-.486-.653-.145-1.324-.272-2.015-.383-2.416-.389-5.058-.575-7.891-.575h-23.919c-.587 0-1.147.134-1.649.374-1.103.528-1.922 1.574-2.124 2.85l-5.083 32.234-.147.941c.335-2.122 2.149-3.685 4.297-3.685h8.953c17.584 0 31.353-7.144 35.376-27.804.119-.612.221-1.205.312-1.787-1.016-.538-2.12-1.003-3.307-1.397-.296-.098-.597-.192-.904-.282z"/></svg>