<svg xmlns="http://www.w3.org/2000/svg" viewBox="-428 261 102 40" enable-background="new -428 261 102 40"><style type="text/css">.st0{opacity:0.5;} .st1{fill:#CCCCCC;} .st2{fill:#999999;}</style><path d="M-350.2 273.5h-5.6c-.4 0-.7.3-.8.7l-2.2 14.2c0 .3.2.5.5.5h2.8c.3 0 .5-.2.5-.5l.6-4c.1-.4.4-.7.8-.7h1.8c3.7 0 5.8-1.8 6.3-5.3.2-1.5 0-2.7-.7-3.6-.8-.8-2.2-1.3-4-1.3zm.6 5.2c-.3 2-1.8 2-3.3 2h-.8l.6-3.7c0-.2.2-.4.5-.4h.4c1 0 1.9 0 2.4.6.2.3.3.8.2 1.5z"/><path class="st0" d="M-389.8 273.5h-5.6c-.4 0-.7.3-.8.7l-2.2 14.2c0 .3.2.5.5.5h2.7c.4 0 .7-.3.8-.7l.6-3.8c.1-.4.4-.7.8-.7h1.8c3.7 0 5.8-1.8 6.3-5.3.2-1.5 0-2.7-.7-3.6-1-.8-2.4-1.3-4.2-1.3zm.6 5.2c-.3 2-1.8 2-3.3 2h-.8l.6-3.7c0-.2.2-.4.5-.4h.4c1 0 1.9 0 2.4.6.2.3.3.8.2 1.5zm16-.1h-2.7c-.2 0-.4.2-.5.4l-.1.7-.2-.3c-.6-.8-1.9-1.1-3.1-1.1-2.9 0-5.4 2.2-5.9 5.3-.3 1.6.1 3 1 4.1.8 1 2 1.4 3.3 1.4 2.4 0 3.7-1.5 3.7-1.5l-.1.7c0 .3.2.5.5.5h2.4c.4 0 .7-.3.8-.7l1.4-9.1c0-.1-.2-.4-.5-.4zm-3.7 5.2c-.3 1.5-1.5 2.5-3 2.5-.8 0-1.4-.2-1.8-.7-.4-.5-.5-1.1-.4-1.9.2-1.5 1.5-2.6 3-2.6.8 0 1.4.3 1.8.7.3.6.5 1.3.4 2z"/><path d="M-333.6 278.6h-2.7c-.2 0-.4.2-.5.4l-.1.7-.2-.3c-.6-.8-1.9-1.1-3.1-1.1-2.9 0-5.4 2.2-5.9 5.3-.3 1.6.1 3 1 4.1.8 1 2 1.4 3.3 1.4 2.4 0 3.7-1.5 3.7-1.5l-.1.7c0 .3.2.5.5.5h2.4c.4 0 .7-.3.8-.7l1.4-9.1c0-.1-.2-.4-.5-.4zm-3.7 5.2c-.3 1.5-1.5 2.5-3 2.5-.8 0-1.4-.2-1.8-.7-.4-.5-.5-1.1-.4-1.9.2-1.5 1.5-2.6 3-2.6.8 0 1.4.3 1.8.7.3.6.5 1.3.4 2z"/><path class="st0" d="M-359.1 278.6h-2.7c-.3 0-.5.1-.6.3l-3.7 5.4-1.6-5.2c-.1-.3-.4-.6-.7-.6h-2.6c-.3 0-.5.3-.4.6l2.9 8.6-2.8 3.9c-.2.3 0 .7.4.7h2.7c.3 0 .5-.1.6-.3l8.9-12.8c.2-.2 0-.6-.4-.6z"/><path d="M-330.5 273.9l-2.3 14.5c0 .3.2.5.5.5h2.3c.4 0 .7-.3.8-.7l2.2-14.2c0-.3-.2-.5-.5-.5h-2.6c-.2 0-.3.1-.4.4zm-77.9 8.6c.5-.8.8-1.8 1-2.8.2-1 .2-1.8.1-2.6s-.4-1.4-.9-2c-.3-.3-.6-.6-1.1-.8.2-1 .1-1.8 0-2.5-.2-.7-.5-1.3-1-1.9-1.1-1.2-3-1.8-5.8-1.8h-7.6c-.5 0-1 .4-1.1.9l-3.2 20.1c0 .2 0 .4.1.5.1.1.3.2.5.2h4.7l-.3 2.1c0 .2 0 .3.1.4.1.1.3.2.4.2h4c.5 0 .8-.3.9-.8v-.2l.7-4.7v-.3c.1-.5.5-.8 1-.8h.6c2 0 3.7-.5 5-1.3.8-.5 1.4-1.2 1.9-1.9z"/><path class="st1" d="M-420.2 274.3c.1-.3.3-.6.5-.7.1-.1.3-.1.4-.1h6c.7 0 1.4 0 2 .1.2 0 .3.1.5.1s.3.1.5.1c.1 0 .2 0 .2.1.3.1.6.2.8.3.3-1.9 0-3.2-1-4.4-1.1-1.3-3.2-1.8-5.8-1.8h-7.6c-.5 0-1 .4-1.1.9l-3.2 20.1c-.1.4.2.8.6.8h4.7l1.2-7.5 1.3-8z"/><path class="st2" d="M-410.3 273.8c-.2 0-.3-.1-.5-.1s-.3-.1-.5-.1c-.6-.1-1.3-.1-2-.1h-6c-.1 0-.3 0-.4.1-.3.1-.5.4-.5.7l-1.3 8.1v.2c.1-.5.5-.9 1.1-.9h2.2c4.4 0 7.8-1.8 8.8-6.9 0-.2.1-.3.1-.4-.3-.1-.5-.3-.8-.3-.1-.2-.1-.3-.2-.3z"/></svg>