<svg xmlns="http://www.w3.org/2000/svg" viewBox="582 309 96 67.9" enable-background="new 582 309 96 67.9"><style type="text/css">.st0{fill:#F7F6F4;} .st1{fill:#053385;} .st2{fill:#199DDB;}</style><path class="st0" d="M586 309h88c2.2 0 4 1.8 4 4v59.9c0 2.2-1.8 4-4 4h-88c-2.2 0-4-1.8-4-4v-59.9c0-2.2 1.8-4 4-4z"/><path class="st1" d="M634.2 340.9l-9.2 13.8c-.1.2-.4.3-.7.3h-2.8c-.4 0-.6-.4-.4-.8l2.9-4.1-3-9.4c-.1-.3.1-.6.5-.6h2.7c.4 0 .7.2.8.6l1.6 5.8 3.8-6c.1-.2.4-.4.7-.4h2.8c.3 0 .5.4.3.8zm-16.9 10.1h-2.5c-.3 0-.5-.3-.5-.6l.1-.8s-1.4 1.6-3.8 1.6c-1.4 0-2.6-.4-3.5-1.4-.9-1.1-1.3-2.7-1-4.3.5-3.3 3.1-5.6 6.2-5.6 1.3 0 2.7.2 3.3 1.1l.2.3.1-.8c0-.2.2-.4.5-.4h2.8c.3 0 .5.3.5.6l-1.5 9.7c-.2.3-.5.6-.9.6zm-2.5-7.4c-.4-.5-1.1-.7-1.8-.7-1.6 0-2.8 1-3.1 2.6-.1.8 0 1.5.4 2s1.1.8 1.9.8c1.6 0 2.8-1.1 3.1-2.7.1-.8-.1-1.5-.5-2zm-14.5 2.2h-1.8c-.4 0-.7.3-.8.7l-.6 3.9c-.1.4-.4.7-.8.7h-2.7c-.3 0-.5-.3-.5-.6l2.3-14.8c.1-.4.4-.7.8-.7h5.8c1.9 0 3.4.5 4.2 1.5.7.9 1 2.2.7 3.8-.7 3.6-2.9 5.5-6.6 5.5zm2-7c-.5-.6-1.5-.6-2.5-.6h-.4c-.2 0-.4.2-.5.4l-.6 3.9h.9c1.5 0 3.1 0 3.4-2.1.1-.7 0-1.2-.3-1.6z"/><path class="st2" d="M664.7 350.3c-.1.4-.4.7-.8.7h-2.4c-.3 0-.5-.3-.5-.6l2.4-15c0-.2.2-.4.5-.4h2.7c.3 0 .5.3.5.6l-2.4 14.7zm-6.4.7h-2.5c-.3 0-.5-.3-.5-.6l.1-.8s-1.4 1.6-3.8 1.6c-1.4 0-2.6-.4-3.5-1.4-.9-1.1-1.3-2.7-1-4.3.5-3.3 3.1-5.5 6.2-5.5 1.3 0 2.7.2 3.3 1.1l.2.3.1-.8c0-.2.2-.4.5-.4h2.8c.3 0 .5.3.5.6l-1.5 9.7c-.1.2-.5.5-.9.5zm-2.5-7.4c-.4-.5-1.1-.8-1.8-.8-1.6 0-2.8 1.1-3.1 2.7-.1.8 0 1.5.4 2s1.1.8 1.9.8c1.6 0 2.8-1.1 3.1-2.7.1-.8 0-1.5-.5-2zm-14.5 2.2h-1.8c-.4 0-.7.3-.8.7l-.7 4c0 .3-.3.5-.6.5h-3c-.3 0-.5-.3-.5-.6l2.3-14.8c.1-.4.4-.7.8-.7h5.8c1.9 0 3.4.5 4.2 1.5.7.9 1 2.2.7 3.8-.4 3.7-2.6 5.6-6.4 5.6zm2-7c-.5-.6-1.5-.6-2.5-.6h-.4c-.2 0-.4.2-.5.4l-.6 3.9h.9c1.5 0 3.1 0 3.4-2.1.1-.7 0-1.2-.3-1.6z"/></svg>