<svg xmlns="http://www.w3.org/2000/svg" width="100" height="100" viewBox="0 0 100 100"><path d="M85.2 12.8c-2.2-2.2-5.4-2.2-7.6 0l-64.8 64.8c-2.2 2.2-2.2 5.4 0 7.6s5.4 2.2 7.6 0l64.8-64.8c2.1-2.2 2.1-5.4 0-7.6zm-14.6 41.6c-9.2 0-16.2 7-16.2 16.2s7 16.2 16.2 16.2 16.2-7 16.2-16.2-7-16.2-16.2-16.2zm0 21.6c-3.2 0-5.4-2.2-5.4-5.4s2.2-5.4 5.4-5.4 5.4 2.2 5.4 5.4-2.2 5.4-5.4 5.4zm-43.2-32.4c9.2 0 16.2-7 16.2-16.2s-7-16.2-16.2-16.2-16.2 7-16.2 16.2 7 16.2 16.2 16.2zm0-21.6c3.2 0 5.4 2.2 5.4 5.4s-2.2 5.4-5.4 5.4-5.4-2.2-5.4-5.4 2.2-5.4 5.4-5.4z"/></svg>