<svg xmlns="http://www.w3.org/2000/svg" width="100" height="100" viewBox="0 0 100 100"><path fill="#FCE666" d="M22.46 42.079l.299-10.603 15.484-5.833 10.963 3.414 28.857 10.558-28.777 14.138-26.826-11.674z"/><path fill="#333" d="M37.4 45.95l4.927-2.111v-7.742l5.631-2.111v-2.111l-10.558 4.223v9.852zm52.084-15.484l-30.264-9.15-9.15 7.742-8.446-7.039-30.265 12.67 10.558 8.446-9.854 15.484 30.264 12.669 7.741-16.188 6.334 14.78 31.672-16.892-9.149-13.372c.001 0 10.559-9.15 10.559-9.15zm-39.415 22.523l-25.337-11.261 1.408-.703v-8.446l11.965-4.927 9.15 3.519 2.815-1.408 27.45 9.853-27.451 13.373zm0 9.15l-5.631 13.373-21.115-9.151v11.261l26.746 11.965 30.264-14.78v-14.076l-25.337 13.373s-4.927-11.965-4.927-11.965zm14.78-26.747l-9.9 4.162v9.853l9.9-4.865s0-9.15 0-9.15z"/></svg>