<svg xmlns="http://www.w3.org/2000/svg" viewBox="0 0 130.8 135" enable-background="new 0 0 130.8 135"><style type="text/css">.st0{opacity:0.7;}</style><path class="st0" d="M60 80.3l-5.5-4.6s-2.6-1.6-4.6 1.2l-.3.6s6.5 6.3 11.9 12.7c4.7 5.5 8.3 11.2 8.3 11.2l18.5-2.6s-.1-5.7 1.3-12.2c.6-2.5.7-5.5.4-8.2-.3-4.3-1.7-8.6-3.3-9.2-2.6-.9-3.3.1-2.9 2.2l.1 2.5h-2.3s-.1-6.5-3.5-6.5c-3.3.1-2.2 5.8-2.2 5.8h-2.1s.3-6.1-3.1-6.1-2.6 7.1-2.6 7.1h-2l-2.7-17.6s-.1-2-2.4-1.7c-2.3.3-2 3.8-2 3.8l4 25.8-2.7-.1-.3-4.1z"/><path d="M92.6 14l-15.2 1.6s-1.4-16.3-19-14c-14.5 1.8-14.7 17.4-14.7 17.4l-12.6 1.2 6.6 64.1 14.3-1.5c-1.4-1.4-2.7-2.6-4-3.7 0 0-2-2.3 1.3-5.1s6.8-.4 6.8-.4l3.2 2.6-2.4-16.8c-.1 0-1.5-6.1 4-7.2 0 0 4.5-.6 5.2 3.8l1.7 9.9s3.6-3.2 7.1.4c0 0 3.9-3.7 7.7.7 0 0 4.8-3.9 8.2 3 1.3 2.6 1.8 5.8 1.9 8.7l7-.7-7.1-64zm-47.9 4.5s1.1-12.1 9.2-15c0 0-6.8 6.1-6.3 14.7l-2.9.3zm3.9-.4s.7-14.2 10.1-15.3c9.1-1.1 13.7 11.3 13.7 13.1l-23.8 2.2zm25.2-2.6c-3.3-11.6-11.1-13.5-11.1-13.5 11.1.1 13.6 13.2 13.6 13.2l-2.5.3zm-72.3 93c1-.3 2.2-.4 3.7-.4 2 0 3.8.5 5 1.6 1.1 1.1 1.6 2.7 1.6 4.7s-.5 3.5-1.4 4.6c-1.2 1.7-3.3 2.5-5.3 2.5-.4 0-.8 0-1.1 0v9.2h-2.5v-22.2zm2.5 10.8c.3 0 .6.1 1 .1 2.5 0 4.2-1.6 4.2-4.8 0-2.3-.9-4.4-3.8-4.4-.6 0-1.1.1-1.4.2v8.9zm10.7-10.8c1.1-.3 2.4-.4 3.7-.4 2.2 0 3.9.5 5 1.6s1.6 2.6 1.6 4.4c0 2.9-1.3 4.7-3.6 5.8v.1c1.6.5 2.5 2.1 3 5 .5 3.1 1 5 1.3 5.6h-2.6c-.3-.7-.8-2.8-1.2-5.5-.5-3.1-1.5-4.2-3.7-4.2h-1v9.7h-2.5s0-22.1 0-22.1zm2.6 10.3h1.1c2.4 0 4.1-1.8 4.1-4.5 0-2.6-1.1-4.2-3.8-4.2-.5 0-1 0-1.4.1v8.6zm19.1 1.1h-5.6v8.4h6.4v2.2h-8.9v-22.4h8.5v2.2h-6v7.4h5.6s0 2.2 0 2.2zm3.1 7.7c.7.5 2.1.9 3.2.9 2.3 0 3.8-1.5 3.8-3.8 0-2-1.2-3.3-3-4.7-1.8-1.2-4.2-3.3-4.2-6.2 0-3.4 2.3-5.9 5.9-5.9 1.4 0 2.6.4 3.1.8l-.6 2.2c-.6-.4-1.5-.8-2.6-.8-2.2 0-3.3 1.7-3.3 3.2 0 2.2 1.2 3.1 3.3 4.6 2.7 1.9 3.9 4 3.9 6.4 0 3.9-2.7 6.3-6.3 6.3-1.5 0-3.1-.5-3.8-1l.6-2zm15.2-17.1h-4.1v-2.3h10.7v2.3h-4.1v20.1h-2.5v-20.1zm10.3 13.3l-1.5 6.7h-2.5l5.1-22.4h2.8l5 22.4h-2.5l-1.5-6.7h-4.9zm4.6-2l-1.2-5.7c-.3-1.6-.6-3.5-.9-5.1h-.1c-.3 1.7-.6 3.6-.9 5.1l-1.2 5.7h4.3zm6.6 5.8c.7.5 2.1.9 3.2.9 2.3 0 3.8-1.5 3.8-3.8 0-2-1.2-3.3-3-4.7-1.8-1.2-4.2-3.3-4.2-6.2 0-3.4 2.3-5.9 5.9-5.9 1.4 0 2.6.4 3.1.8l-.6 2.2c-.6-.4-1.5-.8-2.6-.8-2.2 0-3.3 1.7-3.3 3.2 0 2.2 1.2 3.1 3.3 4.6 2.7 1.9 3.9 4 3.9 6.4 0 3.9-2.7 6.3-6.3 6.3-1.5 0-3.1-.5-3.8-1l.6-2zm15.1-19.4v9.6h6.3v-9.6h2.5v22.4h-2.5v-10.5h-6.3v10.5h-2.5v-22.4h2.5zm24.5 11c0 8.4-2.9 11.6-6.5 11.6-3.7 0-6.2-4-6.2-11.5 0-7.4 2.7-11.4 6.6-11.4 3.9 0 6.1 4.2 6.1 11.3zm-10 .2c0 4.6.9 9.2 3.8 9.2s3.6-4.9 3.6-9.3c0-4.2-.8-9.1-3.7-9.1-2.8 0-3.7 4.6-3.7 9.2zm13.1-10.9c1-.3 2.2-.4 3.7-.4 2 0 3.8.5 5 1.6 1.1 1.1 1.6 2.7 1.6 4.7s-.5 3.5-1.4 4.6c-1.2 1.7-3.3 2.5-5.3 2.5-.4 0-.8 0-1.1 0v9.2h-2.4l-.1-22.2zm2.6 10.8c.3 0 .6.1 1 .1 2.5 0 4.2-1.6 4.2-4.8 0-2.3-.9-4.4-3.8-4.4-.6 0-1.1.1-1.4.2v8.9z"/></svg>