<svg xmlns="http://www.w3.org/2000/svg" width="100" height="100" viewBox="0 0 100 100"><path fill="#FCE566" d="M65.875 63.249c1.677 0 4.355 2.155 4.355 12.083 0 2.113-1.801 9.414-1.744 12.878-1.854.266-14.736 2.238-14.736 2.238s-15.438-18.08-15.989-18.632c-.55-.548-.426-2.295.938-2.711s3.522.832 4.56 1.455c2.918 1.739 3.315 6.06 3.315 6.06l1.005-.607-2.312-15.833s-.609-5.354-.683-6.304c-.161-2.059 3.567-2.416 3.863-.628.252 1.511 1.856 10.266 2.373 13.76.114.768.721 1.118 1.169 1.106 1.121-.022-1.003-5.826 2.804-6.097 2.612-.187 1.844 4.695 3.027 4.829 1.184.131-.188-4.803 2.799-4.803 3.068 0 1.473 6.039 3.208 6.023 1.679-.014-.226-4.817 2.048-4.817z"/><path fill="none" d="M43.377 10.224c-7.939.478-9.651 9.742-10.008 13.062l2.081-.196c.354-3.105 1.83-10.587 7.927-12.866zm2.314.093c-7.326 1.063-9.105 9.323-9.527 12.705l19.627-1.845c-.778-3.046-3.273-9.885-10.1-10.86zm2.349-.093c5.638 2.006 7.775 8.032 8.487 10.886l3.017-.285c-.96-3.343-3.859-10.181-11.504-10.601z"/><path fill="#333" d="M72.504 19.609l-12.19 1.144c-1.013-3.621-4.188-11.201-13.017-11.201-.566 0-1.098.044-1.612.113-.532-.071-1.085-.113-1.668-.113-9.219 0-10.99 10.348-11.323 13.797l-10.194.958 5.304 51.97 10.462-1.115c-1.004-1.163-1.667-1.926-1.807-2.073-.727-.729-1.004-1.937-.705-3.139.312-1.252 1.215-2.217 2.414-2.584.354-.108.735-.163 1.137-.163 1.661 0 3.402.906 4.888 1.797.202.12.396.251.58.389l-1.305-8.946c-.033-.278-.62-5.455-.695-6.422-.074-.926.231-1.808.856-2.482.729-.787 1.88-1.261 3.078-1.261 1.848 0 3.268 1.074 3.535 2.671.073.441.262 1.502.506 2.868.297 1.668.67 3.76 1.015 5.747.612-.728 1.529-1.261 2.899-1.361.096-.003.185-.007.271-.007 1.341 0 2.2.63 2.763 1.455.575-.809 1.48-1.423 2.923-1.423 1.692 0 2.641.897 3.189 2.012.454-.482 1.112-.808 2.066-.808 3.191 0 5.173 3.418 5.903 10.156l5.722-.612-4.995-51.367zm-37.053 3.48l-2.081.196c.355-3.319 2.067-12.584 10.007-13.062-6.097 2.28-7.573 9.762-7.926 12.866zm.714-.067c.422-3.382 2.201-11.643 9.527-12.705 6.825.975 9.32 7.813 10.099 10.86l-19.626 1.845zm20.362-1.913c-.712-2.854-2.85-8.88-8.487-10.886 7.645.421 10.544 7.259 11.506 10.602l-3.019.284z"/></svg>