<svg xmlns="http://www.w3.org/2000/svg" viewBox="0 0 100 100" enable-background="new 0 0 100 100"><style type="text/css">.st0{opacity:0.3;}</style><path d="M83.6 22.6l-17.2-17.2c-.8-.8-2.3-1.4-3.4-1.4h-26c-1.1 0-2 .9-2 2v6c0 1.1-.9 2-2 2h-6c-1.1 0-2 .9-2 2v6c0 1.1-.9 2-2 2h-6c-1.1 0-2 .9-2 2v68c0 1.1.9 2 2 2h46c1.1 0 2-.9 2-2v-6c0-1.1.9-2 2-2h6c1.1 0 2-.9 2-2v-6c0-1.1.9-2 2-2h6c1.1 0 2-.9 2-2v-48c0-1.1-.6-2.6-1.4-3.4zm-19.6-11.6c0-1.1.6-1.4 1.4-.6l13.2 13.2c.8.8.5 1.4-.6 1.4h-12c-1.1 0-2-.9-2-2v-12zm-3 79c0 1.1-.9 2-2 2h-38c-1.1 0-2-.9-2-2v-60c0-1.1.9-2 2-2h2c1.1 0 2 .9 2 2v54c0 1.1.9 2 2 2h32c1.1 0 2 .9 2 2v2zm10-10c0 1.1-.9 2-2 2h-38c-1.1 0-2-.9-2-2v-60c0-1.1.9-2 2-2h2c1.1 0 2 .9 2 2v54c0 1.1.9 2 2 2h32c1.1 0 2 .9 2 2v2zm10-10c0 1.1-.9 2-2 2h-38c-1.1 0-2-.9-2-2v-60c0-1.1.9-2 2-2h17c1.1 0 2 .9 2 2v11h-13c-1.1 0-2 .9-2 2s.9 2 2 2h13v2c0 1.1.9 2 2 2h17c1.1 0 2 .9 2 2v39zm-8-25h-26c-1.1 0-2 .9-2 2s.9 2 2 2h26c1.1 0 2-.9 2-2s-.9-2-2-2zm0 12h-26c-1.1 0-2 .9-2 2s.9 2 2 2h26c1.1 0 2-.9 2-2s-.9-2-2-2zm0-24h-26c-1.1 0-2 .9-2 2s.9 2 2 2h26c1.1 0 2-.9 2-2s-.9-2-2-2z" class="st0"/></svg>