<svg xmlns="http://www.w3.org/2000/svg" viewBox="0 0 100 100" enable-background="new 0 0 100 100"><style type="text/css">.st0{opacity:0.3;}</style><path d="M56 47.5h-33c-1.1 0-2 .9-2 2v24c0 1.1.9 2 2 2h33c1.1 0 2-.9 2-2v-24c0-1.1-.9-2-2-2zm-1 23c0 1.1-.9 2-2 2h-27c-1.1 0-2-.9-2-2v-18c0-1.1.9-2 2-2h29v20zm-25-12h19c1.1 0 2-.9 2-2s-.9-2-2-2h-19c-1.1 0-2 .9-2 2s.9 2 2 2zm0 7h9c1.1 0 2-.9 2-2s-.9-2-2-2h-9c-1.1 0-2 .9-2 2s.9 2 2 2zm55.5-37l-12.2-10.7c-.8-.7-2.4-1.3-3.5-1.3h-39.6c-1.1 0-2.7.6-3.5 1.3l-12.2 10.7c-.8.7-1.5 2.2-1.5 3.3v49.7c0 1.1.9 2 2 2h70c1.1 0 2-.9 2-2v-49.7c0-1.1-.7-2.6-1.5-3.3zm-33.5-7c0-1.1.9-2 2-2h14.2c1.1 0 2.7.6 3.5 1.3l9.6 8.4c.8.7.6 1.3-.5 1.3h-26.8c-1.1 0-2-.9-2-2v-7zm-33.3 7.7l9.6-8.4c.8-.7 2.4-1.3 3.5-1.3h14.2c1.1 0 2 .9 2 2v7c0 1.1-.9 2-2 2h-26.8c-1.1 0-1.3-.6-.5-1.3zm64.3 48.3c0 1.1-.9 2-2 2h-62c-1.1 0-2-.9-2-2v-41c0-1.1.9-2 2-2h62c1.1 0 2 .9 2 2v41z" class="st0"/></svg>