<svg xmlns="http://www.w3.org/2000/svg" width="65" height="65" viewBox="0 0 65 65"><path d="M25.5 24.2h5.4v5h3.3v-5h5.3c.7 0 1.3.6 1.3 1.3v14c0 .7-.6 1.3-1.3 1.3h-14c-.7 0-1.3-.6-1.3-1.3v-14c0-.7.5-1.3 1.3-1.3z"/><path opacity=".45" d="M18.2 32.5c0-.4 0-.8.1-1.2 0-.3-.2-.6-.5-.6 0 0 0 0-.1 0h-3c-1-2.2-3.5-3-5.7-2.1-2.2 1-3 3.5-2.1 5.7.7 1.5 2.2 2.5 3.8 2.5s3.2-1 3.9-2.5h3c.3 0 .6-.2.6-.6 0 0 0 0 0-.1 0-.3 0-.7 0-1.1zm39.9-1.8c-.7-1.5-2.2-2.5-3.8-2.5-1.7 0-3.2 1-3.8 2.5h-3.1c-.3 0-.6.2-.6.6 0 0 0 0 0 .1.1.8.1 1.5 0 2.3 0 .3.2.6.5.6 0 0 0 0 .1 0h3c1 2.2 3.5 3 5.7 2.1 2.1-1 3-3.6 2-5.7zm-23.8 19.6v-3c0-.2-.1-.3-.2-.4-.1-.1-.2-.2-.4-.2-.8.1-1.5.1-2.3 0-.3 0-.6.2-.6.5 0 0 0 0 0 .1v3c-2.2 1-3 3.5-2.1 5.7 1 2.2 3.5 3 5.7 2.1s3-3.5 2.1-5.7c-.6-.9-1.4-1.6-2.2-2.1zm-3.6-43.4c-2.2 1-3 3.5-2.1 5.7.4 1 1.2 1.7 2.1 2.1v3c0 .2.1.3.2.4.1.1.2.2.4.2.8-.1 1.5-.1 2.3 0 .3 0 .6-.2.6-.5 0 0 0 0 0-.1v-3c2.2-1 3-3.5 2.1-5.7-.9-2.2-3.4-3.1-5.6-2.1z"/><path opacity=".6" d="M18.6 21.1l2.2 2.2c.2.2.6.2.8 0 0 0 0 0 0-.1.2-.3.5-.6.8-.9.2-.2.6-.6.9-.8.2-.2.2-.6.1-.8 0 0 0 0 0-.1l-2.2-2.2c.6-1.4.2-3.2-1-4.4-1.7-1.7-4.3-1.7-6 0s-1.7 4.4 0 6c1 1.3 2.8 1.7 4.4 1.1zm30.8 22.8c-1-.3-2-.3-3 0l-2.2-2.2c-.2-.2-.6-.2-.8 0 0 0 0 0 0 .1-.5.6-1 1.1-1.7 1.7-.2.2-.2.6-.1.8 0 0 0 0 0 .1l2.2 2.2c-.8 2.2.3 4.6 2.5 5.4 2.2.8 4.6-.3 5.4-2.5.9-2.2-.2-4.8-2.3-5.6zm-26.2-.4c-.3-.2-.6-.5-.9-.8-.2-.2-.6-.6-.8-.9-.2-.2-.6-.2-.8-.1 0 0 0 0-.1 0l-2.2 2.2c-1.4-.6-3.2-.2-4.4 1-1.7 1.7-1.7 4.3 0 6 1.7 1.7 4.3 1.7 6 0 1.2-1.2 1.6-3 1-4.5l2.2-2.2c.3-.2.3-.5 0-.7zm18.6-22c.6.5 1.1 1 1.7 1.7.2.2.6.2.8.1 0 0 0 0 .1 0l2.2-2.2c1.5.6 3.3.2 4.5-1 1.7-1.7 1.7-4.3 0-6s-4.3-1.7-6 0c-1.2 1.2-1.6 3-1 4.5l-2.3 2.1c-.3.3-.3.6 0 .8-.1 0 0 0 0 0z"/></svg>