<svg xmlns="http://www.w3.org/2000/svg" width="620" height="330" viewBox="0 0 620 330"><path fill="#f00" d="M62.5 0h495v330h-495z"/><path fill="#060" d="M62.5 0h198v330h-198z"/><path fill="#ff0" d="M316.278 109.322c-15.057-14.947-34.971-23.178-56.072-23.178-43.637 0-79.137 35.419-79.137 78.955 0 43.537 35.5 78.956 79.137 78.956 21.101 0 41.015-8.231 56.072-23.178 15.071-14.961 23.372-34.77 23.372-55.778 0-21.007-8.3-40.818-23.372-55.777zm-56.041 123.398c-37.365 0-67.765-30.335-67.765-67.62s30.399-67.619 67.765-67.619c37.501 0 68.011 30.334 68.011 67.619s-30.509 67.62-68.011 67.62z"/><path fill="none" d="M260.237 99.955c-35.96 0-65.29 29.264-65.29 65.145s29.33 65.145 65.29 65.145 65.536-29.265 65.536-65.145c0-35.881-29.576-65.145-65.536-65.145zm56.041 9.367c-15.057-14.947-34.971-23.178-56.072-23.178-43.637 0-79.137 35.419-79.137 78.955 0 43.537 35.5 78.956 79.137 78.956 21.101 0 41.015-8.231 56.072-23.178 15.071-14.961 23.372-34.77 23.372-55.778 0-21.007-8.3-40.818-23.372-55.777zm-56.041 123.398c-37.365 0-67.765-30.335-67.765-67.62s30.399-67.619 67.765-67.619c37.501 0 68.011 30.334 68.011 67.619s-30.509 67.62-68.011 67.62z"/><path fill="#f00" d="M260.342 224.813c-13.339 0-25.948-5.237-35.504-14.748-9.541-9.497-14.8-22.033-14.812-35.303l.06-66.699 100.514.017v66.68c0 13.343-5.236 25.905-14.745 35.375-9.507 9.465-22.119 14.678-35.513 14.678z"/><path fill="#fff" d="M212.146 110.125l96.392.017v64.618c0 12.789-5.021 24.834-14.139 33.914-9.117 9.077-21.212 14.076-34.057 14.076-12.79 0-24.882-5.024-34.049-14.147-9.16-9.117-14.204-21.15-14.204-33.885l-.001-.038.058-64.555m-4.121-4.125l-.003 4.121-.059 64.554v.089l.001.043c.023 13.806 5.497 26.844 15.419 36.72 9.945 9.897 23.071 15.349 36.959 15.349 13.943 0 27.072-5.426 36.967-15.278 9.901-9.86 15.354-22.942 15.354-36.837v-68.742l-4.125-.001-96.391-.018h-4.122zm80.393 23.833l.003 40.335-.035 4.267h.001c0 1.122-.068 2.402-.199 3.491-.763 6.378-3.696 11.938-8.04 16.26-5.085 5.062-12.104 8.202-19.839 8.202-7.695 0-14.552-3.249-19.659-8.334-5.239-5.213-8.275-12.362-8.275-19.755l-.011-44.569 56.05.101.004.002z"/><path fill="#039" d="M254.446 136.639l-.021 8.884v.003c0 1.826.699 3.488 1.824 4.694 1.125 1.21 2.677 1.961 4.373 1.961 1.706 0 3.254-.746 4.375-1.952 1.121-1.201 1.817-2.863 1.817-4.696v-8.884l-12.368-.01z"/><path d="M305.001 165.5h-.041l-.504-4.891c.369-.02.666-.457.666-.879 0-.168-.057-.366-.138-.494.259-.119.441-.511.441-.837 0-.435-.323-.899-.72-.899h-.408l-.083-2.393c.34-.025.622-.257.622-.588l.002-1.619-.469-.197-1.87.016v-.019l-2 .005v-.205h-.734l.097 1.967c0 .35.325.586.678.596l-.045 2.438h-.503l-.224-4h.043c.367 0 .677-.745.677-1.092l.003-1.865-.002-.006-.016-.037h-1.973v1h-1v-1.405l-1 .005v1.4h-1v-1h.011l.002 2.116c0 .362.283.884.66.884h.09l-.218 4h-.5l-.083-2.393c.339-.023.622-.256.622-.588l.002-1.619-.594-.197-1.993.016v-.02l-2 .005v-.205h-.611l.16 1.967c0 .35.356.586.709.596l-.015 2.438h-.44c-.397 0-.72.439-.72.875 0 .334.193.658.462.773-.079.127-.135.297-.135.463 0 .418.291.763.655.789l-.551 4.703c-.404.006-.732.731-.732 1.198 0 .469.333 1.198.741 1.198h13.979c.41 0 .742-.529.742-.998.001-.471-.332-1.002-.742-1.002zm-7.908 32.914l-.511.312-.509-.609.522-.566-.717-.744-.521.505-.512-.52.523-.522-.717-.719-1.177 1.168c-.184.184-.25.446-.082.615l.131.145-2.048 1.929-.609-.646 3.339-3.917-.707-.424v-.201l.989.712c.172.172.612.543.782.375l1.339-.806h-.016l-.722-1.064-.514.332-.522-.611.52-.56-.733-.757-.52.504-.522-.53.522-.521-.731-.738-1.176 1.17c-.185.186-.156.599.015.771l.851 1.005h-.207l-.542-.689-3.934 3.59.101.1h-.034l-2.944-1.705v-.015l1.538.845 2.111-2.081.303.105c.168.169.088.189.257.021l.791-1.153v-.002l-.136-.7-.229.507-.369-.513.592-.519-.681-.718-.503.517-.502-.515.526-.519-.714-.72-1.175 1.172c-.184.182-.157.491.009.659l.135.142-2.109 1.919-.46-.464c-.198-.201-.548-.181-.774.045-.227.224-.249.573-.051.773l.208.222c-.19-.191-.532-.165-.757.06-.228.226-.257.566-.068.758l.133.134-4.03 3.161-.134-.116c-.208-.209-.584-.175-.836.076-.252.25-.288.625-.08.835l9.85 9.921c.208.208.583.176.834-.075s.29-.627.083-.836l-.147-.179 3.22-3.965.139.14c.189.192.531.165.758-.06.227-.226.256-.567.066-.759l.204.193c.199.2.547.181.774-.045.227-.225.25-.574.051-.773l-.924-.945.502.507 1.67-2.09-1.074-.78v-.007l1.195.901c.167.169.612.576.782.408l1.322-.768h-.007l-.7-1.088zm-8.543-5.648l.242.198-.242-.192v-.006zm-.227-.541h-.005l-.785-.831.79.831zm-2.337 1.65l-.454-.457.469.457h-.015zm8.339 4.492l-.365-.409.365.403v.006zm-3.303-68.867h13.979c.41 0 .742-.529.742-.998 0-.471-.333-1.002-.742-1.002h-.041l-.504-4.866c.369-.019.666-.444.666-.866 0-.168-.057-.358-.138-.487.259-.119.441-.033.441-.359 0-.434-.323-.421-.72-.421h-.408l-.083-2.867c.34-.025.622-.494.622-.826l.002-1.738-.469-.255-1.87-.044v-.02l-2 .005v-.256h-.734l.097 1.992c0 .35.325 1.072.678 1.082l-.045 2.926h-.503l-.224-5h.043c.367 0 .677-.721.677-1.067l.003-1.853-.002-.024-.016-.056h-1.973v1h-1v-1.355l-1 .005v1.351h-1v-1h.011l.002 2.115c0 .363.283.885.66.885h.09l-.218 5h-.5l-.083-2.867c.339-.024.622-.494.622-.826l.002-1.738-.594-.255-1.993-.044v-.02l-2 .005v-.256h-.611l.16 1.992c0 .35.356 1.072.709 1.082l-.015 2.926h-.44c-.397 0-.72-.034-.72.4 0 .334.193.422.462.535-.079.127-.135.178-.135.344 0 .418.291.704.655.73l-.551 4.674c-.404.006-.732.692-.732 1.158 0 .47.332 1.159.741 1.159zm-60.242 36.803c0-.466-.328-.979-.732-.984l-.551-4.808c.364-.025.655-.42.655-.837 0-.167-.056-.353-.135-.48.269-.114.461-.471.461-.805 0-.436-.323-.889-.72-.889h-.44l-.004-2.387c.353-.01.721-.214.721-.563l-.143-1.856-1.392.008v.004l-2-.005v.019l-1.463-.011-.314.201.128 1.629c.001.332.345.546.685.569l-.02 2.393h-.5l-.217-4h.09c.376 0 .66-.521.66-.884l.001-2.116h-1.05v1h-1v-1.4l-1-.005v1.405h-1v-1h-.914l-.016-.072-.001-.016.003 2.04c0 .347.31 1.048.677 1.048h.043l-.291-.36-1.502-.438v.004l-2-.005v.019l-1.339-.011-.171.201.118 1.629c0 .331.339.544.68.569l-.025 2.393h-.407c-.397 0-.721.434-.721.869 0 .326.182.667.442.786-.081.128-.138.272-.138.441 0 .422.297.989.666 1.009l-.504 4.893h-.041c-.409 0-.742.531-.742 1.002 0 .469.333.998.742.998h13.98c.408 0 .741-.728.741-1.197zm-10.215-8.803l-.043-2.387c.354-.01.68-.214.68-.563l.019-.368-.151 3.318h-.505zm21.086 40.3l-.134.116-4.03-3.161.133-.134c.189-.191.159-.532-.068-.758-.226-.225-.567-.251-.757-.06l.208-.222c.198-.2.176-.55-.051-.773-.227-.226-.576-.246-.774-.045l-.461.464-2.109-1.919.135-.142c.166-.168.192-.478.008-.659l-1.177-1.172-.716.72.521.519-.513.515-.524-.517-.723.718.507.519-.538.513-.422-.507-.666.7v.002l1.233 1.153c.169.169.986.148 1.154-.021l.083-.017 1.817 1.982-1.171.885h-.034l.101-.213-3.934-3.438-.542.651h-.207l.851-1.005c.171-.173.2-.474.015-.659l-1.176-1.228-.731.709.522.505-.522.52-.52-.518-.733.734.52.521-.522.531-.514-.175-.722 1.064h-.016l1.133.806c.169.168.286-.046.458-.22l.459-.867v.201l-.177.424 3.811 3.917-.581.646-2.032-1.929.138-.145c.167-.169.105-.433-.079-.615l-1.175-1.17-.716.719.523.52-.512.515-.52-.516-.717.722.522.524-.509.525-.511-.143-.699 1.086h-.007l1.16.768c.17.168.834-.07 1.002-.239l.136-.182 1.737 1.971-.512.477c-.199.2-.2.539.026.763.227.226.563.24.762.04l.197-.195c-.19.191-.164.532.063.758.228.225.567.25.757.058l.138-.14 3.219 3.965-.146.179c-.208.209-.169.585.082.836s.627.283.835.075l9.85-9.921c.208-.21.172-.585-.08-.835-.252-.251-.629-.285-.836-.076zm-14.976 1.165l-.216.148.216-.155v.007zm.06-.598v-.006l.365-.403-.365.409zm6.793-6.973l-.785.831h-.005l.79-.831zm-.253 1.377l-.044.025.044-.031v.006zm1.65 2.024l-.098.066.098-.081v.015zm.134-.92l.469-.457-.454.457h-.015zm-19-64.375h13.98c.409 0 .741-.703.741-1.172 0-.467-.328-.967-.732-.972l-.551-4.802c.364-.025.655-.417.655-.834 0-.167-.056-.352-.135-.479.269-.114.461.005.461-.328 0-.436-.323-.413-.72-.413h-.44l-.004-2.862c.353-.01.721-.45.721-.8l-.143-1.977-1.392-.11v.004l-2-.005v.02l-1.463-.012-.314.201.128 1.63c.001.331.345 1.02.685 1.044l-.02 2.867h-.5l-.217-5h.09c.376 0 .66-.521.66-.885l.001-2.115h-1.05v1h-1v-1.351l-1-.005v1.355h-1v-1h-.914l-.016-.047-.001-.004.003 2.021c0 .347.31 1.029.677 1.029h.043l-.291-.335-1.502-.414v.004l-2-.005v.02l-1.339-.012-.171.201.118 1.63c0 .331.339 1.019.68 1.044l-.025 2.867h-.407c-.397 0-.721-.041-.721.394 0 .326.182.431.442.55-.081.127-.138.152-.138.322 0 .421.297.904.666.924l-.504 4.812h-.041c-.409 0-.742.531-.742 1.002 0 .469.332.998.742.998zm5.142-12.882l.019.098-.151 3.784h-.503l-.043-2.862c.352-.01.678-.67.678-1.02zm46.328 10.282l-.551-4.694c.364-.025.655-.35.655-.767 0-.167-.056-.293-.135-.421.269-.114.461.083.461-.25 0-.436-.323-.269-.72-.269h-.44l-.048-2.994c.353-.01.676-.584.676-.934l-.294-1.975-1.633-.111v.004l-2-.005v.02l-1.222.006.073.117c.238-.09.538-.153.538-.425l.142-1.703h-1.531v1h-1v-1.615l-1-.005v1.62h-1v-1h-.432l-.016-.146-.001-.103.003 1.676c0 .208-.232.42-.063.58l-1.491-.021v.004l-2-.005v.02l-1.098.006.038.218.134 1.662c0 .331.347 1.084.688 1.11l-.018 2.999h-.408c-.397 0-.72-.157-.72.278 0 .325.182.313.442.433-.081.129-.138.187-.138.356 0 .421.297.971.666.99l-.504 4.942h-.041c-.409 0-.742.531-.742 1.002 0 .469.333.998.742.998h13.98c.409 0 .741-.83.741-1.301 0-.463-.328-1.291-.733-1.297zm-8.979-6.4h-.503l-.088-2.994c.354-.01.635-.584.635-.934l.012-1.411c.042.011.081.339.125.339h.043l-.224 5zm4.448 0h-.5l-.217-5h.09c.094 0 .182-.429.262-.459l-.176-.107.002 1.56c0 .332.283 1.034.622 1.059l-.083 2.947z" opacity=".8" fill="#ff0"/><path fill="#039" d="M237.151 158.104l-.021 8.883v.004c0 1.825.7 3.487 1.824 4.693 1.125 1.21 2.677 1.961 4.373 1.961 1.706 0 3.254-.746 4.375-1.951 1.121-1.202 1.817-2.864 1.817-4.697v-8.883l-12.368-.01zm34.411 0l-.021 8.883v.004c0 1.825.699 3.487 1.824 4.693 1.125 1.21 2.677 1.961 4.373 1.961 1.706 0 3.254-.746 4.376-1.951 1.121-1.202 1.816-2.864 1.816-4.697v-8.883l-12.368-.01zm-17.116 0l-.021 8.883v.004c0 1.825.699 3.487 1.824 4.693 1.125 1.21 2.677 1.961 4.373 1.961 1.706 0 3.254-.746 4.375-1.951 1.121-1.202 1.817-2.864 1.817-4.697v-8.883l-12.368-.01zm0 21.27l-.021 8.883v.004c0 1.825.699 3.487 1.824 4.693 1.125 1.21 2.677 1.961 4.373 1.961 1.706 0 3.254-.746 4.375-1.951 1.121-1.202 1.817-2.864 1.817-4.697v-8.883l-12.368-.01z"/></svg>