<svg xmlns="http://www.w3.org/2000/svg" width="100" height="100" viewBox="0 0 100 100"><circle fill="#FFE75C" cx="32.154" cy="34.691" r="15.641"/><path fill="#E5CE00" d="M48.044 31.858c-1.375-7.713-8.05-13.311-15.873-13.311-.949 0-1.909.085-2.851.253-8.762 1.562-14.62 9.961-13.058 18.724 1.375 7.713 8.05 13.311 15.873 13.311.949 0 1.908-.085 2.851-.253 8.763-1.562 14.62-9.961 13.058-18.724zm-13.233 17.74c-.884.158-1.784.237-2.675.237-7.337 0-13.599-5.251-14.889-12.486-1.465-8.219 4.029-16.099 12.249-17.564.884-.158 1.785-.238 2.675-.238 7.337 0 13.598 5.251 14.888 12.487 1.466 8.219-4.028 16.098-12.248 17.564z"/><path d="M34.907 27.209l-7.316 14.161 1.656 1.145 7.332-14.166zm3.45 9.012c-.638-.798-1.485-1.202-2.519-1.202s-1.881.404-2.518 1.202c-.61.763-.919 1.704-.919 2.796v.909c0 1.101.31 2.044.92 2.803.637.793 1.492 1.196 2.542 1.196 1.026 0 1.868-.403 2.5-1.197.606-.759.914-1.702.914-2.802v-.909c-.001-1.091-.31-2.032-.92-2.796zm-1.2 2.792v.917c0 .588-.13 1.088-.387 1.486-.217.336-.505.493-.908.493-.421 0-.723-.158-.948-.498-.262-.397-.395-.896-.395-1.481v-.917c0-.594.131-1.095.39-1.489.221-.335.516-.492.929-.492.414 0 .709.155.931.488.257.389.388.891.388 1.493zm-6.164-5.85c.607-.756.915-1.698.915-2.797v-.897c0-1.098-.31-2.043-.92-2.807-.638-.798-1.485-1.203-2.519-1.203s-1.881.405-2.518 1.203c-.61.764-.92 1.708-.92 2.807v.897c0 1.092.312 2.032.927 2.792.641.792 1.493 1.194 2.534 1.194 1.027 0 1.868-.4 2.501-1.189zm-2.5-.826c-.42 0-.718-.158-.939-.496-.26-.397-.391-.893-.391-1.472v-.904c0-.588.128-1.075.393-1.487.221-.344.512-.505.914-.505.41 0 .705.161.926.505.264.411.393.897.393 1.486v.904c0 .588-.13 1.085-.386 1.479-.217.335-.506.49-.91.49z" fill="#465150"/><g fill="#465150"><path d="M61.733 57.377c0 2.583-1.386 15.332-3.096 15.332s-3.096-12.749-3.096-15.332c0-.432.039-.85.111-1.248.361-1.977 1.561-1.209 2.984-1.209 1.424 0 2.623-.768 2.985 1.21.073.396.112.815.112 1.247z"/><circle cx="58.637" cy="39.403" r="13.556"/><path d="M71.276 51.582c-.577 0-2.134 1.363-4.492 2.652-2.115 1.157-4.874 20.013-8.147 20.013-3.272 0-6.031-18.856-8.146-20.013-2.358-1.289-3.915-2.653-4.492-2.653-10.343 0-12.214 12.25-12.214 20.228 0 5.719 3.813 9.143 9.426 9.143h30.854c5.613 0 9.426-3.424 9.426-9.143-.001-7.978-1.872-20.227-12.215-20.227zm2.019 11.47c-1.808 0-3.274-.447-3.274-.999s1.466-.999 3.274-.999 3.274.447 3.274.999-1.465.999-3.274.999z"/></g></svg>