<svg xmlns="http://www.w3.org/2000/svg" viewBox="-297 389 16 16" enable-background="new -297 389 16 16"><path d="M-283 390h-12c-.5 0-1 .5-1 1v2c0 .5.5 1 1 1h12c.5 0 1-.5 1-1v-2c0-.5-.4-1-1-1zm-11 3h-1v-2h1v2zm2 0h-1v-2h1v2zm2 0h-1v-2h1v2zm6 0c-.6 0-1-.4-1-1s.4-1 1-1 1 .4 1 1-.4 1-1 1zm1 2h-12c-.5 0-1 .5-1 1v2c0 .5.5 1 1 1h12c.5 0 1-.5 1-1v-2c0-.5-.4-1-1-1zm-11 3h-1v-2h1v2zm2 0h-1v-2h1v2zm2 0h-1v-2h1v2zm6 0c-.6 0-1-.4-1-1s.4-1 1-1 1 .4 1 1-.4 1-1 1zm1 2h-12c-.5 0-1 .5-1 1v2c0 .5.5 1 1 1h12c.5 0 1-.5 1-1v-2c0-.5-.4-1-1-1zm-11 3h-1v-2h1v2zm2 0h-1v-2h1v2zm2 0h-1v-2h1v2zm6 0c-.6 0-1-.4-1-1s.4-1 1-1 1 .4 1 1-.4 1-1 1z"/></svg>