<svg xmlns="http://www.w3.org/2000/svg" width="100" height="100" viewBox="0 0 100 100"><path fill="none" d="M-103 1675.439m0 0l320-3235.442v3221.442m0-3221.442v3221.442m0-3221.442v3221.442m0-3221.442v3221.442m0-3221.442v3221.442m0-3221.442v3221.442m0-3221.442v3221.442m0-3221.442v3221.442m0-3221.442v3221.442m0-3221.442v3221.442m0-3221.442v3221.442m0-3221.442v3221.442m0-3221.442v3221.442m0-3221.442v3221.442m0-3221.442v3221.442m0-3221.442v3221.442m0-3221.442v3221.442m0-3221.442v3221.442m0-3221.442v3221.442m0-3221.442v3221.442m0-3221.442v3221.442m0-3221.442v3221.442m0-3221.442v3221.442m0-3221.442v3221.442m0-3221.442v3221.442m0-3221.442v3221.442m0-3221.442v3221.442m0-3221.442v3221.442m0-3221.442v3221.442m0-3221.442v3221.442m0-3221.442v3221.442m0-3221.442v3221.442m0-3221.442v3221.442"/><path fill="#F7E567" d="M59.173 45.819c.63-2.125.974-4.374.974-6.704 0-13.02-10.555-23.573-23.573-23.573-13.021 0-23.574 10.553-23.574 23.573 0 13.019 10.553 23.573 23.573 23.573 3.725 0 7.246-.867 10.378-2.406.277-7.14 5.426-13.053 12.222-14.463m-36.612-6.704c0-8.481 6.899-15.381 15.381-15.381 3.138 0 6.157.941 8.735 2.724l.648.447-2.971 4.297-.647-.449c-1.699-1.174-3.693-1.795-5.765-1.795-4.483 0-8.291 2.923-9.635 6.961h12.969v5.224h-13.288c.942 4.632 5.047 8.129 9.953 8.129 2.071 0 4.065-.621 5.765-1.795l.648-.448 2.97 4.295-.648.449c-2.577 1.78-5.597 2.723-8.735 2.723-8.481 0-15.38-6.9-15.38-15.381m32.266 14.912"/><path fill="#4B5251" d="M60.935 37.306c-13.021 0-23.573 10.554-23.573 23.573 0 13.02 10.553 23.572 23.573 23.572 13.019 0 23.572-10.554 23.572-23.572 0-13.019-10.554-23.573-23.572-23.573m2.72 21.69v5h-11.305c.942 5 5.047 7.584 9.952 7.584 2.072 0 4.066-.893 5.766-2.067l.647-.584 2.971 4.228-.648.414c-2.577 1.781-5.597 2.707-8.735 2.707-8.482 0-15.382-6.91-15.382-15.39 0-8.481 6.9-15.386 15.382-15.386 3.138 0 6.157.94 8.735 2.722l.648.447-2.971 4.296-.646-.449c-1.699-1.175-3.693-1.139-5.765-1.139-4.483 0-8.291 3.117-9.636 7.617h10.987z"/><path fill="none" d="M217 1661.439"/><path d="M37.94 53.996c-8.205 0-14.88-6.676-14.88-14.881s6.675-14.881 14.881-14.881c3.036 0 5.958.911 8.452 2.635l.236.163-2.401 3.473-.237-.165c-1.784-1.232-3.875-1.883-6.049-1.883-4.593 0-8.656 2.935-10.109 7.303l-.219.658h13.162v4.224h-13.4l.122.6c1.005 4.942 5.397 8.529 10.443 8.529.795 0 1.579-.089 2.34-.26.237-.43.49-.849.752-1.262-.989.335-2.027.521-3.092.521-4.366 0-8.191-2.963-9.321-7.129h13.156v-6.224h-12.749c1.489-3.593 4.988-5.961 8.915-5.961 1.969 0 3.865.59 5.479 1.706l1.059.735 3.54-5.121-1.06-.731c-2.661-1.84-5.78-2.813-9.02-2.813-8.757 0-15.881 7.124-15.881 15.881 0 8.756 7.124 15.881 15.88 15.881.055 0 .108-.006.163-.006.087-.341.185-.677.287-1.011-.149.006-.298.019-.449.019zm-.543 8.169c-.274.01-.548.022-.824.022-12.723 0-23.073-10.351-23.073-23.073 0-12.723 10.351-23.073 23.073-23.073 12.128 0 22.093 9.407 22.999 21.307.331-.019.665-.028 1-.033-.925-12.436-11.331-22.274-23.999-22.274-13.274 0-24.073 10.799-24.073 24.073s10.799 24.073 24.073 24.073c.302 0 .601-.015.9-.025-.032-.33-.057-.662-.076-.997z" fill="#DDCC30"/></svg>