<svg xmlns="http://www.w3.org/2000/svg" width="100" height="100" viewBox="0 0 100 100"><path d="M79.232 22.644c-1.045-1.056-2.74-1.056-3.787 0-.236.238-2.234 2.256-4.811 4.85-5.461-5.262-12.863-8.494-21.018-8.494-14.316 0-26.322 9.968-29.565 23.387-.217.889.221 2.61 1.936 2.61.004 0 5.464.003 5.67.003 1.971 0 2.469-1.864 2.738-2.59 2.915-7.844 10.419-13.426 19.221-13.426 5.418 0 10.345 2.116 14.012 5.572-3.036 3.06-5.522 5.563-5.74 5.785-1.048 1.056-1.05 2.768 0 3.822.56.57 1.489.837 2.042.837 4.353 0 17.27 0 17.27 0 1.563 0 2.8-1.32 2.8-2.896 0 0 0-13.238 0-17.393 0-1.009-.205-1.499-.768-2.067zm-58.464 54.712c1.045 1.056 2.74 1.056 3.787 0 .236-.238 2.234-2.256 4.811-4.85 5.461 5.262 12.863 8.494 21.018 8.494 14.316 0 26.322-9.968 29.565-23.387.217-.889-.221-2.61-1.936-2.61-.004 0-5.464-.003-5.67-.003-1.971 0-2.469 1.864-2.738 2.59-2.915 7.844-10.419 13.426-19.221 13.426-5.418 0-10.345-2.116-14.012-5.572 3.036-3.06 5.522-5.563 5.74-5.785 1.048-1.056 1.05-2.768 0-3.822-.56-.569-1.489-.837-2.042-.837-4.353 0-17.27 0-17.27 0-1.563 0-2.8 1.32-2.8 2.896 0 0 0 13.238 0 17.393 0 1.009.205 1.499.768 2.067z"/></svg>