<svg xmlns="http://www.w3.org/2000/svg" viewBox="0 0 100 100" enable-background="new 0 0 100 100"><style type="text/css">.st0{opacity:0.8;enable-background:new ;}</style><path class="st0" d="M93.5 6.8c-4.3-4.3-10.9-4.3-15.1 0-.3.3-20.2 23.9-14.6 29.8.8.8 1.6 1.1 2.9 1.1.5 0 1.3 0 2.1-.3 1.1-.3 1.6-1.3 1.3-2.4s-1.3-1.6-2.4-1.3c-.8.3-1.1.3-1.3.3-.6-3.5 10.3-20 14.6-24.3 2.7-2.7 6.9-2.7 9.6 0s2.7 6.9 0 9.6c-.8.8-2.7 2.4-6.1 4.8-.8.5-1.1 1.9-.5 2.7.5.8 1.9 1.1 2.7.5 2.9-2.1 5.3-4 6.6-5.3 4.4-4.3 4.4-11.2.2-15.2"/><path d="M83.9 30.2l-9.3-9.3c-1.9 2.9-3.7 6.1-5 8.5 1.6 1.3 2.7 3.5 2.7 5.8 0 4.3-3.5 7.7-7.7 7.7-4.3 0-7.7-3.5-7.7-7.7 0-3.2 2.1-6.1 5-7.2 1.1-2.4 2.4-5.3 4.5-8.8.8-1.3 1.6-2.7 2.7-4-1.1-.8-2.7-1.3-4-1.1l-18.1 1.7c-1.6.3-3.5 1.1-4.5 2.1l-36.5 36.5c-1.9 1.9-2.7 4.3-2.7 6.6 0 2.7 1.1 5 2.7 6.6l26 26c1.9 1.9 4.3 2.7 6.6 2.7 2.7 0 4.8-1.1 6.6-2.7l36.4-36.4c1.1-1.1 1.9-2.9 2.1-4.5l1.6-18.1c.5-1.2-.1-3.1-1.4-4.4zm-38.3 39.9c-1.1 1.1-2.7 1.9-4.8 2.1v3.2h-2.7v-3.2c-2.1-.3-3.7-1.1-5-2.1-1.3-1.3-1.9-3.2-1.9-5.6h4.8c0 1.6.3 2.7 1.1 3.2s1.6 1.1 2.7 1.1 1.9-.3 2.4-.8.8-1.3.8-2.1-.3-1.6-.8-2.1-1.3-1.1-2.7-1.6c-2.4-.8-4.3-1.9-5.3-2.9-1.1-1.1-1.9-2.7-1.9-4.5s.5-3.5 1.9-4.5c1.1-1.1 2.7-1.9 4.8-2.1v-3.5h2.7v3.3c1.9.3 3.5 1.1 4.5 2.4 1.1 1.3 1.6 2.9 1.6 5h-4.8c0-1.3-.3-2.4-.8-2.9-.5-.8-1.3-1.1-2.1-1.1-1.1 0-1.6.3-2.1.8s-.8 1.3-.8 2.1.3 1.6.8 2.1 1.3 1.1 2.7 1.6c2.4 1.1 4.3 1.9 5.3 3.2 1.1 1.1 1.9 2.7 1.9 4.5-.1 1.4-1.2 3-2.3 4.4z"/></svg>