<svg xmlns="http://www.w3.org/2000/svg" width="16" height="16" viewBox="0 0 16 16"><path d="M13 7.001c1 0 1-.665 1-1 0 0 0-3.07 0-3.102 0-.236-.266-.471-.5-.471-.173 0-.361.205-.361.205l-1.041 1.059c-1.755-1.707-4.245-2.166-6.51-1.178-2.354 1.029-3.737 3.301-3.575 5.874.163 2.572 1.823 4.65 4.287 5.371 2.213.645 4.408-.037 5.992-1.628.229-.229.33-.385.33-.385.004 0 .04-.104-.001-.146l-1.273-1.24c-.041-.039-.106-.039-.147 0 0 0-.374.414-.543.582-1.009.951-2.416 1.298-3.8.894-1.642-.48-2.747-1.862-2.856-3.576-.108-1.712.812-3.226 2.379-3.909 1.501-.654 3.15-.356 4.316.766l-.797.884s-.408.352-.408.607c0 .269.134.393.508.393h3z"/></svg>