<svg xmlns="http://www.w3.org/2000/svg" width="60" height="60" viewBox="21.5 39.5 60 60" enable-background="new 21.5 39.5 60 60"><path fill="#999" d="M72.087 66.197h-3.073v-4.544c0-8.906-7.273-16.153-16.213-16.153-8.94 0-16.212 7.247-16.212 16.153v4.544h-3.676c-1.327 0-2.413 1.081-2.413 2.403v24.496c0 1.32 1.086 2.403 2.413 2.403h39.174c1.327 0 2.413-1.083 2.413-2.403v-24.495c0-1.323-1.086-2.404-2.413-2.404zm-13.36 22.067c-.561.456-1.2.783-1.916.982s-1.591.299-2.625.299c-4.109 0-6.559-1.924-7.348-5.773h-1.453l.477-2.332h.707v-1.452h-1.184l.525-2.319h.928c.781-3.816 3.189-5.725 7.227-5.725 1.603 0 2.909.278 3.918.836s1.778 1.287 2.307 2.191l-2.453 1.965c-.432-.635-.8-1.072-1.104-1.313-.306-.239-.653-.421-1.044-.543s-.862-.184-1.416-.184c-1.074 0-1.915.225-2.521.672-.606.447-1.044 1.147-1.313 2.1h6.372l-.525 2.319h-6.164v1.452h5.945l-.477 2.332h-5.176c.285 1.033.734 1.762 1.349 2.186.614.423 1.451.635 2.509.635.749 0 1.408-.163 1.978-.488.569-.326 1.151-.92 1.745-1.783l2.552 1.819c-.652.96-1.258 1.668-1.82 2.124zm4.255-22.067h-20.363v-4.544c0-5.594 4.568-10.145 10.182-10.145 5.615 0 10.182 4.551 10.182 10.145v4.544z"/><path fill="none" d="M-722.5-41.5h1549.528m-1549.528 0h1549.528m-1549.528 0h1549.528"/><path d="M63.982 62.653c0-3.041-1.356-5.767-3.49-7.628 1.547 1.78 2.49 4.094 2.49 6.628v4.544h-19.363v1h20.363v-4.544zm-32.482 31.444v-24.496c0-1.322 1.086-2.403 2.413-2.403h3.676v-4.544c0-8.906 7.271-16.153 16.212-16.153 4.225 0 8.065 1.632 10.954 4.28-2.967-3.235-7.22-5.28-11.954-5.28-8.94 0-16.212 7.247-16.212 16.153v4.544h-3.676c-1.327 0-2.413 1.081-2.413 2.403v24.496c0 .915.527 1.706 1.288 2.111-.178-.334-.288-.709-.288-1.111zm38.514-26.9h3.073c.408 0 .787.111 1.125.292-.405-.764-1.202-1.292-2.125-1.292h-2.073v1zm-13.283 8.426c-.306-.239-.653-.421-1.044-.543s-.862-.184-1.416-.184c-1.074 0-1.915.225-2.521.672-.606.447-1.044 1.147-1.313 2.1h1.405c.243-.455.541-.829.907-1.1.605-.447 1.446-.672 2.521-.672.554 0 1.025.062 1.416.184.304.095.573.236.825.402-.293-.394-.554-.681-.78-.859zm-10.346 5.364h.183v-.81zm13.904-6.016l-2.325 1.862c.255.255.545.621.872 1.103l2.453-1.965c-.353-.604-.823-1.123-1.392-1.572.142.183.275.372.392.572zm-9.168 6.016h6.164l.526-2.319h-1.227l-.299 1.319h-6.164v1.452h1zm9.289 5.343c-.6.858-1.161 1.51-1.684 1.934-.561.456-1.2.783-1.916.982s-1.591.299-2.625.299c-2.027 0-3.647-.473-4.866-1.41 1.269 1.6 3.218 2.41 5.866 2.41 1.034 0 1.909-.1 2.625-.299s1.355-.526 1.916-.982c.563-.456 1.168-1.164 1.819-2.124l-1.135-.81zm-13.572-2.559h-.249l-.204 1h.729c-.101-.322-.203-.644-.276-1zm4.925 2.186c.057.039.125.067.186.103-.217-.358-.396-.786-.534-1.288h5.176l.477-2.332h-1.204l-.272 1.332h-5.176c.283 1.033.732 1.761 1.347 2.185z" fill="#666"/></svg>