<svg xmlns="http://www.w3.org/2000/svg" width="16" height="16" viewBox="0 0 16 16"><path d="M11.321 14.25h-6.642c-1.133 0-1.493-.715-1.594-1.021-.476-1.436 1.143-3.882 2.555-5.229-1.412-1.347-3.031-3.793-2.555-5.229.102-.306.461-1.021 1.594-1.021h6.642c1.132 0 1.491.715 1.594 1.021.476 1.436-1.143 3.882-2.556 5.229 1.414 1.347 3.032 3.793 2.556 5.229-.102.306-.461 1.021-1.594 1.021zm-6.768-1.517c.025.006 6.869.006 6.895 0 .163-.617-1.269-3.105-2.73-4.121l-.718-.5-.719.5c-1.461 1.016-2.892 3.504-2.728 4.121zm0-9.466c-.164.617 1.267 3.105 2.729 4.121l.718.5.718-.5c1.461-1.016 2.893-3.504 2.73-4.121-.026-.005-6.87-.005-6.895 0zm5.447 8.483c-.048-.641-.896-1.788-1.547-2.166h-.905c-.651.378-1.499 1.525-1.548 2.166h4z"/></svg>