<svg xmlns="http://www.w3.org/2000/svg" width="100" height="100" viewBox="0 0 100 100"><path d="M57.012 9.376c-18.017 0-32.674 14.657-32.674 32.674 0 7.688 5.171 16.861 5.171 16.861 1.08 1.916.692 4.757-.864 6.313l-15.503 15.502c-1.556 1.556-1.556 4.101 0 5.657l1.414 1.414c1.556 1.556 4.101 1.555 5.657 0l15.787-15.787c1.556-1.556 4.449-2.045 6.429-1.087 0 0 7.857 3.8 14.583 3.8 18.017 0 32.674-14.657 32.674-32.674 0-18.016-14.657-32.673-32.674-32.673zm0 55.347c-12.502 0-22.674-10.171-22.674-22.673s10.172-22.674 22.674-22.674c12.502 0 22.674 10.171 22.674 22.673s-10.172 22.674-22.674 22.674z"/></svg>