<svg xmlns="http://www.w3.org/2000/svg" width="620" height="330" viewBox="0 0 620 330"><path fill="#ED1C24" d="M62.5 0h495v330h-495z"/><path fill="#005DA4" d="M62.5 0h495v220h-495z"/><path fill="#fff" d="M62.5 0h495v110h-495z"/><path fill="#005DA4" d="M230.04 122.881l3.15-46.491c-24.564-11.641-53.056-11.641-77.62 0l3.15 46.491c1.414 20.891 15.616 38.722 35.66 44.777 20.044-6.054 34.245-23.886 35.66-44.777"/><path fill="#fd0" d="M194.38 86.732l.729 2.378 2.423-.558-1.694 1.82 1.694 1.82-2.423-.558-.729 2.378-.729-2.378-2.423.558 1.694-1.82-1.694-1.82 2.423.558.729-2.378zm-44.665-59.553l.729 2.378 2.423-.558-1.696 1.82 1.696 1.82-2.423-.558-.729 2.378-.727-2.378-2.423.558 1.694-1.82-1.694-1.82 2.423.558.727-2.378zm89.329 0l.727 2.378 2.423-.558-1.694 1.82 1.694 1.82-2.423-.558-.727 2.378-.727-2.378-2.423.558 1.696-1.82-1.696-1.82 2.423.558.727-2.378z"/><path fill="#ED1C24" d="M158.293 75.154l3.221 47.539c1.317 19.417 14.339 36.069 32.866 42.027 18.527-5.958 31.549-22.61 32.866-42.027l3.221-47.539c.901.427 1.809.839 2.723 1.235l-3.15 46.491c-1.414 20.891-15.616 38.723-35.66 44.777-20.044-6.055-34.246-23.887-35.66-44.777l-3.15-46.491c.914-.396 1.822-.808 2.723-1.235"/><path d="M208.934 109.776l-5.822 7.762-8.732-17.465-8.732 17.465-5.822-7.762-14.554 19.405c.387 1.739.878 3.439 1.459 5.097 2.745 4.445 8.54 5.936 13.095 3.306 3.002-1.733 6.7-1.733 9.702 0s6.701 1.733 9.703 0 6.701-1.733 9.703 0c4.554 2.629 10.346 1.14 13.093-3.303.582-1.659 1.073-3.36 1.46-5.1l-14.553-19.405zm0 30.609c-3.002-1.733-6.701-1.733-9.703 0s-6.701 1.733-9.703 0-6.7-1.733-9.702 0c-3.526 2.036-7.796 1.601-10.82-.759.727 1.439 1.536 2.83 2.408 4.175 2.657 1.047 5.747.923 8.412-.616 3.002-1.733 6.7-1.733 9.702 0s6.701 1.733 9.703 0 6.701-1.733 9.703 0c2.665 1.539 5.754 1.663 8.411.616.873-1.346 1.682-2.735 2.408-4.175-3.024 2.36-7.293 2.794-10.819.759zm0 5.601c-3.002-1.733-6.701-1.733-9.703 0s-6.701 1.733-9.703 0-6.7-1.733-9.702 0c-1.879 1.085-3.968 1.458-5.969 1.225 5.227 6.612 12.293 11.729 20.522 14.561 8.229-2.832 15.296-7.948 20.522-14.561-1.999.234-4.088-.14-5.967-1.225z" fill="#fff"/></svg>