<svg xmlns="http://www.w3.org/2000/svg" width="60" height="60" viewBox="0 0 60 60"><path d="M30.535 19.248v-2.081c0-.347 0-.347-.347-.694-.347 0-.347 0-.694 0l-3.468 3.468c-.347.347-.347.694 0 1.041l3.468 3.468c.347.347.347.347.694 0 .347 0 .347-.347.347-.694v-1.386c2.428.347 4.162 2.428 4.162 4.509 0 .694-.347 1.387-.347 2.081 0 .347 0 .694 0 .694l1.387 1.387.347.347c.347 0 .347 0 .347-.347.694-1.387 1.041-2.775 1.041-4.162 0-4.163-3.122-7.284-6.937-7.631zm-.347 9.711s-.347-.347-.694 0c-.347 0-.347.347-.347.694v2.081c-2.081-.694-3.815-2.775-3.815-4.856 0-.694.347-1.387.347-2.081 0-.347 0-.347 0-.694l-1.387-1.734s-.347-.347-.694-.347-.347 0-.347.347c-.694 1.734-1.041 3.122-1.041 4.509 0 4.162 3.122 7.284 6.937 7.63v2.081c0 .347 0 .347.347.694h.347c0-.347.347-.347.347-.347l3.468-3.468.347-.347s0-.347-.347-.347l-3.468-3.815z" fill="#484B4E"/><path fill="none" d="M46.837 15.433h-33.99c-.694 0-1.041.347-1.041.694v20.81c0 .347.347 1.041 1.041 1.041h33.99c.347 0 1.041-.347 1.041-1.041v-20.81c-.001-.347-.348-.694-1.041-.694z"/><path fill="#484B4E" d="M49.611 13.005h-39.539c-.694 0-1.041.347-1.041 1.041v27.4c0 .347.347 1.041 1.041 1.041h14.914v2.428h-2.081c-.694 0-1.041.347-1.041 1.041s.347 1.041 1.041 1.041h14.567c.694 0 1.041-.347 1.041-1.041s-.347-1.041-1.041-1.041h-2.081v-2.428h14.567c.347 0 1.041-.347 1.041-1.041v-27.4c-.347-.694-.694-1.041-1.388-1.041zm-1.734 23.932c0 .347-.347 1.041-1.041 1.041h-33.99c-.347 0-1.041-.347-1.041-1.041v-20.81c0-.347.347-1.041 1.041-1.041h33.99c.347 0 1.041.347 1.041 1.041v20.81z"/></svg>