<svg xmlns="http://www.w3.org/2000/svg" width="620" height="330" viewBox="0 0 620 330"><path fill="#666" d="M62.5 0h495v330h-495v-330z"/><path fill="#EE1C25" d="M65.5 12h489v315h-489v-315z"/><path fill="#0B4EA2" d="M65.5 3h489v217h-489v-217z"/><path fill="#fff" d="M65.5 3h489v110h-489v-110zm171.831 254.925c-29.22-14.247-71.018-42.526-71.018-98.468 0-55.941 2.643-81.381 2.643-81.381h136.755s2.643 25.44 2.643 81.381-41.799 84.221-71.023 98.468z"/><path fill="#EE1C25" d="M236.44 247.5c-27.137-13.07-65.955-39.016-65.955-90.338s2.454-74.662 2.454-74.662h127.003s2.454 23.34 2.454 74.662-38.816 77.268-65.956 90.338z"/><path fill="#fff" d="M242.244 143.706c7.348.119 21.684.407 34.45-3.865 0 0-.337 4.568-.337 9.889 0 5.323.337 9.89.337 9.89-11.709-3.919-26.169-4-34.449-3.895v28.347h-11.607v-28.347c-8.28-.105-22.74-.023-34.449 3.895 0 0 .337-4.567.337-9.89 0-5.322-.337-9.89-.337-9.89 12.766 4.272 27.102 3.984 34.449 3.865v-17.802c-6.697-.06-16.348.26-27.26 3.912 0 0 .337-4.568.337-9.89 0-5.321-.337-9.889-.337-9.889 10.896 3.645 20.535 3.97 27.23 3.912-.344-11.273-3.628-25.482-3.628-25.482s6.759.527 9.461.527c2.705 0 9.461-.527 9.461-.527s-3.283 14.209-3.627 25.481c6.695.059 16.334-.267 27.229-3.912 0 0-.337 4.567-.337 9.889 0 5.322.337 9.891.337 9.891-10.911-3.652-20.563-3.972-27.26-3.912v17.803z"/><path fill="#0B4EA2" d="M236.438 181.002c-13.666 0-20.986 18.957-20.986 18.957s-4.061-8.988-15.211-8.988c-7.544 0-13.104 6.711-16.638 12.926 13.725 21.836 35.623 35.313 52.834 43.604 17.214-8.291 39.126-21.764 52.852-43.604-3.534-6.215-9.094-12.926-16.638-12.926-11.15 0-15.228 8.988-15.228 8.988s-7.319-18.957-20.985-18.957z"/></svg>