<svg xmlns="http://www.w3.org/2000/svg" viewBox="0 0 16 16" enable-background="new 0 0 16 16"><path d="M11.8 3.8l-3.9 3.8c-.1.1-.1.4 0 .5.1.1.3.1.5 0l3.8-3.8 1.2.2 2.1-2.1-1.6-.2-.2-1.6-2.2 2.2.3 1zm1.8 1.2c.5.9.8 1.9.8 3 0 3.5-2.8 6.3-6.3 6.3s-6.4-2.8-6.4-6.3 2.8-6.3 6.3-6.3c1.1 0 2.1.3 3 .7l.8-.8c-1.1-.7-2.4-1-3.8-1-4.1-.1-7.5 3.3-7.5 7.4s3.4 7.5 7.5 7.5 7.5-3.4 7.5-7.5c0-1.4-.4-2.7-1-3.8l-.9.8zm-2.7-1.3c-.8-.6-1.8-.9-2.9-.9-2.9 0-5.2 2.3-5.2 5.2s2.3 5.2 5.2 5.2 5.2-2.3 5.2-5.2c0-1.1-.3-2.1-.9-2.9l-.8.8c.3.6.5 1.3.5 2.1 0 2.2-1.8 4-4 4s-4-1.8-4-4 1.8-4 4-4c.8 0 1.5.2 2.1.6l.8-.9zm-2.9 2.6c.1 0 .3 0 .3 0l.9-.9c-.3-.2-.8-.3-1.2-.3-1.6 0-2.9 1.3-2.9 2.9s1.3 2.9 2.9 2.9 2.9-1.3 2.9-2.9c0-.4-.1-.9-.3-1.3l-.9 1c0 .1 0 .2 0 .3 0 1-.8 1.7-1.7 1.7-1 0-1.7-.8-1.7-1.7 0-1 .7-1.7 1.7-1.7z"/></svg>