<svg xmlns="http://www.w3.org/2000/svg" width="60" height="60" viewBox="21.5 39.5 60 60" enable-background="new 21.5 39.5 60 60"><path fill-rule="evenodd" clip-rule="evenodd" fill="#999" d="M67.186 53.56c.494-1.061 1.673-2.491-.965-4.583l-.567-.271s-6.53 6.187-13.093 11.287c-5.668 4.404-11.061 7.507-11.061 7.507v17s13 3.181 21.335 3.181c4.399 0 8.722-1.729 8.722-3.396 0-2.596-3.057-2.146-3.057-2.785 0-.5 4.923.371 4.923-2.934 0-3.189-3.088-2.238-3.088-2.779 0-.654 4.207.259 4.207-3.125 0-3.353-4.402-1.778-4.245-2.742.038-.23 4.231.209 4.231-2.097 0-2.679-.028-3.765-3.317-3.765-3.51 0-10.586.279-10.586-.934 0-1.377 3.879-3.812 6.561-9.564zm-39.686 11.94v22h12v-22h-12zm7 20c-1.104 0-2-.896-2-2s.896-2 2-2 2 .896 2 2-.896 2-2 2z"/><path d="M68.542 81.476c0 .372 1.033.379 1.898.828-.157-.495-.464-.827-.825-1.059-.624.054-1.073.08-1.073.231zm4.88-10.829c-.15-.501-.438-.837-.804-1.057-1.101.244-2.26.184-2.279.305-.105.639 1.791.17 3.083.752zm-12.485-6.543c.688.994 8.074 1.383 11.563.996.948-.105 1.248-.073 1.751.066-.393-.984-.813-1.153-2.917-1.125-1.085.015-8.502-.271-10.7-.695-.049.143.228.653.303.758zm9.44 11.659c0 .312 1.022.132 1.891.529-.135-.409-.347-.7-.6-.907-.72.108-1.291.137-1.291.378zm-27.835-7.287s5.393-3.103 11.061-7.508c6.563-5.101 13.093-11.287 13.093-11.287l.567.271c.096.075.175.148.261.223-.255-.433-.666-.898-1.303-1.403l-.568-.272s-6.53 6.187-13.093 11.287c-5.667 4.405-11.06 7.508-11.06 7.508v17s.381.093 1.042.245v-16.064zm-14.042-1.976h11v-1h-12v22h1zm5.043 17.992c0-1.088.881-1.969 1.969-1.969.284 0 .553.063.796.171-.306-.689-.993-1.171-1.796-1.171-1.088 0-1.969.881-1.969 1.969 0 .803.481 1.49 1.171 1.796-.109-.243-.171-.512-.171-.796z" fill-rule="evenodd" clip-rule="evenodd" fill="#666"/></svg>