<svg xmlns="http://www.w3.org/2000/svg" viewBox="0 0 50 50" enable-background="new 0 0 50 50"><path d="M35.6 27c-.5 1.7-2.3 5.6-2.3 5.6l-5.8-1.5s.5-3.1.2-4.3c-.4-1.3-.9-3.3-.9-5.2 0-2.7.5-3.7 1.8-5.8.6-1 2.2-1.7 3.6-1.6.9 0 1.7.3 2.4 1 1 .9 1.5 2.3 1.7 4 .3 3.1.2 4.2-.7 7.8zm-10.3 10c-.4 1.1-.6 2.1-.4 3.3.1.7.6 1.3 1.5 1.7 1.1.5 2 .5 2.2.5.9-.1 1.6-.6 2.1-1.1 1.1-1.3 1.8-5.8 1.8-5.8l-6-1.6s-.8 2.1-1.2 3zm-11.4-17.1c.3 1.8 1.6 5.8 1.6 5.8l5.9-.8s-.2-3.2.3-4.3c.5-1.2 1.2-3.2 1.5-5.1.3-2.7-.1-3.8-1.1-5.9-.5-1.1-2-1.9-3.4-2-.9-.1-1.7.1-2.5.7-1.1.8-1.8 2.1-2.1 3.7-.7 3.1-.7 4.2-.2 7.9zm8.2 8l-6.2.9s.2 4.6 1.1 5.9c.4.6 1 1.1 1.9 1.4.2 0 1.1.1 2.3-.2 1-.3 1.5-.9 1.7-1.5.3-1.1.2-2.2 0-3.3-.2-1.1-.8-3.2-.8-3.2z"/></svg>