<svg xmlns="http://www.w3.org/2000/svg" width="18" height="18" viewBox="0 0 18 18"><path d="M15 7h-1c0-.406 0-1.76 0-2 0-2.761-2.238-5-5-5-2.761 0-5 2.239-5 5 0 .238 0 1.592 0 2h-1c-.55 0-1 .45-1 1v8c0 .55.45 1 1 1h12c.55 0 1-.45 1-1v-8c0-.55-.45-1-1-1zm-4.874 4.995c-.207.182-.376.555-.376.83v1.175c0 .275-.225.5-.5.5h-.5c-.275 0-.5-.225-.5-.5v-1.175c0-.275-.169-.648-.375-.83 0 0-.625-.549-.625-1.245 0-.966.784-1.75 1.75-1.75.967 0 1.75.784 1.75 1.75 0 .696-.624 1.245-.624 1.245zm1.874-4.995h-6c0-.412 0-1.791 0-2 0-1.657 1.343-3 3-3 1.656 0 3 1.343 3 3 0 .227 0 1.6 0 2z"/></svg>