<svg xmlns="http://www.w3.org/2000/svg" width="50" height="50" viewBox="0 0 50 50"><path d="M23 33.8h-6.6c-.6 0-1.1.5-1.1 1.1v6.3c0 .6.5 1.1 1.1 1.1h6.6c.6 0 1.1-.5 1.1-1.1v-6.2c0-.7-.5-1.2-1.1-1.2zm5.3-1.4c.6 0 1.1-.5 1.1-1.1v-6.3c0-.6-.5-1.1-1.1-1.1h-6.6c-.6 0-1.1.5-1.1 1.1v6.3c0 .6.5 1.1 1.1 1.1h6.6zm5.2 1.4h-6.6c-.6 0-1.1.5-1.1 1.1v6.3c0 .6.5 1.1 1.1 1.1h6.6c.6 0 1.1-.5 1.1-1.1v-6.2c0-.7-.4-1.2-1.1-1.2zm-8.6-26.1l-17.9 8.9v25.6h5.2v-20.5c0-1.4 1.1-2.6 2.6-2.6h20.5c1.4 0 2.6 1.1 2.6 2.6v20.4h5.1v-25.5l-18.1-8.9z"/></svg>