<svg xmlns="http://www.w3.org/2000/svg" width="100" height="100" viewBox="0 0 100 100"><path fill="#F7E567" d="M75.008 53.149c0 .824-.455 1.577-1.173 1.963l-12.333 6.726c-.332.193-.7.281-1.068.281-.367 0-.734-.088-1.068-.281l-12.332-6.726c-.717-.386-1.173-1.139-1.173-1.963v-13.452c0-.946.596-1.787 1.471-2.102l12.333-4.485c.244-.087.508-.14.77-.14.264 0 .525.053.771.14l12.331 4.485c.877.314 1.472 1.155 1.472 2.102v13.452z"/><path fill="#ECD634" d="M72.661 39.662l-12.224 4.449c-.846 5.732.109 16.688.248 17.993.281-.033.56-.118.816-.267l12.333-6.726c.718-.386 1.173-1.139 1.173-1.963v-13.451c0-.414-.114-.809-.315-1.146"/><path fill="#DDCC30" d="M75.384 39.045c-.009-.033-.014-.066-.023-.101-.059-.2-.142-.391-.243-.571-.011-.019-.014-.041-.025-.06l-.008.005c-.313-.525-.793-.945-1.389-1.159l-12.336-4.486c-.625-.222-1.223-.224-1.854.001l-12.331 4.484c-1.063.383-1.778 1.402-1.778 2.539v13.452c0 .993.543 1.901 1.416 2.37l12.321 6.72c.34.198.731.297 1.134.322l.007.059.466-.055c.084-.01.161-.035.242-.053.064-.014.128-.023.191-.041.194-.057.382-.128.552-.227l12.33-6.724c.874-.471 1.417-1.379 1.417-2.372v-13.451c-.001-.224-.036-.441-.089-.652zm-28.131 15.658c-.573-.308-.929-.903-.929-1.554v-13.452c0-.746.468-1.415 1.166-1.666l12.328-4.483c.213-.075.42-.113.615-.113.196 0 .404.038.612.112l12.333 4.485c.346.124.633.352.837.64l-14.197 5.096-.04.275c-.805 5.455-.017 15.207.195 17.578-.203-.031-.403-.085-.586-.19l-12.334-6.728zm27.29-1.554c0 .651-.355 1.246-.93 1.556l-12.343 6.73c-.002.001-.005.002-.007.003-.053.031-.113.046-.171.07-.278-2.99-.907-12.017-.235-17.056l13.663-4.904c.005.051.022.097.022.148v13.453z"/><path fill="none" d="M-103 1675.439m0 0"/><path fill="#F7E567" d="M50.518 57.464c0 .824-.455 1.577-1.173 1.963l-12.333 6.726c-.333.193-.701.281-1.068.281s-.735-.088-1.068-.281l-12.332-6.726c-.717-.386-1.173-1.139-1.173-1.963v-13.452c0-.946.596-1.787 1.471-2.102l12.332-4.485c.245-.087.508-.14.771-.14s.525.053.771.14l12.332 4.485c.877.315 1.472 1.156 1.472 2.102v13.452z"/><path fill="#ECD634" d="M48.171 43.977l-12.224 4.449c-.845 5.733.11 16.688.248 17.994.282-.033.56-.118.817-.267l12.333-6.726c.718-.386 1.173-1.139 1.173-1.963v-13.452c0-.414-.114-.808-.315-1.146"/><path fill="#DDCC30" d="M50.894 43.36c-.009-.034-.014-.067-.023-.101-.059-.201-.142-.391-.243-.571-.011-.019-.014-.041-.025-.06l-.008.004c-.312-.524-.792-.944-1.389-1.159l-12.336-4.485c-.625-.222-1.223-.223-1.855.001l-12.331 4.484c-1.063.382-1.778 1.402-1.778 2.538v13.452c0 .993.543 1.901 1.416 2.37l12.321 6.72c.34.198.731.297 1.134.322l.006.059.466-.055c.084-.01.161-.035.242-.053.064-.014.128-.023.191-.041.195-.057.382-.128.552-.227l12.33-6.724c.874-.471 1.417-1.379 1.417-2.372v-13.45c0-.224-.035-.441-.087-.652zm-28.131 15.658c-.573-.308-.929-.903-.929-1.554v-13.452c0-.745.468-1.415 1.166-1.666l12.329-4.483c.212-.075.419-.113.615-.113s.403.038.612.112l12.333 4.486c.345.124.633.352.836.64l-14.197 5.096-.041.275c-.805 5.455-.016 15.207.196 17.578-.204-.031-.404-.085-.586-.19l-12.334-6.729zm27.29-1.554c0 .651-.355 1.246-.931 1.556l-12.342 6.73c-.002.001-.004.002-.006.003-.054.031-.114.046-.171.07-.278-2.99-.907-12.017-.235-17.056l13.663-4.904c.004.05.023.097.023.148v13.453z"/><path fill="#4B5251" d="M2.693 51.692c0-6.785 1.29-12.535 3.872-17.256 2.582-4.716 5.616-7.748 9.105-9.091h.158l1.596 4.161c-2.232 1.64-4.073 4.291-5.521 7.954-1.448 3.663-2.172 8.391-2.172 14.181v.837c0 5.81.724 10.542 2.172 14.193 1.447 3.653 3.288 6.303 5.521 7.942l-1.596 4.16h-.158c-3.489-1.344-6.523-4.37-9.105-9.079-2.582-4.71-3.872-10.467-3.872-17.269v-.733zm95.307.734c0 6.802-1.291 12.559-3.872 17.269-2.582 4.709-5.617 7.735-9.105 9.079h-.158l-1.595-4.161c2.232-1.639 4.073-4.288 5.521-7.941 1.448-3.651 2.171-8.385 2.171-14.193v-.836c0-5.792-.723-10.52-2.171-14.182-1.447-3.663-3.288-6.314-5.521-7.954l1.595-4.161h.158c3.488 1.343 6.523 4.375 9.105 9.091 2.581 4.72 3.872 10.471 3.872 17.255v.734z"/><path fill="#F7E567" d="M70.002 66.912c0 .824-.455 1.577-1.173 1.963l-12.333 6.726c-.332.193-.7.281-1.068.281-.367 0-.734-.088-1.068-.281l-12.332-6.726c-.717-.386-1.173-1.139-1.173-1.963v-13.452c0-.946.596-1.786 1.471-2.102l12.333-4.485c.244-.087.508-.14.77-.14.264 0 .525.053.771.14l12.331 4.485c.877.315 1.472 1.155 1.472 2.102v13.452z"/><path fill="#ECD634" d="M67.655 53.425l-12.224 4.449c-.846 5.732.109 16.688.248 17.993.281-.033.56-.118.816-.267l12.333-6.726c.718-.386 1.173-1.139 1.173-1.963v-13.451c0-.413-.114-.808-.315-1.146"/><path fill="#DDCC30" d="M70.378 52.809c-.009-.033-.014-.067-.023-.102-.059-.2-.142-.391-.243-.57-.011-.02-.014-.041-.025-.061l-.008.005c-.313-.524-.793-.944-1.389-1.159l-12.336-4.486c-.625-.222-1.223-.223-1.854.001l-12.331 4.484c-1.063.383-1.778 1.402-1.778 2.538v13.452c0 .993.543 1.901 1.416 2.37l12.321 6.72c.34.198.731.297 1.134.322l.007.059.466-.055c.084-.01.161-.035.242-.053.064-.014.128-.023.191-.041.194-.057.382-.128.552-.227l12.33-6.724c.874-.471 1.417-1.379 1.417-2.372v-13.45c-.001-.224-.036-.44-.089-.651zm-28.13 15.657c-.573-.308-.929-.903-.929-1.554v-13.452c0-.745.468-1.415 1.166-1.665l12.328-4.484c.213-.075.42-.113.615-.113.196 0 .404.038.612.112l12.333 4.485c.346.125.633.352.837.641l-14.197 5.094-.04.275c-.805 5.455-.017 15.207.195 17.578-.203-.031-.403-.085-.586-.19l-12.334-6.727zm27.289-1.554c0 .651-.355 1.246-.93 1.556l-12.343 6.73c-.002.001-.005.002-.007.003-.053.031-.113.046-.171.07-.278-2.99-.907-12.017-.235-17.056l13.663-4.903c.005.05.022.096.022.147v13.453z"/></svg>