<svg xmlns="http://www.w3.org/2000/svg" width="24" height="24" viewBox="-467 269 24 24" enable-background="new -467 269 24 24"><path d="M-448.8 285.9c-.3.1-3.8 3.9-5.2 4-1.5-.1-4.9-3.9-5.2-4-2.7 1.8-5 4.7-5 6.6h20.4c0-1.9-2.2-4.8-5-6.6zm-2.2-2.2l.1-.1h.1c2-.1 3.4-.6 4-.9-.6-.5-1.6-1.9-1.6-4.4 0-5.1-3.8-6.8-5.6-6.8-1.5 0-5.6 1.2-5.6 6.8 0 2.5-1 3.8-1.6 4.4.6.3 2 .8 4 .9h.1l.1.1c.8 1.1 1.9 1.7 3 1.7h.1c1-.1 2-.6 2.9-1.7zm-3 .9c-1.3-.1-2.4-1-3.4-2.7.5.3 1.8.6 2.5.7 0 .2.4.6.7.6.5 0 .9-.3.9-.8s-.4-.8-.8-.8c-.2 0-.5.1-.6.3-1.2-.2-2.1-.4-2.8-.8-.3-1.2.1-4.3.8-5.6 1 .6 3.3 2 4.9 2 1.6 0 1.8 1 1.8 1.4-.3 3-2 5.6-4 5.7z"/></svg>