<svg xmlns="http://www.w3.org/2000/svg" width="40" height="40" viewBox="0 0 40 40"><path d="M28.7 26.5c-.6.1-6.3 6.5-8.7 6.6-2.5-.1-8.1-6.6-8.6-6.6-4.4 3-8.4 7.8-8.4 11h34c0-3.2-3.7-8-8.3-11zm-3.7-3.7l.1-.2h.2c3.4-.2 5.6-1 6.6-1.5-.9-.9-2.7-3.1-2.7-7.3 0-8.5-6.4-11.3-9.3-11.3-2.4 0-9.3 2.1-9.3 11.3 0 4.2-1.7 6.4-2.7 7.3 1 .5 3.3 1.4 6.6 1.5h.2l.1.2c1.4 1.8 3.1 2.8 4.9 2.8h.1c2.1 0 3.8-1 5.2-2.8zm-4.9 1.5h-.1c-2.1-.1-3.9-1.7-5.5-4.5.9.5 2.9 1 4.1 1.2 0 .4.7 1 1.1 1 .8 0 1.5-.5 1.5-1.3s-.6-1.4-1.4-1.4c-.4 0-.8.2-1.1.5-2-.3-3.6-.6-4.6-1.4-.5-1.9.2-7.1 1.4-9.3 1.6 1 5.5 3.4 8.2 3.4 2.7 0 3 1.6 3 2.3-.5 5.1-3.4 9.3-6.6 9.5z"/></svg>