<svg xmlns="http://www.w3.org/2000/svg" viewBox="-255 347 100 100" enable-background="new -255 347 100 100"><path d="M-187.8 430.4c-2.8 0-5.5-.7-8.1-1.7-3.8-1.4-7.6-2.6-11.1-4.6-5.4-3.1-10-7.1-14.4-11.4-3.3-3.3-6.4-6.9-9-10.8-3.3-4.9-5.1-10.4-7-15.9-.8-2.3-1.2-4.8-1-7.3.4-4.8 2.4-8.9 5.7-12.3.6-.6 1.5-1.2 2.3-1.4 1.8-.5 3.6-.9 5.5-1.3 1.2-.2 2.1.3 2.8 1.4 1 1.9 2.1 3.8 3.2 5.6 1.3 2.2 2.6 4.3 3.9 6.5.2.3.3.5.5.8.9 1.6.8 2.4-.4 3.7-1.1 1.2-2.4 2.2-3.6 3.3-.9.8-1.8 1.5-2.7 2.3-1.6 1.6-1.7 2.3-.6 4.2 1.3 2.3 2.6 4.5 4.1 6.6 4 5.9 9.2 10.6 15.4 14.1 1.3.8 2.6 1.5 4 2.2 1.1.6 2 .3 2.8-.5 1.1-1.1 2.1-2.4 3.1-3.5s2-2.3 3.1-3.3c1.2-1.1 2.1-1.2 3.5-.4 3.4 2 6.8 4 10.2 5.9 1 .6 2.1 1.2 3.2 1.8.8.5 1.1 1.2 1.1 2.1-.2 2.3-.6 4.5-1.6 6.6-.4.8-1 1.6-1.7 2.1-3.6 3-7.6 5-12.3 5.2-.5 0-.7 0-.9 0z"/></svg>