<svg xmlns="http://www.w3.org/2000/svg" viewBox="0 0 24 24" enable-background="new 0 0 24 24"><path d="M20.1 4.2h-16.5l-1.6 1v2.4c0 .6.5 1.1 1 1.1h.1c.1 0 .2 0 .2 0v6.5c0 .8.7 1.6 1.6 1.6h5.4v1.6h-1.5v1.6h6.2v-1.6h-1.6v-1.6h5.4c.8 0 1.6-.7 1.6-1.6v-6.6c.1 0 .2.1.3.1h.1c.6 0 1.1-.5 1.1-1l.1-2.3-1.9-1.2zm-15.1 10.9v-6.5c.1 0 .2 0 .3 0h.1c.5 0 1-.4 1.1-1 .1.5.5.8 1 .8h.1c.5 0 1-.3 1.1-.9.1.5.5.9 1 .9h.1c.5 0 .9-.3 1-.8.1.5.5.9 1 .9h.2c.5 0 1-.3 1.1-.9.1.5.5.9 1 .9h.1c.6 0 1-.4 1.1-1 .1.5.5.8 1 .8h.1c.5 0 .9-.3 1-.8.1.5.5.9 1 .9h.1c.1 0 .2 0 .3 0v6.5h-13.8z"/></svg>