<svg xmlns="http://www.w3.org/2000/svg" width="100" height="100" viewBox="0 0 100 100"><path d="M76.125 24.347c-14.206-14.206-37.238-14.206-51.444 0s-14.206 37.238 0 51.444 37.238 14.206 51.444 0 14.206-37.238 0-51.444zm-9.133 44.86c-1.383 1.383-3.645 1.383-5.028 0l-11.561-11.56-11.56 11.56c-1.383 1.383-3.645 1.383-5.028 0l-2.55-2.55c-1.383-1.383-1.383-3.645 0-5.028l11.561-11.561-11.562-11.56c-1.383-1.383-1.383-3.645 0-5.028l2.55-2.55c1.383-1.383 3.645-1.383 5.028 0l11.561 11.561 11.561-11.561c1.383-1.383 3.645-1.383 5.028 0l2.55 2.55c1.383 1.383 1.383 3.645 0 5.028l-11.561 11.561 11.561 11.561c1.383 1.383 1.383 3.645 0 5.028l-2.55 2.549z"/></svg>