<svg xmlns="http://www.w3.org/2000/svg" viewBox="-255 347 100 100" enable-background="new -255 347 100 100"><path d="M-228.7 425.5c.6.6 1.5 1 2.4 1 .9 0 1.8-.3 2.4-1l16.5-16.3 1.4-1.4 1.4 1.4 16.5 16.3c.6.6 1.5 1 2.4 1 .9 0 1.8-.3 2.4-1l3.9-3.8c.6-.6 1-1.4 1-2.3s-.3-1.7-1-2.3l-16.5-16.3-1.4-1.4 1.4-1.4 16.5-16.3c.6-.6 1-1.4 1-2.3 0-.9-.3-1.7-1-2.3l-3.9-3.8c-.6-.6-1.5-1-2.4-1-.9 0-1.8.3-2.4 1l-16.5 16.3-1.4 1.4-1.4-1.4-16.5-16.3c-.6-.6-1.5-1-2.4-1-.9 0-1.8.3-2.4 1l-3.9 3.8c-.6.6-1 1.4-1 2.3 0 .9.3 1.7 1 2.3l16.5 16.3 1.4 1.4-1.4 1.4-16.5 16.3c-.6.6-1 1.4-1 2.3 0 .9.3 1.7 1 2.3l3.9 3.8z"/></svg>