<svg xmlns="http://www.w3.org/2000/svg" width="100" height="100" viewBox="0 0 100 100"><path fill-rule="evenodd" clip-rule="evenodd" fill="#333" d="M38.179 36.554l9.214 12.82h.019c.238.587.811 1.002 1.484 1.002s1.246-.415 1.484-1.002h.019l9.214-12.82h-.027c2.016-2.415 3.232-5.522 3.232-8.914 0-7.689-6.233-13.921-13.922-13.921-7.689 0-13.921 6.233-13.921 13.921 0 3.392 1.216 6.499 3.232 8.914h-.028zm10.817-11.217c1.328 0 2.404 1.076 2.404 2.404s-1.076 2.404-2.404 2.404-2.404-1.076-2.404-2.404 1.076-2.404 2.404-2.404zm31.454 43.267h-60.9l-14.216 15.824h89.333l-14.217-15.824zm-45.946 9.013h-18.051l1.888-2.24h17.119l-.956 2.24zm5.986 0l.493-2.203h18.028l.2 2.203h-18.721zm24.13-2.203h16.626l1.602 2.203h-17.627l-.601-2.203z"/><path fill="#FCE666" d="M31.706 69v3.91h3.772c.002 2.143 1.738 3.879 3.879 3.879s3.876-1.736 3.879-3.879h9.703v-18.957h-19.63v15.046l-1.603.001zm5.369 3.906c0-1.262 1.021-2.285 2.282-2.285 1.261 0 2.282 1.023 2.282 2.285 0 1.262-1.022 2.285-2.282 2.285-1.26-.001-2.282-1.024-2.282-2.285zm16.494-16.951v16.955h2.807c.002 2.143 1.738 3.879 3.879 3.879s3.876-1.736 3.879-3.879h2.827v-7.607l-6.839-9.348h-6.553zm4.403 16.951c0-1.262 1.022-2.285 2.282-2.285s2.282 1.023 2.282 2.285c0 1.262-1.022 2.285-2.282 2.285-1.261-.001-2.282-1.024-2.282-2.285zm-2.583-15.128h3.809l4.88 6.672h-8.69v-6.672z"/></svg>