<svg xmlns="http://www.w3.org/2000/svg" width="16" height="16" viewBox="0 0 16 16"><path d="M8.455 1.614c-.251-.152-.659-.152-.909 0l-4.593 2.781c-.249.151-.453.521-.453.824v5.562c0 .302.204.673.453.825l4.592 2.781c.25.151.658.151.909 0l4.591-2.781c.25-.152.455-.523.455-.825v-5.562c0-.303-.205-.673-.455-.824l-4.59-2.781zm2.757 3.257c.249.151.249.399 0 .549l-2.757 1.67c-.251.152-.659.152-.909 0l-2.758-1.67c-.25-.15-.25-.398 0-.549l2.758-1.67c.25-.151.658-.151.909 0l2.757 1.67zm-7.402 1.776c0-.303.204-.427.453-.275l2.759 1.67c.249.152.453.521.453.826v3.339c0 .303-.204.427-.453.274l-2.759-1.669c-.249-.152-.453-.523-.453-.824v-3.341z"/></svg>