<svg xmlns="http://www.w3.org/2000/svg" width="22" height="22" viewBox="0 0 22 22"><path d="M7.7 12.2c0-.2-.2-.4-.4-.4h-3.9c-.2 0-.4.2-.4.4s.2.4.4.4h3.9c.2 0 .4-.2.4-.4zm-1.7 1.6h-.6v-.7c0-.2-.2-.4-.4-.4s-.4.2-.4.4v1.2c0 .2.2.4.4.4h1c.2 0 .4-.2.4-.4 0-.3-.2-.5-.4-.5zm-1.9-2.7h3.9c.2 0 .4-.2.4-.4s-.2-.4-.4-.4h-3.9c-.2 0-.4.2-.4.4 0 .1.1.4.4.4zm13.5-1.3c0-.1-.1-.2-.2-.3l-1-.8c-.1-.2-.2-.2-.2-.2h-1.6c-.2 0-.4.2-.4.4v2.6c0 .2.2.4.4.4h2.6c.2 0 .4-.2.4-.4 0 .1 0-1.7 0-1.7zm-2.6 1.3v-1.7h1l.7.7v1.1c0-.1-1.7-.1-1.7-.1zm-6.8 2.3c-.4 0-.7.2-1.2.4-.3.3-.5.7-.5 1.2 0 .4.2.8.5 1.2.2.2.7.4 1.2.4.8 0 1.6-.7 1.6-1.6 0-.9-.8-1.6-1.6-1.6zm.7 1.6c0 .4-.2.7-.7.7-.4 0-.7-.3-.7-.7 0-.4.3-.7.7-.7.4 0 .7.2.7.7zm9.9-6l-2.3-1.9c-.1-.1-.1-.1-.2-.1h-2.6v-1.1c0-.2-.2-.4-.4-.4h-8.2c-.2 0-.4.2-.4.4v2.4c0 .2.2.4.3.4h-.3c-.2.1-.4.2-.4.5 0 .2.2.4.4.4h3.9c.3 0 .4-.2.4-.4s-.2-.4-.4-.4h-3.5c.2 0 .3-.2.3-.4v-2h7.4v7.4h-2.6c-.2 0-.4.2-.4.4s.2.4.4.4h4.1v.4c0 .4.2.8.5 1.2.2.2.7.4 1.2.4.8 0 1.6-.7 1.6-1.6 0-.8-.7-1.6-1.6-1.6-.4 0-.7.2-1.2.4-.1.1-.2.2-.2.2-.1-.2-.2-.2-.4-.2h-.6v-6h2.4l2 1.7v4.3h-.2c-.2 0-.4.2-.4.4s.2.4.4.4h.7c.2 0 .4-.2.4-.4v-4.8c.1-.2 0-.3-.1-.4zm-3.5 6c0-.4.3-.7.7-.7.4 0 .7.2.7.7 0 .4-.2.7-.7.7-.4-.1-.7-.4-.7-.7z"/></svg>