<svg xmlns="http://www.w3.org/2000/svg" width="16" height="16" viewBox="-39 41 16 16" enable-background="new -39 41 16 16"><path d="M-26.6 46.3h-1.6v-1.2c0-.5-.4-.9-.9-.9h-6.7c-.6 0-1.1.5-1.1 1.1v6h1.1c0 .9.7 1.6 1.6 1.6s1.6-.7 1.6-1.6h3.3c0 .9.7 1.6 1.6 1.6.9 0 1.6-.7 1.6-1.6h1.1v-2.7s-1.6-2.3-1.6-2.3zm-7.7 5.8c-.5 0-.8-.4-.8-.8 0-.5.4-.8.8-.8.5 0 .8.4.8.8s-.3.8-.8.8zm5.3-2.5h-7.2v-4.1c0-.3.2-.5.5-.5h6.3c.3 0 .5.2.5.5-.1 0-.1 4.1-.1 4.1zm1.3 2.5c-.5 0-.8-.4-.8-.8 0-.5.4-.8.8-.8.5 0 .8.4.8.8s-.4.8-.8.8zm-.6-3.5v-1.5h1.4l1.1 1.5h-2.5z"/></svg>