<svg xmlns="http://www.w3.org/2000/svg" width="100" height="100" viewBox="-429 231 100 100" enable-background="new -429 231 100 100"><path d="M-332.7 273.8c-.5-14.6-11.9-26.5-26.5-26.5-2.2 0-4.4.3-6.5.8-6.5-8-16.2-12.6-26.6-12.6-18.9 0-34.3 15.4-34.3 34.3 0 22.6 22.5 36.2 45.5 36.8 24.2.7 49.1-13 48.4-32.8zm-83.9-3.9c0-13.4 10.9-24.3 24.3-24.3 8.3 0 16 4.2 20.5 11.2 1.3 2 3.9 2.9 6.2 1.9 2-.9 4.2-1.3 6.4-1.3 9.1 0 16.5 7.4 16.5 16.5 0 14.4-18.9 23.2-37.6 23.3-18.3.1-36.3-10-36.3-27.3zm29.8 10.1l16.7-16.6c1.9-1.9 4.8-2.2 6.5-.5 1.6 1.6 1.4 4.5-.5 6.5l-18.9 18.9c-.8.8-1.9 1.3-2.9 1.5-.1 0-.3.1-.4.1-.1 0-.3 0-.4 0-.1 0-.3 0-.4 0-.1 0-.3 0-.4-.1-1-.2-2.1-.7-2.9-1.5l-9.9-9.9c-1.9-1.9-2.2-4.8-.5-6.5 1.6-1.6 4.5-1.4 6.5.5l3.5 3.5"/></svg>