<svg xmlns="http://www.w3.org/2000/svg" width="100" height="100" viewBox="0 0 100 100"><path fill="#333" d="M60.468 14.634h-21.114v7.918h21.113v-7.918zm12.774 21.771l4.782-4.78-5.468-5.467-4.936 4.935c-4.946-3.598-11.032-5.726-17.62-5.726-16.568 0-30 13.431-30 30 0 16.568 13.432 29.999 30 29.999 16.568 0 30-13.432 30-30 0-7.193-2.535-13.794-6.758-18.961zm-6.045 34.567l-2.218-2.219-1.239 1.242 2.227 2.227c-3.944 3.736-9.196 6.108-15 6.348v-3.407h-1.758v3.412c-5.762-.194-10.989-2.488-14.946-6.138l2.416-2.413-1.246-1.245-2.416 2.417c-3.699-3.97-6.027-9.231-6.222-15.037h3.412v-1.76h-3.408c.238-5.804 2.61-11.053 6.346-14.996l2.403 2.403 1.243-1.243-2.392-2.392c3.94-3.577 9.114-5.818 14.811-6.009v3.059h1.759v-3.054c5.738.235 10.934 2.553 14.862 6.215l-2.154 2.155 1.243 1.244 2.153-2.151c3.612 3.917 5.896 9.078 6.131 14.77h-3.057v1.761h3.062c-.194 5.693-2.437 10.869-6.012 14.811z"/><path fill="#FCE666" d="M58.299 49.555l-2.488-2.488-3.965 3.963v-11.939h-3.517v16.186l3.003 1.245z"/></svg>