<svg xmlns="http://www.w3.org/2000/svg" width="100" height="100" viewBox="0 0 100 100"><path fill="#FCE566" d="M38.903 41.699c.01-2.135.69-4.283 2.105-6.098 3.397-4.356 9.685-5.134 14.042-1.735 2.511 1.961 3.825 4.878 3.84 7.833h12.248l7.203-5.471-16.16-21.273-35.204 26.744h11.926z"/><path d="M78.546 43.881h-59.989c-.558 0-1.01-.489-1.01-1.081 0-.59.453-1.069 1.01-1.069h4.835l2.792-2.151h-8.316c-1.263 0-2.868 1.14-2.868 2.868v39.166c0 2.368 1.936 4.303 4.302 4.303h57.095c2.365 0 4.301-1.935 4.301-4.303v-35.583c-.001-1.182-.969-2.15-2.152-2.15zm3.586-4.302h-5.332l-2.792 2.15h6.689c1.185 0 2.151.968 2.151 2.151v34.866c1.184 0 2.151-.97 2.151-2.152v-34.147c.001-1.183-1.685-2.868-2.867-2.868z" fill="#333"/><path fill="#C7AC3A" d="M52.557 20.117l-10.124-6.033-14.842 24.902 1.483-1.03z"/></svg>