<svg xmlns="http://www.w3.org/2000/svg" width="100" height="100" viewBox="0 0 100 100"><path d="M11 15.983c-1.65 0-3 1.35-3 3v46.749c0 1.65 1.125 3.746 2.5 4.658l44 29.184c1.375.912 2.5.309 2.5-1.342v-25.25c0-1.65 1.35-3 3-3h29c1.65 0 3-1.35 3-3v-47.999c0-1.65-1.35-3-3-3h-78zm71 40.999c0 1.65-1.35 3-3 3h-19c-1.65 0-3-1.35-3-3v-6c0-1.649 1.35-3 3-3h9c1.65 0 3-1.35 3-3v-4c0-1.649-1.35-3-3-3h-13.755c-1.649 0-4.179-.66-5.617-1.467l-16.177-9.065c-1.439-.807-1.267-1.467.383-1.467h45.166c1.65 0 3 1.35 3 3v27.999z"/></svg>