<svg xmlns="http://www.w3.org/2000/svg" width="60" height="60" viewBox="21.5 39.5 60 60" enable-background="new 21.5 39.5 60 60"><path fill="#999" d="M55.254 74.918c-.42-.223-.953-.205-1.359.044-.721.44-1.548.674-2.395.674-.848 0-1.675-.233-2.395-.675-.406-.247-.937-.266-1.358-.044-2.278 1.195-3.861 3.415-4.232 5.935-.059.393.058.79.319 1.09.26.302.639.474 1.037.474h13.257c.399 0 .777-.172 1.039-.474.261-.301.376-.698.318-1.09-.372-2.52-1.954-4.739-4.231-5.934zm-3.754-.681c2.721 0 4.934-2.204 4.934-4.911 0-2.708-2.213-4.911-4.934-4.911s-4.935 2.203-4.935 4.911c0 2.707 2.214 4.911 4.935 4.911zm-5.601-.02c.156-.181.227-.42.191-.654-.223-1.512-1.172-2.843-2.539-3.561-.252-.133-.572-.123-.815.027-.433.264-.929.404-1.437.404-.509 0-1.005-.141-1.438-.405-.243-.148-.561-.159-.814-.026-1.367.717-2.316 2.049-2.539 3.561-.035.235.034.475.191.654.156.181.383.283.622.283h7.954c.242 0 .468-.103.624-.283zm-4.599-4.623c1.633 0 2.96-1.322 2.96-2.946 0-1.625-1.327-2.946-2.96-2.946s-2.961 1.321-2.961 2.946c0 1.623 1.328 2.946 2.961 2.946zm23.252.408c-.252-.133-.572-.123-.815.027-.433.264-.929.404-1.437.404-.509 0-1.005-.141-1.438-.405-.243-.148-.561-.159-.814-.026-1.367.717-2.316 2.049-2.539 3.561-.035.235.034.475.191.654.156.181.383.283.622.283h7.954c.24 0 .467-.103.623-.283s.227-.42.191-.654c-.222-1.512-1.171-2.843-2.538-3.561zm-2.252-.408c1.633 0 2.96-1.322 2.96-2.946 0-1.625-1.327-2.946-2.96-2.946s-2.961 1.321-2.961 2.946c0 1.623 1.328 2.946 2.961 2.946zm-17.993-21.432c-.881.651-1.601 1.209-2.364 1.729-.298.207-.38.382-.244.746.319.871.577 1.759.9 2.795-.733-.531-1.376-.924-1.915-1.414-.611-.56-1.085-.533-1.689.021-.497.468-1.102.812-1.807 1.117.266-.796.515-1.589.791-2.383.15-.407.113-.691-.297-.95-.726-.475-1.42-1.025-2.297-1.66 1.064 0 1.951-.017 2.838.007.432.017.638-.116.762-.555.225-.846.527-1.671.867-2.701.314.967.598 1.767.832 2.585.141.506.365.713.912.68.845-.06 1.696-.017 2.711-.017m21.591 5.28c-.831-.614-1.551-1.087-2.197-1.634-.427-.361-.718-.3-1.118.021-.621.496-1.284.947-2.067 1.52.15-.971.455-1.715.729-2.469.184-.505.113-.828-.36-1.131-.691-.451-1.346-.961-2.203-1.59 1.02 0 1.842-.039 2.66.02.604.04.874-.195 1.021-.768.197-.776.48-1.545.792-2.521.308.977.589 1.745.79 2.521.146.572.41.808 1.018.768.821-.059 1.648-.02 2.649-.02-.881.655-1.615 1.218-2.367 1.732-.317.214-.379.391-.247.753.316.869.567 1.755.9 2.798m-17.139-3.153c.335-1.06.595-1.969.904-2.864.101-.299.092-.44-.181-.625-.766-.524-1.5-1.093-2.418-1.762 1.017 0 1.867-.035 2.721.009.502.027.729-.149.857-.635.223-.826.521-1.627.844-2.62.336.98.649 1.803.879 2.646.125.468.324.626.802.608.872-.042 1.741-.009 2.761-.009-.871.642-1.607 1.215-2.376 1.729-.296.201-.326.359-.209.688.308.872.563 1.765.902 2.824-.811-.587-1.507-1.038-2.128-1.566-.467-.397-.804-.36-1.261.017-.621.526-1.3.98-2.097 1.56m23.294 23.47c.323-.998.516-1.814.837-2.566.248-.583.07-.86-.398-1.16-.684-.451-1.324-.952-2.128-1.544 1.043 0 1.917-.017 2.791.012.426.017.647-.105.771-.551.228-.854.544-1.689.881-2.703.328.996.647 1.798.858 2.64.13.52.391.636.874.619.841-.041 1.694-.017 2.704-.017-.794.592-1.437 1.101-2.121 1.544-.487.3-.637.581-.4 1.16.326.781.525 1.607.822 2.562-.863-.638-1.598-1.16-2.309-1.71-.316-.251-.555-.239-.871 0-.713.554-1.441 1.076-2.311 1.714m-16.125 18.183c-.874.651-1.607 1.224-2.376 1.745-.3.197-.326.349-.214.68.308.888.572 1.794.896 2.838-.825-.609-1.525-1.103-2.187-1.631-.377-.303-.668-.352-1.068-.026-.656.543-1.355 1.022-2.225 1.662.326-1.026.579-1.885.879-2.729.139-.397.115-.619-.274-.869-.743-.473-1.425-1.027-2.294-1.669.984 0 1.82-.042 2.641.017.582.042.83-.185.973-.719.216-.789.495-1.571.809-2.545.331.99.654 1.812.875 2.661.129.46.33.618.811.603.865-.039 1.739-.018 2.754-.018m-24.974-18.18c-.886-.658-1.582-1.143-2.248-1.674-.364-.284-.635-.301-1.002-.008-.66.53-1.355.998-2.167 1.398.256-.803.497-1.604.782-2.387.17-.456.083-.724-.331-.989-.716-.456-1.383-.994-2.232-1.61.974 0 1.788-.064 2.579.019.664.068.916-.22 1.075-.803.206-.765.471-1.517.785-2.484.307.955.601 1.729.804 2.529.15.577.418.793 1.02.756.82-.056 1.641-.017 2.619-.017-.818.598-1.484 1.119-2.189 1.584-.425.279-.569.532-.364 1.048.322.81.551 1.653.869 2.638m4.386 14.989c1.108 0 1.972-.042 2.833.01.518.028.738-.172.867-.645.211-.811.492-1.601.804-2.596.342 1.025.649 1.854.881 2.714.108.401.296.531.703.524.896-.028 1.793-.008 2.93-.008-.916.673-1.652 1.245-2.416 1.769-.305.21-.38.375-.244.749.323.863.579 1.757.905 2.8-.816-.598-1.523-1.064-2.159-1.604-.447-.37-.771-.325-1.2.023-.633.521-1.326.982-2.127 1.57.284-.926.477-1.719.791-2.464.258-.619.117-.957-.428-1.3-.68-.423-1.305-.937-2.14-1.542m25.062 5.323c.323-1.043.593-1.927.896-2.795.121-.351.107-.534-.232-.749-.769-.512-1.49-1.091-2.424-1.78 1.086 0 1.974-.032 2.855.008.471.019.687-.126.813-.594.226-.823.516-1.633.844-2.649.298.944.572 1.685.767 2.442.152.587.394.868 1.058.803.807-.069 1.627-.01 2.68-.01-.863.633-1.523 1.186-2.25 1.639-.498.31-.523.619-.332 1.117.292.795.516 1.609.832 2.57-.869-.637-1.594-1.161-2.311-1.714-.312-.243-.561-.25-.881 0-.714.548-1.447 1.07-2.315 1.712m-26.345-32.053c-.849-.626-1.557-1.094-2.21-1.644-.41-.342-.696-.271-1.071.017-.667.521-1.36 1.008-2.203 1.632.33-1.029.581-1.903.886-2.751.139-.376.098-.581-.248-.81-.748-.5-1.448-1.056-2.324-1.698 1.042 0 1.905-.03 2.771.012.481.026.68-.155.804-.604.24-.865.543-1.707.861-2.693.328.998.631 1.828.861 2.693.122.456.316.631.801.604.863-.042 1.735-.012 2.771-.012-.779.565-1.393 1.063-2.06 1.485-.522.337-.721.646-.426 1.29.329.743.505 1.56.787 2.479m-7.176 18.202c.949 0 1.702-.057 2.447.01.703.056 1.075-.129 1.227-.888.153-.765.473-1.507.769-2.403.334 1.013.643 1.864.875 2.731.12.451.335.568.762.552.87-.025 1.744-.002 2.787-.002-.869.635-1.582 1.202-2.339 1.711-.31.211-.372.394-.248.752.307.865.574 1.746.923 2.799-.879-.64-1.62-1.173-2.346-1.729-.289-.224-.504-.242-.811-.01-.708.561-1.452 1.07-2.344 1.725.32-1.013.563-1.885.874-2.719.153-.425.07-.629-.292-.873-.732-.486-1.412-1.022-2.284-1.656m49.238-23.468c-.767.564-1.344 1.045-1.974 1.427-.612.375-.818.756-.483 1.478.305.656.46 1.394.753 2.338-.874-.643-1.573-1.119-2.241-1.641-.355-.288-.628-.305-.993 0-.68.547-1.409 1.043-2.255 1.669.316-.979.556-1.834.862-2.654.183-.47.082-.729-.323-1.006-.709-.468-1.383-.984-2.236-1.61 1.043 0 1.932-.014 2.809.01.428.017.642-.098.762-.543.235-.87.546-1.725.846-2.669.389.831.614 1.664.844 2.492.134.515.354.776.95.727.822-.062 1.644-.018 2.679-.018m-7.201 28.735c.33-1.022.598-1.901.911-2.769.127-.363.066-.593-.273-.818-.738-.494-1.441-1.045-2.319-1.68 1.061 0 1.953-.017 2.844.002.387.008.586-.101.703-.506.25-.886.558-1.756.886-2.793.305.936.579 1.729.812 2.539.136.539.363.823.993.768.812-.066 1.637-.01 2.635-.01-.804.581-1.425 1.119-2.111 1.525-.572.345-.601.696-.375 1.254.283.705.482 1.456.59 2.314-.668-.493-1.344-.968-1.996-1.478-.373-.293-.664-.343-1.066-.007-.675.569-1.397 1.049-2.234 1.659"/><path fill="#666" d="M45.114 82.04c.371-2.52 1.954-4.739 4.232-5.935.422-.222.952-.203 1.358.044.72.441 1.547.675 2.395.675.847 0 1.674-.233 2.395-.674.406-.249.939-.267 1.359-.044.086.045.164.102.248.149-.547-.527-1.16-.99-1.848-1.351-.42-.223-.953-.205-1.359.044-.721.44-1.548.674-2.395.674-.848 0-1.675-.233-2.395-.675-.406-.247-.937-.266-1.358-.044-2.278 1.195-3.861 3.415-4.232 5.935-.059.393.058.79.319 1.09.26.302.639.474 1.037.474h.244c-.013-.119-.018-.24 0-.362zm3.051-11.513c0-2.708 2.214-4.911 4.935-4.911.747 0 1.449.179 2.084.476-.904-1.02-2.212-1.677-3.684-1.677-2.721 0-4.935 2.203-4.935 4.911 0 1.963 1.172 3.649 2.85 4.435-.769-.866-1.25-1.99-1.25-3.234zm-7.76.382c.239-.145.537-.133.767.028.408.289.875.441 1.354.441.477 0 .944-.152 1.353-.439.186-.134.413-.138.621-.068-.375-.513-.832-.95-1.36-1.271-.237-.145-.539-.134-.768.03-.407.287-.875.44-1.354.44-.478 0-.945-.153-1.353-.441-.229-.162-.528-.174-.767-.029-1.287.781-2.182 2.231-2.391 3.878-.034.257.032.518.18.713.147.196.36.309.586.309h.792c.275-1.526 1.129-2.855 2.34-3.591zm-.467-3.06c0-1.625 1.328-2.946 2.961-2.946.309 0 .602.061.882.148-.528-.811-1.44-1.35-2.481-1.35-1.633 0-2.961 1.321-2.961 2.946 0 1.316.879 2.422 2.079 2.798-.301-.461-.48-1.007-.48-1.596z"/><path fill="#999" d="M64.552 70.002c-.252-.133-.572-.123-.815.027-.433.264-.929.404-1.437.404-.509 0-1.005-.141-1.438-.405-.243-.148-.561-.159-.814-.026-1.367.717-2.316 2.049-2.539 3.561-.035.235.034.475.191.654.156.181.383.283.622.283h7.954c.24 0 .467-.103.623-.283s.227-.42.191-.654c-.222-1.512-1.171-2.843-2.538-3.561zm-2.252-.408c1.633 0 2.96-1.322 2.96-2.946 0-1.625-1.327-2.946-2.96-2.946s-2.961 1.321-2.961 2.946c0 1.623 1.328 2.946 2.961 2.946z"/><path d="M61.405 70.909c.239-.145.537-.133.767.028.408.289.875.441 1.354.441.477 0 .944-.152 1.353-.439.186-.134.413-.138.621-.068-.375-.513-.832-.95-1.36-1.271-.237-.145-.539-.134-.768.03-.407.287-.875.44-1.354.44-.478 0-.945-.153-1.353-.441-.229-.162-.528-.174-.767-.029-1.287.781-2.182 2.231-2.391 3.878-.034.257.032.518.18.713.147.196.36.309.586.309h.792c.275-1.526 1.129-2.855 2.34-3.591zm-.467-3.06c0-1.625 1.328-2.946 2.961-2.946.309 0 .602.061.882.148-.528-.811-1.44-1.35-2.481-1.35-1.633 0-2.961 1.321-2.961 2.946 0 1.316.879 2.422 2.079 2.798-.301-.461-.48-1.007-.48-1.596zm-22.657-17.427c-.081-.053-.16-.109-.24-.164.036.15.011.318-.063.515-.276.794-.525 1.587-.791 2.383.345-.15.665-.31.961-.487.143-.433.28-.864.431-1.295.15-.409.112-.692-.298-.952zm3.914-1.644c.433-.03.868-.034 1.324-.03.257-.191.505-.378.787-.586-1.015 0-1.865-.043-2.711.016-.111.008-.202-.003-.287-.018.142.454.367.65.887.618zm-3.373-.009c.432.017.638-.116.762-.554.18-.673.408-1.339.666-2.1-.127-.381-.258-.771-.398-1.202-.34 1.03-.643 1.855-.867 2.701-.124.438-.33.571-.762.555-.887-.023-1.773-.007-2.838-.007.29.209.555.407.813.599.965-.001 1.801-.015 2.624.008zm11.139-1.468c-.081-.053-.16-.11-.24-.164.036.149.011.317-.063.515-.276.793-.525 1.586-.791 2.382.345-.149.665-.31.961-.487.143-.433.28-.863.431-1.295.149-.409.112-.692-.298-.951zm3.914-1.645c.433-.03.868-.034 1.324-.03.257-.191.505-.377.787-.586-1.015 0-1.865-.042-2.711.017-.111.007-.202-.004-.287-.018.142.453.366.649.887.617zm-3.373-.009c.432.016.638-.116.762-.555.18-.673.408-1.338.666-2.099-.127-.381-.258-.771-.398-1.202-.34 1.029-.643 1.854-.867 2.701-.124.438-.33.57-.762.554-.887-.023-1.773-.007-2.838-.007.29.21.555.408.813.599.965 0 1.801-.013 2.624.009zm-.541 48.557c-.081-.053-.16-.11-.24-.164.036.149.011.317-.063.515-.276.793-.525 1.586-.791 2.382.345-.149.665-.31.961-.487.143-.433.28-.863.431-1.295.149-.409.112-.692-.298-.951zm3.914-1.644c.433-.03.868-.034 1.324-.03.257-.191.505-.377.787-.586-1.015 0-1.865-.042-2.711.017-.111.007-.202-.004-.287-.018.142.453.366.649.887.617zm-3.373-.009c.432.016.638-.116.762-.555.18-.673.408-1.338.666-2.099-.127-.381-.258-.771-.398-1.202-.34 1.029-.643 1.854-.867 2.701-.124.438-.33.57-.762.554-.887-.023-1.773-.007-2.838-.007.29.21.555.408.813.599.965-.001 1.801-.014 2.624.009zm-23.849-21.819c-.081-.053-.161-.109-.24-.164.036.15.01.318-.063.515-.276.794-.526 1.587-.791 2.383.345-.15.664-.31.961-.487.142-.433.28-.864.43-1.295.151-.409.113-.692-.297-.952zm3.914-1.643c.432-.03.868-.034 1.324-.03.256-.191.505-.378.787-.586-1.015 0-1.865-.043-2.712.016-.111.008-.201-.003-.287-.018.142.454.368.649.888.618zm-3.373-.01c.432.017.638-.116.762-.554.18-.673.408-1.339.666-2.1-.127-.381-.258-.771-.398-1.202-.34 1.03-.643 1.855-.867 2.701-.125.438-.331.571-.762.555-.888-.023-1.773-.007-2.839-.007.291.209.556.407.813.599.966-.001 1.801-.014 2.625.008zm46.024 1.654c-.081-.053-.16-.109-.24-.164.036.15.011.318-.063.515-.276.794-.525 1.587-.791 2.383.345-.15.665-.31.961-.487.143-.433.28-.864.431-1.295.149-.409.112-.692-.298-.952zm3.914-1.643c.433-.03.868-.034 1.324-.03.257-.191.505-.378.787-.586-1.015 0-1.865-.043-2.711.016-.111.008-.202-.003-.287-.018.142.454.366.649.887.618zm-3.373-.01c.432.017.638-.116.762-.554.18-.673.408-1.339.666-2.1-.127-.381-.258-.771-.398-1.202-.34 1.03-.643 1.855-.867 2.701-.124.438-.33.571-.762.555-.887-.023-1.773-.007-2.838-.007.29.209.555.407.813.599.965-.001 1.801-.014 2.624.008zm-3.626 13.357c-.081-.053-.16-.11-.24-.164.036.149.011.317-.062.514-.277.794-.526 1.587-.791 2.383.344-.15.664-.31.961-.487.142-.433.279-.864.43-1.295.15-.409.112-.693-.298-.951zm3.914-1.645c.433-.03.868-.034 1.324-.03.257-.191.505-.378.788-.586-1.016 0-1.866-.042-2.712.017-.111.007-.202-.004-.287-.018.142.453.366.648.887.617zm-3.372-.01c.431.017.637-.115.762-.554.179-.673.407-1.339.665-2.099-.126-.381-.258-.771-.398-1.203-.34 1.03-.642 1.855-.867 2.701-.124.438-.33.571-.762.555-.887-.023-1.772-.007-2.838-.007.29.21.556.407.813.599.965-.001 1.801-.013 2.625.008zm-40.898 1.668c-.081-.053-.16-.11-.24-.164.036.15.011.317-.063.515-.276.793-.525 1.587-.791 2.383.345-.15.665-.31.961-.488.143-.432.28-.863.431-1.295.15-.408.113-.692-.298-.951zm3.915-1.643c.431-.031.867-.034 1.324-.031.255-.19.504-.377.787-.586-1.015 0-1.865-.042-2.712.017-.112.007-.201-.003-.288-.018.143.454.369.649.889.618zm-3.374-.01c.433.017.639-.116.763-.555.178-.672.408-1.338.666-2.099-.127-.381-.258-.771-.398-1.202-.34 1.03-.643 1.855-.867 2.701-.125.438-.331.57-.763.555-.887-.023-1.773-.008-2.838-.008.29.21.555.408.813.6.965-.002 1.801-.015 2.624.008zm31.221 10.226c-.081-.053-.161-.109-.24-.164.036.15.011.318-.063.515-.276.794-.526 1.587-.791 2.383.345-.15.665-.31.961-.487.142-.433.28-.864.431-1.295.149-.409.112-.692-.298-.952zm3.914-1.643c.433-.03.868-.034 1.324-.03.257-.191.505-.378.787-.586-1.015 0-1.865-.043-2.712.016-.111.008-.201-.003-.287-.018.143.454.368.649.888.618zm-3.373-.01c.432.017.638-.116.762-.554.18-.673.408-1.339.666-2.1-.127-.381-.258-.771-.398-1.202-.34 1.03-.643 1.855-.867 2.701-.124.438-.331.571-.762.555-.888-.023-1.773-.007-2.839-.007.291.209.556.407.813.599.966-.001 1.802-.014 2.625.008zm-23.843 1.659c-.081-.053-.161-.11-.24-.164.036.15.01.317-.063.515-.276.793-.526 1.587-.791 2.383.345-.15.664-.31.961-.488.142-.432.28-.863.43-1.295.151-.408.113-.692-.297-.951zm3.914-1.643c.432-.031.868-.034 1.324-.031.256-.19.505-.377.787-.586-1.015 0-1.865-.042-2.712.017-.111.007-.201-.003-.287-.018.142.454.368.649.888.618zm-3.373-.01c.432.017.638-.116.762-.555.18-.672.408-1.338.666-2.099-.127-.381-.258-.771-.398-1.202-.34 1.03-.643 1.855-.867 2.701-.125.438-.331.57-.762.555-.888-.023-1.773-.008-2.839-.008.291.21.556.408.813.6.966-.002 1.801-.014 2.625.008zm-8.995-30.386c-.081-.053-.161-.11-.24-.164.036.149.01.317-.063.514-.276.794-.526 1.587-.791 2.383.345-.15.664-.31.961-.487.142-.433.28-.864.43-1.295.15-.409.113-.692-.297-.951zm3.914-1.644c.432-.03.868-.034 1.324-.03.256-.191.505-.378.787-.586-1.015 0-1.865-.042-2.712.017-.111.007-.201-.004-.287-.018.142.453.368.648.888.617zm-3.373-.01c.432.017.638-.115.762-.554.18-.673.408-1.339.666-2.099-.127-.381-.258-.771-.398-1.203-.34 1.03-.643 1.855-.867 2.701-.125.438-.331.571-.762.555-.888-.023-1.773-.007-2.839-.007.291.21.556.407.813.599.966-.001 1.801-.014 2.625.008zm39.802 1.726c-.081-.053-.161-.11-.24-.164.036.15.011.317-.063.515-.276.793-.526 1.587-.791 2.382.345-.149.665-.309.961-.487.142-.433.28-.863.431-1.295.149-.409.112-.693-.298-.951zm3.914-1.645c.433-.03.868-.033 1.324-.03.257-.19.505-.377.787-.586-1.015 0-1.865-.042-2.712.017-.111.007-.201-.004-.287-.018.143.453.368.649.888.617zm-3.373-.009c.432.017.638-.116.762-.555.18-.673.408-1.338.666-2.099-.127-.381-.258-.771-.398-1.202-.34 1.03-.643 1.854-.867 2.701-.124.438-.331.57-.762.554-.888-.023-1.773-.007-2.839-.007.291.21.556.408.813.599.966-.001 1.802-.013 2.625.009zm-9.09-7.01c-.081-.053-.16-.11-.24-.164.036.15.011.317-.062.515-.277.793-.526 1.587-.791 2.383.344-.15.664-.31.961-.488.142-.432.279-.863.43-1.295.15-.408.112-.692-.298-.951zm3.914-1.643c.433-.031.868-.034 1.324-.031.257-.19.505-.377.788-.586-1.016 0-1.866-.042-2.712.017-.111.007-.202-.003-.287-.018.142.454.367.649.887.618zm-3.372-.01c.431.017.637-.116.762-.555.179-.672.407-1.338.665-2.099-.126-.381-.258-.771-.398-1.202-.34 1.03-.642 1.855-.867 2.701-.124.438-.33.57-.762.555-.887-.023-1.772-.008-2.838-.008.29.21.556.408.813.6.965-.002 1.801-.014 2.625.008z" fill="#666"/></svg>