<svg xmlns="http://www.w3.org/2000/svg" width="60" height="60" viewBox="21.5 39.5 60 60" enable-background="new 21.5 39.5 60 60"><path fill="#999" d="M71.265 77.15c0 10.645-8.63 19.274-19.273 19.274-10.645 0-19.273-8.63-19.273-19.274s8.629-19.272 19.273-19.272c10.643 0 19.273 8.628 19.273 19.272z"/><path fill="#666" d="M33.718 78.15c0-10.645 8.629-19.272 19.273-19.272 5.067 0 9.664 1.971 13.104 5.169-3.52-3.786-8.527-6.169-14.104-6.169-10.645 0-19.273 8.628-19.273 19.272 0 5.577 2.383 10.586 6.169 14.105-3.199-3.44-5.169-8.037-5.169-13.105zm20.132-13.648l-.069.459.475.305.807-.534-.405-.458-.54.306zm-14.163 14.911l-.138-.062-.539.076-.482-.351.488.614.729.529.195-.524c-.063-.025-.127-.048-.183-.083l-.07-.199zm17.19-12.502l-.196.196v.189l.004-.004.356-.604c-.078-.168-.143-.34-.225-.508h-.404v.278l.465.453zm-9.028-4.85l.6.414v-.296l-.422-.292zm16.321 13.398c.328.945.65 1.846 1.079 2.75.183 0 .358-.016.536-.025-.055-.133-.117-.266-.17-.399l-.166-.189.051-.13c-.129-.349-.256-.697-.381-1.056l-.572-.648-.303-1.106.109-.125-.082-.176-.746-.844h-.059l-.174.194.304 1.106.574.648zm-16.618-13.898l-.573-.395-.208.209-.679.098-.604.283-.293.142-.178.239.875.152.337-.305.676-.152c.214-.104.429-.19.647-.271zm-3.075 3.628l-.103.181.253-.096zm-1.213-.489l.264-.461.503.284.11-.249c.121-.087.244-.169.365-.255l-.236-.16.54-.382.673.304v.041l.209.07c.449.305.899.609 1.348.916l.675-.611-.742-.305-.282-.578-.6.545c-.449-.307-.899-.611-1.35-.916l-.104-.035-.227.451-.312-.635-.031-.012c-.007.005-.013.01-.019.014l-.111.25.068.764-.54.457-.201.503zm19.066 6.505c.249.297.472.616.699.932l.252.018.148-.129.269-.383-.606-.381-.762-.057zm-4.425-.519l.134-.306 1.013-.228.115.131.081-.166-.607-.304-.539-.61-1.013.227-.134.304-.127.082.067.258h-.479l-.067.043-.338.839-.668.334v.392l1.006-.268.85-.101.1-.246zm2.495.916l.215-.547-.49-.557-.045-.248-.086-.098h.069l-.073-.418-.675-.531h-.27l.675.762-.256.654.126.145.609.303-.338.687zm-4.038-3.944l-.079-.201-.562.115.06.376.399-.083zm3.395 5.088l-.3-.304-.012-.003.309.311zm1.929-9.346h-.077l.875.916.514-.582-.777-.146zm-.612 8.049l.607.688.134-.993.177-.08c-.249-.352-.489-.712-.788-1.022l-.339.152-.053.392.127.101.135.762zm-3.018-5.652l.046-.029v.238l.088.393.295.066.501-.359.31.352.83-.689.035-.195-.03-.077.204-.382.307-.285c-.173.024-.346.053-.516.1v-.687l.328-.746-.391.093-.201.134-.477.441-.131.243v.174l-.049.032.18.468-.34.914-.539-.305-.346-.393-.188.123.084.376zm-11.874 2.654l.857-.285.135-.457-.405-.381-.472-.154.137-.457-.338-.686-.625.232.348.115.404.38-.133.456-1.148.383h-.808l-1.146.534c.607 0 1.214 0 1.82 0l-.521.788.798-.373h.809l.178-.059-.184-.966.607.458-.313.472zm12.375 12.143l-.521-.592h-.911l-.304-.345-.91.572-.371-.421-.781.672c.297.334.592.67.888 1.004l.845-.725.371.42.908-.572.305.344h.373l.108-.357zm-5.658-17.041l.269.076.54-.305.081.092.803-2.041-1.146-.451-.613 1.561c-.99.459-1.924.823-2.967 1.145l-.676 1.068-.172.099.584 1.157.539-.306.675-1.067c.714-.221 1.379-.476 2.043-.753l.04-.275zm-14.834 15.189l-.607-.766-1.415-.382-.842-.497c.176.295.375.608.375.608l1.416.839 1.277.346-.204-.148zm3.169 7.707l-.384-.339.121.22.476.42zm7.687-2.441l-.809 1.145.136 1.525-.541 1.221-1.013.23-.47.688.201.457-.674 1.679-.877.306-.203.534-.538.535.136.38s-.115.09-.248.191c-.074.055-.736-.272-1.332-.607l-.033.146s-.033-.011.02.165c.052.177 2.162 1.346 2.295 1.246.134-.102.248-.189.248-.189l-.135-.381.538-.535.203-.533.877-.307.675-1.68-.201-.457.469-.687 1.014-.229.539-1.221-.135-1.527.809-1.145.135-1.145c-.335-.167-.668-.34-1.002-.51l-.084.705zm19.456-14.987c-1.195-2.052-3.113-3.956-3.803-4.612.871.914 2.031 2.254 2.853 3.662 1.478 2.535 2.171 5.523 2.171 6.131l-.506.572c-.31-.364-.656-.672-1.01-.994l-.777.115-.707-.801v.99l.607.459.344.389v-.889l.453.515.147-.167c.077.145.153.29.229.436l.654-.096c.352.32.699.629 1.009.993.001 0-.187-4.169-1.664-6.703zm.182 6.93l-.018-.02-.596.672-1.111.764-.317.316.153.175-.105.267c.213-.023.424-.044.641-.07v.533l-.211.518.789-.789 1.111-.762.609-.688v-.762c-.136-.256-.27-.511-.404-.766l-.541.612zm-2.163 4.621l-.742.84-.607 1.299c0 .712 0 1.424 0 2.135l.202.842-.335.381-.744.459-.776.647.642.726-.876.764.168.494-1.315 1.49h-.876l-.36.223.095.574v.611h.474l.742-.459h.877l1.314-1.49-.168-.492.877-.766-.643-.725.775-.648.744-.458.336-.382-.202-.841c0-.71 0-1.423 0-2.136l.606-1.299.742-.838.809-1.984v-.535c-.395.049-.779.09-1.166.118l-.593 1.45zm-21.544-.539l-.241-.646-.572.064.162.436zm-3.282-13.047l.069.307.109-.232zm-1.953 7.163l.207.046.742.917.135-1.527 1.28-1.067.474-1.146.942-.38.54-.763 1.213-.23.607-.916c-.578 0-1.155 0-1.733 0l-1.037.197-.54.762-.942.381-.474 1.146-1.279 1.067-.135 1.513zm-3.102 2.225l.22-.106-.012-.163.134-.917 1.012-.762h.809l.135-.459.791.179-.731-.9-1.011-.228-.133.458h-.81l-1.013.762-.134.916.068.84zm10.929-7.444l-.606-.457.201 1.067zm-8.906 8.972l.269.762c.201.124.447.177.694.223l-.013-.035v-.84l-.81.076c.067-.533.134-1.068.202-1.603h-.473l-.472.611-.058.028.659-.063v.841zm7.847 3.604l-.222-.441-.532-.119.121.238c.211.108.423.212.633.322zm.049-16.24v-.534l-.674-.304-.541.381.674.457zm-4.053-1.789l-.007.006-.257.64s-.42.082-.623.126l-.178.104c-.359.334-.782.739-1.239 1.224l.079.266.762.318-.016-.055 1.686-.992.742-.687.067-.839-.259-.146-.286.646h-.675l.322-.799-.045-.007-.074.182v.013z"/><path fill="#fff" d="M69.598 74.201c0 .243 0 0 0 0l-.506.572c-.31-.364-.656-.672-1.01-.994l-.777.115-.707-.801v.99l.607.459.403.458.541-.61c.134.254.269.51.404.764v.764l-.608.686-1.111.764-.844.842-.541-.614.271-.687-.539-.61-.91-1.944-.775-.878-.203.229.304 1.106.573.648c.328.945.65 1.846 1.079 2.75.667 0 1.294-.072 1.956-.154v.533l-.809 1.984-.742.84-.607 1.299c0 .712 0 1.424 0 2.135l.202.842-.335.381-.744.459-.776.647.642.726-.876.764.168.494-1.315 1.49h-.876l-.741.458h-.476v-.61l-.2-1.223c-.261-.767-.532-1.527-.809-2.288 0-.562.033-1.118.066-1.681l.338-.764-.472-.916.033-1.259-.642-.725.321-1.048-.521-.592h-.911l-.304-.345-.91.572-.371-.421-.844.725c-.571-.646-1.145-1.297-1.719-1.945l-.673-1.603.606-.914-.338-.382.742-1.758c.607-.756 1.244-1.482 1.887-2.213l1.147-.305 1.281-.152.876.23 1.248 1.258.439-.496.604-.077 1.147.382h.876l.608-.533.269-.383-.606-.381-1.013-.076c-.281-.389-.542-.799-.875-1.145l-.339.152-.135.992-.605-.688-.135-.764-.675-.531h-.271l.675.762-.269.688-.54.151.337-.687-.607-.305-.539-.609-1.013.227-.134.305-.606.383-.338.839-.843.421-.371-.421h-.404v-1.373l.878-.458h.673l-.136-.533-.537-.536.909-.19.505-.572.404-.686h.744l-.204-.535.473-.305v.611l1.012.229 1.012-.84.068-.383.875-.609c-.318.039-.635.068-.943.152v-.687l.336-.764h-.336l-.74.686-.205.382.205.535-.34.914-.539-.305-.471-.533-.743.533-.271-1.221 1.283-.84v-.457l.809-.534 1.281-.306.877.306 1.617.306-.4.458h-.875l.875.916.675-.764.205-.335s2.585 2.316 4.063 4.853c1.477 2.535 2.171 5.524 2.171 6.131zm-16.699-10.648l-.067.458.474.306.808-.535-.405-.457-.54.305-.27-.077m.743-3.129l-1.753-.688-2.023.229-2.495.687-.472.459 1.551 1.067v.611l-.605.61.809 1.604.537-.307.676-1.068c1.043-.321 1.977-.686 2.967-1.145l.808-2.059m1.821 6.412l-.271-.688-.474.152.137.84.608-.304m.267-.153l-.133.915.742-.152.537-.534-.471-.458c-.16-.422-.342-.816-.54-1.221h-.403v.457l.268.305v.688m-9.978 14.501l-.539-1.068-1.012-.229-.539-1.451-1.348.152-1.147-.838-1.214 1.067v.169c-.367-.105-.818-.121-1.146-.322l-.269-.762v-.84l-.81.076c.067-.535.134-1.068.203-1.604h-.474l-.472.611-.472.228-.675-.38-.067-.84.134-.916 1.013-.763h.81l.134-.458 1.011.229.742.916.137-1.527 1.279-1.067.474-1.146.942-.381.54-.762 1.214-.23.606-.917c-.606 0-1.213 0-1.82 0l1.146-.534h.808l1.148-.383.133-.456-.404-.38-.471-.154.135-.459-.338-.686-.809.304.135-.61-.943-.534-.741 1.297.066.458-.741.307-.473.992-.203-.916-1.279-.535-.205-.686 1.688-.993.742-.687.066-.839-.403-.229-.539-.076-.338.84s-.563.109-.708.145c-1.853 1.707-5.594 5.391-6.463 12.344.035.16.631 1.096.631 1.096l1.416.839 1.415.382.607.766.944.686.539-.076.404.182v.124l-.539 1.45-.406.61.135.306-.336 1.145 1.214 2.213 1.214 1.068.539.764-.067 1.604.405.915-.405 1.755s-.032-.011.02.164c.052.178 2.161 1.347 2.296 1.248.133-.102.248-.191.248-.191l-.136-.38.538-.535.203-.534.877-.306.674-1.679-.201-.457.47-.688 1.013-.23.541-1.221-.136-1.525.809-1.145.136-1.146c-1.109-.552-2.207-1.116-3.306-1.681m-1.482-17.325l.674.457h.539v-.535l-.673-.304-.54.382m-1.754-.611l-.338.839h.675l.338-.763c.29-.205.58-.414.877-.611l.673.23c.45.305.9.609 1.35.916l.674-.611-.742-.305-.336-.688-1.281-.152-.068-.383-.607.154-.268.533-.338-.688-.136.306.069.764-.542.459m2.427-1.909l.336-.304.676-.152c.461-.226.925-.377 1.415-.537l-.269-.455-.871.123-.41.41-.679.099-.603.283-.294.142-.178.24.877.151m1.147 7.251l.404-.609-.607-.458.203 1.067"/><path fill="#999" d="M64.022 48.552l-2.159.624-1.937 6.778c-.031.117-.136.205-.261.228l-1.564.221c-.062.01-.131-.008-.192-.04-.018-.01-.033-.019-.056-.043-.067-.06-.113-.141-.105-.239l.012-5.719-3.474 1.002-.467 1.931c-.025.109-.105.19-.217.229l-1.287.372c-.081.024-.172.006-.242-.032-.009-.005-.009-.005-.017-.01-.082-.056-.132-.129-.146-.227l-.431-3.078-1.277-2.836c-.045-.081-.037-.177-.003-.261.034-.082.112-.142.197-.172l1.292-.38c.08-.024.174-.008.241.03.027.015.053.028.064.048l1.424 1.382 3.474-1.003-3.06-4.833c-.054-.087-.063-.192-.032-.289.033-.082.112-.162.206-.189l1.716-.495c.103-.023.227-.002.298.072l4.988 4.546 2.146-.62c1.288-.372 2.976-.162 3.224.696s-1.067 1.937-2.355 2.307zm-15.67 2.194c-10.306 1.044-17.864 10.027-17.277 20.269 0 0 1.751-18.356 18.372-19.373l-1.095-.896z"/><path d="M58.642 50.146l-.882.264-.012 5.67c-.008.099.038.18.105.239.022.024.038.033.056.043.062.032.131.05.192.04l.511-.112.03-6.144zm-6.162 1.403l-1.277-2.836c-.045-.081-.037-.177-.003-.261.034-.082.112-.142.197-.172l1.292-.38c.08-.024.174-.008.241.03.027.015.053.028.064.048l1.002.991 3.615-.999-2.779-4.446c-.054-.087-.063-.192-.032-.289.033-.082.112-.162.206-.189l1.716-.495c.103-.023.227-.002.298.072l4.942 4.201 2.058-.705c.733-.212 1.722.202 2.375.38.004-.086.006-.172-.018-.254-.248-.858-1.936-1.068-3.224-.696l-2.146.62-4.988-4.546c-.071-.074-.195-.096-.298-.072l-1.716.495c-.094.027-.173.107-.206.189-.03.097-.021.202.032.289l3.06 4.833-3.474 1.003-1.424-1.382c-.012-.02-.037-.033-.064-.048-.067-.038-.161-.055-.241-.03l-1.292.38c-.085.03-.163.09-.197.172-.034.084-.042.18.003.261l1.277 2.836.431 3.078c.014.098.063.171.146.227.008.005.008.005.017.01.07.038.161.057.242.032l.475-.137-.31-2.21z" fill="#666"/></svg>