<svg xmlns="http://www.w3.org/2000/svg" viewBox="0 0 100 125" enable-background="new 0 0 100 125"><style type="text/css">.st0{fill:#040006;}</style><path class="st0" d="M83.6 26.7c0-.8-.3-1.6-.9-2.2l-16.8-18c-.6-.7-1.5-1-2.4-1h-42c-2.9 0-5.3 2.4-5.3 5.3v79.3c0 2.9 2.4 5.3 5.3 5.3h56.9c2.9 0 5.3-2.4 5.3-5.3l-.1-63.4zm-42.3 49.8h-4.4l-3.4-4.9-3.1 4.9h-4.4l5.2-7.5-5.2-7.5h4.7l3.1 4.7 3.1-4.7h4.4l-5.4 7.2 5.4 7.8zm17.9 0h-3.9v-10.1l-2.8 6.5h-2.6l-2.9-6.5v10.1h-3.6v-15h4.7l3.4 7.5 3.4-7.5h4.4v15zm14.7 0h-10.8v-15h3.9v12.2h7v2.8zm5.1-48.8h-11c-2.9 0-5.3-2.4-5.3-5.3v-11.8c0-.3.4-.4.6-.2l16 16.7c.1.2 0 .6-.3.6z"/></svg>