<svg xmlns="http://www.w3.org/2000/svg" width="50" height="50" viewBox="0 0 50 50"><path fill="#fff" d="M44 25c0 10.498-8.502 19-19 19-10.493 0-19-8.502-19-19 0-10.493 8.507-19 19-19 10.498 0 19 8.507 19 19z"/><path fill="#2E67B1" d="M42 25c0 9.393-7.607 17-17 17-9.389 0-17-7.607-17-17 0-9.389 7.611-17 17-17 9.393 0 17 7.611 17 17z"/><path opacity=".3" enable-background="new" d="M24.982 25.891c2.688 0 4.875-2.195 4.875-4.89s-2.188-4.889-4.875-4.889-4.874 2.193-4.874 4.888 2.186 4.891 4.874 4.891zm7.998 6.545c-.264-1.652-1.402-4.172-3.531-5.213-1.102-.541-2.479.527-4.446.527-1.7 0-3.377-1.056-4.452-.527-2.128 1.041-3.27 3.561-3.532 5.213-.146.93.54 1.453 1.353 1.453h13.253c.814 0 1.502-.527 1.355-1.453z"/></svg>