<svg xmlns="http://www.w3.org/2000/svg" width="24" height="24" viewBox="0 0 24 24"><g opacity=".5"><circle cx="16.337" cy="19.798" r="2.012"/><circle cx="8.431" cy="19.798" r="2.012"/><path d="M20.411 7.974h-12.905c-.457 0-.915-.365-1.019-.812l-.344-1.495c-.103-.448-.547-.92-.984-1.048l-1.935-.582c-.439-.138-.904.122-1.036.559l-.153.506c-.131.436.119.903.557 1.03l.735.221c.438.13.881.599.984 1.051l2 8.641c.103.445.563.812 1.019.812h9.746c.457 0 .962-.347 1.124-.782l2.751-7.321c.159-.428-.082-.78-.54-.78z"/></g></svg>