<svg xmlns="http://www.w3.org/2000/svg" width="26" height="26" viewBox="0 0 26 26"><path fill="#E6C12E" d="M23.386 7c-2.134-3.701-6.118-6-10.396-6-2.093 0-4.164.556-5.987 1.607-2.776 1.604-4.761 4.192-5.59 7.287s-.401 6.329 1.204 9.105c2.133 3.701 6.115 6.001 10.392 6.001 2.095 0 4.164-.559 5.989-1.611 2.773-1.602 4.76-4.188 5.589-7.283.828-3.096.403-6.329-1.201-9.106z"/><path fill="#FDE500" d="M22.654 15.59c-.691 2.578-2.344 4.734-4.661 6.07-1.52.877-3.246 1.34-4.989 1.34-3.565 0-6.887-1.917-8.67-5.001-2.752-4.778-1.108-10.905 3.666-13.653 1.52-.879 3.248-1.346 4.99-1.346 3.563 0 6.884 1.917 8.664 5.003 1.336 2.313 1.694 5.007 1 7.587z"/><path fill="#D3AE2A" d="M11.738 13.582c0 .273.125.549.3.725l.075.074 3.275 3.275c.426.449 1.15.449 1.575 0 .425-.426.45-1.125 0-1.574l-2.975-2.977v-6.049c0-.574-.425-1.05-1.001-1.05h-.226c-.574 0-1.024.476-1.024 1.05v6.526z"/></svg>