<svg xmlns="http://www.w3.org/2000/svg" viewBox="-737 207 24 24" enable-background="new -737 207 24 24"><style type="text/css">.st0{fill:none;}</style><path d="M-718.7 212.9c-.1-.1-.5-.1-.6 0l-.7.8c-.1.1-.1.2-.1.4 0 .1 0 .2.1.4l4.3 4.4-4.3 4.4c-.1.1-.1.2-.1.4 0 .1 0 .2.1.4l.7.8c.1.1.2.1.4.1s.2 0 .4-.1l5.6-5.9c-.1 0-5.6-5.9-5.8-6.1zM-729.8 214.3c0-.1 0-.2-.1-.4l-.7-.8c-.1-.1-.5-.1-.6 0 0 0-5.6 5.9-5.7 6.1l5.6 5.9c.1.1.2.1.4.1s.2 0 .4-.1l.7-.8c.1-.1.1-.2.1-.4 0-.1 0-.2-.1-.4l-4.3-4.4 4.3-4.4v-.4zM-722.3 213.7c-.1-.1-.4 0-.5.1l-5.6 9.7c-.1.1 0 .4.1.5l1 .5s.2 0 .5-.1l5.6-9.7c.1-.1 0-.4-.1-.5l-1-.5z"/><path class="st0" d="M-737 207h24v24h-24v-24z"/></svg>