<svg xmlns="http://www.w3.org/2000/svg" width="100" height="100" viewBox="0 0 100 100"><path fill="#fff" d="M86.864 44.425c0-11.677-9.501-21.177-21.18-21.177-1.774 0-3.52.217-5.216.649-5.195-6.363-12.93-10.08-21.244-10.08-15.143 0-27.463 12.32-27.463 27.463 0 10.938 6.429 20.401 15.705 24.813l-.003-.032c1.433 11.173 10.973 19.809 22.534 19.809 12.126 0 22.032-9.499 22.69-21.46 8.247-2.898 14.177-10.759 14.177-19.985zm-25.977 24.316l-7.914 7.915c-1.838 1.835-4.096 1.852-5.95 0l-7.915-7.915c-1.542-1.542-1.739-3.87-.437-5.171 1.302-1.303 3.628-1.105 5.171.437l2.806 2.808v-16.02c0-2.181 1.507-3.966 3.348-3.966 1.843 0 3.349 1.785 3.349 3.966v16.02l2.807-2.808c1.541-1.542 3.869-1.739 5.17-.437 1.303 1.301 1.106 3.629-.435 5.171zm10.743-12.569c-2.944-9.14-11.515-15.754-21.633-15.754-10.497 0-19.327 7.119-21.938 16.79-5.012-3.524-8.297-9.347-8.297-15.926 0-10.732 8.731-19.463 19.463-19.463 6.639 0 12.761 3.352 16.375 8.966 1.055 1.639 3.14 2.282 4.934 1.514 1.632-.697 3.365-1.05 5.151-1.05 7.267 0 13.179 5.912 13.179 13.178-.001 5.126-2.95 9.567-7.234 11.745z"/></svg>