<svg xmlns="http://www.w3.org/2000/svg" width="100" height="100" viewBox="0 0 100 100"><path fill="#FF433D" d="M75.722 24.278c-14.206-14.207-37.237-14.207-51.443 0-14.206 14.205-14.206 37.237 0 51.443s37.237 14.206 51.443 0 14.206-37.238 0-51.443z"/><path fill="#fff" d="M66.59 69.139c-1.383 1.383-3.645 1.383-5.028 0l-11.562-11.561-11.56 11.561c-1.383 1.383-3.645 1.383-5.028 0l-2.55-2.55c-1.383-1.384-1.383-3.646 0-5.028l11.561-11.561-11.562-11.56c-1.383-1.383-1.383-3.645 0-5.028l2.55-2.55c1.383-1.383 3.645-1.383 5.028 0l11.561 11.561 11.562-11.561c1.384-1.383 3.646-1.383 5.028 0l2.55 2.55c1.383 1.383 1.383 3.645 0 5.028l-11.562 11.56 11.562 11.562c1.383 1.384 1.383 3.646 0 5.028l-2.55 2.549z"/></svg>