<svg xmlns="http://www.w3.org/2000/svg" width="24" height="24" viewBox="0 0 24 24"><path opacity=".3" enable-background="new" d="M18.986 5.514l.014.067c0 .335-.141.451-.254.589l-4.838 4.808h-.018v7.441c0 .321-.262.581-.582.581-.328 0-.445-.132-.578-.243l.49.491c.137.113.252.252.588.252.32 0 .582-.26.582-.581v-7.441h.018l4.838-4.808c.113-.138.254-.254.254-.589 0-.296-.227-.532-.514-.567z"/><path opacity=".5" fill="#fff" enable-background="new" d="M18.419 5h-12.837c-.321 0-.582.261-.582.581 0 .335.14.451.255.589l4.837 4.807v4.748c0 .272.01.397.17.563 1.22 1.22 2.458 2.461 2.458 2.462.137.111.253.25.589.25.321 0 .582-.26.582-.581v-7.441h.019l4.838-4.808c.111-.138.252-.254.252-.589 0-.32-.261-.581-.581-.581z"/></svg>