<svg xmlns="http://www.w3.org/2000/svg" width="16" height="16" viewBox="0 0 16 16"><path opacity=".6" fill="#fff" d="M8.423 4.667c-.275-.257-.723-.257-.997 0l-4.287 4.207c-.274.258-.499.763-.499 1.128v3.693c0 .363.319.658.707.658h2.564c.386 0 .703-.299.703-.658v-3.038c0-.367.318-.659.705-.659h1.212c.387 0 .705.294.705.659v3.038c0 .363.314.658.703.658h2.563c.395 0 .708-.299.708-.658v-3.693c0-.365-.226-.872-.496-1.128l-4.291-4.207zm7.481 2.911l-2.695-2.698v-2.775c0-.211-.176-.384-.384-.384h-1.534c-.211 0-.384.172-.384.384v.474l-2.355-2.354c-.298-.299-.786-.299-1.084 0l-7.354 7.353c-.479.477.673 1.629 1.15 1.15l6.203-6.204c.299-.299.787-.299 1.084 0l6.202 6.204c.433.431 1.581-.721 1.151-1.15z"/></svg>