<?xml version="1.0" standalone="no"?>
<!-- Generator: Adobe Fireworks 10, Export SVG Extension by Aaron Beall (http://fireworks.abeall.com) . Version: 0.6.1  -->
<!DOCTYPE svg PUBLIC "-//W3C//DTD SVG 1.1//EN" "http://www.w3.org/Graphics/SVG/1.1/DTD/svg11.dtd">
<svg id="Untitled-P%E1gina%201" viewBox="0 0 48 48" style="background-color:#ffffff00" version="1.1"
	xmlns="http://www.w3.org/2000/svg" xmlns:xlink="http://www.w3.org/1999/xlink" xml:space="preserve"
	x="0px" y="0px" width="48px" height="48px"
>
	<g id="Capa%201">
		<path d="M 7 24 C 7 14.611 14.611 7 24 7 C 33.389 7 41 14.611 41 24 C 41 33.389 33.389 41 24 41 C 14.611 41 7 33.389 7 24 ZM 4 24 C 4 35.0458 12.9542 44 24 44 C 35.0458 44 44 35.0458 44 24 C 44 12.9542 35.0458 4 24 4 C 12.9542 4 4 12.9542 4 24 ZM 21 16.5 C 21 17.8807 22.1193 19 23.5 19 C 24.8807 19 26 17.8807 26 16.5 C 26 15.1193 24.8807 14 23.5 14 C 22.1193 14 21 15.1193 21 16.5 ZM 26 22 L 19 22 L 19 24 L 21 24 L 21 34 L 26 34 L 26 22 Z" fill="#66b3ff"/>
	</g>
</svg>