<svg xmlns="http://www.w3.org/2000/svg" width="100" height="100" viewBox="0 0 100 100"><path opacity=".6" fill="#fff" d="M63.508 26.943c0 2.2-1.8 4-4 4h-32.103c-2.2 0-4-1.8-4-4v-1.114c0-2.2 1.8-4 4-4h32.103c2.2 0 4 1.8 4 4v1.114zm18.211 14.483v-33.513c0-2.2-1.8-4-4-4h-68.524c-2.2 0-4 1.8-4 4v73.401c0 2.201 1.8 4 4 4h32.697c5.489 6.582 13.749 10.772 22.989 10.772 16.527 0 29.924-13.397 29.924-29.924 0-10.281-5.188-19.35-13.086-24.736zm-46.762 24.737c0 3.522.613 6.899 1.731 10.038h-18.379c-2.2 0-4-1.801-4-4v-55.174c0-2.2 1.8-4 4-4h50.294c2.201 0 4 1.8 4 4v19.223c0 .338.045.684.108 1.031-2.497-.675-5.12-1.042-7.831-1.042-16.526 0-29.923 13.397-29.923 29.924zm35.895-4.058v6.631h-16.868c1.195 5.881 6.406 10.32 12.634 10.32 2.63 0 5.161-.789 7.317-2.279l.822-.569 3.771 5.454-.823.568c-3.271 2.262-7.104 3.457-11.089 3.457-10.768 0-19.525-8.76-19.525-19.524s8.76-19.525 19.525-19.525c3.982 0 7.816 1.195 11.089 3.458l.823.568-3.771 5.454-.822-.569c-2.156-1.49-4.688-2.279-7.317-2.279-5.691 0-10.525 3.711-12.229 8.838l16.463-.003z"/></svg>