<svg xmlns="http://www.w3.org/2000/svg" width="100" height="100" viewBox="0 0 100 100"><path fill="#fff" d="M44.923 60.471h-.162c-9.285-.109-17.237-6.824-18.909-15.966-.653-3.566-.255-7.106.955-10.307-.434.157-.87.312-1.285.51l-.285.148c-.501.253-.984.537-1.452.845l-.311.202c-.511.357-1 .751-1.464 1.176l-.289.283c-.416.403-.81.829-1.178 1.284l-.166.195c-.394.506-.749 1.052-1.076 1.617l-.219.399c-.318.592-.61 1.202-.847 1.848-2.723 7.437 1.095 15.671 8.532 18.398 1.104.404 2.228.647 3.348.771l4.187 9.027 5.405 1.98-1.98 5.404.038.081 5.404 1.979-1.98 5.405.038.079 5.404 1.98-1.794 4.904 9.356 3.43 3.611-9.867-4.924-10.635-7.057-15.201c-.301.015-.601.031-.9.031zm47.925 3.327l-10.964-7.577-20.629-14.25c.078-1.277.019-2.58-.219-3.896-.099-.526-.222-1.04-.365-1.542l-.157-.484c-.106-.336-.217-.667-.341-.99l-.233-.543c-.127-.29-.254-.58-.397-.857l-.291-.542c-.146-.265-.298-.527-.459-.782l-.342-.518c-.169-.248-.345-.49-.526-.726l-.373-.478c-.197-.235-.404-.463-.613-.688l-.393-.418c-.238-.239-.486-.464-.74-.688l-.355-.318c-.377-.318-.77-.62-1.176-.899l-.065-.04c-.386-.264-.784-.511-1.192-.743l-.438-.229c-.29-.154-.585-.305-.89-.443l-.533-.219c-.28-.115-.564-.227-.854-.328l-.581-.186c-.287-.087-.575-.166-.865-.237l-.06-.015c-.221 5.877-2.575 11.433-6.81 15.667-.899.902-2.097 1.396-3.369 1.396-1.272 0-2.468-.495-3.37-1.396-1.857-1.857-1.857-4.88 0-6.739 2.277-2.275 3.635-5.185 3.977-8.299-7.209 2.733-11.679 10.282-10.242 18.138 1.425 7.795 8.183 13.271 15.821 13.361.352.004.708-.015 1.063-.03l.5-.021c.522-.046 1.048-.111 1.576-.208 1.314-.241 2.556-.647 3.726-1.174l9.303 6.43 6.438-1.178 1.178 6.436.079.059 6.437-1.178 1.174 6.438.084.057 6.437-1.176 1.067 5.835 11.134-2.039-2.152-11.743zm-55.361-27.458c-.621.621-.621 1.626 0 2.245.31.312.715.465 1.123.465.405 0 .811-.154 1.122-.465 4.68-4.68 6.576-11.084 5.737-17.183-.584-4.246-2.48-8.342-5.736-11.598-3.967-3.968-9.18-5.952-14.391-5.952-1.177 0-2.352.115-3.514.318l-.375.052c-.293.058-.583.144-.874.214-.347.082-.694.152-1.036.251l-.155.055c-2.228.679-4.353 1.762-6.284 3.219-.748.563-1.474 1.163-2.152 1.843-7.937 7.935-7.937 20.846 0 28.782 1.274 1.275 2.703 2.353 4.236 3.236l.064-.207c.265-.724.593-1.443 1.055-2.302l.214-.392c-1.201-.716-2.32-1.576-3.326-2.583-6.695-6.694-6.695-17.594 0-24.29 1.012-1.012 2.13-1.853 3.305-2.56.604-.362 1.229-.67 1.864-.952l.463-.198c.633-.26 1.274-.492 1.929-.672l.171-.04c.612-.164 1.233-.285 1.858-.378l.484-.069c.667-.081 1.337-.132 2.008-.135l.071-.005c.303 0 .603.02.905.038l.461.019c.486.039.973.096 1.455.176 2.674.442 5.257 1.52 7.515 3.228.625.474 1.235.977 1.805 1.547 2.688 2.688 4.277 6.055 4.807 9.554.791 5.218-.8 10.729-4.809 14.739z"/></svg>