<?xml version="1.0" encoding="utf-8"?>
<!-- Generator: Adobe Illustrator 20.1.0, SVG Export Plug-In . SVG Version: 6.00 Build 0)  -->
<svg version="1.1" id="Capa_1" xmlns="http://www.w3.org/2000/svg" xmlns:xlink="http://www.w3.org/1999/xlink" x="0px" y="0px"
	 viewBox="0 0 19.9 15.5" style="enable-background:new 0 0 19.9 15.5;" xml:space="preserve">
<style type="text/css">
	.st0{fill:#FFFFFF;}
	.st1{fill:#FEE600;stroke:#8B6C3F;stroke-width:0.5;stroke-miterlimit:10;}
</style>
<path class="st0" d="M0,4v7.5c0,2.2,1.8,4,4,4h8.3c1.3,0,2.4-0.5,3.2-1.6L19,9l0.8-1.2L19,6.6l-0.2-0.3c-1.5-2-2.9-4-3.2-4.4
	C15,0.7,13.7,0,12.2,0H3.9C1.7,0-0.1,1.8,0,4z"/>
<path class="st1" d="M3.9,14.5c-1.6,0-3-1.4-3-3V4c0-1.6,1.4-3,3-3h8.3c1.1,0,2.1,0.5,2.6,1.4C15,2.7,16.6,4.9,18,6.9l0.6,0.9
	l-4,5.5c-0.6,0.8-1.4,1.2-2.4,1.2C12.2,14.5,3.9,14.5,3.9,14.5z"/>
</svg>
