<?xml version="1.0" encoding="utf-8"?>
<!-- Generator: Adobe Illustrator 20.1.0, SVG Export Plug-In . SVG Version: 6.00 Build 0)  -->
<svg version="1.1" id="Capa_1" xmlns="http://www.w3.org/2000/svg" xmlns:xlink="http://www.w3.org/1999/xlink" x="0px" y="0px"
	 viewBox="0 0 19.9 15.5" style="enable-background:new 0 0 19.9 15.5;" xml:space="preserve">
<style type="text/css">
	.st0{fill:#FFFFFF;}
	.st1{fill:#FEE600;stroke:#8B6C3F;stroke-width:0.5;stroke-miterlimit:10;}
</style>
<path class="st0" d="M15.9,0H7.6C6.1,0,4.8,0.7,4.2,1.9C3.9,2.3,2.5,4.3,1,6.3L0.8,6.6L0,7.8L0.8,9l3.5,4.9c0.8,1.1,1.9,1.6,3.2,1.6
	h8.3c2.2,0,4-1.8,4-4V4C19.9,1.8,18.1,0,15.9,0z"/>
<path class="st1" d="M7.6,14.5c-1,0-1.8-0.4-2.4-1.2l-4-5.5l0.6-0.9c1.4-2,3-4.2,3.2-4.5C5.5,1.5,6.5,1,7.6,1h8.3c1.6,0,3,1.4,3,3
	v7.5c0,1.6-1.4,3-3,3C15.9,14.5,7.6,14.5,7.6,14.5z"/>
</svg>
