<svg xmlns="http://www.w3.org/2000/svg" width="24" height="24" viewBox="0 0 24 24"><path opacity=".6" fill="#fff" enable-background="new" d="M22.633 2.176c-.268-.113-.561-.176-.867-.176h-12.53c-1.23 0-2.236 1.006-2.236 2.235v2.47h2.236v-1.912c0-.307.25-.559.558-.559l11.412.001c.308 0 .56.251.56.558v13.412c0 .309-.252.559-.56.559l-11.412.002c-.308 0-.558-.252-.558-.56v-1.91h-2.236v2.47c0 1.228 1.006 2.234 2.236 2.234h12.53c.311 0 .604-.063.867-.176.801-.342 1.367-1.136 1.367-2.058v-14.531c0-.922-.566-1.718-1.367-2.059zm-7.876 5.047c-.389-.389-1.024-.389-1.414 0-.389.389-.389 1.025 0 1.414l1.829 1.829h-10.891c-.55 0-1 .45-1 1s.45 1 1 1h10.89l-1.828 1.829c-.389.389-.389 1.025 0 1.414.39.389 1.025.389 1.414 0l4.243-4.243-4.243-4.243z"/></svg>