<svg xmlns="http://www.w3.org/2000/svg" viewBox="-37 39 24 24" enable-background="new -37 39 24 24"><g><path d="M-22.2 46.2l4.2 4.3-4.2 4.2c-.4.4-1 .4-1.4 0-.4-.4-.4-1 0-1.4l1.8-1.8h-10.9c-.5 0-1-.5-1-1 0-.6.5-1 1-1h10.9l-1.8-1.8c-.4-.4-.4-1 0-1.4s1-.5 1.4-.1zM-15.8 57.8c.3 0 .6-.3.6-.6v-13.4c0-.3-.3-.6-.6-.6h-11.4c-.3 0-.6.3-.6.6v1.9h-2.2v-2.5c0-1.2 1-2.2 2.2-2.2h12.5c.3 0 .6.1.9.2.8.3 1.4 1.1 1.4 2v14.5c0 .9-.6 1.7-1.4 2.1-.3.1-.5.2-.9.2h-12.5c-1.2 0-2.2-1-2.2-2.2v-2.5h2.2v1.9c0 .3.3.6.6.6h11.4z"/></g></svg>