<svg xmlns="http://www.w3.org/2000/svg" width="24" height="24" viewBox="0 0 24 24"><path d="M16.343 14.295c-.389.389-.389 1.025 0 1.414.39.389 1.025.389 1.414 0l4.243-4.243-4.243-4.243c-.389-.389-1.024-.389-1.414 0-.389.389-.389 1.025 0 1.414l1.829 1.829h-9.891c-.551 0-1 .45-1 1s.449 1 1 1h9.89l-1.828 1.829zm-16.343-10.06v14.531c0 .922.566 1.717 1.369 2.061.265.111.558.173.865.173h7.53c1.23 0 2.236-1.006 2.236-2.234v-2.47h-2.236v1.91c0 .308-.25.56-.558.56l-6.412-.002c-.308 0-.56-.25-.56-.558v-13.412c0-.307.252-.558.56-.558l6.412-.002c.308 0 .558.252.558.559v1.912h2.236v-2.47c0-1.229-1.006-2.235-2.237-2.235h-7.529c-.307 0-.6.063-.867.176-.801.341-1.367 1.137-1.367 2.059z"/></svg>