<svg xmlns="http://www.w3.org/2000/svg" width="24" height="24" viewBox="0 0 24 24"><circle opacity=".5" fill="#fff" enable-background="new" cx="12" cy="18.5" r="2"/><circle opacity=".5" fill="#fff" enable-background="new" cx="12" cy="12" r="2"/><circle opacity=".5" fill="#fff" enable-background="new" cx="12" cy="5.5" r="2"/><path opacity=".8" enable-background="new" d="M13.641 17.359c.224.325.359.716.359 1.141 0 1.104-.896 2-2 2-.425 0-.816-.135-1.141-.359.362.518.961.859 1.641.859 1.104 0 2-.896 2-2 0-.68-.341-1.279-.859-1.641zm0-6.499c.224.324.359.716.359 1.14 0 1.104-.896 2-2 2-.425 0-.816-.135-1.141-.359.362.518.961.859 1.641.859 1.104 0 2-.896 2-2 0-.68-.341-1.279-.859-1.64zm-1.141-2.86c1.104 0 2-.896 2-2 0-.68-.341-1.279-.859-1.64.224.324.359.716.359 1.14 0 1.104-.896 2-2 2-.425 0-.816-.134-1.141-.36.362.519.961.86 1.641.86z"/></svg>