<svg xmlns="http://www.w3.org/2000/svg" width="16" height="16" viewBox="0 0 16 16"><path opacity=".7" enable-background="new" d="M8 2c-3.31 0-6 2.69-6 6 0 3.309 2.69 6 6 6 3.309 0 6-2.691 6-6 0-3.31-2.691-6-6-6zm3.193 6.824h-2.364v2.367c0 .301-.246.547-.547.547h-.554c-.303 0-.549-.246-.549-.547v-2.367h-2.366c-.3 0-.548-.247-.548-.546v-.556c0-.299.248-.547.548-.547h2.364v-2.363c0-.304.246-.548.549-.548h.556c.302 0 .548.246.548.548v2.364h2.362c.302 0 .547.248.547.546v.557c.001.299-.245.545-.546.545z"/></svg>