<svg xmlns="http://www.w3.org/2000/svg" width="16" height="16" viewBox="0 0 16 16"><path opacity=".5" fill="#fff" enable-background="new" d="M8 2c-3.309 0-6 2.691-6 6s2.691 6 6 6 6-2.691 6-6-2.691-6-6-6zm3.193 6.825h-2.365v2.366c0 .301-.246.547-.547.547h-.556c-.302 0-.548-.246-.548-.547v-2.366h-2.364c-.301 0-.549-.247-.549-.548v-.554c0-.302.248-.549.549-.549h2.364v-2.363c0-.303.246-.549.548-.549h.557c.301 0 .547.246.547.549v2.364h2.364c.302 0 .548.247.548.548v.555c-.001.301-.247.547-.548.547z"/></svg>