<svg xmlns="http://www.w3.org/2000/svg" width="24" height="24" viewBox="0 0 24 24"><path opacity=".6" fill="#fff" enable-background="new" d="M15.982 12.891c2.688 0 4.875-2.195 4.875-4.89s-2.188-4.889-4.875-4.889c-2.688 0-4.875 2.193-4.875 4.888s2.187 4.891 4.875 4.891zm7.998 6.545c-.265-1.651-1.402-4.172-3.531-5.213-1.102-.541-2.479.527-4.446.527-1.7 0-3.377-1.055-4.452-.527-2.128 1.041-3.27 3.562-3.532 5.213-.146.931.54 1.453 1.353 1.453h13.254c.813 0 1.501-.526 1.354-1.453zm-13.98-15.436h-4v-4h-2v4h-4v2h4v4h2v-4h4v-2z"/></svg>