<svg xmlns="http://www.w3.org/2000/svg" width="32" height="32" viewBox="0 0 32 32"><path opacity=".7" fill="#fff" d="M28 19.404v-8.404l-3.016 3.161c-2.775-2.7-6.718-3.426-10.305-1.863-3.725 1.631-5.914 5.225-5.66 9.301.259 4.07 2.887 7.366 6.79 8.504 3.504 1.021 6.978-.058 9.485-2.578.365-.36.521-.611.521-.611.004 0 .066-.165-.002-.228l-2.018-1.965c-.063-.06-.168-.06-.23 0 0 0-.592.654-.859.924-1.602 1.505-3.827 2.056-6.017 1.413-2.597-.76-4.348-2.949-4.519-5.662-.173-2.711 1.284-5.107 3.767-6.188 2.376-1.037 4.982-.568 6.832 1.21l-2.754 2.986h7.985z"/><path d="M6.23 21.25l.031-.607h-1.96c-.519 0-.943-.425-.943-.943v-15.399c0-.519.425-.943.943-.943h13.194c.519 0 .943.425.943.943v4.96c.808.014 1.596.105 2.357.271v-7.589c0-.519-.424-.943-.942-.943h-17.91c-.519 0-.943.424-.943.943v20.114c0 .519.424.943.943.943h4.429c-.084-.573-.142-1.154-.142-1.75zm.424-5.242c-.519 0-.943.424-.943.943s.424.943.943.943h.061c.19-.655.439-1.283.733-1.886h-.794zm0-3.065h2.929c.695-.723 1.48-1.354 2.337-1.886h-5.266c-.519 0-.943.424-.943.943-.001.519.424.943.943.943zm8.487-6.837h-8.487c-.519 0-.943.424-.943.943 0 .519.424.943.943.943h8.487c.519 0 .943-.424.943-.943 0-.519-.424-.943-.943-.943z" opacity=".6" fill="#fff"/><path d="M7 8h24v24h-24v-24zm1-9h36v36h-36v-36z" fill="none"/></svg>