<svg xmlns="http://www.w3.org/2000/svg" width="100" height="100" viewBox="0 0 100 100"><path fill="#fff" d="M76.967 25.065l-23.156-13.37c-2.097-1.21-5.525-1.21-7.621 0l-23.157 13.37c-2.096 1.21-8.21 11.801-8.21 14.221v26.74c0 2.42 1.715 5.391 3.81 6.6l23.157 13.371c2.096 1.211 14.325 1.209 16.421 0l23.157-13.371c2.096-1.209 3.812-4.18 3.812-6.6v-26.741c-.001-2.42-6.117-13.01-8.213-14.22z"/><path fill="#E4A428" d="M53.464 3.526c-1.905-1.1-5.023-1.1-6.928 0l-35.052 20.237c-1.905 1.1-3.464 3.8-3.464 6v40.473c0 2.201 1.559 4.899 3.464 6l35.052 20.238c1.905 1.1 5.022 1.1 6.928 0l35.052-20.238c1.905-1.101 3.465-3.799 3.465-6v-40.473c0-2.2-1.56-4.9-3.465-6l-35.052-20.237zm21.052 23.701c1.905 1.1 1.905 2.9 0 4l-21.052 12.154c-1.905 1.1-5.023 1.1-6.928 0l-21.052-12.154c-1.905-1.1-1.905-2.9 0-4l21.052-12.155c1.905-1.1 5.022-1.1 6.928 0l21.052 12.155zm-56.496 12.928c0-2.2 1.559-3.1 3.464-2l21.052 12.154c1.905 1.1 3.464 3.8 3.464 6v24.311c0 2.199-1.559 3.1-3.464 2l-21.052-12.156c-1.905-1.1-3.464-3.8-3.464-6v-24.309zm39.444 42.463c-1.905 1.1-3.464.2-3.464-2v-24.31c0-2.199 1.559-4.899 3.464-6l21.052-12.154c1.905-1.1 3.465-.2 3.465 2v24.309c0 2.2-1.56 4.9-3.465 6l-21.052 12.155z"/></svg>