<svg xmlns="http://www.w3.org/2000/svg" width="100" height="100" viewBox="0 0 100 100"><path opacity=".5" enable-background="new" d="M10 26.32c.278-7.46 4.456-14.438 12.97-18.092 8.346-3.589 16.362-2.295 23.268 3.794 3.225 2.845 6.153 6.024 9.2 9.069 8.545 8.534 17.074 17.072 25.617 25.612 1.729 1.73 1.74 2.37.092 4.167-2.642 2.885-3.229 2.897-5.984.146-10.916-10.931-21.83-21.863-32.74-32.795-4.267-4.277-9.32-5.885-15.149-4.078-9.887 3.076-13.355 15.881-6.328 23.513 4.018 4.364 8.314 8.477 12.507 12.667 10.745 10.764 21.51 21.499 32.243 32.265 2.666 2.681 5.754 4.147 9.609 3.832 3.836-.312 7.07-3.539 7.387-7.367.295-3.604-.868-6.646-3.392-9.17-10.993-11.024-22.016-22.024-33.01-33.038-.99-.986-2.109-1.635-3.541-1.674-2.942-.083-4.813 2.355-3.803 5.138.346.952 1.018 1.856 1.741 2.585 7.358 7.416 14.76 14.793 22.141 22.18 1.65 1.646 1.693 2.275.117 3.98-.663.709-1.411 1.34-2.168 1.951-.817.659-1.648.557-2.418-.148l-.615-.59c-7.468-7.475-14.918-14.974-22.431-22.411-3.125-3.094-4.564-6.746-3.726-11.046 1.698-8.739 11.669-11.489 18.043-6.692.651.491 1.243 1.05 1.822 1.626 10.814 10.807 21.598 21.631 32.439 32.406 3.974 3.953 6.197 8.576 6.106 14.24-.155 9.545-8.5 16.549-17.959 15.193-4.497-.646-8.22-2.618-11.397-5.788-14.612-14.592-29.224-29.18-43.833-43.77-4.389-4.385-6.837-9.614-6.808-17.705z"/></svg>