<svg xmlns="http://www.w3.org/2000/svg" width="24" height="24" viewBox="0 0 24 24"><path opacity=".6" fill="#fff" enable-background="new" d="M13.482 2.449c-4.322 0-7.84 3.518-7.84 7.842 0 1.845 1.241 4.047 1.241 4.047.259.46.166 1.143-.207 1.516l-3.721 3.724c-.374.374-.374.981 0 1.354l.339.34c.373.373.984.373 1.357 0l3.789-3.789c.374-.373 1.068-.488 1.543-.262 0 0 1.885.912 3.5.912 4.324 0 7.844-3.518 7.844-7.842s-3.516-7.842-7.845-7.842zm0 13.283c-3 0-5.439-2.441-5.439-5.441s2.441-5.441 5.439-5.441c3.002 0 5.44 2.441 5.44 5.441s-2.438 5.441-5.44 5.441z"/></svg>