<svg xmlns="http://www.w3.org/2000/svg" width="24" height="24" viewBox="0 0 24 24"><path opacity=".3" enable-background="new" d="M13.336 3.403c-3.892 0-7.058 3.166-7.058 7.058 0 1.66 1.116 3.642 1.116 3.642.233.414.149 1.029-.187 1.365l-3.349 3.348c-.338.338-.338.888 0 1.224l.306.306c.336.336.886.336 1.221 0l3.41-3.41c.336-.336.961-.441 1.389-.234 0 0 1.697.82 3.15.82 3.893 0 7.059-3.166 7.059-7.059s-3.163-7.06-7.057-7.06zm0 11.955c-2.699 0-4.896-2.197-4.896-4.897s2.197-4.897 4.896-4.897c2.701 0 4.897 2.197 4.897 4.897s-2.196 4.897-4.897 4.897z"/></svg>