<svg xmlns="http://www.w3.org/2000/svg" width="24" height="24" viewBox="0 0 24 24"><path enable-background="new" d="M6.1 15.411c0 .551 1 .551 1 0v-8h-1v8zm1-14.999c0-.55-1-.55-1 0v2h1v-2zM7.72 3.412h-2.241c-.263 0-.479.271-.479.6v1.801c0 .329.216.6.479.6h2.241c.263 0 .479-.271.479-.6v-1.801c.001-.329-.216-.6-.479-.6zM12.5.412c0-.55-1-.55-1 0v8h1v-8zm-1 14.999c0 .551 1 .551 1 0v-2h-1v2zM13.12 9.411h-2.241c-.263 0-.479.271-.479.6v1.801c0 .33.216.6.479.6h2.241c.263 0 .479-.27.479-.6v-1.801c.001-.328-.216-.6-.479-.6zM18.1.412c0-.55-1-.55-1 0v5h1v-5zm-1 14.999c0 .551 1 .551 1 0v-5h-1v5zM18.721 6.412h-2.24c-.264 0-.48.271-.48.599v1.8c0 .33.217.6.479.6h2.242c.262 0 .479-.27.479-.6v-1.8c-.002-.328-.219-.599-.48-.599z"/></svg>