<svg xmlns="http://www.w3.org/2000/svg" width="40" height="152.324" viewBox="0 0 40 152.324"><g fill="#FFE600"><circle cx="16.991" cy="68.437" r="2.091"/><circle cx="8.778" cy="68.437" r="2.091"/><path d="M21.225 56.152h-13.408c-.475 0-.951-.379-1.058-.844l-.359-1.552c-.107-.466-.568-.957-1.022-1.09l-2.01-.604c-.456-.138-.94.127-1.077.58l-.158.53c-.137.453.123.938.578 1.07l.764.229c.455.133.915.623 1.022 1.09l2.078 8.975c.107.464.584.844 1.059.844h10.126c.474 0 .999-.362 1.168-.81l2.857-7.608c.166-.444-.085-.81-.56-.81z"/></g><g opacity=".5"><circle cx="16.991" cy="138.437" r="2.091"/><circle cx="8.778" cy="138.437" r="2.091"/><path d="M21.225 126.152h-13.408c-.475 0-.951-.379-1.058-.844l-.359-1.552c-.107-.466-.568-.957-1.022-1.09l-2.01-.604c-.456-.142-.94.127-1.077.58l-.158.526c-.137.453.123.938.578 1.07l.764.229c.455.134.915.622 1.022 1.091l2.078 8.977c.107.463.584.843 1.059.843h10.126c.474 0 .999-.36 1.168-.812l2.857-7.606c.166-.442-.085-.808-.56-.808z"/></g><g opacity=".6" fill="#fff"><circle cx="16.992" cy="18.012" r="2.091"/><circle cx="8.778" cy="18.012" r="2.091"/><path d="M21.225 5.727h-13.408c-.475 0-.951-.379-1.058-.844l-.359-1.552c-.107-.466-.568-.957-1.022-1.09l-2.01-.604c-.456-.138-.94.127-1.077.58l-.158.53c-.136.453.123.938.578 1.07l.764.229c.455.133.915.623 1.022 1.09l2.078 8.975c.107.464.584.844 1.059.844h10.126c.474 0 .999-.362 1.168-.81l2.856-7.608c.167-.444-.084-.81-.559-.81z"/></g></svg>