<svg xmlns="http://www.w3.org/2000/svg" width="18" height="52.327" viewBox="0 -34.327 18 52.327" enable-background="new 0 -34.327 18 52.327"><path opacity=".6" enable-background="new" d="M1 8.67l7.838 7.834c.103.107.258.17.416.17.163 0 .318-.063.423-.17l1.055-1.051c.111-.11.174-.264.174-.424 0-.162-.063-.31-.174-.42l-4.603-4.604h10.207c.349 0 .664-.283.664-.594v-1.485c0-.313-.315-.598-.664-.601h-10.208l4.603-4.598c.111-.109.173-.259.173-.419 0-.158-.062-.308-.173-.418l-1.054-1.054c-.212-.216-.626-.217-.839.001l-7.838 7.833z"/><path fill="#fff" enable-background="new" d="M1-25.33l7.838 7.834c.103.107.258.17.416.17.163 0 .318-.063.423-.17l1.055-1.051c.111-.11.174-.264.174-.424 0-.162-.063-.31-.174-.42l-4.603-4.604h10.207c.349 0 .664-.283.664-.594v-1.486c0-.313-.315-.598-.664-.601h-10.208l4.603-4.598c.111-.109.173-.259.173-.419 0-.158-.062-.308-.173-.418l-1.054-1.054c-.212-.216-.626-.217-.839.001l-7.838 7.834z"/></svg>