<svg xmlns="http://www.w3.org/2000/svg" width="24" height="24" viewBox="0 0 24 24"><path opacity=".6" fill="#fff" d="M21 8.52c-.211-1.101-3.447-6.52-4-6.52h-10s-3.789 5.419-4 6.52c-.131.68 1.13 2.023 2 2.328v5.152h-.5c-.276 0-.5.224-.5.5v3.5c0 .552.447 1 1 1h14s1-.448 1-1v-3.5c0-.276-.224-.5-.5-.5h-.5v-5.152c.87-.305 2.131-1.648 2-2.328zm-5.943-4.433l1.65 4.391c0 .78-.615 1.413-1.374 1.413-.761 0-1.376-.633-1.376-1.413l-.551-4.391h1.651zm-6.114 0h1.651l-.55 4.391c0 .78-.615 1.413-1.375 1.413s-1.376-.633-1.376-1.413l1.65-4.391zm8.557 11.913h-11v-5.463c.149-.111.288-.236.406-.381.404.501 1.016.821 1.698.821.682 0 1.292-.319 1.698-.821.405.501 1.016.821 1.698.821.682 0 1.292-.319 1.698-.821.405.501 1.016.821 1.698.821.682 0 1.293-.319 1.699-.821.117.146.256.27.404.381v5.463z"/></svg>