<svg xmlns="http://www.w3.org/2000/svg" width="100" height="100" viewBox="0 0 100 100"><path fill="#67B02C" d="M50.404 13.693c-20.104 0-36.377 16.274-36.377 36.377 0 20.1 16.273 36.375 36.377 36.375 20.1 0 36.375-16.275 36.375-36.375 0-20.102-16.275-36.377-36.375-36.377z"/><path fill="#fff" d="M70.924 43.673l-23.584 23.586c-1.411 1.363-3.193 2.064-4.883 2.058-1.651.009-3.438-.692-4.845-2.058l-7.718-7.733c-2.467-2.48-2.79-6.187-.688-8.254 2.083-2.112 5.795-1.772 8.268.707l4.983 4.979 20.873-20.879c2.48-2.47 6.186-2.774 8.253-.697 2.118 2.106 1.774 5.81-.659 8.291z"/></svg>