<svg xmlns="http://www.w3.org/2000/svg" width="16" height="16" viewBox="0 0 16 16"><path opacity=".6" fill="#fff" enable-background="new" d="M13.869 11.45c.086.086.131.196.131.32 0 .119-.045.229-.131.313l-.789.791c-.081.08-.199.126-.316.126-.121 0-.234-.046-.313-.128l-4.45-4.446-4.449 4.446c-.081.082-.195.127-.315.127s-.237-.047-.317-.129l-.789-.789c-.085-.083-.131-.192-.131-.311 0-.123.046-.23.131-.316l4.441-4.454v-.006l-4.441-4.452c-.085-.084-.131-.196-.131-.316 0-.121.045-.232.131-.314l.789-.792c.16-.16.473-.16.632.003l4.449 4.445 4.446-4.445c.16-.163.473-.163.633-.003l.789.792c.084.083.131.194.131.314s-.047.232-.131.314l-4.441 4.454v.005l4.441 4.451z"/></svg>