<svg xmlns="http://www.w3.org/2000/svg" width="100" height="100" viewBox="0 0 100 100"><path fill="#fff" d="M76.967 25.065l-23.156-13.37c-2.097-1.21-5.523-1.21-7.621 0l-23.157 13.37c-2.096 1.21-8.21 11.801-8.21 14.221v26.739c0 2.42 1.715 5.392 3.81 6.601l23.157 13.371c2.096 1.211 14.325 1.209 16.421 0l23.157-13.371c2.096-1.209 3.812-4.181 3.812-6.601v-26.74c0-2.42-6.117-13.01-8.213-14.22z"/><path fill="#E4A428" d="M88.516 23.764l-35.052-20.239c-1.905-1.1-5.023-1.1-6.928 0l-35.053 20.239c-1.904 1.1-3.464 3.799-3.464 6v40.472c0 2.201 1.56 4.9 3.464 6l35.053 20.238c1.904 1.101 5.022 1.101 6.928 0l35.052-20.238c1.905-1.1 3.465-3.799 3.465-6v-40.472c-.001-2.201-1.56-4.901-3.465-6zm-63.032 3.463l21.053-12.154c1.904-1.1 5.023-1.1 6.928 0l21.053 12.154c1.904 1.101 1.904 2.9 0 4l-7.012 4.048c-4.205-4.971-10.484-8.13-17.506-8.13-7.021 0-13.3 3.159-17.505 8.129l-7.011-4.047c-1.904-1.1-1.904-2.9 0-4zm32.202 22.952c-.248-.103-.49-.232-.727-.383l-.055-.031c-.233-.154-.455-.335-.666-.54l-.03-.026-2.831-2.831v16.157c0 2.199-6.754 2.199-6.754 0v-16.157l-2.831 2.831c-.219.219-.455.406-.7.568l-.036.021c-.24.154-.489.286-.744.392l.001.001c-1.33.551-2.797.399-3.736-.54-.562-.562-.83-1.314-.852-2.11-.007-.256.016-.517.062-.777l.012-.062c.044-.231.114-.461.2-.688l.052-.138c.084-.201.192-.396.31-.589l.103-.176c.152-.225.328-.44.527-.644l.027-.033 7.982-7.985c.68-.68 1.51-1.082 2.34-1.231l.32-.058.34-.004.34.004.32.058c.83.149 1.66.552 2.34 1.231l7.982 7.983c.213.213.396.441.556.679l.101.173c.118.192.228.388.312.589l.054.144c.084.225.154.451.198.68l.013.072c.045.256.067.512.061.763-.02.8-.287 1.555-.851 2.117-.942.94-2.41 1.091-3.74.54zm-15.15 32.439l-21.053-12.154c-1.904-1.1-3.464-3.8-3.464-6v-24.31c0-2.199 1.56-3.1 3.464-2l6.983 4.032c-.899 2.457-1.391 5.112-1.391 7.882 0 11.297 8.171 20.677 18.924 22.571v7.979c.001 2.2-1.559 3.1-3.463 2zm39.444-18.154c0 2.2-1.561 4.9-3.465 6l-21.051 12.154c-1.905 1.1-3.464.2-3.464-2v-7.979c10.753-1.894 18.924-11.272 18.924-22.57 0-2.77-.49-5.425-1.391-7.882l6.982-4.032c1.904-1.1 3.465-.199 3.465 2v24.309z"/></svg>