<svg xmlns="http://www.w3.org/2000/svg" width="24" height="24" viewBox="0 0 24 24"><path d="M4.602 8.76c-3.998 1.876-5.72 6.639-3.843 10.637 1.875 4 6.64 5.719 10.64 3.845 3.998-1.875 5.717-6.642 3.842-10.636-1.875-4.002-6.641-5.724-10.639-3.846zm4.237 6.513v1.444h-3.665c.319 1.298 1.491 2.261 2.889 2.261.824 0 1.569-.326 2.112-.869l1.183 1.18c-.844.844-2.008 1.37-3.295 1.37-2.568 0-4.651-2.081-4.651-4.66 0-2.572 2.083-4.651 4.651-4.651 1.287 0 2.451.512 3.295 1.355l-1.183 1.193c-.543-.545-1.288-.879-2.112-.879-1.396 0-2.568.959-2.889 2.256h3.665zm9.841-15.273l-5.326 5.328 3.987-.007-.001 6.979h2.663l.001-6.979h3.996l-5.32-5.321z" opacity=".5"/></svg>